<?xml version="1.0" encoding="UTF-8" standalone="no"?><svg xmlns="http://www.w3.org/2000/svg" xmlns:xlink="http://www.w3.org/1999/xlink" contentScriptType="application/ecmascript" contentStyleType="text/css" height="1034px" preserveAspectRatio="none" style="width:1297px;height:1034px;" version="1.1" viewBox="0 0 1297 1034" width="1297px" zoomAndPan="magnify"><defs><filter height="300%" id="fd905exfe6ioc" width="300%" x="-1" y="-1"><feGaussianBlur result="blurOut" stdDeviation="2.0"/><feColorMatrix in="blurOut" result="blurOut2" type="matrix" values="0 0 0 0 0 0 0 0 0 0 0 0 0 0 0 0 0 0 .4 0"/><feOffset dx="4.0" dy="4.0" in="blurOut2" result="blurOut3"/><feBlend in="SourceGraphic" in2="blurOut3" mode="normal"/></filter></defs><g><rect fill="#FFFFFF" filter="url(#fd905exfe6ioc)" height="162.2422" style="stroke: #A80036; stroke-width: 1.0;" width="10" x="215.5" y="117.7988"/><rect fill="#FFFFFF" filter="url(#fd905exfe6ioc)" height="124.9316" style="stroke: #A80036; stroke-width: 1.0;" width="10" x="220.5" y="155.1094"/><rect fill="#FFFFFF" filter="url(#fd905exfe6ioc)" height="336.0605" style="stroke: #A80036; stroke-width: 1.0;" width="10" x="215.5" y="316.3516"/><rect fill="#FFFFFF" filter="url(#fd905exfe6ioc)" height="176.5078" style="stroke: #A80036; stroke-width: 1.0;" width="10" x="220.5" y="353.6621"/><rect fill="#FFFFFF" filter="url(#fd905exfe6ioc)" height="247.4844" style="stroke: #A80036; stroke-width: 1.0;" width="10" x="215.5" y="681.7227"/><rect fill="#FFFFFF" filter="url(#fd905exfe6ioc)" height="210.1738" style="stroke: #A80036; stroke-width: 1.0;" width="10" x="220.5" y="719.0332"/><rect fill="#FFFFFF" filter="url(#fd905exfe6ioc)" height="100.9316" style="stroke: #A80036; stroke-width: 1.0;" width="10" x="667.5" y="551.4805"/><rect fill="#FFFFFF" filter="url(#fd905exfe6ioc)" height="149.5078" style="stroke: #000000; stroke-width: 2.0;" width="464" x="163" y="373.6621"/><rect fill="#FFFFFF" height="73.5762" style="stroke: none; stroke-width: 1.0;" width="464" x="163" y="449.5938"/><line style="stroke: #A80036; stroke-width: 1.0; stroke-dasharray: 5.0,5.0;" x1="26" x2="26" y1="86.4883" y2="947.207"/><line style="stroke: #A80036; stroke-width: 1.0; stroke-dasharray: 5.0,5.0;" x1="220" x2="220" y1="86.4883" y2="947.207"/><line style="stroke: #A80036; stroke-width: 1.0; stroke-dasharray: 5.0,5.0;" x1="456.5" x2="456.5" y1="86.4883" y2="947.207"/><line style="stroke: #A80036; stroke-width: 1.0; stroke-dasharray: 5.0,5.0;" x1="587" x2="587" y1="86.4883" y2="947.207"/><line style="stroke: #A80036; stroke-width: 1.0; stroke-dasharray: 5.0,5.0;" x1="672.5" x2="672.5" y1="86.4883" y2="947.207"/><line style="stroke: #A80036; stroke-width: 1.0; stroke-dasharray: 5.0,5.0;" x1="824" x2="824" y1="86.4883" y2="947.207"/><line style="stroke: #A80036; stroke-width: 1.0; stroke-dasharray: 5.0,5.0;" x1="957.5" x2="957.5" y1="86.4883" y2="947.207"/><line style="stroke: #A80036; stroke-width: 1.0; stroke-dasharray: 5.0,5.0;" x1="1086.5" x2="1086.5" y1="86.4883" y2="947.207"/><line style="stroke: #A80036; stroke-width: 1.0; stroke-dasharray: 5.0,5.0;" x1="1225.5" x2="1225.5" y1="86.4883" y2="947.207"/><text fill="#000000" font-family="sans-serif" font-size="14" lengthAdjust="spacingAndGlyphs" textLength="31" x="8" y="83.5352">User</text><ellipse cx="26.5" cy="13" fill="#FEFECE" filter="url(#fd905exfe6ioc)" rx="8" ry="8" style="stroke: #A80036; stroke-width: 2.0;"/><path d="M26.5,21 L26.5,48 M13.5,29 L39.5,29 M26.5,48 L13.5,63 M26.5,48 L39.5,63 " fill="none" filter="url(#fd905exfe6ioc)" style="stroke: #A80036; stroke-width: 2.0;"/><text fill="#000000" font-family="sans-serif" font-size="14" lengthAdjust="spacingAndGlyphs" textLength="31" x="8" y="959.7422">User</text><ellipse cx="26.5" cy="972.6953" fill="#FEFECE" filter="url(#fd905exfe6ioc)" rx="8" ry="8" style="stroke: #A80036; stroke-width: 2.0;"/><path d="M26.5,980.6953 L26.5,1007.6953 M13.5,988.6953 L39.5,988.6953 M26.5,1007.6953 L13.5,1022.6953 M26.5,1007.6953 L39.5,1022.6953 " fill="none" filter="url(#fd905exfe6ioc)" style="stroke: #A80036; stroke-width: 2.0;"/><rect fill="#FEFECE" filter="url(#fd905exfe6ioc)" height="30.4883" style="stroke: #A80036; stroke-width: 1.5;" width="91" x="173" y="51"/><text fill="#000000" font-family="sans-serif" font-size="14" lengthAdjust="spacingAndGlyphs" textLength="77" x="180" y="71.5352">AudioBlock</text><rect fill="#FEFECE" filter="url(#fd905exfe6ioc)" height="30.4883" style="stroke: #A80036; stroke-width: 1.5;" width="91" x="173" y="946.207"/><text fill="#000000" font-family="sans-serif" font-size="14" lengthAdjust="spacingAndGlyphs" textLength="77" x="180" y="966.7422">AudioBlock</text><rect fill="#FEFECE" filter="url(#fd905exfe6ioc)" height="30.4883" style="stroke: #A80036; stroke-width: 1.5;" width="100" x="404.5" y="51"/><text fill="#000000" font-family="sans-serif" font-size="14" lengthAdjust="spacingAndGlyphs" textLength="86" x="411.5" y="71.5352">EventEmitter</text><rect fill="#FEFECE" filter="url(#fd905exfe6ioc)" height="30.4883" style="stroke: #A80036; stroke-width: 1.5;" width="100" x="404.5" y="946.207"/><text fill="#000000" font-family="sans-serif" font-size="14" lengthAdjust="spacingAndGlyphs" textLength="86" x="411.5" y="966.7422">EventEmitter</text><rect fill="#FEFECE" filter="url(#fd905exfe6ioc)" height="30.4883" style="stroke: #A80036; stroke-width: 1.5;" width="55" x="558" y="51"/><text fill="#000000" font-family="sans-serif" font-size="14" lengthAdjust="spacingAndGlyphs" textLength="41" x="565" y="71.5352">Editor</text><rect fill="#FEFECE" filter="url(#fd905exfe6ioc)" height="30.4883" style="stroke: #A80036; stroke-width: 1.5;" width="55" x="558" y="946.207"/><text fill="#000000" font-family="sans-serif" font-size="14" lengthAdjust="spacingAndGlyphs" textLength="41" x="565" y="966.7422">Editor</text><rect fill="#FEFECE" filter="url(#fd905exfe6ioc)" height="30.4883" style="stroke: #A80036; stroke-width: 1.5;" width="52" x="644.5" y="51"/><text fill="#000000" font-family="sans-serif" font-size="14" lengthAdjust="spacingAndGlyphs" textLength="38" x="651.5" y="71.5352">Track</text><rect fill="#FEFECE" filter="url(#fd905exfe6ioc)" height="30.4883" style="stroke: #A80036; stroke-width: 1.5;" width="52" x="644.5" y="946.207"/><text fill="#000000" font-family="sans-serif" font-size="14" lengthAdjust="spacingAndGlyphs" textLength="38" x="651.5" y="966.7422">Track</text><rect fill="#FEFECE" filter="url(#fd905exfe6ioc)" height="30.4883" style="stroke: #A80036; stroke-width: 1.5;" width="115" x="765" y="51"/><text fill="#000000" font-family="sans-serif" font-size="14" lengthAdjust="spacingAndGlyphs" textLength="101" x="772" y="71.5352">ChannelAction</text><rect fill="#FEFECE" filter="url(#fd905exfe6ioc)" height="30.4883" style="stroke: #A80036; stroke-width: 1.5;" width="115" x="765" y="946.207"/><text fill="#000000" font-family="sans-serif" font-size="14" lengthAdjust="spacingAndGlyphs" textLength="101" x="772" y="966.7422">ChannelAction</text><rect fill="#FEFECE" filter="url(#fd905exfe6ioc)" height="30.4883" style="stroke: #A80036; stroke-width: 1.5;" width="104" x="903.5" y="51"/><text fill="#000000" font-family="sans-serif" font-size="14" lengthAdjust="spacingAndGlyphs" textLength="90" x="910.5" y="71.5352">ChannelSaga</text><rect fill="#FEFECE" filter="url(#fd905exfe6ioc)" height="30.4883" style="stroke: #A80036; stroke-width: 1.5;" width="104" x="903.5" y="946.207"/><text fill="#000000" font-family="sans-serif" font-size="14" lengthAdjust="spacingAndGlyphs" textLength="90" x="910.5" y="966.7422">ChannelSaga</text><rect fill="#FEFECE" filter="url(#fd905exfe6ioc)" height="30.4883" style="stroke: #A80036; stroke-width: 1.5;" width="126" x="1021.5" y="51"/><text fill="#000000" font-family="sans-serif" font-size="14" lengthAdjust="spacingAndGlyphs" textLength="112" x="1028.5" y="71.5352">AudioEffectSaga</text><rect fill="#FEFECE" filter="url(#fd905exfe6ioc)" height="30.4883" style="stroke: #A80036; stroke-width: 1.5;" width="126" x="1021.5" y="946.207"/><text fill="#000000" font-family="sans-serif" font-size="14" lengthAdjust="spacingAndGlyphs" textLength="112" x="1028.5" y="966.7422">AudioEffectSaga</text><rect fill="#FEFECE" filter="url(#fd905exfe6ioc)" height="30.4883" style="stroke: #A80036; stroke-width: 1.5;" width="125" x="1161.5" y="51"/><text fill="#000000" font-family="sans-serif" font-size="14" lengthAdjust="spacingAndGlyphs" textLength="111" x="1168.5" y="71.5352">AudioController</text><rect fill="#FEFECE" filter="url(#fd905exfe6ioc)" height="30.4883" style="stroke: #A80036; stroke-width: 1.5;" width="125" x="1161.5" y="946.207"/><text fill="#000000" font-family="sans-serif" font-size="14" lengthAdjust="spacingAndGlyphs" textLength="111" x="1168.5" y="966.7422">AudioController</text><rect fill="#FFFFFF" filter="url(#fd905exfe6ioc)" height="162.2422" style="stroke: #A80036; stroke-width: 1.0;" width="10" x="215.5" y="117.7988"/><rect fill="#FFFFFF" filter="url(#fd905exfe6ioc)" height="124.9316" style="stroke: #A80036; stroke-width: 1.0;" width="10" x="220.5" y="155.1094"/><rect fill="#FFFFFF" filter="url(#fd905exfe6ioc)" height="336.0605" style="stroke: #A80036; stroke-width: 1.0;" width="10" x="215.5" y="316.3516"/><rect fill="#FFFFFF" filter="url(#fd905exfe6ioc)" height="176.5078" style="stroke: #A80036; stroke-width: 1.0;" width="10" x="220.5" y="353.6621"/><rect fill="#FFFFFF" filter="url(#fd905exfe6ioc)" height="247.4844" style="stroke: #A80036; stroke-width: 1.0;" width="10" x="215.5" y="681.7227"/><rect fill="#FFFFFF" filter="url(#fd905exfe6ioc)" height="210.1738" style="stroke: #A80036; stroke-width: 1.0;" width="10" x="220.5" y="719.0332"/><rect fill="#FFFFFF" filter="url(#fd905exfe6ioc)" height="100.9316" style="stroke: #A80036; stroke-width: 1.0;" width="10" x="667.5" y="551.4805"/><polygon fill="#A80036" points="203.5,113.7988,213.5,117.7988,203.5,121.7988,207.5,117.7988" style="stroke: #A80036; stroke-width: 1.0;"/><line style="stroke: #A80036; stroke-width: 1.0;" x1="26.5" x2="209.5" y1="117.7988" y2="117.7988"/><text fill="#000000" font-family="sans-serif" font-size="13" lengthAdjust="spacingAndGlyphs" textLength="170" x="33.5" y="113.0566">user mouse down on block</text><line style="stroke: #A80036; stroke-width: 1.0;" x1="225.5" x2="272.5" y1="142.1094" y2="142.1094"/><line style="stroke: #A80036; stroke-width: 1.0;" x1="272.5" x2="272.5" y1="142.1094" y2="155.1094"/><line style="stroke: #A80036; stroke-width: 1.0;" x1="231.5" x2="272.5" y1="155.1094" y2="155.1094"/><polygon fill="#A80036" points="241.5,151.1094,231.5,155.1094,241.5,159.1094,237.5,155.1094" style="stroke: #A80036; stroke-width: 1.0;"/><text fill="#000000" font-family="sans-serif" font-size="13" lengthAdjust="spacingAndGlyphs" textLength="135" x="237.5" y="137.3672">mouseDownHandler()</text><line style="stroke: #A80036; stroke-width: 1.0;" x1="230.5" x2="272.5" y1="189.4199" y2="189.4199"/><line style="stroke: #A80036; stroke-width: 1.0;" x1="272.5" x2="272.5" y1="189.4199" y2="202.4199"/><line style="stroke: #A80036; stroke-width: 1.0;" x1="231.5" x2="272.5" y1="202.4199" y2="202.4199"/><polygon fill="#A80036" points="241.5,198.4199,231.5,202.4199,241.5,206.4199,237.5,202.4199" style="stroke: #A80036; stroke-width: 1.0;"/><text fill="#000000" font-family="sans-serif" font-size="13" lengthAdjust="spacingAndGlyphs" textLength="110" x="237.5" y="184.6777">setDragging(true)</text><line style="stroke: #A80036; stroke-width: 1.0;" x1="230.5" x2="272.5" y1="231.7305" y2="231.7305"/><line style="stroke: #A80036; stroke-width: 1.0;" x1="272.5" x2="272.5" y1="231.7305" y2="244.7305"/><line style="stroke: #A80036; stroke-width: 1.0;" x1="231.5" x2="272.5" y1="244.7305" y2="244.7305"/><polygon fill="#A80036" points="241.5,240.7305,231.5,244.7305,241.5,248.7305,237.5,244.7305" style="stroke: #A80036; stroke-width: 1.0;"/><text fill="#000000" font-family="sans-serif" font-size="13" lengthAdjust="spacingAndGlyphs" textLength="66" x="237.5" y="226.9883">initDrag(e)</text><line style="stroke: #A80036; stroke-width: 1.0;" x1="230.5" x2="272.5" y1="279.041" y2="279.041"/><line style="stroke: #A80036; stroke-width: 1.0;" x1="272.5" x2="272.5" y1="279.041" y2="292.041"/><line style="stroke: #A80036; stroke-width: 1.0;" x1="225.5" x2="272.5" y1="292.041" y2="292.041"/><polygon fill="#A80036" points="235.5,288.041,225.5,292.041,235.5,296.041,231.5,292.041" style="stroke: #A80036; stroke-width: 1.0;"/><text fill="#000000" font-family="sans-serif" font-size="13" lengthAdjust="spacingAndGlyphs" textLength="92" x="237.5" y="274.2988">draggingEffect</text><path d="M341,259.2305 L341,284.2305 L507,284.2305 L507,269.2305 L497,259.2305 L341,259.2305 " fill="#FBFB77" filter="url(#fd905exfe6ioc)" style="stroke: #A80036; stroke-width: 1.0;"/><path d="M497,259.2305 L497,269.2305 L507,269.2305 L497,259.2305 " fill="#FBFB77" style="stroke: #A80036; stroke-width: 1.0;"/><text fill="#000000" font-family="sans-serif" font-size="13" lengthAdjust="spacingAndGlyphs" textLength="145" x="347" y="276.7988">track block pos update</text><polygon fill="#A80036" points="203.5,312.3516,213.5,316.3516,203.5,320.3516,207.5,316.3516" style="stroke: #A80036; stroke-width: 1.0;"/><line style="stroke: #A80036; stroke-width: 1.0;" x1="26.5" x2="209.5" y1="316.3516" y2="316.3516"/><text fill="#000000" font-family="sans-serif" font-size="13" lengthAdjust="spacingAndGlyphs" textLength="80" x="33.5" y="311.6094">mouse move</text><line style="stroke: #A80036; stroke-width: 1.0;" x1="225.5" x2="272.5" y1="340.6621" y2="340.6621"/><line style="stroke: #A80036; stroke-width: 1.0;" x1="272.5" x2="272.5" y1="340.6621" y2="353.6621"/><line style="stroke: #A80036; stroke-width: 1.0;" x1="231.5" x2="272.5" y1="353.6621" y2="353.6621"/><polygon fill="#A80036" points="241.5,349.6621,231.5,353.6621,241.5,357.6621,237.5,353.6621" style="stroke: #A80036; stroke-width: 1.0;"/><text fill="#000000" font-family="sans-serif" font-size="13" lengthAdjust="spacingAndGlyphs" textLength="119" x="237.5" y="335.9199">mouseMoveEffect()</text><path d="M163,373.6621 L225,373.6621 L225,380.6621 L215,390.6621 L163,390.6621 L163,373.6621 " fill="#EEEEEE" style="stroke: #000000; stroke-width: 1.0;"/><rect fill="none" height="149.5078" style="stroke: #000000; stroke-width: 2.0;" width="464" x="163" y="373.6621"/><text fill="#000000" font-family="sans-serif" font-size="13" font-weight="bold" lengthAdjust="spacingAndGlyphs" textLength="17" x="178" y="387.2305">alt</text><text fill="#000000" font-family="sans-serif" font-size="11" font-weight="bold" lengthAdjust="spacingAndGlyphs" textLength="195" x="240" y="386.2969">[Mouse is in screen top or bottom]</text><polygon fill="#A80036" points="444.5,408.2832,454.5,412.2832,444.5,416.2832,448.5,412.2832" style="stroke: #A80036; stroke-width: 1.0;"/><line style="stroke: #A80036; stroke-width: 1.0;" x1="230.5" x2="450.5" y1="412.2832" y2="412.2832"/><text fill="#000000" font-family="sans-serif" font-size="13" lengthAdjust="spacingAndGlyphs" textLength="202" x="237.5" y="407.541">emit('editorRequestAutoScrollY')</text><polygon fill="#A80036" points="575.5,437.5938,585.5,441.5938,575.5,445.5938,579.5,441.5938" style="stroke: #A80036; stroke-width: 1.0;"/><line style="stroke: #A80036; stroke-width: 1.0;" x1="456.5" x2="581.5" y1="441.5938" y2="441.5938"/><text fill="#000000" font-family="sans-serif" font-size="13" lengthAdjust="spacingAndGlyphs" textLength="107" x="463.5" y="436.8516">autoScrollYEffect</text><line style="stroke: #000000; stroke-width: 1.0; stroke-dasharray: 2.0,2.0;" x1="163" x2="627" y1="450.5938" y2="450.5938"/><text fill="#000000" font-family="sans-serif" font-size="11" font-weight="bold" lengthAdjust="spacingAndGlyphs" textLength="143" x="168" y="461.2285">[Mouse is in middle area]</text><polygon fill="#A80036" points="444.5,481.8594,454.5,485.8594,444.5,489.8594,448.5,485.8594" style="stroke: #A80036; stroke-width: 1.0;"/><line style="stroke: #A80036; stroke-width: 1.0;" x1="230.5" x2="450.5" y1="485.8594" y2="485.8594"/><text fill="#000000" font-family="sans-serif" font-size="13" lengthAdjust="spacingAndGlyphs" textLength="194" x="237.5" y="481.1172">emit('editorCancelAutoScrollY')</text><polygon fill="#A80036" points="575.5,511.1699,585.5,515.1699,575.5,519.1699,579.5,515.1699" style="stroke: #A80036; stroke-width: 1.0;"/><line style="stroke: #A80036; stroke-width: 1.0;" x1="456.5" x2="581.5" y1="515.1699" y2="515.1699"/><text fill="#000000" font-family="sans-serif" font-size="13" lengthAdjust="spacingAndGlyphs" textLength="107" x="463.5" y="510.4277">autoScrollYEffect</text><polygon fill="#A80036" points="655.5,547.4805,665.5,551.4805,655.5,555.4805,659.5,551.4805" style="stroke: #A80036; stroke-width: 1.0;"/><line style="stroke: #A80036; stroke-width: 1.0;" x1="26.5" x2="661.5" y1="551.4805" y2="551.4805"/><text fill="#000000" font-family="sans-serif" font-size="13" lengthAdjust="spacingAndGlyphs" textLength="80" x="33.5" y="546.7383">mouse move</text><line style="stroke: #A80036; stroke-width: 1.0;" x1="677.5" x2="719.5" y1="580.791" y2="580.791"/><line style="stroke: #A80036; stroke-width: 1.0;" x1="719.5" x2="719.5" y1="580.791" y2="593.791"/><line style="stroke: #A80036; stroke-width: 1.0;" x1="678.5" x2="719.5" y1="593.791" y2="593.791"/><polygon fill="#A80036" points="688.5,589.791,678.5,593.791,688.5,597.791,684.5,593.791" style="stroke: #A80036; stroke-width: 1.0;"/><text fill="#000000" font-family="sans-serif" font-size="13" lengthAdjust="spacingAndGlyphs" textLength="128" x="684.5" y="576.0488">mouseOverHandler()</text><polygon fill="#A80036" points="467.5,619.1016,457.5,623.1016,467.5,627.1016,463.5,623.1016" style="stroke: #A80036; stroke-width: 1.0;"/><line style="stroke: #A80036; stroke-width: 1.0;" x1="461.5" x2="666.5" y1="623.1016" y2="623.1016"/><text fill="#000000" font-family="sans-serif" font-size="13" lengthAdjust="spacingAndGlyphs" textLength="187" x="473.5" y="618.3594">emit('editorTrackMouseEnter')</text><polygon fill="#A80036" points="231.5,648.4121,221.5,652.4121,231.5,656.4121,227.5,652.4121" style="stroke: #A80036; stroke-width: 1.0;"/><line style="stroke: #A80036; stroke-width: 1.0;" x1="225.5" x2="455.5" y1="652.4121" y2="652.4121"/><text fill="#000000" font-family="sans-serif" font-size="13" lengthAdjust="spacingAndGlyphs" textLength="134" x="237.5" y="647.6699">trackEnterEventEffect</text><polygon fill="#A80036" points="203.5,677.7227,213.5,681.7227,203.5,685.7227,207.5,681.7227" style="stroke: #A80036; stroke-width: 1.0;"/><line style="stroke: #A80036; stroke-width: 1.0;" x1="26.5" x2="209.5" y1="681.7227" y2="681.7227"/><text fill="#000000" font-family="sans-serif" font-size="13" lengthAdjust="spacingAndGlyphs" textLength="62" x="33.5" y="676.9805">mouse up</text><line style="stroke: #A80036; stroke-width: 1.0;" x1="225.5" x2="272.5" y1="706.0332" y2="706.0332"/><line style="stroke: #A80036; stroke-width: 1.0;" x1="272.5" x2="272.5" y1="706.0332" y2="719.0332"/><line style="stroke: #A80036; stroke-width: 1.0;" x1="231.5" x2="272.5" y1="719.0332" y2="719.0332"/><polygon fill="#A80036" points="241.5,715.0332,231.5,719.0332,241.5,723.0332,237.5,719.0332" style="stroke: #A80036; stroke-width: 1.0;"/><text fill="#000000" font-family="sans-serif" font-size="13" lengthAdjust="spacingAndGlyphs" textLength="103" x="237.5" y="701.291">mouseUpEffect()</text><polygon fill="#A80036" points="444.5,749.3438,454.5,753.3438,444.5,757.3438,448.5,753.3438" style="stroke: #A80036; stroke-width: 1.0;"/><line style="stroke: #A80036; stroke-width: 1.0;" x1="230.5" x2="450.5" y1="753.3438" y2="753.3438"/><text fill="#000000" font-family="sans-serif" font-size="13" lengthAdjust="spacingAndGlyphs" textLength="194" x="237.5" y="748.6016">emit('editorCancelAutoScrollX')</text><polygon fill="#A80036" points="575.5,778.6543,585.5,782.6543,575.5,786.6543,579.5,782.6543" style="stroke: #A80036; stroke-width: 1.0;"/><line style="stroke: #A80036; stroke-width: 1.0;" x1="456.5" x2="581.5" y1="782.6543" y2="782.6543"/><text fill="#000000" font-family="sans-serif" font-size="13" lengthAdjust="spacingAndGlyphs" textLength="107" x="463.5" y="777.9121">autoScrollXEffect</text><polygon fill="#A80036" points="444.5,807.9648,454.5,811.9648,444.5,815.9648,448.5,811.9648" style="stroke: #A80036; stroke-width: 1.0;"/><line style="stroke: #A80036; stroke-width: 1.0;" x1="230.5" x2="450.5" y1="811.9648" y2="811.9648"/><text fill="#000000" font-family="sans-serif" font-size="13" lengthAdjust="spacingAndGlyphs" textLength="115" x="237.5" y="807.2227">setDragging(false)</text><polygon fill="#A80036" points="812.5,837.2754,822.5,841.2754,812.5,845.2754,816.5,841.2754" style="stroke: #A80036; stroke-width: 1.0;"/><line style="stroke: #A80036; stroke-width: 1.0;" x1="230.5" x2="818.5" y1="841.2754" y2="841.2754"/><text fill="#000000" font-family="sans-serif" font-size="13" lengthAdjust="spacingAndGlyphs" textLength="80" x="237.5" y="836.5332">updateSlice()</text><polygon fill="#A80036" points="945.5,866.5859,955.5,870.5859,945.5,874.5859,949.5,870.5859" style="stroke: #A80036; stroke-width: 1.0;"/><line style="stroke: #A80036; stroke-width: 1.0;" x1="824.5" x2="951.5" y1="870.5859" y2="870.5859"/><text fill="#000000" font-family="sans-serif" font-size="13" lengthAdjust="spacingAndGlyphs" textLength="109" x="831.5" y="865.8438">updateSliceSaga()</text><polygon fill="#A80036" points="467.5,895.8965,457.5,899.8965,467.5,903.8965,463.5,899.8965" style="stroke: #A80036; stroke-width: 1.0;"/><line style="stroke: #A80036; stroke-width: 1.0;" x1="461.5" x2="1085.5" y1="899.8965" y2="899.8965"/><text fill="#000000" font-family="sans-serif" font-size="13" lengthAdjust="spacingAndGlyphs" textLength="206" x="473.5" y="895.1543">emit('CHANNEL_UPDATE_SLICE');</text><polygon fill="#A80036" points="1214,925.207,1224,929.207,1214,933.207,1218,929.207" style="stroke: #A80036; stroke-width: 1.0;"/><line style="stroke: #A80036; stroke-width: 1.0;" x1="456.5" x2="1220" y1="929.207" y2="929.207"/><text fill="#000000" font-family="sans-serif" font-size="13" lengthAdjust="spacingAndGlyphs" textLength="84" x="463.5" y="924.4648">updateSlice();</text><!--
@startuml
actor User

User -> AudioBlock: user mouse down on block
activate AudioBlock
AudioBlock -> AudioBlock: mouseDownHandler()
activate AudioBlock
AudioBlock -> AudioBlock: setDragging(true)
AudioBlock -> AudioBlock: initDrag(e)
AudioBlock -> AudioBlock: draggingEffect
note right: track block pos update
deactivate AudioBlock
deactivate AudioBlock

User -> AudioBlock: mouse move
activate AudioBlock
AudioBlock -> AudioBlock: mouseMoveEffect()
activate AudioBlock
alt Mouse is in screen top or bottom
  AudioBlock -> EventEmitter: emit('editorRequestAutoScrollY')
  EventEmitter -> Editor: autoScrollYEffect
else Mouse is in middle area
  AudioBlock -> EventEmitter: emit('editorCancelAutoScrollY')
  EventEmitter -> Editor: autoScrollYEffect
end
deactivate AudioBlock

User -> Track: mouse move
activate Track
  Track -> Track: mouseOverHandler()
  Track -> EventEmitter: emit('editorTrackMouseEnter')
  EventEmitter -> AudioBlock: trackEnterEventEffect
deactivate Track
deactivate AudioBlock


User -> AudioBlock: mouse up
activate AudioBlock
AudioBlock -> AudioBlock: mouseUpEffect()
activate AudioBlock
  AudioBlock -> EventEmitter: emit('editorCancelAutoScrollX')
  EventEmitter -> Editor: autoScrollXEffect
  AudioBlock -> EventEmitter: setDragging(false)
  AudioBlock -> ChannelAction: updateSlice()
  ChannelAction -> ChannelSaga: updateSliceSaga()
  AudioEffectSaga -> EventEmitter: emit('CHANNEL_UPDATE_SLICE');
  EventEmitter -> AudioController: updateSlice();
deactivate AudioBlock
deactivate AudioBlock

@enduml

PlantUML version 1.2019.09(Tue Aug 27 00:19:51 CST 2019)
(GPL source distribution)
Java Runtime: OpenJDK Runtime Environment
JVM: OpenJDK 64-Bit Server VM
Java Version: 13.0.2+8
Operating System: Mac OS X
OS Version: 10.14.6
Default Encoding: UTF-8
Language: zh
Country: CN
--></g></svg>