<?xml version="1.0" encoding="UTF-8" standalone="no"?><svg xmlns="http://www.w3.org/2000/svg" xmlns:xlink="http://www.w3.org/1999/xlink" contentScriptType="application/ecmascript" contentStyleType="text/css" height="841px" preserveAspectRatio="none" style="width:1264px;height:841px;" version="1.1" viewBox="0 0 1264 841" width="1264px" zoomAndPan="magnify"><defs><filter height="300%" id="f1tvv40lxuwg6" width="300%" x="-1" y="-1"><feGaussianBlur result="blurOut" stdDeviation="2.0"/><feColorMatrix in="blurOut" result="blurOut2" type="matrix" values="0 0 0 0 0 0 0 0 0 0 0 0 0 0 0 0 0 0 .4 0"/><feOffset dx="4.0" dy="4.0" in="blurOut2" result="blurOut3"/><feBlend in="SourceGraphic" in2="blurOut3" mode="normal"/></filter></defs><g><rect fill="#FFFFFF" filter="url(#f1tvv40lxuwg6)" height="71.6211" style="stroke: #A80036; stroke-width: 1.0;" width="10" x="145.5" y="117.7988"/><rect fill="#FFFFFF" filter="url(#f1tvv40lxuwg6)" height="34.3105" style="stroke: #A80036; stroke-width: 1.0;" width="10" x="150.5" y="155.1094"/><rect fill="#FFFFFF" filter="url(#f1tvv40lxuwg6)" height="77.6211" style="stroke: #A80036; stroke-width: 1.0;" width="10" x="458" y="218.7305"/><rect fill="#FFFFFF" filter="url(#f1tvv40lxuwg6)" height="40.3105" style="stroke: #A80036; stroke-width: 1.0;" width="10" x="463" y="256.041"/><rect fill="#FFFFFF" filter="url(#f1tvv40lxuwg6)" height="35.3105" style="stroke: #A80036; stroke-width: 1.0;" width="10" x="458" y="332.6621"/><rect fill="#FFFFFF" filter="url(#f1tvv40lxuwg6)" height="218.1738" style="stroke: #A80036; stroke-width: 1.0;" width="10" x="458" y="404.2832"/><rect fill="#FFFFFF" filter="url(#f1tvv40lxuwg6)" height="180.8633" style="stroke: #A80036; stroke-width: 1.0;" width="10" x="463" y="441.5938"/><rect fill="#FFFFFF" filter="url(#f1tvv40lxuwg6)" height="77.6211" style="stroke: #A80036; stroke-width: 1.0;" width="10" x="458" y="651.7676"/><rect fill="#FFFFFF" filter="url(#f1tvv40lxuwg6)" height="40.3105" style="stroke: #A80036; stroke-width: 1.0;" width="10" x="463" y="689.0781"/><line style="stroke: #A80036; stroke-width: 1.0; stroke-dasharray: 5.0,5.0;" x1="26" x2="26" y1="86.4883" y2="754.3887"/><line style="stroke: #A80036; stroke-width: 1.0; stroke-dasharray: 5.0,5.0;" x1="150.5" x2="150.5" y1="86.4883" y2="754.3887"/><line style="stroke: #A80036; stroke-width: 1.0; stroke-dasharray: 5.0,5.0;" x1="333.5" x2="333.5" y1="86.4883" y2="754.3887"/><line style="stroke: #A80036; stroke-width: 1.0; stroke-dasharray: 5.0,5.0;" x1="462.5" x2="462.5" y1="86.4883" y2="754.3887"/><line style="stroke: #A80036; stroke-width: 1.0; stroke-dasharray: 5.0,5.0;" x1="716.5" x2="716.5" y1="86.4883" y2="754.3887"/><line style="stroke: #A80036; stroke-width: 1.0; stroke-dasharray: 5.0,5.0;" x1="840.5" x2="840.5" y1="86.4883" y2="754.3887"/><line style="stroke: #A80036; stroke-width: 1.0; stroke-dasharray: 5.0,5.0;" x1="1066.5" x2="1066.5" y1="86.4883" y2="754.3887"/><line style="stroke: #A80036; stroke-width: 1.0; stroke-dasharray: 5.0,5.0;" x1="1192.5" x2="1192.5" y1="86.4883" y2="754.3887"/><text fill="#000000" font-family="sans-serif" font-size="14" lengthAdjust="spacingAndGlyphs" textLength="31" x="8" y="83.5352">User</text><ellipse cx="26.5" cy="13" fill="#FEFECE" filter="url(#f1tvv40lxuwg6)" rx="8" ry="8" style="stroke: #A80036; stroke-width: 2.0;"/><path d="M26.5,21 L26.5,48 M13.5,29 L39.5,29 M26.5,48 L13.5,63 M26.5,48 L39.5,63 " fill="none" filter="url(#f1tvv40lxuwg6)" style="stroke: #A80036; stroke-width: 2.0;"/><text fill="#000000" font-family="sans-serif" font-size="14" lengthAdjust="spacingAndGlyphs" textLength="31" x="8" y="766.9238">User</text><ellipse cx="26.5" cy="779.877" fill="#FEFECE" filter="url(#f1tvv40lxuwg6)" rx="8" ry="8" style="stroke: #A80036; stroke-width: 2.0;"/><path d="M26.5,787.877 L26.5,814.877 M13.5,795.877 L39.5,795.877 M26.5,814.877 L13.5,829.877 M26.5,814.877 L39.5,829.877 " fill="none" filter="url(#f1tvv40lxuwg6)" style="stroke: #A80036; stroke-width: 2.0;"/><rect fill="#FEFECE" filter="url(#f1tvv40lxuwg6)" height="30.4883" style="stroke: #A80036; stroke-width: 1.5;" width="96" x="100.5" y="51"/><text fill="#000000" font-family="sans-serif" font-size="14" lengthAdjust="spacingAndGlyphs" textLength="82" x="107.5" y="71.5352">FunctionBar</text><rect fill="#FEFECE" filter="url(#f1tvv40lxuwg6)" height="30.4883" style="stroke: #A80036; stroke-width: 1.5;" width="96" x="100.5" y="753.3887"/><text fill="#000000" font-family="sans-serif" font-size="14" lengthAdjust="spacingAndGlyphs" textLength="82" x="107.5" y="773.9238">FunctionBar</text><rect fill="#FEFECE" filter="url(#f1tvv40lxuwg6)" height="30.4883" style="stroke: #A80036; stroke-width: 1.5;" width="140" x="261.5" y="51"/><text fill="#000000" font-family="sans-serif" font-size="14" lengthAdjust="spacingAndGlyphs" textLength="126" x="268.5" y="71.5352">FunctionBarAction</text><rect fill="#FEFECE" filter="url(#f1tvv40lxuwg6)" height="30.4883" style="stroke: #A80036; stroke-width: 1.5;" width="140" x="261.5" y="753.3887"/><text fill="#000000" font-family="sans-serif" font-size="14" lengthAdjust="spacingAndGlyphs" textLength="126" x="268.5" y="773.9238">FunctionBarAction</text><rect fill="#FEFECE" filter="url(#f1tvv40lxuwg6)" height="30.4883" style="stroke: #A80036; stroke-width: 1.5;" width="91" x="415.5" y="51"/><text fill="#000000" font-family="sans-serif" font-size="14" lengthAdjust="spacingAndGlyphs" textLength="77" x="422.5" y="71.5352">AudioBlock</text><rect fill="#FEFECE" filter="url(#f1tvv40lxuwg6)" height="30.4883" style="stroke: #A80036; stroke-width: 1.5;" width="91" x="415.5" y="753.3887"/><text fill="#000000" font-family="sans-serif" font-size="14" lengthAdjust="spacingAndGlyphs" textLength="77" x="422.5" y="773.9238">AudioBlock</text><rect fill="#FEFECE" filter="url(#f1tvv40lxuwg6)" height="30.4883" style="stroke: #A80036; stroke-width: 1.5;" width="115" x="657.5" y="51"/><text fill="#000000" font-family="sans-serif" font-size="14" lengthAdjust="spacingAndGlyphs" textLength="101" x="664.5" y="71.5352">ChannelAction</text><rect fill="#FEFECE" filter="url(#f1tvv40lxuwg6)" height="30.4883" style="stroke: #A80036; stroke-width: 1.5;" width="115" x="657.5" y="753.3887"/><text fill="#000000" font-family="sans-serif" font-size="14" lengthAdjust="spacingAndGlyphs" textLength="101" x="664.5" y="773.9238">ChannelAction</text><rect fill="#FEFECE" filter="url(#f1tvv40lxuwg6)" height="30.4883" style="stroke: #A80036; stroke-width: 1.5;" width="104" x="786.5" y="51"/><text fill="#000000" font-family="sans-serif" font-size="14" lengthAdjust="spacingAndGlyphs" textLength="90" x="793.5" y="71.5352">ChannelSaga</text><rect fill="#FEFECE" filter="url(#f1tvv40lxuwg6)" height="30.4883" style="stroke: #A80036; stroke-width: 1.5;" width="104" x="786.5" y="753.3887"/><text fill="#000000" font-family="sans-serif" font-size="14" lengthAdjust="spacingAndGlyphs" textLength="90" x="793.5" y="773.9238">ChannelSaga</text><rect fill="#FEFECE" filter="url(#f1tvv40lxuwg6)" height="30.4883" style="stroke: #A80036; stroke-width: 1.5;" width="100" x="1014.5" y="51"/><text fill="#000000" font-family="sans-serif" font-size="14" lengthAdjust="spacingAndGlyphs" textLength="86" x="1021.5" y="71.5352">EventEmitter</text><rect fill="#FEFECE" filter="url(#f1tvv40lxuwg6)" height="30.4883" style="stroke: #A80036; stroke-width: 1.5;" width="100" x="1014.5" y="753.3887"/><text fill="#000000" font-family="sans-serif" font-size="14" lengthAdjust="spacingAndGlyphs" textLength="86" x="1021.5" y="773.9238">EventEmitter</text><rect fill="#FEFECE" filter="url(#f1tvv40lxuwg6)" height="30.4883" style="stroke: #A80036; stroke-width: 1.5;" width="125" x="1128.5" y="51"/><text fill="#000000" font-family="sans-serif" font-size="14" lengthAdjust="spacingAndGlyphs" textLength="111" x="1135.5" y="71.5352">AudioController</text><rect fill="#FEFECE" filter="url(#f1tvv40lxuwg6)" height="30.4883" style="stroke: #A80036; stroke-width: 1.5;" width="125" x="1128.5" y="753.3887"/><text fill="#000000" font-family="sans-serif" font-size="14" lengthAdjust="spacingAndGlyphs" textLength="111" x="1135.5" y="773.9238">AudioController</text><rect fill="#FFFFFF" filter="url(#f1tvv40lxuwg6)" height="71.6211" style="stroke: #A80036; stroke-width: 1.0;" width="10" x="145.5" y="117.7988"/><rect fill="#FFFFFF" filter="url(#f1tvv40lxuwg6)" height="34.3105" style="stroke: #A80036; stroke-width: 1.0;" width="10" x="150.5" y="155.1094"/><rect fill="#FFFFFF" filter="url(#f1tvv40lxuwg6)" height="77.6211" style="stroke: #A80036; stroke-width: 1.0;" width="10" x="458" y="218.7305"/><rect fill="#FFFFFF" filter="url(#f1tvv40lxuwg6)" height="40.3105" style="stroke: #A80036; stroke-width: 1.0;" width="10" x="463" y="256.041"/><rect fill="#FFFFFF" filter="url(#f1tvv40lxuwg6)" height="35.3105" style="stroke: #A80036; stroke-width: 1.0;" width="10" x="458" y="332.6621"/><rect fill="#FFFFFF" filter="url(#f1tvv40lxuwg6)" height="218.1738" style="stroke: #A80036; stroke-width: 1.0;" width="10" x="458" y="404.2832"/><rect fill="#FFFFFF" filter="url(#f1tvv40lxuwg6)" height="180.8633" style="stroke: #A80036; stroke-width: 1.0;" width="10" x="463" y="441.5938"/><rect fill="#FFFFFF" filter="url(#f1tvv40lxuwg6)" height="77.6211" style="stroke: #A80036; stroke-width: 1.0;" width="10" x="458" y="651.7676"/><rect fill="#FFFFFF" filter="url(#f1tvv40lxuwg6)" height="40.3105" style="stroke: #A80036; stroke-width: 1.0;" width="10" x="463" y="689.0781"/><polygon fill="#A80036" points="133.5,113.7988,143.5,117.7988,133.5,121.7988,137.5,117.7988" style="stroke: #A80036; stroke-width: 1.0;"/><line style="stroke: #A80036; stroke-width: 1.0;" x1="26.5" x2="139.5" y1="117.7988" y2="117.7988"/><text fill="#000000" font-family="sans-serif" font-size="13" lengthAdjust="spacingAndGlyphs" textLength="100" x="33.5" y="113.0566">click cut button</text><line style="stroke: #A80036; stroke-width: 1.0;" x1="155.5" x2="202.5" y1="142.1094" y2="142.1094"/><line style="stroke: #A80036; stroke-width: 1.0;" x1="202.5" x2="202.5" y1="142.1094" y2="155.1094"/><line style="stroke: #A80036; stroke-width: 1.0;" x1="161.5" x2="202.5" y1="155.1094" y2="155.1094"/><polygon fill="#A80036" points="171.5,151.1094,161.5,155.1094,171.5,159.1094,167.5,155.1094" style="stroke: #A80036; stroke-width: 1.0;"/><text fill="#000000" font-family="sans-serif" font-size="13" lengthAdjust="spacingAndGlyphs" textLength="159" x="167.5" y="137.3672">cursorTypeClickHandler()</text><polygon fill="#A80036" points="321.5,185.4199,331.5,189.4199,321.5,193.4199,325.5,189.4199" style="stroke: #A80036; stroke-width: 1.0;"/><line style="stroke: #A80036; stroke-width: 1.0;" x1="150.5" x2="327.5" y1="189.4199" y2="189.4199"/><text fill="#000000" font-family="sans-serif" font-size="13" lengthAdjust="spacingAndGlyphs" textLength="146" x="157.5" y="184.6777">toggleCursorType('cut')</text><polygon fill="#A80036" points="446,214.7305,456,218.7305,446,222.7305,450,218.7305" style="stroke: #A80036; stroke-width: 1.0;"/><line style="stroke: #A80036; stroke-width: 1.0;" x1="26.5" x2="452" y1="218.7305" y2="218.7305"/><text fill="#000000" font-family="sans-serif" font-size="13" lengthAdjust="spacingAndGlyphs" textLength="78" x="33.5" y="213.9883">mouse enter</text><line style="stroke: #A80036; stroke-width: 1.0;" x1="468" x2="515" y1="243.041" y2="243.041"/><line style="stroke: #A80036; stroke-width: 1.0;" x1="515" x2="515" y1="243.041" y2="256.041"/><line style="stroke: #A80036; stroke-width: 1.0;" x1="474" x2="515" y1="256.041" y2="256.041"/><polygon fill="#A80036" points="484,252.041,474,256.041,484,260.041,480,256.041" style="stroke: #A80036; stroke-width: 1.0;"/><text fill="#000000" font-family="sans-serif" font-size="13" lengthAdjust="spacingAndGlyphs" textLength="147" x="480" y="238.2988">cutMouseOverHandler()</text><line style="stroke: #A80036; stroke-width: 1.0;" x1="473" x2="515" y1="295.3516" y2="295.3516"/><line style="stroke: #A80036; stroke-width: 1.0;" x1="515" x2="515" y1="295.3516" y2="308.3516"/><line style="stroke: #A80036; stroke-width: 1.0;" x1="468" x2="515" y1="308.3516" y2="308.3516"/><polygon fill="#A80036" points="478,304.3516,468,308.3516,478,312.3516,474,308.3516" style="stroke: #A80036; stroke-width: 1.0;"/><text fill="#000000" font-family="sans-serif" font-size="13" lengthAdjust="spacingAndGlyphs" textLength="111" x="480" y="290.6094">setCutHover(true)</text><polygon fill="#A80036" points="446,328.6621,456,332.6621,446,336.6621,450,332.6621" style="stroke: #A80036; stroke-width: 1.0;"/><line style="stroke: #A80036; stroke-width: 1.0;" x1="26.5" x2="452" y1="332.6621" y2="332.6621"/><text fill="#000000" font-family="sans-serif" font-size="13" lengthAdjust="spacingAndGlyphs" textLength="174" x="33.5" y="327.9199">mouse move in audio block</text><line style="stroke: #A80036; stroke-width: 1.0;" x1="468" x2="510" y1="366.9727" y2="366.9727"/><line style="stroke: #A80036; stroke-width: 1.0;" x1="510" x2="510" y1="366.9727" y2="379.9727"/><line style="stroke: #A80036; stroke-width: 1.0;" x1="463" x2="510" y1="379.9727" y2="379.9727"/><polygon fill="#A80036" points="473,375.9727,463,379.9727,473,383.9727,469,379.9727" style="stroke: #A80036; stroke-width: 1.0;"/><text fill="#000000" font-family="sans-serif" font-size="13" lengthAdjust="spacingAndGlyphs" textLength="151" x="475" y="362.2305">cutMouseMoveHandler()</text><path d="M638,347.1621 L638,372.1621 L789,372.1621 L789,357.1621 L779,347.1621 L638,347.1621 " fill="#FBFB77" filter="url(#f1tvv40lxuwg6)" style="stroke: #A80036; stroke-width: 1.0;"/><path d="M779,347.1621 L779,357.1621 L789,357.1621 L779,347.1621 " fill="#FBFB77" style="stroke: #A80036; stroke-width: 1.0;"/><text fill="#000000" font-family="sans-serif" font-size="13" lengthAdjust="spacingAndGlyphs" textLength="130" x="644" y="364.7305">update indicator pos</text><polygon fill="#A80036" points="446,400.2832,456,404.2832,446,408.2832,450,404.2832" style="stroke: #A80036; stroke-width: 1.0;"/><line style="stroke: #A80036; stroke-width: 1.0;" x1="26.5" x2="452" y1="404.2832" y2="404.2832"/><text fill="#000000" font-family="sans-serif" font-size="13" lengthAdjust="spacingAndGlyphs" textLength="124" x="33.5" y="399.541">click in audio block</text><line style="stroke: #A80036; stroke-width: 1.0;" x1="468" x2="515" y1="428.5938" y2="428.5938"/><line style="stroke: #A80036; stroke-width: 1.0;" x1="515" x2="515" y1="428.5938" y2="441.5938"/><line style="stroke: #A80036; stroke-width: 1.0;" x1="474" x2="515" y1="441.5938" y2="441.5938"/><polygon fill="#A80036" points="484,437.5938,474,441.5938,484,445.5938,480,441.5938" style="stroke: #A80036; stroke-width: 1.0;"/><text fill="#000000" font-family="sans-serif" font-size="13" lengthAdjust="spacingAndGlyphs" textLength="135" x="480" y="423.8516">mouseDownHandler()</text><polygon fill="#A80036" points="705,471.9043,715,475.9043,705,479.9043,709,475.9043" style="stroke: #A80036; stroke-width: 1.0;"/><line style="stroke: #A80036; stroke-width: 1.0;" x1="473" x2="711" y1="475.9043" y2="475.9043"/><text fill="#000000" font-family="sans-serif" font-size="13" lengthAdjust="spacingAndGlyphs" textLength="220" x="480" y="471.1621">splitSlice(channelId, sliceId, offset)</text><polygon fill="#A80036" points="828.5,501.2148,838.5,505.2148,828.5,509.2148,832.5,505.2148" style="stroke: #A80036; stroke-width: 1.0;"/><line style="stroke: #A80036; stroke-width: 1.0;" x1="717" x2="834.5" y1="505.2148" y2="505.2148"/><text fill="#000000" font-family="sans-serif" font-size="13" lengthAdjust="spacingAndGlyphs" textLength="94" x="724" y="500.4727">splitSliceSaga()</text><polygon fill="#A80036" points="1054.5,530.5254,1064.5,534.5254,1054.5,538.5254,1058.5,534.5254" style="stroke: #A80036; stroke-width: 1.0;"/><line style="stroke: #A80036; stroke-width: 1.0;" x1="840.5" x2="1060.5" y1="534.5254" y2="534.5254"/><text fill="#000000" font-family="sans-serif" font-size="13" lengthAdjust="spacingAndGlyphs" textLength="202" x="847.5" y="529.7832">emit('CHANNEL_UPDATE_SLICE')</text><polygon fill="#A80036" points="1181,559.8359,1191,563.8359,1181,567.8359,1185,563.8359" style="stroke: #A80036; stroke-width: 1.0;"/><line style="stroke: #A80036; stroke-width: 1.0;" x1="1066.5" x2="1187" y1="563.8359" y2="563.8359"/><text fill="#000000" font-family="sans-serif" font-size="13" lengthAdjust="spacingAndGlyphs" textLength="80" x="1073.5" y="559.0938">updateSlice()</text><polygon fill="#A80036" points="1054.5,589.1465,1064.5,593.1465,1054.5,597.1465,1058.5,593.1465" style="stroke: #A80036; stroke-width: 1.0;"/><line style="stroke: #A80036; stroke-width: 1.0;" x1="840.5" x2="1060.5" y1="593.1465" y2="593.1465"/><text fill="#000000" font-family="sans-serif" font-size="13" lengthAdjust="spacingAndGlyphs" textLength="181" x="847.5" y="588.4043">emit('CHANNEL_ADD_SLICE')</text><polygon fill="#A80036" points="1181,618.457,1191,622.457,1181,626.457,1185,622.457" style="stroke: #A80036; stroke-width: 1.0;"/><line style="stroke: #A80036; stroke-width: 1.0;" x1="1066.5" x2="1187" y1="622.457" y2="622.457"/><text fill="#000000" font-family="sans-serif" font-size="13" lengthAdjust="spacingAndGlyphs" textLength="60" x="1073.5" y="617.7148">addSlice()</text><polygon fill="#A80036" points="446,647.7676,456,651.7676,446,655.7676,450,651.7676" style="stroke: #A80036; stroke-width: 1.0;"/><line style="stroke: #A80036; stroke-width: 1.0;" x1="26.5" x2="452" y1="651.7676" y2="651.7676"/><text fill="#000000" font-family="sans-serif" font-size="13" lengthAdjust="spacingAndGlyphs" textLength="105" x="33.5" y="647.0254">mouse move out</text><line style="stroke: #A80036; stroke-width: 1.0;" x1="468" x2="515" y1="676.0781" y2="676.0781"/><line style="stroke: #A80036; stroke-width: 1.0;" x1="515" x2="515" y1="676.0781" y2="689.0781"/><line style="stroke: #A80036; stroke-width: 1.0;" x1="474" x2="515" y1="689.0781" y2="689.0781"/><polygon fill="#A80036" points="484,685.0781,474,689.0781,484,693.0781,480,689.0781" style="stroke: #A80036; stroke-width: 1.0;"/><text fill="#000000" font-family="sans-serif" font-size="13" lengthAdjust="spacingAndGlyphs" textLength="153" x="480" y="671.3359">cutMouseLeaveHandler()</text><line style="stroke: #A80036; stroke-width: 1.0;" x1="473" x2="515" y1="728.3887" y2="728.3887"/><line style="stroke: #A80036; stroke-width: 1.0;" x1="515" x2="515" y1="728.3887" y2="741.3887"/><line style="stroke: #A80036; stroke-width: 1.0;" x1="468" x2="515" y1="741.3887" y2="741.3887"/><polygon fill="#A80036" points="478,737.3887,468,741.3887,478,745.3887,474,741.3887" style="stroke: #A80036; stroke-width: 1.0;"/><text fill="#000000" font-family="sans-serif" font-size="13" lengthAdjust="spacingAndGlyphs" textLength="116" x="480" y="723.6465">setCutHover(false)</text><!--
@startuml
actor User

User -> FunctionBar: click cut button
activate FunctionBar
FunctionBar -> FunctionBar: cursorTypeClickHandler()
activate FunctionBar
FunctionBar -> FunctionBarAction: toggleCursorType('cut')
deactivate FunctionBar
deactivate FunctionBar

User -> AudioBlock: mouse enter
activate AudioBlock
AudioBlock -> AudioBlock: cutMouseOverHandler()
activate AudioBlock
AudioBlock -> AudioBlock: setCutHover(true)
deactivate AudioBlock
deactivate AudioBlock

User -> AudioBlock: mouse move in audio block
activate AudioBlock
AudioBlock -> AudioBlock: cutMouseMoveHandler()
note right: update indicator pos
deactivate AudioBlock

User -> AudioBlock: click in audio block
activate AudioBlock
AudioBlock -> AudioBlock: mouseDownHandler()
activate AudioBlock
AudioBlock -> ChannelAction: splitSlice(channelId, sliceId, offset)
ChannelAction -> ChannelSaga: splitSliceSaga()
ChannelSaga -> EventEmitter: emit('CHANNEL_UPDATE_SLICE')
EventEmitter -> AudioController: updateSlice()
ChannelSaga -> EventEmitter: emit('CHANNEL_ADD_SLICE')
EventEmitter -> AudioController: addSlice()
deactivate AudioBlock
deactivate AudioBlock

User -> AudioBlock: mouse move out
activate AudioBlock
AudioBlock -> AudioBlock: cutMouseLeaveHandler()
activate AudioBlock
AudioBlock -> AudioBlock: setCutHover(false)
deactivate AudioBlock
deactivate AudioBlock


@enduml

PlantUML version 1.2019.09(Tue Aug 27 00:19:51 CST 2019)
(GPL source distribution)
Java Runtime: OpenJDK Runtime Environment
JVM: OpenJDK 64-Bit Server VM
Java Version: 13.0.2+8
Operating System: Mac OS X
OS Version: 10.14.6
Default Encoding: UTF-8
Language: zh
Country: CN
--></g></svg>