<?xml version="1.0" encoding="UTF-8" standalone="no"?><svg xmlns="http://www.w3.org/2000/svg" xmlns:xlink="http://www.w3.org/1999/xlink" contentScriptType="application/ecmascript" contentStyleType="text/css" height="695px" preserveAspectRatio="none" style="width:801px;height:695px;" version="1.1" viewBox="0 0 801 695" width="801px" zoomAndPan="magnify"><defs><filter height="300%" id="f13lc7l9zoa8n9" width="300%" x="-1" y="-1"><feGaussianBlur result="blurOut" stdDeviation="2.0"/><feColorMatrix in="blurOut" result="blurOut2" type="matrix" values="0 0 0 0 0 0 0 0 0 0 0 0 0 0 0 0 0 0 .4 0"/><feOffset dx="4.0" dy="4.0" in="blurOut2" result="blurOut3"/><feBlend in="SourceGraphic" in2="blurOut3" mode="normal"/></filter></defs><g><rect fill="#FFFFFF" filter="url(#f13lc7l9zoa8n9)" height="71.6211" style="stroke: #A80036; stroke-width: 1.0;" width="10" x="145.5" y="117.7988"/><rect fill="#FFFFFF" filter="url(#f13lc7l9zoa8n9)" height="34.3105" style="stroke: #A80036; stroke-width: 1.0;" width="10" x="150.5" y="155.1094"/><rect fill="#FFFFFF" filter="url(#f13lc7l9zoa8n9)" height="77.6211" style="stroke: #A80036; stroke-width: 1.0;" width="10" x="458" y="218.7305"/><rect fill="#FFFFFF" filter="url(#f13lc7l9zoa8n9)" height="40.3105" style="stroke: #A80036; stroke-width: 1.0;" width="10" x="463" y="256.041"/><rect fill="#FFFFFF" filter="url(#f13lc7l9zoa8n9)" height="35.3105" style="stroke: #A80036; stroke-width: 1.0;" width="10" x="458" y="332.6621"/><rect fill="#FFFFFF" filter="url(#f13lc7l9zoa8n9)" height="71.6211" style="stroke: #A80036; stroke-width: 1.0;" width="10" x="458" y="404.2832"/><rect fill="#FFFFFF" filter="url(#f13lc7l9zoa8n9)" height="34.3105" style="stroke: #A80036; stroke-width: 1.0;" width="10" x="463" y="441.5938"/><rect fill="#FFFFFF" filter="url(#f13lc7l9zoa8n9)" height="77.6211" style="stroke: #A80036; stroke-width: 1.0;" width="10" x="458" y="505.2148"/><rect fill="#FFFFFF" filter="url(#f13lc7l9zoa8n9)" height="40.3105" style="stroke: #A80036; stroke-width: 1.0;" width="10" x="463" y="542.5254"/><line style="stroke: #A80036; stroke-width: 1.0; stroke-dasharray: 5.0,5.0;" x1="26" x2="26" y1="86.4883" y2="607.8359"/><line style="stroke: #A80036; stroke-width: 1.0; stroke-dasharray: 5.0,5.0;" x1="150.5" x2="150.5" y1="86.4883" y2="607.8359"/><line style="stroke: #A80036; stroke-width: 1.0; stroke-dasharray: 5.0,5.0;" x1="333.5" x2="333.5" y1="86.4883" y2="607.8359"/><line style="stroke: #A80036; stroke-width: 1.0; stroke-dasharray: 5.0,5.0;" x1="462.5" x2="462.5" y1="86.4883" y2="607.8359"/><line style="stroke: #A80036; stroke-width: 1.0; stroke-dasharray: 5.0,5.0;" x1="716.5" x2="716.5" y1="86.4883" y2="607.8359"/><text fill="#000000" font-family="sans-serif" font-size="14" lengthAdjust="spacingAndGlyphs" textLength="31" x="8" y="83.5352">User</text><ellipse cx="26.5" cy="13" fill="#FEFECE" filter="url(#f13lc7l9zoa8n9)" rx="8" ry="8" style="stroke: #A80036; stroke-width: 2.0;"/><path d="M26.5,21 L26.5,48 M13.5,29 L39.5,29 M26.5,48 L13.5,63 M26.5,48 L39.5,63 " fill="none" filter="url(#f13lc7l9zoa8n9)" style="stroke: #A80036; stroke-width: 2.0;"/><text fill="#000000" font-family="sans-serif" font-size="14" lengthAdjust="spacingAndGlyphs" textLength="31" x="8" y="620.3711">User</text><ellipse cx="26.5" cy="633.3242" fill="#FEFECE" filter="url(#f13lc7l9zoa8n9)" rx="8" ry="8" style="stroke: #A80036; stroke-width: 2.0;"/><path d="M26.5,641.3242 L26.5,668.3242 M13.5,649.3242 L39.5,649.3242 M26.5,668.3242 L13.5,683.3242 M26.5,668.3242 L39.5,683.3242 " fill="none" filter="url(#f13lc7l9zoa8n9)" style="stroke: #A80036; stroke-width: 2.0;"/><rect fill="#FEFECE" filter="url(#f13lc7l9zoa8n9)" height="30.4883" style="stroke: #A80036; stroke-width: 1.5;" width="96" x="100.5" y="51"/><text fill="#000000" font-family="sans-serif" font-size="14" lengthAdjust="spacingAndGlyphs" textLength="82" x="107.5" y="71.5352">FunctionBar</text><rect fill="#FEFECE" filter="url(#f13lc7l9zoa8n9)" height="30.4883" style="stroke: #A80036; stroke-width: 1.5;" width="96" x="100.5" y="606.8359"/><text fill="#000000" font-family="sans-serif" font-size="14" lengthAdjust="spacingAndGlyphs" textLength="82" x="107.5" y="627.3711">FunctionBar</text><rect fill="#FEFECE" filter="url(#f13lc7l9zoa8n9)" height="30.4883" style="stroke: #A80036; stroke-width: 1.5;" width="140" x="261.5" y="51"/><text fill="#000000" font-family="sans-serif" font-size="14" lengthAdjust="spacingAndGlyphs" textLength="126" x="268.5" y="71.5352">FunctionBarAction</text><rect fill="#FEFECE" filter="url(#f13lc7l9zoa8n9)" height="30.4883" style="stroke: #A80036; stroke-width: 1.5;" width="140" x="261.5" y="606.8359"/><text fill="#000000" font-family="sans-serif" font-size="14" lengthAdjust="spacingAndGlyphs" textLength="126" x="268.5" y="627.3711">FunctionBarAction</text><rect fill="#FEFECE" filter="url(#f13lc7l9zoa8n9)" height="30.4883" style="stroke: #A80036; stroke-width: 1.5;" width="91" x="415.5" y="51"/><text fill="#000000" font-family="sans-serif" font-size="14" lengthAdjust="spacingAndGlyphs" textLength="77" x="422.5" y="71.5352">AudioBlock</text><rect fill="#FEFECE" filter="url(#f13lc7l9zoa8n9)" height="30.4883" style="stroke: #A80036; stroke-width: 1.5;" width="91" x="415.5" y="606.8359"/><text fill="#000000" font-family="sans-serif" font-size="14" lengthAdjust="spacingAndGlyphs" textLength="77" x="422.5" y="627.3711">AudioBlock</text><rect fill="#FEFECE" filter="url(#f13lc7l9zoa8n9)" height="30.4883" style="stroke: #A80036; stroke-width: 1.5;" width="115" x="657.5" y="51"/><text fill="#000000" font-family="sans-serif" font-size="14" lengthAdjust="spacingAndGlyphs" textLength="101" x="664.5" y="71.5352">ChannelAction</text><rect fill="#FEFECE" filter="url(#f13lc7l9zoa8n9)" height="30.4883" style="stroke: #A80036; stroke-width: 1.5;" width="115" x="657.5" y="606.8359"/><text fill="#000000" font-family="sans-serif" font-size="14" lengthAdjust="spacingAndGlyphs" textLength="101" x="664.5" y="627.3711">ChannelAction</text><rect fill="#FFFFFF" filter="url(#f13lc7l9zoa8n9)" height="71.6211" style="stroke: #A80036; stroke-width: 1.0;" width="10" x="145.5" y="117.7988"/><rect fill="#FFFFFF" filter="url(#f13lc7l9zoa8n9)" height="34.3105" style="stroke: #A80036; stroke-width: 1.0;" width="10" x="150.5" y="155.1094"/><rect fill="#FFFFFF" filter="url(#f13lc7l9zoa8n9)" height="77.6211" style="stroke: #A80036; stroke-width: 1.0;" width="10" x="458" y="218.7305"/><rect fill="#FFFFFF" filter="url(#f13lc7l9zoa8n9)" height="40.3105" style="stroke: #A80036; stroke-width: 1.0;" width="10" x="463" y="256.041"/><rect fill="#FFFFFF" filter="url(#f13lc7l9zoa8n9)" height="35.3105" style="stroke: #A80036; stroke-width: 1.0;" width="10" x="458" y="332.6621"/><rect fill="#FFFFFF" filter="url(#f13lc7l9zoa8n9)" height="71.6211" style="stroke: #A80036; stroke-width: 1.0;" width="10" x="458" y="404.2832"/><rect fill="#FFFFFF" filter="url(#f13lc7l9zoa8n9)" height="34.3105" style="stroke: #A80036; stroke-width: 1.0;" width="10" x="463" y="441.5938"/><rect fill="#FFFFFF" filter="url(#f13lc7l9zoa8n9)" height="77.6211" style="stroke: #A80036; stroke-width: 1.0;" width="10" x="458" y="505.2148"/><rect fill="#FFFFFF" filter="url(#f13lc7l9zoa8n9)" height="40.3105" style="stroke: #A80036; stroke-width: 1.0;" width="10" x="463" y="542.5254"/><polygon fill="#A80036" points="133.5,113.7988,143.5,117.7988,133.5,121.7988,137.5,117.7988" style="stroke: #A80036; stroke-width: 1.0;"/><line style="stroke: #A80036; stroke-width: 1.0;" x1="26.5" x2="139.5" y1="117.7988" y2="117.7988"/><text fill="#000000" font-family="sans-serif" font-size="13" lengthAdjust="spacingAndGlyphs" textLength="100" x="33.5" y="113.0566">click cut button</text><line style="stroke: #A80036; stroke-width: 1.0;" x1="155.5" x2="202.5" y1="142.1094" y2="142.1094"/><line style="stroke: #A80036; stroke-width: 1.0;" x1="202.5" x2="202.5" y1="142.1094" y2="155.1094"/><line style="stroke: #A80036; stroke-width: 1.0;" x1="161.5" x2="202.5" y1="155.1094" y2="155.1094"/><polygon fill="#A80036" points="171.5,151.1094,161.5,155.1094,171.5,159.1094,167.5,155.1094" style="stroke: #A80036; stroke-width: 1.0;"/><text fill="#000000" font-family="sans-serif" font-size="13" lengthAdjust="spacingAndGlyphs" textLength="159" x="167.5" y="137.3672">cursorTypeClickHandler()</text><polygon fill="#A80036" points="321.5,185.4199,331.5,189.4199,321.5,193.4199,325.5,189.4199" style="stroke: #A80036; stroke-width: 1.0;"/><line style="stroke: #A80036; stroke-width: 1.0;" x1="150.5" x2="327.5" y1="189.4199" y2="189.4199"/><text fill="#000000" font-family="sans-serif" font-size="13" lengthAdjust="spacingAndGlyphs" textLength="146" x="157.5" y="184.6777">toggleCursorType('cut')</text><polygon fill="#A80036" points="446,214.7305,456,218.7305,446,222.7305,450,218.7305" style="stroke: #A80036; stroke-width: 1.0;"/><line style="stroke: #A80036; stroke-width: 1.0;" x1="26.5" x2="452" y1="218.7305" y2="218.7305"/><text fill="#000000" font-family="sans-serif" font-size="13" lengthAdjust="spacingAndGlyphs" textLength="78" x="33.5" y="213.9883">mouse enter</text><line style="stroke: #A80036; stroke-width: 1.0;" x1="468" x2="515" y1="243.041" y2="243.041"/><line style="stroke: #A80036; stroke-width: 1.0;" x1="515" x2="515" y1="243.041" y2="256.041"/><line style="stroke: #A80036; stroke-width: 1.0;" x1="474" x2="515" y1="256.041" y2="256.041"/><polygon fill="#A80036" points="484,252.041,474,256.041,484,260.041,480,256.041" style="stroke: #A80036; stroke-width: 1.0;"/><text fill="#000000" font-family="sans-serif" font-size="13" lengthAdjust="spacingAndGlyphs" textLength="147" x="480" y="238.2988">cutMouseOverHandler()</text><line style="stroke: #A80036; stroke-width: 1.0;" x1="473" x2="515" y1="295.3516" y2="295.3516"/><line style="stroke: #A80036; stroke-width: 1.0;" x1="515" x2="515" y1="295.3516" y2="308.3516"/><line style="stroke: #A80036; stroke-width: 1.0;" x1="468" x2="515" y1="308.3516" y2="308.3516"/><polygon fill="#A80036" points="478,304.3516,468,308.3516,478,312.3516,474,308.3516" style="stroke: #A80036; stroke-width: 1.0;"/><text fill="#000000" font-family="sans-serif" font-size="13" lengthAdjust="spacingAndGlyphs" textLength="111" x="480" y="290.6094">setCutHover(true)</text><polygon fill="#A80036" points="446,328.6621,456,332.6621,446,336.6621,450,332.6621" style="stroke: #A80036; stroke-width: 1.0;"/><line style="stroke: #A80036; stroke-width: 1.0;" x1="26.5" x2="452" y1="332.6621" y2="332.6621"/><text fill="#000000" font-family="sans-serif" font-size="13" lengthAdjust="spacingAndGlyphs" textLength="174" x="33.5" y="327.9199">mouse move in audio block</text><line style="stroke: #A80036; stroke-width: 1.0;" x1="468" x2="510" y1="366.9727" y2="366.9727"/><line style="stroke: #A80036; stroke-width: 1.0;" x1="510" x2="510" y1="366.9727" y2="379.9727"/><line style="stroke: #A80036; stroke-width: 1.0;" x1="463" x2="510" y1="379.9727" y2="379.9727"/><polygon fill="#A80036" points="473,375.9727,463,379.9727,473,383.9727,469,379.9727" style="stroke: #A80036; stroke-width: 1.0;"/><text fill="#000000" font-family="sans-serif" font-size="13" lengthAdjust="spacingAndGlyphs" textLength="151" x="475" y="362.2305">cutMouseMoveHandler()</text><path d="M638,347.1621 L638,372.1621 L789,372.1621 L789,357.1621 L779,347.1621 L638,347.1621 " fill="#FBFB77" filter="url(#f13lc7l9zoa8n9)" style="stroke: #A80036; stroke-width: 1.0;"/><path d="M779,347.1621 L779,357.1621 L789,357.1621 L779,347.1621 " fill="#FBFB77" style="stroke: #A80036; stroke-width: 1.0;"/><text fill="#000000" font-family="sans-serif" font-size="13" lengthAdjust="spacingAndGlyphs" textLength="130" x="644" y="364.7305">update indicator pos</text><polygon fill="#A80036" points="446,400.2832,456,404.2832,446,408.2832,450,404.2832" style="stroke: #A80036; stroke-width: 1.0;"/><line style="stroke: #A80036; stroke-width: 1.0;" x1="26.5" x2="452" y1="404.2832" y2="404.2832"/><text fill="#000000" font-family="sans-serif" font-size="13" lengthAdjust="spacingAndGlyphs" textLength="124" x="33.5" y="399.541">click in audio block</text><line style="stroke: #A80036; stroke-width: 1.0;" x1="468" x2="515" y1="428.5938" y2="428.5938"/><line style="stroke: #A80036; stroke-width: 1.0;" x1="515" x2="515" y1="428.5938" y2="441.5938"/><line style="stroke: #A80036; stroke-width: 1.0;" x1="474" x2="515" y1="441.5938" y2="441.5938"/><polygon fill="#A80036" points="484,437.5938,474,441.5938,484,445.5938,480,441.5938" style="stroke: #A80036; stroke-width: 1.0;"/><text fill="#000000" font-family="sans-serif" font-size="13" lengthAdjust="spacingAndGlyphs" textLength="135" x="480" y="423.8516">mouseDownHandler()</text><polygon fill="#A80036" points="705,471.9043,715,475.9043,705,479.9043,709,475.9043" style="stroke: #A80036; stroke-width: 1.0;"/><line style="stroke: #A80036; stroke-width: 1.0;" x1="463" x2="711" y1="475.9043" y2="475.9043"/><text fill="#000000" font-family="sans-serif" font-size="13" lengthAdjust="spacingAndGlyphs" textLength="220" x="470" y="471.1621">splitSlice(channelId, sliceId, offset)</text><polygon fill="#A80036" points="446,501.2148,456,505.2148,446,509.2148,450,505.2148" style="stroke: #A80036; stroke-width: 1.0;"/><line style="stroke: #A80036; stroke-width: 1.0;" x1="26.5" x2="452" y1="505.2148" y2="505.2148"/><text fill="#000000" font-family="sans-serif" font-size="13" lengthAdjust="spacingAndGlyphs" textLength="105" x="33.5" y="500.4727">mouse move out</text><line style="stroke: #A80036; stroke-width: 1.0;" x1="468" x2="515" y1="529.5254" y2="529.5254"/><line style="stroke: #A80036; stroke-width: 1.0;" x1="515" x2="515" y1="529.5254" y2="542.5254"/><line style="stroke: #A80036; stroke-width: 1.0;" x1="474" x2="515" y1="542.5254" y2="542.5254"/><polygon fill="#A80036" points="484,538.5254,474,542.5254,484,546.5254,480,542.5254" style="stroke: #A80036; stroke-width: 1.0;"/><text fill="#000000" font-family="sans-serif" font-size="13" lengthAdjust="spacingAndGlyphs" textLength="153" x="480" y="524.7832">cutMouseLeaveHandler()</text><line style="stroke: #A80036; stroke-width: 1.0;" x1="473" x2="515" y1="581.8359" y2="581.8359"/><line style="stroke: #A80036; stroke-width: 1.0;" x1="515" x2="515" y1="581.8359" y2="594.8359"/><line style="stroke: #A80036; stroke-width: 1.0;" x1="468" x2="515" y1="594.8359" y2="594.8359"/><polygon fill="#A80036" points="478,590.8359,468,594.8359,478,598.8359,474,594.8359" style="stroke: #A80036; stroke-width: 1.0;"/><text fill="#000000" font-family="sans-serif" font-size="13" lengthAdjust="spacingAndGlyphs" textLength="116" x="480" y="577.0938">setCutHover(false)</text><!--
@startuml
actor User

User -> FunctionBar: click cut button
activate FunctionBar
FunctionBar -> FunctionBar: cursorTypeClickHandler()
activate FunctionBar
FunctionBar -> FunctionBarAction: toggleCursorType('cut')
deactivate FunctionBar
deactivate FunctionBar

User -> AudioBlock: mouse enter
activate AudioBlock
AudioBlock -> AudioBlock: cutMouseOverHandler()
activate AudioBlock
AudioBlock -> AudioBlock: setCutHover(true)
deactivate AudioBlock
deactivate AudioBlock

User -> AudioBlock: mouse move in audio block
activate AudioBlock
AudioBlock -> AudioBlock: cutMouseMoveHandler()
note right: update indicator pos
deactivate AudioBlock

User -> AudioBlock: click in audio block
activate AudioBlock
AudioBlock -> AudioBlock: mouseDownHandler()
activate AudioBlock
AudioBlock -> ChannelAction: splitSlice(channelId, sliceId, offset)
deactivate AudioBlock
deactivate AudioBlock

User -> AudioBlock: mouse move out
activate AudioBlock
AudioBlock -> AudioBlock: cutMouseLeaveHandler()
activate AudioBlock
AudioBlock -> AudioBlock: setCutHover(false)
deactivate AudioBlock
deactivate AudioBlock


@enduml

PlantUML version 1.2019.09(Tue Aug 27 00:19:51 CST 2019)
(GPL source distribution)
Java Runtime: OpenJDK Runtime Environment
JVM: OpenJDK 64-Bit Server VM
Java Version: 13.0.2+8
Operating System: Mac OS X
OS Version: 10.14.6
Default Encoding: UTF-8
Language: zh
Country: CN
--></g></svg>