<?xml version="1.0" encoding="UTF-8" standalone="no"?><svg xmlns="http://www.w3.org/2000/svg" xmlns:xlink="http://www.w3.org/1999/xlink" contentScriptType="application/ecmascript" contentStyleType="text/css" height="369px" preserveAspectRatio="none" style="width:575px;height:369px;" version="1.1" viewBox="0 0 575 369" width="575px" zoomAndPan="magnify"><defs><filter height="300%" id="f1r7ogbp65hy9h" width="300%" x="-1" y="-1"><feGaussianBlur result="blurOut" stdDeviation="2.0"/><feColorMatrix in="blurOut" result="blurOut2" type="matrix" values="0 0 0 0 0 0 0 0 0 0 0 0 0 0 0 0 0 0 .4 0"/><feOffset dx="4.0" dy="4.0" in="blurOut2" result="blurOut3"/><feBlend in="SourceGraphic" in2="blurOut3" mode="normal"/></filter></defs><g><rect fill="#FFFFFF" filter="url(#f1r7ogbp65hy9h)" height="29.3105" style="stroke: #A80036; stroke-width: 1.0;" width="10" x="151.5" y="117.7988"/><rect fill="#FFFFFF" filter="url(#f1r7ogbp65hy9h)" height="29.3105" style="stroke: #A80036; stroke-width: 1.0;" width="10" x="264.5" y="176.4199"/><rect fill="#FFFFFF" filter="url(#f1r7ogbp65hy9h)" height="29.3105" style="stroke: #A80036; stroke-width: 1.0;" width="10" x="366" y="235.041"/><line style="stroke: #A80036; stroke-width: 1.0; stroke-dasharray: 5.0,5.0;" x1="26" x2="26" y1="86.4883" y2="282.3516"/><line style="stroke: #A80036; stroke-width: 1.0; stroke-dasharray: 5.0,5.0;" x1="156.5" x2="156.5" y1="86.4883" y2="282.3516"/><line style="stroke: #A80036; stroke-width: 1.0; stroke-dasharray: 5.0,5.0;" x1="269.5" x2="269.5" y1="86.4883" y2="282.3516"/><line style="stroke: #A80036; stroke-width: 1.0; stroke-dasharray: 5.0,5.0;" x1="370.5" x2="370.5" y1="86.4883" y2="282.3516"/><line style="stroke: #A80036; stroke-width: 1.0; stroke-dasharray: 5.0,5.0;" x1="497.5" x2="497.5" y1="86.4883" y2="282.3516"/><text fill="#000000" font-family="sans-serif" font-size="14" lengthAdjust="spacingAndGlyphs" textLength="31" x="8" y="83.5352">User</text><ellipse cx="26.5" cy="13" fill="#FEFECE" filter="url(#f1r7ogbp65hy9h)" rx="8" ry="8" style="stroke: #A80036; stroke-width: 2.0;"/><path d="M26.5,21 L26.5,48 M13.5,29 L39.5,29 M26.5,48 L13.5,63 M26.5,48 L39.5,63 " fill="none" filter="url(#f1r7ogbp65hy9h)" style="stroke: #A80036; stroke-width: 2.0;"/><text fill="#000000" font-family="sans-serif" font-size="14" lengthAdjust="spacingAndGlyphs" textLength="31" x="8" y="294.8867">User</text><ellipse cx="26.5" cy="307.8398" fill="#FEFECE" filter="url(#f1r7ogbp65hy9h)" rx="8" ry="8" style="stroke: #A80036; stroke-width: 2.0;"/><path d="M26.5,315.8398 L26.5,342.8398 M13.5,323.8398 L39.5,323.8398 M26.5,342.8398 L13.5,357.8398 M26.5,342.8398 L39.5,357.8398 " fill="none" filter="url(#f1r7ogbp65hy9h)" style="stroke: #A80036; stroke-width: 2.0;"/><rect fill="#FEFECE" filter="url(#f1r7ogbp65hy9h)" height="30.4883" style="stroke: #A80036; stroke-width: 1.5;" width="112" x="98.5" y="51"/><text fill="#000000" font-family="sans-serif" font-size="14" lengthAdjust="spacingAndGlyphs" textLength="98" x="105.5" y="71.5352">AudioChannel</text><rect fill="#FEFECE" filter="url(#f1r7ogbp65hy9h)" height="30.4883" style="stroke: #A80036; stroke-width: 1.5;" width="112" x="98.5" y="281.3516"/><text fill="#000000" font-family="sans-serif" font-size="14" lengthAdjust="spacingAndGlyphs" textLength="98" x="105.5" y="301.8867">AudioChannel</text><rect fill="#FEFECE" filter="url(#f1r7ogbp65hy9h)" height="30.4883" style="stroke: #A80036; stroke-width: 1.5;" width="86" x="224.5" y="51"/><text fill="#000000" font-family="sans-serif" font-size="14" lengthAdjust="spacingAndGlyphs" textLength="72" x="231.5" y="71.5352">Dropdown</text><rect fill="#FEFECE" filter="url(#f1r7ogbp65hy9h)" height="30.4883" style="stroke: #A80036; stroke-width: 1.5;" width="86" x="224.5" y="281.3516"/><text fill="#000000" font-family="sans-serif" font-size="14" lengthAdjust="spacingAndGlyphs" textLength="72" x="231.5" y="301.8867">Dropdown</text><rect fill="#FEFECE" filter="url(#f1r7ogbp65hy9h)" height="30.4883" style="stroke: #A80036; stroke-width: 1.5;" width="89" x="324.5" y="51"/><text fill="#000000" font-family="sans-serif" font-size="14" lengthAdjust="spacingAndGlyphs" textLength="75" x="331.5" y="71.5352">EffectPanel</text><rect fill="#FEFECE" filter="url(#f1r7ogbp65hy9h)" height="30.4883" style="stroke: #A80036; stroke-width: 1.5;" width="89" x="324.5" y="281.3516"/><text fill="#000000" font-family="sans-serif" font-size="14" lengthAdjust="spacingAndGlyphs" textLength="75" x="331.5" y="301.8867">EffectPanel</text><rect fill="#FEFECE" filter="url(#f1r7ogbp65hy9h)" height="30.4883" style="stroke: #A80036; stroke-width: 1.5;" width="137" x="427.5" y="51"/><text fill="#000000" font-family="sans-serif" font-size="14" lengthAdjust="spacingAndGlyphs" textLength="123" x="434.5" y="71.5352">AudioEffectAction</text><rect fill="#FEFECE" filter="url(#f1r7ogbp65hy9h)" height="30.4883" style="stroke: #A80036; stroke-width: 1.5;" width="137" x="427.5" y="281.3516"/><text fill="#000000" font-family="sans-serif" font-size="14" lengthAdjust="spacingAndGlyphs" textLength="123" x="434.5" y="301.8867">AudioEffectAction</text><rect fill="#FFFFFF" filter="url(#f1r7ogbp65hy9h)" height="29.3105" style="stroke: #A80036; stroke-width: 1.0;" width="10" x="151.5" y="117.7988"/><rect fill="#FFFFFF" filter="url(#f1r7ogbp65hy9h)" height="29.3105" style="stroke: #A80036; stroke-width: 1.0;" width="10" x="264.5" y="176.4199"/><rect fill="#FFFFFF" filter="url(#f1r7ogbp65hy9h)" height="29.3105" style="stroke: #A80036; stroke-width: 1.0;" width="10" x="366" y="235.041"/><polygon fill="#A80036" points="139.5,113.7988,149.5,117.7988,139.5,121.7988,143.5,117.7988" style="stroke: #A80036; stroke-width: 1.0;"/><line style="stroke: #A80036; stroke-width: 1.0;" x1="26.5" x2="145.5" y1="117.7988" y2="117.7988"/><text fill="#000000" font-family="sans-serif" font-size="13" lengthAdjust="spacingAndGlyphs" textLength="106" x="33.5" y="113.0566">showDropdown()</text><polygon fill="#A80036" points="257.5,143.1094,267.5,147.1094,257.5,151.1094,261.5,147.1094" style="stroke: #A80036; stroke-width: 1.0;"/><line style="stroke: #A80036; stroke-width: 1.0;" x1="156.5" x2="263.5" y1="147.1094" y2="147.1094"/><text fill="#000000" font-family="sans-serif" font-size="13" lengthAdjust="spacingAndGlyphs" textLength="40" x="163.5" y="142.3672">render</text><polygon fill="#A80036" points="252.5,172.4199,262.5,176.4199,252.5,180.4199,256.5,176.4199" style="stroke: #A80036; stroke-width: 1.0;"/><line style="stroke: #A80036; stroke-width: 1.0;" x1="26.5" x2="258.5" y1="176.4199" y2="176.4199"/><text fill="#000000" font-family="sans-serif" font-size="13" lengthAdjust="spacingAndGlyphs" textLength="118" x="33.5" y="171.6777">handleEffectClick()</text><polygon fill="#A80036" points="359,201.7305,369,205.7305,359,209.7305,363,205.7305" style="stroke: #A80036; stroke-width: 1.0;"/><line style="stroke: #A80036; stroke-width: 1.0;" x1="269.5" x2="365" y1="205.7305" y2="205.7305"/><text fill="#000000" font-family="sans-serif" font-size="13" lengthAdjust="spacingAndGlyphs" textLength="40" x="276.5" y="200.9883">render</text><polygon fill="#A80036" points="354,231.041,364,235.041,354,239.041,358,235.041" style="stroke: #A80036; stroke-width: 1.0;"/><line style="stroke: #A80036; stroke-width: 1.0;" x1="26.5" x2="360" y1="235.041" y2="235.041"/><text fill="#000000" font-family="sans-serif" font-size="13" lengthAdjust="spacingAndGlyphs" textLength="133" x="33.5" y="230.2988">handleEffectChange()</text><polygon fill="#A80036" points="486,260.3516,496,264.3516,486,268.3516,490,264.3516" style="stroke: #A80036; stroke-width: 1.0;"/><line style="stroke: #A80036; stroke-width: 1.0;" x1="371" x2="492" y1="264.3516" y2="264.3516"/><text fill="#000000" font-family="sans-serif" font-size="13" lengthAdjust="spacingAndGlyphs" textLength="88" x="378" y="259.6094">modifyEffect()</text><!--
@startuml
actor User

User -> AudioChannel: showDropdown()
activate AudioChannel
AudioChannel -> Dropdown: render
deactivate AudioChannel
User -> Dropdown: handleEffectClick()
activate Dropdown
Dropdown -> EffectPanel: render
deactivate Dropdown

User -> EffectPanel: handleEffectChange()
activate EffectPanel
EffectPanel -> AudioEffectAction: modifyEffect()
deactivate EffectPanel
@enduml

PlantUML version 1.2019.09(Tue Aug 27 00:19:51 CST 2019)
(GPL source distribution)
Java Runtime: OpenJDK Runtime Environment
JVM: OpenJDK 64-Bit Server VM
Java Version: 13.0.2+8
Operating System: Mac OS X
OS Version: 10.14.6
Default Encoding: UTF-8
Language: zh
Country: CN
--></g></svg>