<?xml version="1.0" encoding="UTF-8" standalone="no"?><svg xmlns="http://www.w3.org/2000/svg" xmlns:xlink="http://www.w3.org/1999/xlink" contentScriptType="application/ecmascript" contentStyleType="text/css" height="399px" preserveAspectRatio="none" style="width:1013px;height:399px;" version="1.1" viewBox="0 0 1013 399" width="1013px" zoomAndPan="magnify"><defs><filter height="300%" id="fa0ch02okzq0i" width="300%" x="-1" y="-1"><feGaussianBlur result="blurOut" stdDeviation="2.0"/><feColorMatrix in="blurOut" result="blurOut2" type="matrix" values="0 0 0 0 0 0 0 0 0 0 0 0 0 0 0 0 0 0 .4 0"/><feOffset dx="4.0" dy="4.0" in="blurOut2" result="blurOut3"/><feBlend in="SourceGraphic" in2="blurOut3" mode="normal"/></filter></defs><g><rect fill="#FFFFFF" filter="url(#fa0ch02okzq0i)" height="29.3105" style="stroke: #A80036; stroke-width: 1.0;" width="10" x="197.5" y="117.7988"/><rect fill="#FFFFFF" filter="url(#fa0ch02okzq0i)" height="117.2422" style="stroke: #A80036; stroke-width: 1.0;" width="10" x="465" y="176.4199"/><line style="stroke: #A80036; stroke-width: 1.0; stroke-dasharray: 5.0,5.0;" x1="26" x2="26" y1="86.4883" y2="311.6621"/><line style="stroke: #A80036; stroke-width: 1.0; stroke-dasharray: 5.0,5.0;" x1="202.5" x2="202.5" y1="86.4883" y2="311.6621"/><line style="stroke: #A80036; stroke-width: 1.0; stroke-dasharray: 5.0,5.0;" x1="342.5" x2="342.5" y1="86.4883" y2="311.6621"/><line style="stroke: #A80036; stroke-width: 1.0; stroke-dasharray: 5.0,5.0;" x1="469.5" x2="469.5" y1="86.4883" y2="311.6621"/><line style="stroke: #A80036; stroke-width: 1.0; stroke-dasharray: 5.0,5.0;" x1="591.5" x2="591.5" y1="86.4883" y2="311.6621"/><line style="stroke: #A80036; stroke-width: 1.0; stroke-dasharray: 5.0,5.0;" x1="815.5" x2="815.5" y1="86.4883" y2="311.6621"/><line style="stroke: #A80036; stroke-width: 1.0; stroke-dasharray: 5.0,5.0;" x1="941.5" x2="941.5" y1="86.4883" y2="311.6621"/><text fill="#000000" font-family="sans-serif" font-size="14" lengthAdjust="spacingAndGlyphs" textLength="31" x="8" y="83.5352">User</text><ellipse cx="26.5" cy="13" fill="#FEFECE" filter="url(#fa0ch02okzq0i)" rx="8" ry="8" style="stroke: #A80036; stroke-width: 2.0;"/><path d="M26.5,21 L26.5,48 M13.5,29 L39.5,29 M26.5,48 L13.5,63 M26.5,48 L39.5,63 " fill="none" filter="url(#fa0ch02okzq0i)" style="stroke: #A80036; stroke-width: 2.0;"/><text fill="#000000" font-family="sans-serif" font-size="14" lengthAdjust="spacingAndGlyphs" textLength="31" x="8" y="324.1973">User</text><ellipse cx="26.5" cy="337.1504" fill="#FEFECE" filter="url(#fa0ch02okzq0i)" rx="8" ry="8" style="stroke: #A80036; stroke-width: 2.0;"/><path d="M26.5,345.1504 L26.5,372.1504 M13.5,353.1504 L39.5,353.1504 M26.5,372.1504 L13.5,387.1504 M26.5,372.1504 L39.5,387.1504 " fill="none" filter="url(#fa0ch02okzq0i)" style="stroke: #A80036; stroke-width: 2.0;"/><rect fill="#FEFECE" filter="url(#fa0ch02okzq0i)" height="30.4883" style="stroke: #A80036; stroke-width: 1.5;" width="116" x="142.5" y="51"/><text fill="#000000" font-family="sans-serif" font-size="14" lengthAdjust="spacingAndGlyphs" textLength="102" x="149.5" y="71.5352">DropdownItem</text><rect fill="#FEFECE" filter="url(#fa0ch02okzq0i)" height="30.4883" style="stroke: #A80036; stroke-width: 1.5;" width="116" x="142.5" y="310.6621"/><text fill="#000000" font-family="sans-serif" font-size="14" lengthAdjust="spacingAndGlyphs" textLength="102" x="149.5" y="331.1973">DropdownItem</text><rect fill="#FEFECE" filter="url(#fa0ch02okzq0i)" height="30.4883" style="stroke: #A80036; stroke-width: 1.5;" width="137" x="272.5" y="51"/><text fill="#000000" font-family="sans-serif" font-size="14" lengthAdjust="spacingAndGlyphs" textLength="123" x="279.5" y="71.5352">AudioEffectAction</text><rect fill="#FEFECE" filter="url(#fa0ch02okzq0i)" height="30.4883" style="stroke: #A80036; stroke-width: 1.5;" width="137" x="272.5" y="310.6621"/><text fill="#000000" font-family="sans-serif" font-size="14" lengthAdjust="spacingAndGlyphs" textLength="123" x="279.5" y="331.1973">AudioEffectAction</text><rect fill="#FEFECE" filter="url(#fa0ch02okzq0i)" height="30.4883" style="stroke: #A80036; stroke-width: 1.5;" width="89" x="423.5" y="51"/><text fill="#000000" font-family="sans-serif" font-size="14" lengthAdjust="spacingAndGlyphs" textLength="75" x="430.5" y="71.5352">EffectPanel</text><rect fill="#FEFECE" filter="url(#fa0ch02okzq0i)" height="30.4883" style="stroke: #A80036; stroke-width: 1.5;" width="89" x="423.5" y="310.6621"/><text fill="#000000" font-family="sans-serif" font-size="14" lengthAdjust="spacingAndGlyphs" textLength="75" x="430.5" y="331.1973">EffectPanel</text><rect fill="#FEFECE" filter="url(#fa0ch02okzq0i)" height="30.4883" style="stroke: #A80036; stroke-width: 1.5;" width="126" x="526.5" y="51"/><text fill="#000000" font-family="sans-serif" font-size="14" lengthAdjust="spacingAndGlyphs" textLength="112" x="533.5" y="71.5352">AudioEffectSaga</text><rect fill="#FEFECE" filter="url(#fa0ch02okzq0i)" height="30.4883" style="stroke: #A80036; stroke-width: 1.5;" width="126" x="526.5" y="310.6621"/><text fill="#000000" font-family="sans-serif" font-size="14" lengthAdjust="spacingAndGlyphs" textLength="112" x="533.5" y="331.1973">AudioEffectSaga</text><rect fill="#FEFECE" filter="url(#fa0ch02okzq0i)" height="30.4883" style="stroke: #A80036; stroke-width: 1.5;" width="100" x="763.5" y="51"/><text fill="#000000" font-family="sans-serif" font-size="14" lengthAdjust="spacingAndGlyphs" textLength="86" x="770.5" y="71.5352">EventEmitter</text><rect fill="#FEFECE" filter="url(#fa0ch02okzq0i)" height="30.4883" style="stroke: #A80036; stroke-width: 1.5;" width="100" x="763.5" y="310.6621"/><text fill="#000000" font-family="sans-serif" font-size="14" lengthAdjust="spacingAndGlyphs" textLength="86" x="770.5" y="331.1973">EventEmitter</text><rect fill="#FEFECE" filter="url(#fa0ch02okzq0i)" height="30.4883" style="stroke: #A80036; stroke-width: 1.5;" width="125" x="877.5" y="51"/><text fill="#000000" font-family="sans-serif" font-size="14" lengthAdjust="spacingAndGlyphs" textLength="111" x="884.5" y="71.5352">AudioController</text><rect fill="#FEFECE" filter="url(#fa0ch02okzq0i)" height="30.4883" style="stroke: #A80036; stroke-width: 1.5;" width="125" x="877.5" y="310.6621"/><text fill="#000000" font-family="sans-serif" font-size="14" lengthAdjust="spacingAndGlyphs" textLength="111" x="884.5" y="331.1973">AudioController</text><rect fill="#FFFFFF" filter="url(#fa0ch02okzq0i)" height="29.3105" style="stroke: #A80036; stroke-width: 1.0;" width="10" x="197.5" y="117.7988"/><rect fill="#FFFFFF" filter="url(#fa0ch02okzq0i)" height="117.2422" style="stroke: #A80036; stroke-width: 1.0;" width="10" x="465" y="176.4199"/><polygon fill="#A80036" points="185.5,113.7988,195.5,117.7988,185.5,121.7988,189.5,117.7988" style="stroke: #A80036; stroke-width: 1.0;"/><line style="stroke: #A80036; stroke-width: 1.0;" x1="26.5" x2="191.5" y1="117.7988" y2="117.7988"/><text fill="#000000" font-family="sans-serif" font-size="13" lengthAdjust="spacingAndGlyphs" textLength="152" x="33.5" y="113.0566">handleOpenEffectPanel()</text><polygon fill="#A80036" points="331,143.1094,341,147.1094,331,151.1094,335,147.1094" style="stroke: #A80036; stroke-width: 1.0;"/><line style="stroke: #A80036; stroke-width: 1.0;" x1="202.5" x2="337" y1="147.1094" y2="147.1094"/><text fill="#000000" font-family="sans-serif" font-size="13" lengthAdjust="spacingAndGlyphs" textLength="108" x="209.5" y="142.3672">openEffectPanel()</text><polygon fill="#A80036" points="453,172.4199,463,176.4199,453,180.4199,457,176.4199" style="stroke: #A80036; stroke-width: 1.0;"/><line style="stroke: #A80036; stroke-width: 1.0;" x1="26.5" x2="459" y1="176.4199" y2="176.4199"/><text fill="#000000" font-family="sans-serif" font-size="13" lengthAdjust="spacingAndGlyphs" textLength="129" x="33.5" y="171.6777">handleFormChange()</text><polygon fill="#A80036" points="354,201.7305,344,205.7305,354,209.7305,350,205.7305" style="stroke: #A80036; stroke-width: 1.0;"/><line style="stroke: #A80036; stroke-width: 1.0;" x1="348" x2="464" y1="205.7305" y2="205.7305"/><text fill="#000000" font-family="sans-serif" font-size="13" lengthAdjust="spacingAndGlyphs" textLength="88" x="360" y="200.9883">modifyEffect()</text><polygon fill="#A80036" points="579.5,231.041,589.5,235.041,579.5,239.041,583.5,235.041" style="stroke: #A80036; stroke-width: 1.0;"/><line style="stroke: #A80036; stroke-width: 1.0;" x1="343" x2="585.5" y1="235.041" y2="235.041"/><text fill="#000000" font-family="sans-serif" font-size="13" lengthAdjust="spacingAndGlyphs" textLength="116" x="350" y="230.2988">updateEffectSaga()</text><polygon fill="#A80036" points="803.5,260.3516,813.5,264.3516,803.5,268.3516,807.5,264.3516" style="stroke: #A80036; stroke-width: 1.0;"/><line style="stroke: #A80036; stroke-width: 1.0;" x1="591.5" x2="809.5" y1="264.3516" y2="264.3516"/><text fill="#000000" font-family="sans-serif" font-size="13" lengthAdjust="spacingAndGlyphs" textLength="200" x="598.5" y="259.6094">emit('EFFECT_UPDATE_EFFECT');</text><polygon fill="#A80036" points="930,289.6621,940,293.6621,930,297.6621,934,293.6621" style="stroke: #A80036; stroke-width: 1.0;"/><line style="stroke: #A80036; stroke-width: 1.0;" x1="815.5" x2="936" y1="293.6621" y2="293.6621"/><text fill="#000000" font-family="sans-serif" font-size="13" lengthAdjust="spacingAndGlyphs" textLength="91" x="822.5" y="288.9199">updateEffect();</text><!--
@startuml
actor User

User -> DropdownItem: handleOpenEffectPanel()
activate DropdownItem
DropdownItem -> AudioEffectAction: openEffectPanel()
deactivate DropdownItem

User -> EffectPanel: handleFormChange()
activate EffectPanel
EffectPanel -> AudioEffectAction: modifyEffect()
AudioEffectAction -> AudioEffectSaga: updateEffectSaga()
AudioEffectSaga -> EventEmitter: emit('EFFECT_UPDATE_EFFECT');
EventEmitter -> AudioController: updateEffect();
deactivate EffectPanel
@enduml

PlantUML version 1.2019.09(Tue Aug 27 00:19:51 CST 2019)
(GPL source distribution)
Java Runtime: OpenJDK Runtime Environment
JVM: OpenJDK 64-Bit Server VM
Java Version: 13.0.2+8
Operating System: Mac OS X
OS Version: 10.14.6
Default Encoding: UTF-8
Language: zh
Country: CN
--></g></svg>