<?xml version="1.0" encoding="UTF-8" standalone="no"?><svg xmlns="http://www.w3.org/2000/svg" xmlns:xlink="http://www.w3.org/1999/xlink" contentScriptType="application/ecmascript" contentStyleType="text/css" height="715px" preserveAspectRatio="none" style="width:686px;height:715px;" version="1.1" viewBox="0 0 686 715" width="686px" zoomAndPan="magnify"><defs><filter height="300%" id="f2n9keb9qoxy9" width="300%" x="-1" y="-1"><feGaussianBlur result="blurOut" stdDeviation="2.0"/><feColorMatrix in="blurOut" result="blurOut2" type="matrix" values="0 0 0 0 0 0 0 0 0 0 0 0 0 0 0 0 0 0 .4 0"/><feOffset dx="4.0" dy="4.0" in="blurOut2" result="blurOut3"/><feBlend in="SourceGraphic" in2="blurOut3" mode="normal"/></filter></defs><g><rect fill="#FFFFFF" filter="url(#f2n9keb9qoxy9)" height="500.3027" style="stroke: #A80036; stroke-width: 1.0;" width="10" x="205.5" y="117.7988"/><rect fill="#FFFFFF" filter="url(#f2n9keb9qoxy9)" height="76.6211" style="stroke: #A80036; stroke-width: 1.0;" width="10" x="210.5" y="155.1094"/><rect fill="#FFFFFF" filter="url(#f2n9keb9qoxy9)" height="105.9316" style="stroke: #A80036; stroke-width: 1.0;" width="10" x="210.5" y="351.9727"/><rect fill="#FFFFFF" filter="url(#f2n9keb9qoxy9)" height="100.9316" style="stroke: #A80036; stroke-width: 1.0;" width="10" x="210.5" y="502.1699"/><rect fill="#FFFFFF" filter="url(#f2n9keb9qoxy9)" height="143.2422" style="stroke: #A80036; stroke-width: 1.0;" width="10" x="387.5" y="314.6621"/><rect fill="#FFFFFF" filter="url(#f2n9keb9qoxy9)" height="335.0605" style="stroke: #000000; stroke-width: 2.0;" width="661.5" x="13" y="276.041"/><rect fill="#FFFFFF" height="145.1973" style="stroke: none; stroke-width: 1.0;" width="661.5" x="13" y="465.9043"/><line style="stroke: #A80036; stroke-width: 1.0; stroke-dasharray: 5.0,5.0;" x1="41" x2="41" y1="86.4883" y2="628.1016"/><line style="stroke: #A80036; stroke-width: 1.0; stroke-dasharray: 5.0,5.0;" x1="210.5" x2="210.5" y1="86.4883" y2="628.1016"/><line style="stroke: #A80036; stroke-width: 1.0; stroke-dasharray: 5.0,5.0;" x1="392.5" x2="392.5" y1="86.4883" y2="628.1016"/><line style="stroke: #A80036; stroke-width: 1.0; stroke-dasharray: 5.0,5.0;" x1="536.5" x2="536.5" y1="86.4883" y2="628.1016"/><text fill="#000000" font-family="sans-serif" font-size="14" lengthAdjust="spacingAndGlyphs" textLength="31" x="23" y="83.5352">User</text><ellipse cx="41.5" cy="13" fill="#FEFECE" filter="url(#f2n9keb9qoxy9)" rx="8" ry="8" style="stroke: #A80036; stroke-width: 2.0;"/><path d="M41.5,21 L41.5,48 M28.5,29 L54.5,29 M41.5,48 L28.5,63 M41.5,48 L54.5,63 " fill="none" filter="url(#f2n9keb9qoxy9)" style="stroke: #A80036; stroke-width: 2.0;"/><text fill="#000000" font-family="sans-serif" font-size="14" lengthAdjust="spacingAndGlyphs" textLength="31" x="23" y="640.6367">User</text><ellipse cx="41.5" cy="653.5898" fill="#FEFECE" filter="url(#f2n9keb9qoxy9)" rx="8" ry="8" style="stroke: #A80036; stroke-width: 2.0;"/><path d="M41.5,661.5898 L41.5,688.5898 M28.5,669.5898 L54.5,669.5898 M41.5,688.5898 L28.5,703.5898 M41.5,688.5898 L54.5,703.5898 " fill="none" filter="url(#f2n9keb9qoxy9)" style="stroke: #A80036; stroke-width: 2.0;"/><rect fill="#FEFECE" filter="url(#f2n9keb9qoxy9)" height="30.4883" style="stroke: #A80036; stroke-width: 1.5;" width="112" x="152.5" y="51"/><text fill="#000000" font-family="sans-serif" font-size="14" lengthAdjust="spacingAndGlyphs" textLength="98" x="159.5" y="71.5352">AudioChannel</text><rect fill="#FEFECE" filter="url(#f2n9keb9qoxy9)" height="30.4883" style="stroke: #A80036; stroke-width: 1.5;" width="112" x="152.5" y="627.1016"/><text fill="#000000" font-family="sans-serif" font-size="14" lengthAdjust="spacingAndGlyphs" textLength="98" x="159.5" y="647.6367">AudioChannel</text><rect fill="#FEFECE" filter="url(#f2n9keb9qoxy9)" height="30.4883" style="stroke: #A80036; stroke-width: 1.5;" width="146" x="317.5" y="51"/><text fill="#000000" font-family="sans-serif" font-size="14" lengthAdjust="spacingAndGlyphs" textLength="132" x="324.5" y="71.5352">ChannelNameInput</text><rect fill="#FEFECE" filter="url(#f2n9keb9qoxy9)" height="30.4883" style="stroke: #A80036; stroke-width: 1.5;" width="146" x="317.5" y="627.1016"/><text fill="#000000" font-family="sans-serif" font-size="14" lengthAdjust="spacingAndGlyphs" textLength="132" x="324.5" y="647.6367">ChannelNameInput</text><rect fill="#FEFECE" filter="url(#f2n9keb9qoxy9)" height="30.4883" style="stroke: #A80036; stroke-width: 1.5;" width="115" x="477.5" y="51"/><text fill="#000000" font-family="sans-serif" font-size="14" lengthAdjust="spacingAndGlyphs" textLength="101" x="484.5" y="71.5352">ChannelAction</text><rect fill="#FEFECE" filter="url(#f2n9keb9qoxy9)" height="30.4883" style="stroke: #A80036; stroke-width: 1.5;" width="115" x="477.5" y="627.1016"/><text fill="#000000" font-family="sans-serif" font-size="14" lengthAdjust="spacingAndGlyphs" textLength="101" x="484.5" y="647.6367">ChannelAction</text><rect fill="#FFFFFF" filter="url(#f2n9keb9qoxy9)" height="500.3027" style="stroke: #A80036; stroke-width: 1.0;" width="10" x="205.5" y="117.7988"/><rect fill="#FFFFFF" filter="url(#f2n9keb9qoxy9)" height="76.6211" style="stroke: #A80036; stroke-width: 1.0;" width="10" x="210.5" y="155.1094"/><rect fill="#FFFFFF" filter="url(#f2n9keb9qoxy9)" height="105.9316" style="stroke: #A80036; stroke-width: 1.0;" width="10" x="210.5" y="351.9727"/><rect fill="#FFFFFF" filter="url(#f2n9keb9qoxy9)" height="100.9316" style="stroke: #A80036; stroke-width: 1.0;" width="10" x="210.5" y="502.1699"/><rect fill="#FFFFFF" filter="url(#f2n9keb9qoxy9)" height="143.2422" style="stroke: #A80036; stroke-width: 1.0;" width="10" x="387.5" y="314.6621"/><polygon fill="#A80036" points="193.5,113.7988,203.5,117.7988,193.5,121.7988,197.5,117.7988" style="stroke: #A80036; stroke-width: 1.0;"/><line style="stroke: #A80036; stroke-width: 1.0;" x1="41.5" x2="199.5" y1="117.7988" y2="117.7988"/><text fill="#000000" font-family="sans-serif" font-size="13" lengthAdjust="spacingAndGlyphs" textLength="145" x="48.5" y="113.0566">double click name area</text><line style="stroke: #A80036; stroke-width: 1.0;" x1="215.5" x2="262.5" y1="142.1094" y2="142.1094"/><line style="stroke: #A80036; stroke-width: 1.0;" x1="262.5" x2="262.5" y1="142.1094" y2="155.1094"/><line style="stroke: #A80036; stroke-width: 1.0;" x1="221.5" x2="262.5" y1="155.1094" y2="155.1094"/><polygon fill="#A80036" points="231.5,151.1094,221.5,155.1094,231.5,159.1094,227.5,155.1094" style="stroke: #A80036; stroke-width: 1.0;"/><text fill="#000000" font-family="sans-serif" font-size="13" lengthAdjust="spacingAndGlyphs" textLength="124" x="227.5" y="137.3672">doubleClickHandler</text><line style="stroke: #A80036; stroke-width: 1.0;" x1="220.5" x2="262.5" y1="189.4199" y2="189.4199"/><line style="stroke: #A80036; stroke-width: 1.0;" x1="262.5" x2="262.5" y1="189.4199" y2="202.4199"/><line style="stroke: #A80036; stroke-width: 1.0;" x1="221.5" x2="262.5" y1="202.4199" y2="202.4199"/><polygon fill="#A80036" points="231.5,198.4199,221.5,202.4199,231.5,206.4199,227.5,202.4199" style="stroke: #A80036; stroke-width: 1.0;"/><text fill="#000000" font-family="sans-serif" font-size="13" lengthAdjust="spacingAndGlyphs" textLength="96" x="227.5" y="184.6777">setEditing(true)</text><polygon fill="#A80036" points="380.5,227.7305,390.5,231.7305,380.5,235.7305,384.5,231.7305" style="stroke: #A80036; stroke-width: 1.0;"/><line style="stroke: #A80036; stroke-width: 1.0;" x1="215.5" x2="386.5" y1="231.7305" y2="231.7305"/><text fill="#000000" font-family="sans-serif" font-size="13" lengthAdjust="spacingAndGlyphs" textLength="40" x="222.5" y="226.9883">render</text><polygon fill="#A80036" points="380.5,257.041,390.5,261.041,380.5,265.041,384.5,261.041" style="stroke: #A80036; stroke-width: 1.0;"/><line style="stroke: #A80036; stroke-width: 1.0;" x1="41.5" x2="386.5" y1="261.041" y2="261.041"/><text fill="#000000" font-family="sans-serif" font-size="13" lengthAdjust="spacingAndGlyphs" textLength="33" x="48.5" y="256.2988">input</text><path d="M13,276.041 L75,276.041 L75,283.041 L65,293.041 L13,293.041 L13,276.041 " fill="#EEEEEE" style="stroke: #000000; stroke-width: 1.0;"/><rect fill="none" height="335.0605" style="stroke: #000000; stroke-width: 2.0;" width="661.5" x="13" y="276.041"/><text fill="#000000" font-family="sans-serif" font-size="13" font-weight="bold" lengthAdjust="spacingAndGlyphs" textLength="17" x="28" y="289.6094">alt</text><text fill="#000000" font-family="sans-serif" font-size="11" font-weight="bold" lengthAdjust="spacingAndGlyphs" textLength="94" x="90" y="288.6758">[press Enter key]</text><polygon fill="#A80036" points="375.5,310.6621,385.5,314.6621,375.5,318.6621,379.5,314.6621" style="stroke: #A80036; stroke-width: 1.0;"/><line style="stroke: #A80036; stroke-width: 1.0;" x1="41.5" x2="381.5" y1="314.6621" y2="314.6621"/><text fill="#000000" font-family="sans-serif" font-size="13" lengthAdjust="spacingAndGlyphs" textLength="96" x="48.5" y="309.9199">press Enter key</text><line style="stroke: #A80036; stroke-width: 1.0;" x1="397.5" x2="444.5" y1="338.9727" y2="338.9727"/><line style="stroke: #A80036; stroke-width: 1.0;" x1="444.5" x2="444.5" y1="338.9727" y2="351.9727"/><line style="stroke: #A80036; stroke-width: 1.0;" x1="403.5" x2="444.5" y1="351.9727" y2="351.9727"/><polygon fill="#A80036" points="413.5,347.9727,403.5,351.9727,413.5,355.9727,409.5,351.9727" style="stroke: #A80036; stroke-width: 1.0;"/><text fill="#000000" font-family="sans-serif" font-size="13" lengthAdjust="spacingAndGlyphs" textLength="107" x="409.5" y="334.2305">keyDownHandler</text><path d="M523,329.1621 L523,354.1621 L645,354.1621 L645,339.1621 L635,329.1621 L523,329.1621 " fill="#FBFB77" filter="url(#f2n9keb9qoxy9)" style="stroke: #A80036; stroke-width: 1.0;"/><path d="M635,329.1621 L635,339.1621 L645,339.1621 L635,329.1621 " fill="#FBFB77" style="stroke: #A80036; stroke-width: 1.0;"/><text fill="#000000" font-family="sans-serif" font-size="13" lengthAdjust="spacingAndGlyphs" textLength="101" x="529" y="346.7305">detect enter key</text><polygon fill="#A80036" points="231.5,382.2832,221.5,386.2832,231.5,390.2832,227.5,386.2832" style="stroke: #A80036; stroke-width: 1.0;"/><line style="stroke: #A80036; stroke-width: 1.0;" x1="225.5" x2="386.5" y1="386.2832" y2="386.2832"/><text fill="#000000" font-family="sans-serif" font-size="13" lengthAdjust="spacingAndGlyphs" textLength="143" x="237.5" y="381.541">blurHandler(newName)</text><line style="stroke: #A80036; stroke-width: 1.0;" x1="220.5" x2="262.5" y1="415.5938" y2="415.5938"/><line style="stroke: #A80036; stroke-width: 1.0;" x1="262.5" x2="262.5" y1="415.5938" y2="428.5938"/><line style="stroke: #A80036; stroke-width: 1.0;" x1="221.5" x2="262.5" y1="428.5938" y2="428.5938"/><polygon fill="#A80036" points="231.5,424.5938,221.5,428.5938,231.5,432.5938,227.5,428.5938" style="stroke: #A80036; stroke-width: 1.0;"/><text fill="#000000" font-family="sans-serif" font-size="13" lengthAdjust="spacingAndGlyphs" textLength="101" x="227.5" y="410.8516">setEditing(false)</text><polygon fill="#A80036" points="525,453.9043,535,457.9043,525,461.9043,529,457.9043" style="stroke: #A80036; stroke-width: 1.0;"/><line style="stroke: #A80036; stroke-width: 1.0;" x1="215.5" x2="531" y1="457.9043" y2="457.9043"/><text fill="#000000" font-family="sans-serif" font-size="13" lengthAdjust="spacingAndGlyphs" textLength="235" x="222.5" y="453.1621">renameChannel(channelId, newName)</text><line style="stroke: #000000; stroke-width: 1.0; stroke-dasharray: 2.0,2.0;" x1="13" x2="674.5" y1="466.9043" y2="466.9043"/><text fill="#000000" font-family="sans-serif" font-size="11" font-weight="bold" lengthAdjust="spacingAndGlyphs" textLength="80" x="18" y="477.5391">[click outside]</text><polygon fill="#A80036" points="380.5,498.1699,390.5,502.1699,380.5,506.1699,384.5,502.1699" style="stroke: #A80036; stroke-width: 1.0;"/><line style="stroke: #A80036; stroke-width: 1.0;" x1="41.5" x2="386.5" y1="502.1699" y2="502.1699"/><text fill="#000000" font-family="sans-serif" font-size="13" lengthAdjust="spacingAndGlyphs" textLength="25" x="48.5" y="497.4277">blur</text><polygon fill="#A80036" points="231.5,527.4805,221.5,531.4805,231.5,535.4805,227.5,531.4805" style="stroke: #A80036; stroke-width: 1.0;"/><line style="stroke: #A80036; stroke-width: 1.0;" x1="225.5" x2="391.5" y1="531.4805" y2="531.4805"/><text fill="#000000" font-family="sans-serif" font-size="13" lengthAdjust="spacingAndGlyphs" textLength="143" x="237.5" y="526.7383">blurHandler(newName)</text><line style="stroke: #A80036; stroke-width: 1.0;" x1="220.5" x2="262.5" y1="560.791" y2="560.791"/><line style="stroke: #A80036; stroke-width: 1.0;" x1="262.5" x2="262.5" y1="560.791" y2="573.791"/><line style="stroke: #A80036; stroke-width: 1.0;" x1="221.5" x2="262.5" y1="573.791" y2="573.791"/><polygon fill="#A80036" points="231.5,569.791,221.5,573.791,231.5,577.791,227.5,573.791" style="stroke: #A80036; stroke-width: 1.0;"/><text fill="#000000" font-family="sans-serif" font-size="13" lengthAdjust="spacingAndGlyphs" textLength="101" x="227.5" y="556.0488">setEditing(false)</text><polygon fill="#A80036" points="525,599.1016,535,603.1016,525,607.1016,529,603.1016" style="stroke: #A80036; stroke-width: 1.0;"/><line style="stroke: #A80036; stroke-width: 1.0;" x1="215.5" x2="531" y1="603.1016" y2="603.1016"/><text fill="#000000" font-family="sans-serif" font-size="13" lengthAdjust="spacingAndGlyphs" textLength="235" x="222.5" y="598.3594">renameChannel(channelId, newName)</text><!--
@startuml
actor User

User -> AudioChannel: double click name area
activate AudioChannel
AudioChannel -> AudioChannel: doubleClickHandler
activate AudioChannel
AudioChannel -> AudioChannel: setEditing(true)
AudioChannel -> ChannelNameInput: render
deactivate AudioChannel

User -> ChannelNameInput: input
alt press Enter key
  User -> ChannelNameInput: press Enter key
  activate ChannelNameInput
  ChannelNameInput -> ChannelNameInput: keyDownHandler
  note right: detect enter key
  activate AudioChannel
  ChannelNameInput -> AudioChannel: blurHandler(newName)
  AudioChannel -> AudioChannel: setEditing(false)
  AudioChannel -> ChannelAction: renameChannel(channelId, newName)
  deactivate AudioChannel
  deactivate ChannelNameInput
else click outside
  User -> ChannelNameInput: blur
  activate AudioChannel
  ChannelNameInput -> AudioChannel: blurHandler(newName)
  AudioChannel -> AudioChannel: setEditing(false)
  AudioChannel -> ChannelAction: renameChannel(channelId, newName)
  deactivate AudioChannel
  deactivate ChannelNameInput
end
deactivate AudioChannel

@enduml

PlantUML version 1.2019.09(Tue Aug 27 00:19:51 CST 2019)
(GPL source distribution)
Java Runtime: OpenJDK Runtime Environment
JVM: OpenJDK 64-Bit Server VM
Java Version: 13.0.2+8
Operating System: Mac OS X
OS Version: 10.14.6
Default Encoding: UTF-8
Language: zh
Country: CN
--></g></svg>