<?xml version="1.0" encoding="UTF-8" standalone="no"?><svg xmlns="http://www.w3.org/2000/svg" xmlns:xlink="http://www.w3.org/1999/xlink" contentScriptType="application/ecmascript" contentStyleType="text/css" height="366px" preserveAspectRatio="none" style="width:492px;height:366px;" version="1.1" viewBox="0 0 492 366" width="492px" zoomAndPan="magnify"><defs><filter height="300%" id="ftivoggn2sanh" width="300%" x="-1" y="-1"><feGaussianBlur result="blurOut" stdDeviation="2.0"/><feColorMatrix in="blurOut" result="blurOut2" type="matrix" values="0 0 0 0 0 0 0 0 0 0 0 0 0 0 0 0 0 0 .4 0"/><feOffset dx="4.0" dy="4.0" in="blurOut2" result="blurOut3"/><feBlend in="SourceGraphic" in2="blurOut3" mode="normal"/></filter></defs><g><rect fill="#FFFFFF" filter="url(#ftivoggn2sanh)" height="143.2422" style="stroke: #A80036; stroke-width: 1.0;" width="10" x="153.5" y="117.7988"/><rect fill="#FFFFFF" filter="url(#ftivoggn2sanh)" height="105.9316" style="stroke: #A80036; stroke-width: 1.0;" width="10" x="158.5" y="155.1094"/><line style="stroke: #A80036; stroke-width: 1.0; stroke-dasharray: 5.0,5.0;" x1="26" x2="26" y1="86.4883" y2="279.041"/><line style="stroke: #A80036; stroke-width: 1.0; stroke-dasharray: 5.0,5.0;" x1="158.5" x2="158.5" y1="86.4883" y2="279.041"/><line style="stroke: #A80036; stroke-width: 1.0; stroke-dasharray: 5.0,5.0;" x1="433.5" x2="433.5" y1="86.4883" y2="279.041"/><text fill="#000000" font-family="sans-serif" font-size="14" lengthAdjust="spacingAndGlyphs" textLength="31" x="8" y="83.5352">User</text><ellipse cx="26.5" cy="13" fill="#FEFECE" filter="url(#ftivoggn2sanh)" rx="8" ry="8" style="stroke: #A80036; stroke-width: 2.0;"/><path d="M26.5,21 L26.5,48 M13.5,29 L39.5,29 M26.5,48 L13.5,63 M26.5,48 L39.5,63 " fill="none" filter="url(#ftivoggn2sanh)" style="stroke: #A80036; stroke-width: 2.0;"/><text fill="#000000" font-family="sans-serif" font-size="14" lengthAdjust="spacingAndGlyphs" textLength="31" x="8" y="291.5762">User</text><ellipse cx="26.5" cy="304.5293" fill="#FEFECE" filter="url(#ftivoggn2sanh)" rx="8" ry="8" style="stroke: #A80036; stroke-width: 2.0;"/><path d="M26.5,312.5293 L26.5,339.5293 M13.5,320.5293 L39.5,320.5293 M26.5,339.5293 L13.5,354.5293 M26.5,339.5293 L39.5,354.5293 " fill="none" filter="url(#ftivoggn2sanh)" style="stroke: #A80036; stroke-width: 2.0;"/><rect fill="#FEFECE" filter="url(#ftivoggn2sanh)" height="30.4883" style="stroke: #A80036; stroke-width: 1.5;" width="88" x="112.5" y="51"/><text fill="#000000" font-family="sans-serif" font-size="14" lengthAdjust="spacingAndGlyphs" textLength="74" x="119.5" y="71.5352">ControlBar</text><rect fill="#FEFECE" filter="url(#ftivoggn2sanh)" height="30.4883" style="stroke: #A80036; stroke-width: 1.5;" width="88" x="112.5" y="278.041"/><text fill="#000000" font-family="sans-serif" font-size="14" lengthAdjust="spacingAndGlyphs" textLength="74" x="119.5" y="298.5762">ControlBar</text><rect fill="#FEFECE" filter="url(#ftivoggn2sanh)" height="30.4883" style="stroke: #A80036; stroke-width: 1.5;" width="100" x="381.5" y="51"/><text fill="#000000" font-family="sans-serif" font-size="14" lengthAdjust="spacingAndGlyphs" textLength="86" x="388.5" y="71.5352">EventEmitter</text><rect fill="#FEFECE" filter="url(#ftivoggn2sanh)" height="30.4883" style="stroke: #A80036; stroke-width: 1.5;" width="100" x="381.5" y="278.041"/><text fill="#000000" font-family="sans-serif" font-size="14" lengthAdjust="spacingAndGlyphs" textLength="86" x="388.5" y="298.5762">EventEmitter</text><rect fill="#FFFFFF" filter="url(#ftivoggn2sanh)" height="143.2422" style="stroke: #A80036; stroke-width: 1.0;" width="10" x="153.5" y="117.7988"/><rect fill="#FFFFFF" filter="url(#ftivoggn2sanh)" height="105.9316" style="stroke: #A80036; stroke-width: 1.0;" width="10" x="158.5" y="155.1094"/><polygon fill="#A80036" points="141.5,113.7988,151.5,117.7988,141.5,121.7988,145.5,117.7988" style="stroke: #A80036; stroke-width: 1.0;"/><line style="stroke: #A80036; stroke-width: 1.0;" x1="26.5" x2="147.5" y1="117.7988" y2="117.7988"/><text fill="#000000" font-family="sans-serif" font-size="13" lengthAdjust="spacingAndGlyphs" textLength="108" x="33.5" y="113.0566">click stop button</text><line style="stroke: #A80036; stroke-width: 1.0;" x1="163.5" x2="210.5" y1="142.1094" y2="142.1094"/><line style="stroke: #A80036; stroke-width: 1.0;" x1="210.5" x2="210.5" y1="142.1094" y2="155.1094"/><line style="stroke: #A80036; stroke-width: 1.0;" x1="169.5" x2="210.5" y1="155.1094" y2="155.1094"/><polygon fill="#A80036" points="179.5,151.1094,169.5,155.1094,179.5,159.1094,175.5,155.1094" style="stroke: #A80036; stroke-width: 1.0;"/><text fill="#000000" font-family="sans-serif" font-size="13" lengthAdjust="spacingAndGlyphs" textLength="110" x="175.5" y="137.3672">handleStopClick()</text><line style="stroke: #A80036; stroke-width: 1.0;" x1="168.5" x2="210.5" y1="189.4199" y2="189.4199"/><line style="stroke: #A80036; stroke-width: 1.0;" x1="210.5" x2="210.5" y1="189.4199" y2="202.4199"/><line style="stroke: #A80036; stroke-width: 1.0;" x1="169.5" x2="210.5" y1="202.4199" y2="202.4199"/><polygon fill="#A80036" points="179.5,198.4199,169.5,202.4199,179.5,206.4199,175.5,202.4199" style="stroke: #A80036; stroke-width: 1.0;"/><text fill="#000000" font-family="sans-serif" font-size="13" lengthAdjust="spacingAndGlyphs" textLength="118" x="175.5" y="184.6777">handlePauseClick()</text><polygon fill="#A80036" points="421.5,227.7305,431.5,231.7305,421.5,235.7305,425.5,231.7305" style="stroke: #A80036; stroke-width: 1.0;"/><line style="stroke: #A80036; stroke-width: 1.0;" x1="168.5" x2="427.5" y1="231.7305" y2="231.7305"/><text fill="#000000" font-family="sans-serif" font-size="13" lengthAdjust="spacingAndGlyphs" textLength="241" x="175.5" y="226.9883">emit('editorIndicatorShouldChange', 0)</text><polygon fill="#A80036" points="421.5,257.041,431.5,261.041,421.5,265.041,425.5,261.041" style="stroke: #A80036; stroke-width: 1.0;"/><line style="stroke: #A80036; stroke-width: 1.0;" x1="158.5" x2="427.5" y1="261.041" y2="261.041"/><text fill="#000000" font-family="sans-serif" font-size="13" lengthAdjust="spacingAndGlyphs" textLength="190" x="165.5" y="256.2988">emit('editorIndicatorChanged')</text><!--
@startuml
actor User

participant EventEmitter order 30

User -> ControlBar: click stop button
activate ControlBar
ControlBar -> ControlBar: handleStopClick()
activate ControlBar
ControlBar -> ControlBar: handlePauseClick()
ControlBar -> EventEmitter: emit('editorIndicatorShouldChange', 0)
ControlBar -> EventEmitter: emit('editorIndicatorChanged')
deactivate ControlBar
deactivate ControlBar

@enduml

PlantUML version 1.2019.09(Tue Aug 27 00:19:51 CST 2019)
(GPL source distribution)
Java Runtime: OpenJDK Runtime Environment
JVM: OpenJDK 64-Bit Server VM
Java Version: 13.0.2+8
Operating System: Mac OS X
OS Version: 10.14.6
Default Encoding: UTF-8
Language: zh
Country: CN
--></g></svg>