<?xml version="1.0" encoding="UTF-8" standalone="no"?><svg xmlns="http://www.w3.org/2000/svg" xmlns:xlink="http://www.w3.org/1999/xlink" contentScriptType="application/ecmascript" contentStyleType="text/css" height="454px" preserveAspectRatio="none" style="width:599px;height:454px;" version="1.1" viewBox="0 0 599 454" width="599px" zoomAndPan="magnify"><defs><filter height="300%" id="f15lfyelq2d8cc" width="300%" x="-1" y="-1"><feGaussianBlur result="blurOut" stdDeviation="2.0"/><feColorMatrix in="blurOut" result="blurOut2" type="matrix" values="0 0 0 0 0 0 0 0 0 0 0 0 0 0 0 0 0 0 .4 0"/><feOffset dx="4.0" dy="4.0" in="blurOut2" result="blurOut3"/><feBlend in="SourceGraphic" in2="blurOut3" mode="normal"/></filter></defs><g><rect fill="#FFFFFF" filter="url(#f15lfyelq2d8cc)" height="240.1738" style="stroke: #A80036; stroke-width: 1.0;" width="10" x="153.5" y="117.7988"/><rect fill="#FFFFFF" filter="url(#f15lfyelq2d8cc)" height="105.9316" style="stroke: #A80036; stroke-width: 1.0;" width="10" x="158.5" y="155.1094"/><rect fill="#FFFFFF" filter="url(#f15lfyelq2d8cc)" height="29.3105" style="stroke: #A80036; stroke-width: 1.0;" width="10" x="287.5" y="261.041"/><rect fill="#FFFFFF" filter="url(#f15lfyelq2d8cc)" height="58.6211" style="stroke: #A80036; stroke-width: 1.0;" width="10" x="535.5" y="290.3516"/><line style="stroke: #A80036; stroke-width: 1.0; stroke-dasharray: 5.0,5.0;" x1="26" x2="26" y1="86.4883" y2="366.9727"/><line style="stroke: #A80036; stroke-width: 1.0; stroke-dasharray: 5.0,5.0;" x1="158.5" x2="158.5" y1="86.4883" y2="366.9727"/><line style="stroke: #A80036; stroke-width: 1.0; stroke-dasharray: 5.0,5.0;" x1="292" x2="292" y1="86.4883" y2="366.9727"/><line style="stroke: #A80036; stroke-width: 1.0; stroke-dasharray: 5.0,5.0;" x1="396" x2="396" y1="86.4883" y2="366.9727"/><line style="stroke: #A80036; stroke-width: 1.0; stroke-dasharray: 5.0,5.0;" x1="540.5" x2="540.5" y1="86.4883" y2="366.9727"/><text fill="#000000" font-family="sans-serif" font-size="14" lengthAdjust="spacingAndGlyphs" textLength="31" x="8" y="83.5352">User</text><ellipse cx="26.5" cy="13" fill="#FEFECE" filter="url(#f15lfyelq2d8cc)" rx="8" ry="8" style="stroke: #A80036; stroke-width: 2.0;"/><path d="M26.5,21 L26.5,48 M13.5,29 L39.5,29 M26.5,48 L13.5,63 M26.5,48 L39.5,63 " fill="none" filter="url(#f15lfyelq2d8cc)" style="stroke: #A80036; stroke-width: 2.0;"/><text fill="#000000" font-family="sans-serif" font-size="14" lengthAdjust="spacingAndGlyphs" textLength="31" x="8" y="379.5078">User</text><ellipse cx="26.5" cy="392.4609" fill="#FEFECE" filter="url(#f15lfyelq2d8cc)" rx="8" ry="8" style="stroke: #A80036; stroke-width: 2.0;"/><path d="M26.5,400.4609 L26.5,427.4609 M13.5,408.4609 L39.5,408.4609 M26.5,427.4609 L13.5,442.4609 M26.5,427.4609 L39.5,442.4609 " fill="none" filter="url(#f15lfyelq2d8cc)" style="stroke: #A80036; stroke-width: 2.0;"/><rect fill="#FEFECE" filter="url(#f15lfyelq2d8cc)" height="30.4883" style="stroke: #A80036; stroke-width: 1.5;" width="88" x="112.5" y="51"/><text fill="#000000" font-family="sans-serif" font-size="14" lengthAdjust="spacingAndGlyphs" textLength="74" x="119.5" y="71.5352">ControlBar</text><rect fill="#FEFECE" filter="url(#f15lfyelq2d8cc)" height="30.4883" style="stroke: #A80036; stroke-width: 1.5;" width="88" x="112.5" y="365.9727"/><text fill="#000000" font-family="sans-serif" font-size="14" lengthAdjust="spacingAndGlyphs" textLength="74" x="119.5" y="386.5078">ControlBar</text><rect fill="#FEFECE" filter="url(#f15lfyelq2d8cc)" height="30.4883" style="stroke: #A80036; stroke-width: 1.5;" width="55" x="263" y="51"/><text fill="#000000" font-family="sans-serif" font-size="14" lengthAdjust="spacingAndGlyphs" textLength="41" x="270" y="71.5352">Editor</text><rect fill="#FEFECE" filter="url(#f15lfyelq2d8cc)" height="30.4883" style="stroke: #A80036; stroke-width: 1.5;" width="55" x="263" y="365.9727"/><text fill="#000000" font-family="sans-serif" font-size="14" lengthAdjust="spacingAndGlyphs" textLength="41" x="270" y="386.5078">Editor</text><rect fill="#FEFECE" filter="url(#f15lfyelq2d8cc)" height="30.4883" style="stroke: #A80036; stroke-width: 1.5;" width="125" x="332" y="51"/><text fill="#000000" font-family="sans-serif" font-size="14" lengthAdjust="spacingAndGlyphs" textLength="111" x="339" y="71.5352">AudioController</text><rect fill="#FEFECE" filter="url(#f15lfyelq2d8cc)" height="30.4883" style="stroke: #A80036; stroke-width: 1.5;" width="125" x="332" y="365.9727"/><text fill="#000000" font-family="sans-serif" font-size="14" lengthAdjust="spacingAndGlyphs" textLength="111" x="339" y="386.5078">AudioController</text><rect fill="#FEFECE" filter="url(#f15lfyelq2d8cc)" height="30.4883" style="stroke: #A80036; stroke-width: 1.5;" width="100" x="488.5" y="51"/><text fill="#000000" font-family="sans-serif" font-size="14" lengthAdjust="spacingAndGlyphs" textLength="86" x="495.5" y="71.5352">EventEmitter</text><rect fill="#FEFECE" filter="url(#f15lfyelq2d8cc)" height="30.4883" style="stroke: #A80036; stroke-width: 1.5;" width="100" x="488.5" y="365.9727"/><text fill="#000000" font-family="sans-serif" font-size="14" lengthAdjust="spacingAndGlyphs" textLength="86" x="495.5" y="386.5078">EventEmitter</text><rect fill="#FFFFFF" filter="url(#f15lfyelq2d8cc)" height="240.1738" style="stroke: #A80036; stroke-width: 1.0;" width="10" x="153.5" y="117.7988"/><rect fill="#FFFFFF" filter="url(#f15lfyelq2d8cc)" height="105.9316" style="stroke: #A80036; stroke-width: 1.0;" width="10" x="158.5" y="155.1094"/><rect fill="#FFFFFF" filter="url(#f15lfyelq2d8cc)" height="29.3105" style="stroke: #A80036; stroke-width: 1.0;" width="10" x="287.5" y="261.041"/><rect fill="#FFFFFF" filter="url(#f15lfyelq2d8cc)" height="58.6211" style="stroke: #A80036; stroke-width: 1.0;" width="10" x="535.5" y="290.3516"/><polygon fill="#A80036" points="141.5,113.7988,151.5,117.7988,141.5,121.7988,145.5,117.7988" style="stroke: #A80036; stroke-width: 1.0;"/><line style="stroke: #A80036; stroke-width: 1.0;" x1="26.5" x2="147.5" y1="117.7988" y2="117.7988"/><text fill="#000000" font-family="sans-serif" font-size="13" lengthAdjust="spacingAndGlyphs" textLength="108" x="33.5" y="113.0566">click stop button</text><line style="stroke: #A80036; stroke-width: 1.0;" x1="163.5" x2="210.5" y1="142.1094" y2="142.1094"/><line style="stroke: #A80036; stroke-width: 1.0;" x1="210.5" x2="210.5" y1="142.1094" y2="155.1094"/><line style="stroke: #A80036; stroke-width: 1.0;" x1="169.5" x2="210.5" y1="155.1094" y2="155.1094"/><polygon fill="#A80036" points="179.5,151.1094,169.5,155.1094,179.5,159.1094,175.5,155.1094" style="stroke: #A80036; stroke-width: 1.0;"/><text fill="#000000" font-family="sans-serif" font-size="13" lengthAdjust="spacingAndGlyphs" textLength="110" x="175.5" y="137.3672">handleStopClick()</text><line style="stroke: #A80036; stroke-width: 1.0;" x1="168.5" x2="210.5" y1="189.4199" y2="189.4199"/><line style="stroke: #A80036; stroke-width: 1.0;" x1="210.5" x2="210.5" y1="189.4199" y2="202.4199"/><line style="stroke: #A80036; stroke-width: 1.0;" x1="169.5" x2="210.5" y1="202.4199" y2="202.4199"/><polygon fill="#A80036" points="179.5,198.4199,169.5,202.4199,179.5,206.4199,175.5,202.4199" style="stroke: #A80036; stroke-width: 1.0;"/><text fill="#000000" font-family="sans-serif" font-size="13" lengthAdjust="spacingAndGlyphs" textLength="91" x="175.5" y="184.6777">requestPause()</text><polygon fill="#A80036" points="528.5,227.7305,538.5,231.7305,528.5,235.7305,532.5,231.7305" style="stroke: #A80036; stroke-width: 1.0;"/><line style="stroke: #A80036; stroke-width: 1.0;" x1="168.5" x2="534.5" y1="231.7305" y2="231.7305"/><text fill="#000000" font-family="sans-serif" font-size="13" lengthAdjust="spacingAndGlyphs" textLength="117" x="175.5" y="226.9883">emit('requestStop')</text><polygon fill="#A80036" points="308.5,257.041,298.5,261.041,308.5,265.041,304.5,261.041" style="stroke: #A80036; stroke-width: 1.0;"/><line style="stroke: #A80036; stroke-width: 1.0;" x1="302.5" x2="539.5" y1="261.041" y2="261.041"/><text fill="#000000" font-family="sans-serif" font-size="13" lengthAdjust="spacingAndGlyphs" textLength="64" x="314.5" y="256.2988">stopEffect</text><polygon fill="#A80036" points="523.5,286.3516,533.5,290.3516,523.5,294.3516,527.5,290.3516" style="stroke: #A80036; stroke-width: 1.0;"/><line style="stroke: #A80036; stroke-width: 1.0;" x1="292.5" x2="529.5" y1="290.3516" y2="290.3516"/><text fill="#000000" font-family="sans-serif" font-size="13" lengthAdjust="spacingAndGlyphs" textLength="199" x="299.5" y="285.6094">editorIndicatorShouldChange(0)</text><polygon fill="#A80036" points="407.5,315.6621,397.5,319.6621,407.5,323.6621,403.5,319.6621" style="stroke: #A80036; stroke-width: 1.0;"/><line style="stroke: #A80036; stroke-width: 1.0;" x1="401.5" x2="534.5" y1="319.6621" y2="319.6621"/><text fill="#000000" font-family="sans-serif" font-size="13" lengthAdjust="spacingAndGlyphs" textLength="115" x="413.5" y="314.9199">changeProgress(0)</text><polygon fill="#A80036" points="174.5,344.9727,164.5,348.9727,174.5,352.9727,170.5,348.9727" style="stroke: #A80036; stroke-width: 1.0;"/><line style="stroke: #A80036; stroke-width: 1.0;" x1="168.5" x2="539.5" y1="348.9727" y2="348.9727"/><text fill="#000000" font-family="sans-serif" font-size="13" lengthAdjust="spacingAndGlyphs" textLength="139" x="180.5" y="344.2305">indicatorChangeEffect</text><!--
@startuml
actor User

participant EventEmitter order 30

User -> ControlBar: click stop button
activate ControlBar
ControlBar -> ControlBar: handleStopClick()
activate ControlBar
ControlBar -> ControlBar: requestPause()
ControlBar -> EventEmitter: emit('requestStop')
EventEmitter -> Editor: stopEffect
deactivate ControlBar
activate Editor
Editor -> EventEmitter: editorIndicatorShouldChange(0)
deactivate Editor
activate EventEmitter
EventEmitter -> AudioController: changeProgress(0)
EventEmitter -> ControlBar: indicatorChangeEffect
deactivate EventEmitter

@enduml

PlantUML version 1.2019.09(Tue Aug 27 00:19:51 CST 2019)
(GPL source distribution)
Java Runtime: OpenJDK Runtime Environment
JVM: OpenJDK 64-Bit Server VM
Java Version: 13.0.2+8
Operating System: Mac OS X
OS Version: 10.14.6
Default Encoding: UTF-8
Language: zh
Country: CN
--></g></svg>