<?xml version="1.0" encoding="UTF-8" standalone="no"?><svg xmlns="http://www.w3.org/2000/svg" xmlns:xlink="http://www.w3.org/1999/xlink" contentScriptType="application/ecmascript" contentStyleType="text/css" height="412px" preserveAspectRatio="none" style="width:706px;height:412px;" version="1.1" viewBox="0 0 706 412" width="706px" zoomAndPan="magnify"><defs><filter height="300%" id="fdwyhztev0hrz" width="300%" x="-1" y="-1"><feGaussianBlur result="blurOut" stdDeviation="2.0"/><feColorMatrix in="blurOut" result="blurOut2" type="matrix" values="0 0 0 0 0 0 0 0 0 0 0 0 0 0 0 0 0 0 .4 0"/><feOffset dx="4.0" dy="4.0" in="blurOut2" result="blurOut3"/><feBlend in="SourceGraphic" in2="blurOut3" mode="normal"/></filter></defs><g><rect fill="#FFFFFF" filter="url(#fdwyhztev0hrz)" height="71.6211" style="stroke: #A80036; stroke-width: 1.0;" width="10" x="151.5" y="117.7988"/><line style="stroke: #A80036; stroke-width: 1.0; stroke-dasharray: 5.0,5.0;" x1="26" x2="26" y1="86.4883" y2="324.6621"/><line style="stroke: #A80036; stroke-width: 1.0; stroke-dasharray: 5.0,5.0;" x1="156.5" x2="156.5" y1="86.4883" y2="324.6621"/><line style="stroke: #A80036; stroke-width: 1.0; stroke-dasharray: 5.0,5.0;" x1="348" x2="348" y1="86.4883" y2="324.6621"/><line style="stroke: #A80036; stroke-width: 1.0; stroke-dasharray: 5.0,5.0;" x1="498" x2="498" y1="86.4883" y2="324.6621"/><line style="stroke: #A80036; stroke-width: 1.0; stroke-dasharray: 5.0,5.0;" x1="566" x2="566" y1="86.4883" y2="324.6621"/><line style="stroke: #A80036; stroke-width: 1.0; stroke-dasharray: 5.0,5.0;" x1="651" x2="651" y1="86.4883" y2="324.6621"/><text fill="#000000" font-family="sans-serif" font-size="14" lengthAdjust="spacingAndGlyphs" textLength="31" x="8" y="83.5352">User</text><ellipse cx="26.5" cy="13" fill="#FEFECE" filter="url(#fdwyhztev0hrz)" rx="8" ry="8" style="stroke: #A80036; stroke-width: 2.0;"/><path d="M26.5,21 L26.5,48 M13.5,29 L39.5,29 M26.5,48 L13.5,63 M26.5,48 L39.5,63 " fill="none" filter="url(#fdwyhztev0hrz)" style="stroke: #A80036; stroke-width: 2.0;"/><text fill="#000000" font-family="sans-serif" font-size="14" lengthAdjust="spacingAndGlyphs" textLength="31" x="8" y="337.1973">User</text><ellipse cx="26.5" cy="350.1504" fill="#FEFECE" filter="url(#fdwyhztev0hrz)" rx="8" ry="8" style="stroke: #A80036; stroke-width: 2.0;"/><path d="M26.5,358.1504 L26.5,385.1504 M13.5,366.1504 L39.5,366.1504 M26.5,385.1504 L13.5,400.1504 M26.5,385.1504 L39.5,400.1504 " fill="none" filter="url(#fdwyhztev0hrz)" style="stroke: #A80036; stroke-width: 2.0;"/><rect fill="#FEFECE" filter="url(#fdwyhztev0hrz)" height="30.4883" style="stroke: #A80036; stroke-width: 1.5;" width="92" x="108.5" y="51"/><text fill="#000000" font-family="sans-serif" font-size="14" lengthAdjust="spacingAndGlyphs" textLength="78" x="115.5" y="71.5352">ZoomSlider</text><rect fill="#FEFECE" filter="url(#fdwyhztev0hrz)" height="30.4883" style="stroke: #A80036; stroke-width: 1.5;" width="92" x="108.5" y="323.6621"/><text fill="#000000" font-family="sans-serif" font-size="14" lengthAdjust="spacingAndGlyphs" textLength="78" x="115.5" y="344.1973">ZoomSlider</text><rect fill="#FEFECE" filter="url(#fdwyhztev0hrz)" height="30.4883" style="stroke: #A80036; stroke-width: 1.5;" width="99" x="297" y="51"/><text fill="#000000" font-family="sans-serif" font-size="14" lengthAdjust="spacingAndGlyphs" textLength="85" x="304" y="71.5352">EditorAction</text><rect fill="#FEFECE" filter="url(#fdwyhztev0hrz)" height="30.4883" style="stroke: #A80036; stroke-width: 1.5;" width="99" x="297" y="323.6621"/><text fill="#000000" font-family="sans-serif" font-size="14" lengthAdjust="spacingAndGlyphs" textLength="85" x="304" y="344.1973">EditorAction</text><rect fill="#FEFECE" filter="url(#fdwyhztev0hrz)" height="30.4883" style="stroke: #A80036; stroke-width: 1.5;" width="55" x="469" y="51"/><text fill="#000000" font-family="sans-serif" font-size="14" lengthAdjust="spacingAndGlyphs" textLength="41" x="476" y="71.5352">Editor</text><rect fill="#FEFECE" filter="url(#fdwyhztev0hrz)" height="30.4883" style="stroke: #A80036; stroke-width: 1.5;" width="55" x="469" y="323.6621"/><text fill="#000000" font-family="sans-serif" font-size="14" lengthAdjust="spacingAndGlyphs" textLength="41" x="476" y="344.1973">Editor</text><rect fill="#FEFECE" filter="url(#fdwyhztev0hrz)" height="30.4883" style="stroke: #A80036; stroke-width: 1.5;" width="52" x="538" y="51"/><text fill="#000000" font-family="sans-serif" font-size="14" lengthAdjust="spacingAndGlyphs" textLength="38" x="545" y="71.5352">Track</text><rect fill="#FEFECE" filter="url(#fdwyhztev0hrz)" height="30.4883" style="stroke: #A80036; stroke-width: 1.5;" width="52" x="538" y="323.6621"/><text fill="#000000" font-family="sans-serif" font-size="14" lengthAdjust="spacingAndGlyphs" textLength="38" x="545" y="344.1973">Track</text><rect fill="#FEFECE" filter="url(#fdwyhztev0hrz)" height="30.4883" style="stroke: #A80036; stroke-width: 1.5;" width="91" x="604" y="51"/><text fill="#000000" font-family="sans-serif" font-size="14" lengthAdjust="spacingAndGlyphs" textLength="77" x="611" y="71.5352">AudioBlock</text><rect fill="#FEFECE" filter="url(#fdwyhztev0hrz)" height="30.4883" style="stroke: #A80036; stroke-width: 1.5;" width="91" x="604" y="323.6621"/><text fill="#000000" font-family="sans-serif" font-size="14" lengthAdjust="spacingAndGlyphs" textLength="77" x="611" y="344.1973">AudioBlock</text><rect fill="#FFFFFF" filter="url(#fdwyhztev0hrz)" height="71.6211" style="stroke: #A80036; stroke-width: 1.0;" width="10" x="151.5" y="117.7988"/><polygon fill="#A80036" points="139.5,113.7988,149.5,117.7988,139.5,121.7988,143.5,117.7988" style="stroke: #A80036; stroke-width: 1.0;"/><line style="stroke: #A80036; stroke-width: 1.0;" x1="26.5" x2="145.5" y1="117.7988" y2="117.7988"/><text fill="#000000" font-family="sans-serif" font-size="13" lengthAdjust="spacingAndGlyphs" textLength="106" x="33.5" y="113.0566">drag zoom slider</text><line style="stroke: #A80036; stroke-width: 1.0;" x1="161.5" x2="203.5" y1="147.1094" y2="147.1094"/><line style="stroke: #A80036; stroke-width: 1.0;" x1="203.5" x2="203.5" y1="147.1094" y2="160.1094"/><line style="stroke: #A80036; stroke-width: 1.0;" x1="162.5" x2="203.5" y1="160.1094" y2="160.1094"/><polygon fill="#A80036" points="172.5,156.1094,162.5,160.1094,172.5,164.1094,168.5,160.1094" style="stroke: #A80036; stroke-width: 1.0;"/><text fill="#000000" font-family="sans-serif" font-size="13" lengthAdjust="spacingAndGlyphs" textLength="168" x="168.5" y="142.3672">handleZoomChange(zoom)</text><polygon fill="#A80036" points="336.5,185.4199,346.5,189.4199,336.5,193.4199,340.5,189.4199" style="stroke: #A80036; stroke-width: 1.0;"/><line style="stroke: #A80036; stroke-width: 1.0;" x1="156.5" x2="342.5" y1="189.4199" y2="189.4199"/><text fill="#000000" font-family="sans-serif" font-size="13" lengthAdjust="spacingAndGlyphs" textLength="122" x="163.5" y="184.6777">updateZoom(zoom)</text><polygon fill="#A80036" points="486.5,214.7305,496.5,218.7305,486.5,222.7305,490.5,218.7305" style="stroke: #A80036; stroke-width: 1.0;"/><line style="stroke: #A80036; stroke-width: 1.0;" x1="348.5" x2="492.5" y1="218.7305" y2="218.7305"/><text fill="#000000" font-family="sans-serif" font-size="13" lengthAdjust="spacingAndGlyphs" textLength="126" x="355.5" y="213.9883">zoomChangeEffect()</text><polygon fill="#A80036" points="486.5,244.041,496.5,248.041,486.5,252.041,490.5,248.041" style="stroke: #A80036; stroke-width: 1.0;"/><line style="stroke: #A80036; stroke-width: 1.0;" x1="348.5" x2="492.5" y1="248.041" y2="248.041"/><text fill="#000000" font-family="sans-serif" font-size="13" lengthAdjust="spacingAndGlyphs" textLength="116" x="355.5" y="243.2988">rerenderIndicator()</text><polygon fill="#A80036" points="554,273.3516,564,277.3516,554,281.3516,558,277.3516" style="stroke: #A80036; stroke-width: 1.0;"/><line style="stroke: #A80036; stroke-width: 1.0;" x1="348.5" x2="560" y1="277.3516" y2="277.3516"/><text fill="#000000" font-family="sans-serif" font-size="13" lengthAdjust="spacingAndGlyphs" textLength="52" x="355.5" y="272.6094">rerender</text><polygon fill="#A80036" points="639.5,302.6621,649.5,306.6621,639.5,310.6621,643.5,306.6621" style="stroke: #A80036; stroke-width: 1.0;"/><line style="stroke: #A80036; stroke-width: 1.0;" x1="348.5" x2="645.5" y1="306.6621" y2="306.6621"/><text fill="#000000" font-family="sans-serif" font-size="13" lengthAdjust="spacingAndGlyphs" textLength="52" x="355.5" y="301.9199">rerender</text><!--
@startuml
actor User

User -> ZoomSlider: drag zoom slider
activate ZoomSlider
ZoomSlider -> ZoomSlider: handleZoomChange(zoom)
ZoomSlider -> EditorAction: updateZoom(zoom)
deactivate ZoomSlider
EditorAction -> Editor: zoomChangeEffect()
EditorAction -> Editor: rerenderIndicator()
EditorAction -> Track: rerender
EditorAction -> AudioBlock: rerender

@enduml

PlantUML version 1.2019.09(Tue Aug 27 00:19:51 CST 2019)
(GPL source distribution)
Java Runtime: OpenJDK Runtime Environment
JVM: OpenJDK 64-Bit Server VM
Java Version: 13.0.2+8
Operating System: Mac OS X
OS Version: 10.14.6
Default Encoding: UTF-8
Language: zh
Country: CN
--></g></svg>