<?xml version="1.0" encoding="UTF-8" standalone="no"?><svg xmlns="http://www.w3.org/2000/svg" xmlns:xlink="http://www.w3.org/1999/xlink" contentScriptType="application/ecmascript" contentStyleType="text/css" height="441px" preserveAspectRatio="none" style="width:755px;height:441px;" version="1.1" viewBox="0 0 755 441" width="755px" zoomAndPan="magnify"><defs><filter height="300%" id="f2k8z57rgk6b7" width="300%" x="-1" y="-1"><feGaussianBlur result="blurOut" stdDeviation="2.0"/><feColorMatrix in="blurOut" result="blurOut2" type="matrix" values="0 0 0 0 0 0 0 0 0 0 0 0 0 0 0 0 0 0 .4 0"/><feOffset dx="4.0" dy="4.0" in="blurOut2" result="blurOut3"/><feBlend in="SourceGraphic" in2="blurOut3" mode="normal"/></filter></defs><g><rect fill="#FFFFFF" filter="url(#f2k8z57rgk6b7)" height="29.3105" style="stroke: #A80036; stroke-width: 1.0;" width="10" x="96" y="117.7988"/><rect fill="#FFFFFF" filter="url(#f2k8z57rgk6b7)" height="159.5527" style="stroke: #A80036; stroke-width: 1.0;" width="10" x="402" y="176.4199"/><rect fill="#FFFFFF" filter="url(#f2k8z57rgk6b7)" height="122.2422" style="stroke: #A80036; stroke-width: 1.0;" width="10" x="688" y="213.7305"/><line style="stroke: #A80036; stroke-width: 1.0; stroke-dasharray: 5.0,5.0;" x1="26" x2="26" y1="86.4883" y2="353.9727"/><line style="stroke: #A80036; stroke-width: 1.0; stroke-dasharray: 5.0,5.0;" x1="101" x2="101" y1="86.4883" y2="353.9727"/><line style="stroke: #A80036; stroke-width: 1.0; stroke-dasharray: 5.0,5.0;" x1="219.5" x2="219.5" y1="86.4883" y2="353.9727"/><line style="stroke: #A80036; stroke-width: 1.0; stroke-dasharray: 5.0,5.0;" x1="407" x2="407" y1="86.4883" y2="353.9727"/><line style="stroke: #A80036; stroke-width: 1.0; stroke-dasharray: 5.0,5.0;" x1="692.5" x2="692.5" y1="86.4883" y2="353.9727"/><text fill="#000000" font-family="sans-serif" font-size="14" lengthAdjust="spacingAndGlyphs" textLength="31" x="8" y="83.5352">User</text><ellipse cx="26.5" cy="13" fill="#FEFECE" filter="url(#f2k8z57rgk6b7)" rx="8" ry="8" style="stroke: #A80036; stroke-width: 2.0;"/><path d="M26.5,21 L26.5,48 M13.5,29 L39.5,29 M26.5,48 L13.5,63 M26.5,48 L39.5,63 " fill="none" filter="url(#f2k8z57rgk6b7)" style="stroke: #A80036; stroke-width: 2.0;"/><text fill="#000000" font-family="sans-serif" font-size="14" lengthAdjust="spacingAndGlyphs" textLength="31" x="8" y="366.5078">User</text><ellipse cx="26.5" cy="379.4609" fill="#FEFECE" filter="url(#f2k8z57rgk6b7)" rx="8" ry="8" style="stroke: #A80036; stroke-width: 2.0;"/><path d="M26.5,387.4609 L26.5,414.4609 M13.5,395.4609 L39.5,395.4609 M26.5,414.4609 L13.5,429.4609 M26.5,414.4609 L39.5,429.4609 " fill="none" filter="url(#f2k8z57rgk6b7)" style="stroke: #A80036; stroke-width: 2.0;"/><rect fill="#FEFECE" filter="url(#f2k8z57rgk6b7)" height="30.4883" style="stroke: #A80036; stroke-width: 1.5;" width="88" x="55" y="51"/><text fill="#000000" font-family="sans-serif" font-size="14" lengthAdjust="spacingAndGlyphs" textLength="74" x="62" y="71.5352">ControlBar</text><rect fill="#FEFECE" filter="url(#f2k8z57rgk6b7)" height="30.4883" style="stroke: #A80036; stroke-width: 1.5;" width="88" x="55" y="352.9727"/><text fill="#000000" font-family="sans-serif" font-size="14" lengthAdjust="spacingAndGlyphs" textLength="74" x="62" y="373.5078">ControlBar</text><rect fill="#FEFECE" filter="url(#f2k8z57rgk6b7)" height="30.4883" style="stroke: #A80036; stroke-width: 1.5;" width="115" x="160.5" y="51"/><text fill="#000000" font-family="sans-serif" font-size="14" lengthAdjust="spacingAndGlyphs" textLength="101" x="167.5" y="71.5352">ChannelAction</text><rect fill="#FEFECE" filter="url(#f2k8z57rgk6b7)" height="30.4883" style="stroke: #A80036; stroke-width: 1.5;" width="115" x="160.5" y="352.9727"/><text fill="#000000" font-family="sans-serif" font-size="14" lengthAdjust="spacingAndGlyphs" textLength="101" x="167.5" y="373.5078">ChannelAction</text><rect fill="#FEFECE" filter="url(#f2k8z57rgk6b7)" height="30.4883" style="stroke: #A80036; stroke-width: 1.5;" width="112" x="349" y="51"/><text fill="#000000" font-family="sans-serif" font-size="14" lengthAdjust="spacingAndGlyphs" textLength="98" x="356" y="71.5352">AudioChannel</text><rect fill="#FEFECE" filter="url(#f2k8z57rgk6b7)" height="30.4883" style="stroke: #A80036; stroke-width: 1.5;" width="112" x="349" y="352.9727"/><text fill="#000000" font-family="sans-serif" font-size="14" lengthAdjust="spacingAndGlyphs" textLength="98" x="356" y="373.5078">AudioChannel</text><rect fill="#FEFECE" filter="url(#f2k8z57rgk6b7)" height="30.4883" style="stroke: #A80036; stroke-width: 1.5;" width="107" x="637.5" y="51"/><text fill="#000000" font-family="sans-serif" font-size="14" lengthAdjust="spacingAndGlyphs" textLength="93" x="644.5" y="71.5352">ContextMenu</text><rect fill="#FEFECE" filter="url(#f2k8z57rgk6b7)" height="30.4883" style="stroke: #A80036; stroke-width: 1.5;" width="107" x="637.5" y="352.9727"/><text fill="#000000" font-family="sans-serif" font-size="14" lengthAdjust="spacingAndGlyphs" textLength="93" x="644.5" y="373.5078">ContextMenu</text><rect fill="#FFFFFF" filter="url(#f2k8z57rgk6b7)" height="29.3105" style="stroke: #A80036; stroke-width: 1.0;" width="10" x="96" y="117.7988"/><rect fill="#FFFFFF" filter="url(#f2k8z57rgk6b7)" height="159.5527" style="stroke: #A80036; stroke-width: 1.0;" width="10" x="402" y="176.4199"/><rect fill="#FFFFFF" filter="url(#f2k8z57rgk6b7)" height="122.2422" style="stroke: #A80036; stroke-width: 1.0;" width="10" x="688" y="213.7305"/><polygon fill="#A80036" points="84,113.7988,94,117.7988,84,121.7988,88,117.7988" style="stroke: #A80036; stroke-width: 1.0;"/><line style="stroke: #A80036; stroke-width: 1.0;" x1="26.5" x2="90" y1="117.7988" y2="117.7988"/><text fill="#000000" font-family="sans-serif" font-size="13" lengthAdjust="spacingAndGlyphs" textLength="32" x="33.5" y="113.0566">Click</text><polygon fill="#A80036" points="208,143.1094,218,147.1094,208,151.1094,212,147.1094" style="stroke: #A80036; stroke-width: 1.0;"/><line style="stroke: #A80036; stroke-width: 1.0;" x1="101" x2="214" y1="147.1094" y2="147.1094"/><text fill="#000000" font-family="sans-serif" font-size="13" lengthAdjust="spacingAndGlyphs" textLength="90" x="108" y="142.3672">addChannel(0)</text><polygon fill="#A80036" points="390,172.4199,400,176.4199,390,180.4199,394,176.4199" style="stroke: #A80036; stroke-width: 1.0;"/><line style="stroke: #A80036; stroke-width: 1.0;" x1="26.5" x2="396" y1="176.4199" y2="176.4199"/><text fill="#000000" font-family="sans-serif" font-size="13" lengthAdjust="spacingAndGlyphs" textLength="69" x="33.5" y="171.6777">Right Click</text><line style="stroke: #A80036; stroke-width: 1.0;" x1="412" x2="459" y1="200.7305" y2="200.7305"/><line style="stroke: #A80036; stroke-width: 1.0;" x1="459" x2="459" y1="200.7305" y2="213.7305"/><line style="stroke: #A80036; stroke-width: 1.0;" x1="418" x2="459" y1="213.7305" y2="213.7305"/><polygon fill="#A80036" points="428,209.7305,418,213.7305,428,217.7305,424,213.7305" style="stroke: #A80036; stroke-width: 1.0;"/><text fill="#000000" font-family="sans-serif" font-size="13" lengthAdjust="spacingAndGlyphs" textLength="131" x="424" y="195.9883">contextMenuHandler</text><polygon fill="#A80036" points="676,244.041,686,248.041,676,252.041,680,248.041" style="stroke: #A80036; stroke-width: 1.0;"/><line style="stroke: #A80036; stroke-width: 1.0;" x1="412" x2="682" y1="248.041" y2="248.041"/><text fill="#000000" font-family="sans-serif" font-size="13" lengthAdjust="spacingAndGlyphs" textLength="40" x="419" y="243.2988">render</text><polygon fill="#A80036" points="676,273.3516,686,277.3516,676,281.3516,680,277.3516" style="stroke: #A80036; stroke-width: 1.0;"/><line style="stroke: #A80036; stroke-width: 1.0;" x1="26.5" x2="682" y1="277.3516" y2="277.3516"/><text fill="#000000" font-family="sans-serif" font-size="13" lengthAdjust="spacingAndGlyphs" textLength="226" x="33.5" y="272.6094">Click "Insert Above" / "Insert Below"</text><polygon fill="#A80036" points="423,302.6621,413,306.6621,423,310.6621,419,306.6621" style="stroke: #A80036; stroke-width: 1.0;"/><line style="stroke: #A80036; stroke-width: 1.0;" x1="417" x2="687" y1="306.6621" y2="306.6621"/><text fill="#000000" font-family="sans-serif" font-size="13" lengthAdjust="spacingAndGlyphs" textLength="252" x="429" y="301.9199">insertBelowHandler/insertAboveHandler</text><polygon fill="#A80036" points="231,331.9727,221,335.9727,231,339.9727,227,335.9727" style="stroke: #A80036; stroke-width: 1.0;"/><line style="stroke: #A80036; stroke-width: 1.0;" x1="225" x2="406" y1="335.9727" y2="335.9727"/><text fill="#000000" font-family="sans-serif" font-size="13" lengthAdjust="spacingAndGlyphs" textLength="158" x="237" y="331.2305">addChannel(index +/- 1)</text><!--
@startuml
actor User

User -> ControlBar: Click
activate ControlBar
ControlBar -> ChannelAction: addChannel(0)
deactivate ControlBar

User -> AudioChannel: Right Click
activate AudioChannel
AudioChannel -> AudioChannel: contextMenuHandler

activate ContextMenu
AudioChannel -> ContextMenu: render
User -> ContextMenu: Click "Insert Above" / "Insert Below"
ContextMenu -> AudioChannel: insertBelowHandler/insertAboveHandler
AudioChannel -> ChannelAction: addChannel(index +/- 1)
deactivate ContextMenu
deactivate AudioChannel

@enduml

PlantUML version 1.2019.09(Tue Aug 27 00:19:51 CST 2019)
(GPL source distribution)
Java Runtime: OpenJDK Runtime Environment
JVM: OpenJDK 64-Bit Server VM
Java Version: 13.0.2+8
Operating System: Mac OS X
OS Version: 10.14.6
Default Encoding: UTF-8
Language: zh
Country: CN
--></g></svg>