<?xml version="1.0" encoding="UTF-8" standalone="no"?><svg xmlns="http://www.w3.org/2000/svg" xmlns:xlink="http://www.w3.org/1999/xlink" contentScriptType="application/ecmascript" contentStyleType="text/css" height="506px" preserveAspectRatio="none" style="width:827px;height:506px;" version="1.1" viewBox="0 0 827 506" width="827px" zoomAndPan="magnify"><defs><filter height="300%" id="fs5imjddw2zlz" width="300%" x="-1" y="-1"><feGaussianBlur result="blurOut" stdDeviation="2.0"/><feColorMatrix in="blurOut" result="blurOut2" type="matrix" values="0 0 0 0 0 0 0 0 0 0 0 0 0 0 0 0 0 0 .4 0"/><feOffset dx="4.0" dy="4.0" in="blurOut2" result="blurOut3"/><feBlend in="SourceGraphic" in2="blurOut3" mode="normal"/></filter></defs><g><rect fill="#FFFFFF" filter="url(#fs5imjddw2zlz)" height="130.2422" style="stroke: #A80036; stroke-width: 1.0;" width="10" x="151.5" y="117.7988"/><rect fill="#FFFFFF" filter="url(#fs5imjddw2zlz)" height="175.5527" style="stroke: #A80036; stroke-width: 1.0;" width="10" x="416.5" y="218.7305"/><rect fill="#FFFFFF" filter="url(#fs5imjddw2zlz)" height="116.9316" style="stroke: #A80036; stroke-width: 1.0;" width="10" x="647" y="277.3516"/><rect fill="#FFFFFF" filter="url(#fs5imjddw2zlz)" height="79.6211" style="stroke: #A80036; stroke-width: 1.0;" width="10" x="652" y="314.6621"/><line style="stroke: #A80036; stroke-width: 1.0; stroke-dasharray: 5.0,5.0;" x1="26" x2="26" y1="86.4883" y2="419.2832"/><line style="stroke: #A80036; stroke-width: 1.0; stroke-dasharray: 5.0,5.0;" x1="156.5" x2="156.5" y1="86.4883" y2="419.2832"/><line style="stroke: #A80036; stroke-width: 1.0; stroke-dasharray: 5.0,5.0;" x1="287.5" x2="287.5" y1="86.4883" y2="419.2832"/><line style="stroke: #A80036; stroke-width: 1.0; stroke-dasharray: 5.0,5.0;" x1="421.5" x2="421.5" y1="86.4883" y2="419.2832"/><line style="stroke: #A80036; stroke-width: 1.0; stroke-dasharray: 5.0,5.0;" x1="547.5" x2="547.5" y1="86.4883" y2="419.2832"/><line style="stroke: #A80036; stroke-width: 1.0; stroke-dasharray: 5.0,5.0;" x1="651.5" x2="651.5" y1="86.4883" y2="419.2832"/><text fill="#000000" font-family="sans-serif" font-size="14" lengthAdjust="spacingAndGlyphs" textLength="31" x="8" y="83.5352">User</text><ellipse cx="26.5" cy="13" fill="#FEFECE" filter="url(#fs5imjddw2zlz)" rx="8" ry="8" style="stroke: #A80036; stroke-width: 2.0;"/><path d="M26.5,21 L26.5,48 M13.5,29 L39.5,29 M26.5,48 L13.5,63 M26.5,48 L39.5,63 " fill="none" filter="url(#fs5imjddw2zlz)" style="stroke: #A80036; stroke-width: 2.0;"/><text fill="#000000" font-family="sans-serif" font-size="14" lengthAdjust="spacingAndGlyphs" textLength="31" x="8" y="431.8184">User</text><ellipse cx="26.5" cy="444.7715" fill="#FEFECE" filter="url(#fs5imjddw2zlz)" rx="8" ry="8" style="stroke: #A80036; stroke-width: 2.0;"/><path d="M26.5,452.7715 L26.5,479.7715 M13.5,460.7715 L39.5,460.7715 M26.5,479.7715 L13.5,494.7715 M26.5,479.7715 L39.5,494.7715 " fill="none" filter="url(#fs5imjddw2zlz)" style="stroke: #A80036; stroke-width: 2.0;"/><rect fill="#FEFECE" filter="url(#fs5imjddw2zlz)" height="30.4883" style="stroke: #A80036; stroke-width: 1.5;" width="88" x="110.5" y="51"/><text fill="#000000" font-family="sans-serif" font-size="14" lengthAdjust="spacingAndGlyphs" textLength="74" x="117.5" y="71.5352">ControlBar</text><rect fill="#FEFECE" filter="url(#fs5imjddw2zlz)" height="30.4883" style="stroke: #A80036; stroke-width: 1.5;" width="88" x="110.5" y="418.2832"/><text fill="#000000" font-family="sans-serif" font-size="14" lengthAdjust="spacingAndGlyphs" textLength="74" x="117.5" y="438.8184">ControlBar</text><rect fill="#FEFECE" filter="url(#fs5imjddw2zlz)" height="30.4883" style="stroke: #A80036; stroke-width: 1.5;" width="140" x="215.5" y="51"/><text fill="#000000" font-family="sans-serif" font-size="14" lengthAdjust="spacingAndGlyphs" textLength="126" x="222.5" y="71.5352">FunctionBarAction</text><rect fill="#FEFECE" filter="url(#fs5imjddw2zlz)" height="30.4883" style="stroke: #A80036; stroke-width: 1.5;" width="140" x="215.5" y="418.2832"/><text fill="#000000" font-family="sans-serif" font-size="14" lengthAdjust="spacingAndGlyphs" textLength="126" x="222.5" y="438.8184">FunctionBarAction</text><rect fill="#FEFECE" filter="url(#fs5imjddw2zlz)" height="30.4883" style="stroke: #A80036; stroke-width: 1.5;" width="100" x="369.5" y="51"/><text fill="#000000" font-family="sans-serif" font-size="14" lengthAdjust="spacingAndGlyphs" textLength="86" x="376.5" y="71.5352">EventEmitter</text><rect fill="#FEFECE" filter="url(#fs5imjddw2zlz)" height="30.4883" style="stroke: #A80036; stroke-width: 1.5;" width="100" x="369.5" y="418.2832"/><text fill="#000000" font-family="sans-serif" font-size="14" lengthAdjust="spacingAndGlyphs" textLength="86" x="376.5" y="438.8184">EventEmitter</text><rect fill="#FEFECE" filter="url(#fs5imjddw2zlz)" height="30.4883" style="stroke: #A80036; stroke-width: 1.5;" width="125" x="483.5" y="51"/><text fill="#000000" font-family="sans-serif" font-size="14" lengthAdjust="spacingAndGlyphs" textLength="111" x="490.5" y="71.5352">AudioController</text><rect fill="#FEFECE" filter="url(#fs5imjddw2zlz)" height="30.4883" style="stroke: #A80036; stroke-width: 1.5;" width="125" x="483.5" y="418.2832"/><text fill="#000000" font-family="sans-serif" font-size="14" lengthAdjust="spacingAndGlyphs" textLength="111" x="490.5" y="438.8184">AudioController</text><rect fill="#FEFECE" filter="url(#fs5imjddw2zlz)" height="30.4883" style="stroke: #A80036; stroke-width: 1.5;" width="55" x="622.5" y="51"/><text fill="#000000" font-family="sans-serif" font-size="14" lengthAdjust="spacingAndGlyphs" textLength="41" x="629.5" y="71.5352">Editor</text><rect fill="#FEFECE" filter="url(#fs5imjddw2zlz)" height="30.4883" style="stroke: #A80036; stroke-width: 1.5;" width="55" x="622.5" y="418.2832"/><text fill="#000000" font-family="sans-serif" font-size="14" lengthAdjust="spacingAndGlyphs" textLength="41" x="629.5" y="438.8184">Editor</text><rect fill="#FFFFFF" filter="url(#fs5imjddw2zlz)" height="130.2422" style="stroke: #A80036; stroke-width: 1.0;" width="10" x="151.5" y="117.7988"/><rect fill="#FFFFFF" filter="url(#fs5imjddw2zlz)" height="175.5527" style="stroke: #A80036; stroke-width: 1.0;" width="10" x="416.5" y="218.7305"/><rect fill="#FFFFFF" filter="url(#fs5imjddw2zlz)" height="116.9316" style="stroke: #A80036; stroke-width: 1.0;" width="10" x="647" y="277.3516"/><rect fill="#FFFFFF" filter="url(#fs5imjddw2zlz)" height="79.6211" style="stroke: #A80036; stroke-width: 1.0;" width="10" x="652" y="314.6621"/><polygon fill="#A80036" points="139.5,113.7988,149.5,117.7988,139.5,121.7988,143.5,117.7988" style="stroke: #A80036; stroke-width: 1.0;"/><line style="stroke: #A80036; stroke-width: 1.0;" x1="26.5" x2="145.5" y1="117.7988" y2="117.7988"/><text fill="#000000" font-family="sans-serif" font-size="13" lengthAdjust="spacingAndGlyphs" textLength="106" x="33.5" y="113.0566">click play button</text><line style="stroke: #A80036; stroke-width: 1.0;" x1="161.5" x2="203.5" y1="147.1094" y2="147.1094"/><line style="stroke: #A80036; stroke-width: 1.0;" x1="203.5" x2="203.5" y1="147.1094" y2="160.1094"/><line style="stroke: #A80036; stroke-width: 1.0;" x1="162.5" x2="203.5" y1="160.1094" y2="160.1094"/><polygon fill="#A80036" points="172.5,156.1094,162.5,160.1094,172.5,164.1094,168.5,160.1094" style="stroke: #A80036; stroke-width: 1.0;"/><text fill="#000000" font-family="sans-serif" font-size="13" lengthAdjust="spacingAndGlyphs" textLength="107" x="168.5" y="142.3672">handlePlayClick()</text><polygon fill="#A80036" points="275.5,185.4199,285.5,189.4199,275.5,193.4199,279.5,189.4199" style="stroke: #A80036; stroke-width: 1.0;"/><line style="stroke: #A80036; stroke-width: 1.0;" x1="161.5" x2="281.5" y1="189.4199" y2="189.4199"/><text fill="#000000" font-family="sans-serif" font-size="13" lengthAdjust="spacingAndGlyphs" textLength="80" x="168.5" y="184.6777">requestPlay()</text><polygon fill="#A80036" points="404.5,214.7305,414.5,218.7305,404.5,222.7305,408.5,218.7305" style="stroke: #A80036; stroke-width: 1.0;"/><line style="stroke: #A80036; stroke-width: 1.0;" x1="161.5" x2="410.5" y1="218.7305" y2="218.7305"/><text fill="#000000" font-family="sans-serif" font-size="13" lengthAdjust="spacingAndGlyphs" textLength="114" x="168.5" y="213.9883">emit('requestPlay')</text><polygon fill="#A80036" points="536,244.041,546,248.041,536,252.041,540,248.041" style="stroke: #A80036; stroke-width: 1.0;"/><line style="stroke: #A80036; stroke-width: 1.0;" x1="426.5" x2="542" y1="248.041" y2="248.041"/><text fill="#000000" font-family="sans-serif" font-size="13" lengthAdjust="spacingAndGlyphs" textLength="34" x="433.5" y="243.2988">play()</text><polygon fill="#A80036" points="635,273.3516,645,277.3516,635,281.3516,639,277.3516" style="stroke: #A80036; stroke-width: 1.0;"/><line style="stroke: #A80036; stroke-width: 1.0;" x1="426.5" x2="641" y1="277.3516" y2="277.3516"/><text fill="#000000" font-family="sans-serif" font-size="13" lengthAdjust="spacingAndGlyphs" textLength="90" x="433.5" y="272.6094">playingEffect()</text><line style="stroke: #A80036; stroke-width: 1.0;" x1="657" x2="704" y1="301.6621" y2="301.6621"/><line style="stroke: #A80036; stroke-width: 1.0;" x1="704" x2="704" y1="301.6621" y2="314.6621"/><line style="stroke: #A80036; stroke-width: 1.0;" x1="663" x2="704" y1="314.6621" y2="314.6621"/><polygon fill="#A80036" points="673,310.6621,663,314.6621,673,318.6621,669,314.6621" style="stroke: #A80036; stroke-width: 1.0;"/><text fill="#000000" font-family="sans-serif" font-size="13" lengthAdjust="spacingAndGlyphs" textLength="146" x="669" y="296.9199">rerenderIndicator(false)</text><polygon fill="#A80036" points="167.5,349.9727,157.5,353.9727,167.5,357.9727,163.5,353.9727" style="stroke: #A80036; stroke-width: 1.0;"/><line style="stroke: #A80036; stroke-width: 1.0;" x1="161.5" x2="651" y1="353.9727" y2="353.9727"/><text fill="#000000" font-family="sans-serif" font-size="13" lengthAdjust="spacingAndGlyphs" textLength="139" x="173.5" y="349.2305">indicatorChangeEffect</text><path d="M10,332.6621 L10,357.6621 L147,357.6621 L147,342.6621 L137,332.6621 L10,332.6621 " fill="#FBFB77" filter="url(#fs5imjddw2zlz)" style="stroke: #A80036; stroke-width: 1.0;"/><path d="M137,332.6621 L137,342.6621 L147,342.6621 L137,332.6621 " fill="#FBFB77" style="stroke: #A80036; stroke-width: 1.0;"/><text fill="#000000" font-family="sans-serif" font-size="13" lengthAdjust="spacingAndGlyphs" textLength="116" x="16" y="350.2305">update time string</text><line style="stroke: #A80036; stroke-width: 1.0;" x1="662" x2="704" y1="393.2832" y2="393.2832"/><line style="stroke: #A80036; stroke-width: 1.0;" x1="704" x2="704" y1="393.2832" y2="406.2832"/><line style="stroke: #A80036; stroke-width: 1.0;" x1="657" x2="704" y1="406.2832" y2="406.2832"/><polygon fill="#A80036" points="667,402.2832,657,406.2832,667,410.2832,663,406.2832" style="stroke: #A80036; stroke-width: 1.0;"/><text fill="#000000" font-family="sans-serif" font-size="13" lengthAdjust="spacingAndGlyphs" textLength="86" x="669" y="388.541">updateScrollX</text><!--
@startuml
actor User

User -> ControlBar: click play button
activate ControlBar
ControlBar -> ControlBar: handlePlayClick()
ControlBar -> FunctionBarAction: requestPlay()
ControlBar -> EventEmitter: emit('requestPlay')
activate EventEmitter
EventEmitter -> AudioController: play()
deactivate ControlBar
EventEmitter -> Editor: playingEffect()
activate Editor
Editor -> Editor: rerenderIndicator(false)
activate Editor
Editor -> ControlBar: indicatorChangeEffect
note left: update time string
Editor -> Editor: updateScrollX
deactivate Editor
deactivate Editor
deactivate EventEmitter

@enduml

PlantUML version 1.2019.09(Tue Aug 27 00:19:51 CST 2019)
(GPL source distribution)
Java Runtime: OpenJDK Runtime Environment
JVM: OpenJDK 64-Bit Server VM
Java Version: 13.0.2+8
Operating System: Mac OS X
OS Version: 10.14.6
Default Encoding: UTF-8
Language: zh
Country: CN
--></g></svg>