<?xml version="1.0" encoding="UTF-8" standalone="no"?><svg xmlns="http://www.w3.org/2000/svg" xmlns:xlink="http://www.w3.org/1999/xlink" contentScriptType="application/ecmascript" contentStyleType="text/css" height="457px" preserveAspectRatio="none" style="width:991px;height:457px;" version="1.1" viewBox="0 0 991 457" width="991px" zoomAndPan="magnify"><defs><filter height="300%" id="fuafprhzz6nmu" width="300%" x="-1" y="-1"><feGaussianBlur result="blurOut" stdDeviation="2.0"/><feColorMatrix in="blurOut" result="blurOut2" type="matrix" values="0 0 0 0 0 0 0 0 0 0 0 0 0 0 0 0 0 0 .4 0"/><feOffset dx="4.0" dy="4.0" in="blurOut2" result="blurOut3"/><feBlend in="SourceGraphic" in2="blurOut3" mode="normal"/></filter></defs><g><rect fill="#FFFFFF" filter="url(#fuafprhzz6nmu)" height="29.3105" style="stroke: #A80036; stroke-width: 1.0;" width="10" x="165.5" y="117.7988"/><rect fill="#FFFFFF" filter="url(#fuafprhzz6nmu)" height="117.2422" style="stroke: #A80036; stroke-width: 1.0;" width="10" x="302" y="235.041"/><rect fill="#FFFFFF" filter="url(#fuafprhzz6nmu)" height="146.5527" style="stroke: #A80036; stroke-width: 1.0;" width="10" x="423" y="205.7305"/><rect fill="#FFFFFF" filter="url(#fuafprhzz6nmu)" height="87.9316" style="stroke: #A80036; stroke-width: 1.0;" width="10" x="543.5" y="264.3516"/><line style="stroke: #A80036; stroke-width: 1.0; stroke-dasharray: 5.0,5.0;" x1="26" x2="26" y1="86.4883" y2="370.2832"/><line style="stroke: #A80036; stroke-width: 1.0; stroke-dasharray: 5.0,5.0;" x1="170.5" x2="170.5" y1="86.4883" y2="370.2832"/><line style="stroke: #A80036; stroke-width: 1.0; stroke-dasharray: 5.0,5.0;" x1="306.5" x2="306.5" y1="86.4883" y2="370.2832"/><line style="stroke: #A80036; stroke-width: 1.0; stroke-dasharray: 5.0,5.0;" x1="427.5" x2="427.5" y1="86.4883" y2="370.2832"/><line style="stroke: #A80036; stroke-width: 1.0; stroke-dasharray: 5.0,5.0;" x1="548.5" x2="548.5" y1="86.4883" y2="370.2832"/><line style="stroke: #A80036; stroke-width: 1.0; stroke-dasharray: 5.0,5.0;" x1="671.5" x2="671.5" y1="86.4883" y2="370.2832"/><line style="stroke: #A80036; stroke-width: 1.0; stroke-dasharray: 5.0,5.0;" x1="793.5" x2="793.5" y1="86.4883" y2="370.2832"/><line style="stroke: #A80036; stroke-width: 1.0; stroke-dasharray: 5.0,5.0;" x1="919.5" x2="919.5" y1="86.4883" y2="370.2832"/><text fill="#000000" font-family="sans-serif" font-size="14" lengthAdjust="spacingAndGlyphs" textLength="31" x="8" y="83.5352">User</text><ellipse cx="26.5" cy="13" fill="#FEFECE" filter="url(#fuafprhzz6nmu)" rx="8" ry="8" style="stroke: #A80036; stroke-width: 2.0;"/><path d="M26.5,21 L26.5,48 M13.5,29 L39.5,29 M26.5,48 L13.5,63 M26.5,48 L39.5,63 " fill="none" filter="url(#fuafprhzz6nmu)" style="stroke: #A80036; stroke-width: 2.0;"/><text fill="#000000" font-family="sans-serif" font-size="14" lengthAdjust="spacingAndGlyphs" textLength="31" x="8" y="382.8184">User</text><ellipse cx="26.5" cy="395.7715" fill="#FEFECE" filter="url(#fuafprhzz6nmu)" rx="8" ry="8" style="stroke: #A80036; stroke-width: 2.0;"/><path d="M26.5,403.7715 L26.5,430.7715 M13.5,411.7715 L39.5,411.7715 M26.5,430.7715 L13.5,445.7715 M26.5,430.7715 L39.5,445.7715 " fill="none" filter="url(#fuafprhzz6nmu)" style="stroke: #A80036; stroke-width: 2.0;"/><rect fill="#FEFECE" filter="url(#fuafprhzz6nmu)" height="30.4883" style="stroke: #A80036; stroke-width: 1.5;" width="140" x="98.5" y="51"/><text fill="#000000" font-family="sans-serif" font-size="14" lengthAdjust="spacingAndGlyphs" textLength="126" x="105.5" y="71.5352">FunctionBarAction</text><rect fill="#FEFECE" filter="url(#fuafprhzz6nmu)" height="30.4883" style="stroke: #A80036; stroke-width: 1.5;" width="140" x="98.5" y="369.2832"/><text fill="#000000" font-family="sans-serif" font-size="14" lengthAdjust="spacingAndGlyphs" textLength="126" x="105.5" y="389.8184">FunctionBarAction</text><rect fill="#FEFECE" filter="url(#fuafprhzz6nmu)" height="30.4883" style="stroke: #A80036; stroke-width: 1.5;" width="105" x="252.5" y="51"/><text fill="#000000" font-family="sans-serif" font-size="14" lengthAdjust="spacingAndGlyphs" textLength="91" x="259.5" y="71.5352">LibraryAction</text><rect fill="#FEFECE" filter="url(#fuafprhzz6nmu)" height="30.4883" style="stroke: #A80036; stroke-width: 1.5;" width="105" x="252.5" y="369.2832"/><text fill="#000000" font-family="sans-serif" font-size="14" lengthAdjust="spacingAndGlyphs" textLength="91" x="259.5" y="389.8184">LibraryAction</text><rect fill="#FEFECE" filter="url(#fuafprhzz6nmu)" height="30.4883" style="stroke: #A80036; stroke-width: 1.5;" width="109" x="371.5" y="51"/><text fill="#000000" font-family="sans-serif" font-size="14" lengthAdjust="spacingAndGlyphs" textLength="95" x="378.5" y="71.5352">AudioManage</text><rect fill="#FEFECE" filter="url(#fuafprhzz6nmu)" height="30.4883" style="stroke: #A80036; stroke-width: 1.5;" width="109" x="371.5" y="369.2832"/><text fill="#000000" font-family="sans-serif" font-size="14" lengthAdjust="spacingAndGlyphs" textLength="95" x="378.5" y="389.8184">AudioManage</text><rect fill="#FEFECE" filter="url(#fuafprhzz6nmu)" height="30.4883" style="stroke: #A80036; stroke-width: 1.5;" width="104" x="494.5" y="51"/><text fill="#000000" font-family="sans-serif" font-size="14" lengthAdjust="spacingAndGlyphs" textLength="90" x="501.5" y="71.5352">ChannelSaga</text><rect fill="#FEFECE" filter="url(#fuafprhzz6nmu)" height="30.4883" style="stroke: #A80036; stroke-width: 1.5;" width="104" x="494.5" y="369.2832"/><text fill="#000000" font-family="sans-serif" font-size="14" lengthAdjust="spacingAndGlyphs" textLength="90" x="501.5" y="389.8184">ChannelSaga</text><rect fill="#FEFECE" filter="url(#fuafprhzz6nmu)" height="30.4883" style="stroke: #A80036; stroke-width: 1.5;" width="115" x="612.5" y="51"/><text fill="#000000" font-family="sans-serif" font-size="14" lengthAdjust="spacingAndGlyphs" textLength="101" x="619.5" y="71.5352">ChannelAction</text><rect fill="#FEFECE" filter="url(#fuafprhzz6nmu)" height="30.4883" style="stroke: #A80036; stroke-width: 1.5;" width="115" x="612.5" y="369.2832"/><text fill="#000000" font-family="sans-serif" font-size="14" lengthAdjust="spacingAndGlyphs" textLength="101" x="619.5" y="389.8184">ChannelAction</text><rect fill="#FEFECE" filter="url(#fuafprhzz6nmu)" height="30.4883" style="stroke: #A80036; stroke-width: 1.5;" width="100" x="741.5" y="51"/><text fill="#000000" font-family="sans-serif" font-size="14" lengthAdjust="spacingAndGlyphs" textLength="86" x="748.5" y="71.5352">EventEmitter</text><rect fill="#FEFECE" filter="url(#fuafprhzz6nmu)" height="30.4883" style="stroke: #A80036; stroke-width: 1.5;" width="100" x="741.5" y="369.2832"/><text fill="#000000" font-family="sans-serif" font-size="14" lengthAdjust="spacingAndGlyphs" textLength="86" x="748.5" y="389.8184">EventEmitter</text><rect fill="#FEFECE" filter="url(#fuafprhzz6nmu)" height="30.4883" style="stroke: #A80036; stroke-width: 1.5;" width="125" x="855.5" y="51"/><text fill="#000000" font-family="sans-serif" font-size="14" lengthAdjust="spacingAndGlyphs" textLength="111" x="862.5" y="71.5352">AudioController</text><rect fill="#FEFECE" filter="url(#fuafprhzz6nmu)" height="30.4883" style="stroke: #A80036; stroke-width: 1.5;" width="125" x="855.5" y="369.2832"/><text fill="#000000" font-family="sans-serif" font-size="14" lengthAdjust="spacingAndGlyphs" textLength="111" x="862.5" y="389.8184">AudioController</text><rect fill="#FFFFFF" filter="url(#fuafprhzz6nmu)" height="29.3105" style="stroke: #A80036; stroke-width: 1.0;" width="10" x="165.5" y="117.7988"/><rect fill="#FFFFFF" filter="url(#fuafprhzz6nmu)" height="117.2422" style="stroke: #A80036; stroke-width: 1.0;" width="10" x="302" y="235.041"/><rect fill="#FFFFFF" filter="url(#fuafprhzz6nmu)" height="146.5527" style="stroke: #A80036; stroke-width: 1.0;" width="10" x="423" y="205.7305"/><rect fill="#FFFFFF" filter="url(#fuafprhzz6nmu)" height="87.9316" style="stroke: #A80036; stroke-width: 1.0;" width="10" x="543.5" y="264.3516"/><polygon fill="#A80036" points="153.5,113.7988,163.5,117.7988,153.5,121.7988,157.5,117.7988" style="stroke: #A80036; stroke-width: 1.0;"/><line style="stroke: #A80036; stroke-width: 1.0;" x1="26.5" x2="159.5" y1="117.7988" y2="117.7988"/><text fill="#000000" font-family="sans-serif" font-size="13" lengthAdjust="spacingAndGlyphs" textLength="120" x="33.5" y="113.0566">click library button</text><polygon fill="#A80036" points="295,143.1094,305,147.1094,295,151.1094,299,147.1094" style="stroke: #A80036; stroke-width: 1.0;"/><line style="stroke: #A80036; stroke-width: 1.0;" x1="170.5" x2="301" y1="147.1094" y2="147.1094"/><text fill="#000000" font-family="sans-serif" font-size="13" lengthAdjust="spacingAndGlyphs" textLength="91" x="177.5" y="142.3672">toggleLibrary()</text><polygon fill="#A80036" points="416,172.4199,426,176.4199,416,180.4199,420,176.4199" style="stroke: #A80036; stroke-width: 1.0;"/><line style="stroke: #A80036; stroke-width: 1.0;" x1="307" x2="422" y1="176.4199" y2="176.4199"/><text fill="#000000" font-family="sans-serif" font-size="13" lengthAdjust="spacingAndGlyphs" textLength="40" x="314" y="171.6777">render</text><polygon fill="#A80036" points="411,201.7305,421,205.7305,411,209.7305,415,205.7305" style="stroke: #A80036; stroke-width: 1.0;"/><line style="stroke: #A80036; stroke-width: 1.0;" x1="26.5" x2="417" y1="205.7305" y2="205.7305"/><text fill="#000000" font-family="sans-serif" font-size="13" lengthAdjust="spacingAndGlyphs" textLength="118" x="33.5" y="200.9883">click delete button</text><polygon fill="#A80036" points="323,231.041,313,235.041,323,239.041,319,235.041" style="stroke: #A80036; stroke-width: 1.0;"/><line style="stroke: #A80036; stroke-width: 1.0;" x1="317" x2="422" y1="235.041" y2="235.041"/><text fill="#000000" font-family="sans-serif" font-size="13" lengthAdjust="spacingAndGlyphs" textLength="83" x="329" y="230.2988">deleteAudio()</text><polygon fill="#A80036" points="531.5,260.3516,541.5,264.3516,531.5,268.3516,535.5,264.3516" style="stroke: #A80036; stroke-width: 1.0;"/><line style="stroke: #A80036; stroke-width: 1.0;" x1="312" x2="537.5" y1="264.3516" y2="264.3516"/><text fill="#000000" font-family="sans-serif" font-size="13" lengthAdjust="spacingAndGlyphs" textLength="155" x="319" y="259.6094">deleteAudiosSliceEffect()</text><polygon fill="#A80036" points="660,289.6621,670,293.6621,660,297.6621,664,293.6621" style="stroke: #A80036; stroke-width: 1.0;"/><line style="stroke: #A80036; stroke-width: 1.0;" x1="553.5" x2="666" y1="293.6621" y2="293.6621"/><text fill="#000000" font-family="sans-serif" font-size="13" lengthAdjust="spacingAndGlyphs" textLength="75" x="560.5" y="288.9199">deleteSlice()</text><polygon fill="#A80036" points="781.5,318.9727,791.5,322.9727,781.5,326.9727,785.5,322.9727" style="stroke: #A80036; stroke-width: 1.0;"/><line style="stroke: #A80036; stroke-width: 1.0;" x1="553.5" x2="787.5" y1="322.9727" y2="322.9727"/><text fill="#000000" font-family="sans-serif" font-size="13" lengthAdjust="spacingAndGlyphs" textLength="195" x="560.5" y="318.2305">emit('LIBRARY_DELETE_AUDIO')</text><polygon fill="#A80036" points="908,348.2832,918,352.2832,908,356.2832,912,352.2832" style="stroke: #A80036; stroke-width: 1.0;"/><line style="stroke: #A80036; stroke-width: 1.0;" x1="793.5" x2="914" y1="352.2832" y2="352.2832"/><text fill="#000000" font-family="sans-serif" font-size="13" lengthAdjust="spacingAndGlyphs" textLength="83" x="800.5" y="347.541">deleteAudio()</text><!--
@startuml
actor User

User -> FunctionBarAction: click library button
activate FunctionBarAction
FunctionBarAction -> LibraryAction: toggleLibrary()
deactivate FunctionBarAction
LibraryAction -> AudioManage: render

User -> AudioManage: click delete button
activate AudioManage
AudioManage -> LibraryAction: deleteAudio()
activate LibraryAction
LibraryAction -> ChannelSaga: deleteAudiosSliceEffect()
activate ChannelSaga
ChannelSaga -> ChannelAction: deleteSlice()
ChannelSaga -> EventEmitter: emit('LIBRARY_DELETE_AUDIO')
EventEmitter -> AudioController: deleteAudio()
deactivate ChannelSaga
deactivate LibraryAction
deactivate AudioManage
@enduml

PlantUML version 1.2019.09(Tue Aug 27 00:19:51 CST 2019)
(GPL source distribution)
Java Runtime: OpenJDK Runtime Environment
JVM: OpenJDK 64-Bit Server VM
Java Version: 13.0.2+8
Operating System: Mac OS X
OS Version: 10.14.6
Default Encoding: UTF-8
Language: zh
Country: CN
--></g></svg>