<?xml version="1.0" encoding="UTF-8" standalone="no"?><svg xmlns="http://www.w3.org/2000/svg" xmlns:xlink="http://www.w3.org/1999/xlink" contentScriptType="application/ecmascript" contentStyleType="text/css" height="262px" preserveAspectRatio="none" style="width:316px;height:262px;" version="1.1" viewBox="0 0 316 262" width="316px" zoomAndPan="magnify"><defs><filter height="300%" id="fih6inxfzty10" width="300%" x="-1" y="-1"><feGaussianBlur result="blurOut" stdDeviation="2.0"/><feColorMatrix in="blurOut" result="blurOut2" type="matrix" values="0 0 0 0 0 0 0 0 0 0 0 0 0 0 0 0 0 0 .4 0"/><feOffset dx="4.0" dy="4.0" in="blurOut2" result="blurOut3"/><feBlend in="SourceGraphic" in2="blurOut3" mode="normal"/></filter></defs><g><rect fill="#FFFFFF" filter="url(#fih6inxfzty10)" height="31.7544" style="stroke: #A80036; stroke-width: 1.0;" width="10" x="126.5" y="122.8745"/><rect fill="#FFFFFF" filter="url(#fih6inxfzty10)" height="9" style="stroke: #A80036; stroke-width: 1.0;" width="10" x="254" y="154.6289"/><line style="stroke: #A80036; stroke-width: 1.0; stroke-dasharray: 5.0,5.0;" x1="25" x2="25" y1="89.1201" y2="172.6289"/><line style="stroke: #A80036; stroke-width: 1.0; stroke-dasharray: 5.0,5.0;" x1="131.5" x2="131.5" y1="89.1201" y2="172.6289"/><line style="stroke: #A80036; stroke-width: 1.0; stroke-dasharray: 5.0,5.0;" x1="258.5" x2="258.5" y1="89.1201" y2="172.6289"/><text fill="#000000" font-family="sans-serif" font-size="14" lengthAdjust="spacingAndGlyphs" textLength="29" x="8" y="86.0439">User</text><ellipse cx="25.5" cy="13" fill="#FEFECE" filter="url(#fih6inxfzty10)" rx="8" ry="8" style="stroke: #A80036; stroke-width: 2.0;"/><path d="M25.5,21 L25.5,48 M12.5,29 L38.5,29 M25.5,48 L12.5,63 M25.5,48 L38.5,63 " fill="none" filter="url(#fih6inxfzty10)" style="stroke: #A80036; stroke-width: 2.0;"/><text fill="#000000" font-family="sans-serif" font-size="14" lengthAdjust="spacingAndGlyphs" textLength="29" x="8" y="187.6729">User</text><ellipse cx="25.5" cy="200.749" fill="#FEFECE" filter="url(#fih6inxfzty10)" rx="8" ry="8" style="stroke: #A80036; stroke-width: 2.0;"/><path d="M25.5,208.749 L25.5,235.749 M12.5,216.749 L38.5,216.749 M25.5,235.749 L12.5,250.749 M25.5,235.749 L38.5,250.749 " fill="none" filter="url(#fih6inxfzty10)" style="stroke: #A80036; stroke-width: 2.0;"/><rect fill="#FEFECE" filter="url(#fih6inxfzty10)" height="33.1201" style="stroke: #A80036; stroke-width: 1.5;" width="130" x="64.5" y="51"/><text fill="#000000" font-family="sans-serif" font-size="14" lengthAdjust="spacingAndGlyphs" textLength="116" x="71.5" y="74.0439">FunctionBarAction</text><rect fill="#FEFECE" filter="url(#fih6inxfzty10)" height="33.1201" style="stroke: #A80036; stroke-width: 1.5;" width="130" x="64.5" y="171.6289"/><text fill="#000000" font-family="sans-serif" font-size="14" lengthAdjust="spacingAndGlyphs" textLength="116" x="71.5" y="194.6729">FunctionBarAction</text><rect fill="#FEFECE" filter="url(#fih6inxfzty10)" height="33.1201" style="stroke: #A80036; stroke-width: 1.5;" width="97" x="208.5" y="51"/><text fill="#000000" font-family="sans-serif" font-size="14" lengthAdjust="spacingAndGlyphs" textLength="83" x="215.5" y="74.0439">LibraryAction</text><rect fill="#FEFECE" filter="url(#fih6inxfzty10)" height="33.1201" style="stroke: #A80036; stroke-width: 1.5;" width="97" x="208.5" y="171.6289"/><text fill="#000000" font-family="sans-serif" font-size="14" lengthAdjust="spacingAndGlyphs" textLength="83" x="215.5" y="194.6729">LibraryAction</text><rect fill="#FFFFFF" filter="url(#fih6inxfzty10)" height="31.7544" style="stroke: #A80036; stroke-width: 1.0;" width="10" x="126.5" y="122.8745"/><rect fill="#FFFFFF" filter="url(#fih6inxfzty10)" height="9" style="stroke: #A80036; stroke-width: 1.0;" width="10" x="254" y="154.6289"/><polygon fill="#A80036" points="114.5,118.8745,124.5,122.8745,114.5,126.8745,118.5,122.8745" style="stroke: #A80036; stroke-width: 1.0;"/><line style="stroke: #A80036; stroke-width: 1.0;" x1="25.5" x2="120.5" y1="122.8745" y2="122.8745"/><text fill="#000000" font-family="sans-serif" font-size="13" lengthAdjust="spacingAndGlyphs" textLength="82" x="32.5" y="118.0181">toggleLibrary()</text><polygon fill="#A80036" points="242,150.6289,252,154.6289,242,158.6289,246,154.6289" style="stroke: #A80036; stroke-width: 1.0;"/><line style="stroke: #A80036; stroke-width: 1.0;" x1="131.5" x2="248" y1="154.6289" y2="154.6289"/><text fill="#000000" font-family="sans-serif" font-size="13" lengthAdjust="spacingAndGlyphs" textLength="76" x="138.5" y="149.7725">deleteAudio()</text><!--
@startuml
actor User

User -> FunctionBarAction: toggleLibrary()
activate FunctionBarAction
FunctionBarAction -> LibraryAction: deleteAudio()
deactivate FunctionBarAction
activate LibraryAction
@enduml

PlantUML version 1.2019.09(Tue Aug 27 00:19:51 CST 2019)
(GPL source distribution)
Java Runtime: Java(TM) SE Runtime Environment
JVM: Java HotSpot(TM) 64-Bit Server VM
Java Version: 12+33
Operating System: Windows 10
OS Version: 10.0
Default Encoding: GBK
Language: zh
Country: CN
--></g></svg>