<?xml version="1.0" encoding="UTF-8" standalone="no"?><svg xmlns="http://www.w3.org/2000/svg" xmlns:xlink="http://www.w3.org/1999/xlink" contentScriptType="application/ecmascript" contentStyleType="text/css" height="369px" preserveAspectRatio="none" style="width:609px;height:369px;" version="1.1" viewBox="0 0 609 369" width="609px" zoomAndPan="magnify"><defs><filter height="300%" id="f1htwer5qmul8" width="300%" x="-1" y="-1"><feGaussianBlur result="blurOut" stdDeviation="2.0"/><feColorMatrix in="blurOut" result="blurOut2" type="matrix" values="0 0 0 0 0 0 0 0 0 0 0 0 0 0 0 0 0 0 .4 0"/><feOffset dx="4.0" dy="4.0" in="blurOut2" result="blurOut3"/><feBlend in="SourceGraphic" in2="blurOut3" mode="normal"/></filter></defs><g><rect fill="#FFFFFF" filter="url(#f1htwer5qmul8)" height="29.3105" style="stroke: #A80036; stroke-width: 1.0;" width="10" x="165.5" y="117.7988"/><rect fill="#FFFFFF" filter="url(#f1htwer5qmul8)" height="29.3105" style="stroke: #A80036; stroke-width: 1.0;" width="10" x="302" y="235.041"/><rect fill="#FFFFFF" filter="url(#f1htwer5qmul8)" height="58.6211" style="stroke: #A80036; stroke-width: 1.0;" width="10" x="423" y="205.7305"/><line style="stroke: #A80036; stroke-width: 1.0; stroke-dasharray: 5.0,5.0;" x1="26" x2="26" y1="86.4883" y2="282.3516"/><line style="stroke: #A80036; stroke-width: 1.0; stroke-dasharray: 5.0,5.0;" x1="170.5" x2="170.5" y1="86.4883" y2="282.3516"/><line style="stroke: #A80036; stroke-width: 1.0; stroke-dasharray: 5.0,5.0;" x1="306.5" x2="306.5" y1="86.4883" y2="282.3516"/><line style="stroke: #A80036; stroke-width: 1.0; stroke-dasharray: 5.0,5.0;" x1="427.5" x2="427.5" y1="86.4883" y2="282.3516"/><line style="stroke: #A80036; stroke-width: 1.0; stroke-dasharray: 5.0,5.0;" x1="548.5" x2="548.5" y1="86.4883" y2="282.3516"/><text fill="#000000" font-family="sans-serif" font-size="14" lengthAdjust="spacingAndGlyphs" textLength="31" x="8" y="83.5352">User</text><ellipse cx="26.5" cy="13" fill="#FEFECE" filter="url(#f1htwer5qmul8)" rx="8" ry="8" style="stroke: #A80036; stroke-width: 2.0;"/><path d="M26.5,21 L26.5,48 M13.5,29 L39.5,29 M26.5,48 L13.5,63 M26.5,48 L39.5,63 " fill="none" filter="url(#f1htwer5qmul8)" style="stroke: #A80036; stroke-width: 2.0;"/><text fill="#000000" font-family="sans-serif" font-size="14" lengthAdjust="spacingAndGlyphs" textLength="31" x="8" y="294.8867">User</text><ellipse cx="26.5" cy="307.8398" fill="#FEFECE" filter="url(#f1htwer5qmul8)" rx="8" ry="8" style="stroke: #A80036; stroke-width: 2.0;"/><path d="M26.5,315.8398 L26.5,342.8398 M13.5,323.8398 L39.5,323.8398 M26.5,342.8398 L13.5,357.8398 M26.5,342.8398 L39.5,357.8398 " fill="none" filter="url(#f1htwer5qmul8)" style="stroke: #A80036; stroke-width: 2.0;"/><rect fill="#FEFECE" filter="url(#f1htwer5qmul8)" height="30.4883" style="stroke: #A80036; stroke-width: 1.5;" width="140" x="98.5" y="51"/><text fill="#000000" font-family="sans-serif" font-size="14" lengthAdjust="spacingAndGlyphs" textLength="126" x="105.5" y="71.5352">FunctionBarAction</text><rect fill="#FEFECE" filter="url(#f1htwer5qmul8)" height="30.4883" style="stroke: #A80036; stroke-width: 1.5;" width="140" x="98.5" y="281.3516"/><text fill="#000000" font-family="sans-serif" font-size="14" lengthAdjust="spacingAndGlyphs" textLength="126" x="105.5" y="301.8867">FunctionBarAction</text><rect fill="#FEFECE" filter="url(#f1htwer5qmul8)" height="30.4883" style="stroke: #A80036; stroke-width: 1.5;" width="105" x="252.5" y="51"/><text fill="#000000" font-family="sans-serif" font-size="14" lengthAdjust="spacingAndGlyphs" textLength="91" x="259.5" y="71.5352">LibraryAction</text><rect fill="#FEFECE" filter="url(#f1htwer5qmul8)" height="30.4883" style="stroke: #A80036; stroke-width: 1.5;" width="105" x="252.5" y="281.3516"/><text fill="#000000" font-family="sans-serif" font-size="14" lengthAdjust="spacingAndGlyphs" textLength="91" x="259.5" y="301.8867">LibraryAction</text><rect fill="#FEFECE" filter="url(#f1htwer5qmul8)" height="30.4883" style="stroke: #A80036; stroke-width: 1.5;" width="109" x="371.5" y="51"/><text fill="#000000" font-family="sans-serif" font-size="14" lengthAdjust="spacingAndGlyphs" textLength="95" x="378.5" y="71.5352">AudioManage</text><rect fill="#FEFECE" filter="url(#f1htwer5qmul8)" height="30.4883" style="stroke: #A80036; stroke-width: 1.5;" width="109" x="371.5" y="281.3516"/><text fill="#000000" font-family="sans-serif" font-size="14" lengthAdjust="spacingAndGlyphs" textLength="95" x="378.5" y="301.8867">AudioManage</text><rect fill="#FEFECE" filter="url(#f1htwer5qmul8)" height="30.4883" style="stroke: #A80036; stroke-width: 1.5;" width="104" x="494.5" y="51"/><text fill="#000000" font-family="sans-serif" font-size="14" lengthAdjust="spacingAndGlyphs" textLength="90" x="501.5" y="71.5352">ChannelSaga</text><rect fill="#FEFECE" filter="url(#f1htwer5qmul8)" height="30.4883" style="stroke: #A80036; stroke-width: 1.5;" width="104" x="494.5" y="281.3516"/><text fill="#000000" font-family="sans-serif" font-size="14" lengthAdjust="spacingAndGlyphs" textLength="90" x="501.5" y="301.8867">ChannelSaga</text><rect fill="#FFFFFF" filter="url(#f1htwer5qmul8)" height="29.3105" style="stroke: #A80036; stroke-width: 1.0;" width="10" x="165.5" y="117.7988"/><rect fill="#FFFFFF" filter="url(#f1htwer5qmul8)" height="29.3105" style="stroke: #A80036; stroke-width: 1.0;" width="10" x="302" y="235.041"/><rect fill="#FFFFFF" filter="url(#f1htwer5qmul8)" height="58.6211" style="stroke: #A80036; stroke-width: 1.0;" width="10" x="423" y="205.7305"/><polygon fill="#A80036" points="153.5,113.7988,163.5,117.7988,153.5,121.7988,157.5,117.7988" style="stroke: #A80036; stroke-width: 1.0;"/><line style="stroke: #A80036; stroke-width: 1.0;" x1="26.5" x2="159.5" y1="117.7988" y2="117.7988"/><text fill="#000000" font-family="sans-serif" font-size="13" lengthAdjust="spacingAndGlyphs" textLength="120" x="33.5" y="113.0566">click library button</text><polygon fill="#A80036" points="295,143.1094,305,147.1094,295,151.1094,299,147.1094" style="stroke: #A80036; stroke-width: 1.0;"/><line style="stroke: #A80036; stroke-width: 1.0;" x1="170.5" x2="301" y1="147.1094" y2="147.1094"/><text fill="#000000" font-family="sans-serif" font-size="13" lengthAdjust="spacingAndGlyphs" textLength="91" x="177.5" y="142.3672">toggleLibrary()</text><polygon fill="#A80036" points="416,172.4199,426,176.4199,416,180.4199,420,176.4199" style="stroke: #A80036; stroke-width: 1.0;"/><line style="stroke: #A80036; stroke-width: 1.0;" x1="307" x2="422" y1="176.4199" y2="176.4199"/><text fill="#000000" font-family="sans-serif" font-size="13" lengthAdjust="spacingAndGlyphs" textLength="40" x="314" y="171.6777">render</text><polygon fill="#A80036" points="411,201.7305,421,205.7305,411,209.7305,415,205.7305" style="stroke: #A80036; stroke-width: 1.0;"/><line style="stroke: #A80036; stroke-width: 1.0;" x1="26.5" x2="417" y1="205.7305" y2="205.7305"/><text fill="#000000" font-family="sans-serif" font-size="13" lengthAdjust="spacingAndGlyphs" textLength="118" x="33.5" y="200.9883">click delete button</text><polygon fill="#A80036" points="323,231.041,313,235.041,323,239.041,319,235.041" style="stroke: #A80036; stroke-width: 1.0;"/><line style="stroke: #A80036; stroke-width: 1.0;" x1="317" x2="422" y1="235.041" y2="235.041"/><text fill="#000000" font-family="sans-serif" font-size="13" lengthAdjust="spacingAndGlyphs" textLength="83" x="329" y="230.2988">deleteAudio()</text><polygon fill="#A80036" points="536.5,260.3516,546.5,264.3516,536.5,268.3516,540.5,264.3516" style="stroke: #A80036; stroke-width: 1.0;"/><line style="stroke: #A80036; stroke-width: 1.0;" x1="307" x2="542.5" y1="264.3516" y2="264.3516"/><text fill="#000000" font-family="sans-serif" font-size="13" lengthAdjust="spacingAndGlyphs" textLength="155" x="314" y="259.6094">deleteAudiosSliceEffect()</text><!--
@startuml
actor User

User -> FunctionBarAction: click library button
activate FunctionBarAction
FunctionBarAction -> LibraryAction: toggleLibrary()
deactivate FunctionBarAction
LibraryAction -> AudioManage: render

User -> AudioManage: click delete button
activate AudioManage
AudioManage -> LibraryAction: deleteAudio()
activate LibraryAction
LibraryAction -> ChannelSaga: deleteAudiosSliceEffect()
deactivate LibraryAction
deactivate AudioManage
@enduml

PlantUML version 1.2019.09(Tue Aug 27 00:19:51 CST 2019)
(GPL source distribution)
Java Runtime: OpenJDK Runtime Environment
JVM: OpenJDK 64-Bit Server VM
Java Version: 13.0.2+8
Operating System: Mac OS X
OS Version: 10.14.6
Default Encoding: UTF-8
Language: zh
Country: CN
--></g></svg>