<?xml version="1.0" encoding="UTF-8" standalone="no"?><svg xmlns="http://www.w3.org/2000/svg" xmlns:xlink="http://www.w3.org/1999/xlink" contentScriptType="application/ecmascript" contentStyleType="text/css" height="528px" preserveAspectRatio="none" style="width:512px;height:528px;" version="1.1" viewBox="0 0 512 528" width="512px" zoomAndPan="magnify"><defs><filter height="300%" id="f6kwc9jri9wld" width="300%" x="-1" y="-1"><feGaussianBlur result="blurOut" stdDeviation="2.0"/><feColorMatrix in="blurOut" result="blurOut2" type="matrix" values="0 0 0 0 0 0 0 0 0 0 0 0 0 0 0 0 0 0 .4 0"/><feOffset dx="4.0" dy="4.0" in="blurOut2" result="blurOut3"/><feBlend in="SourceGraphic" in2="blurOut3" mode="normal"/></filter></defs><g><rect fill="#FFFFFF" filter="url(#f6kwc9jri9wld)" height="29.3105" style="stroke: #A80036; stroke-width: 1.0;" width="10" x="132.5" y="279.3516"/><rect fill="#FFFFFF" filter="url(#f6kwc9jri9wld)" height="140.2422" style="stroke: #A80036; stroke-width: 1.0;" width="10" x="250.5" y="117.7988"/><rect fill="#FFFFFF" filter="url(#f6kwc9jri9wld)" height="87.9316" style="stroke: #A80036; stroke-width: 1.0;" width="10" x="255.5" y="155.1094"/><rect fill="#FFFFFF" filter="url(#f6kwc9jri9wld)" height="77.6211" style="stroke: #A80036; stroke-width: 1.0;" width="10" x="250.5" y="337.9727"/><rect fill="#FFFFFF" filter="url(#f6kwc9jri9wld)" height="40.3105" style="stroke: #A80036; stroke-width: 1.0;" width="10" x="255.5" y="375.2832"/><rect fill="#FFFFFF" filter="url(#f6kwc9jri9wld)" height="75.9316" style="stroke: #000000; stroke-width: 2.0;" width="303" x="198" y="175.1094"/><line style="stroke: #A80036; stroke-width: 1.0; stroke-dasharray: 5.0,5.0;" x1="26" x2="26" y1="86.4883" y2="440.5938"/><line style="stroke: #A80036; stroke-width: 1.0; stroke-dasharray: 5.0,5.0;" x1="137" x2="137" y1="86.4883" y2="440.5938"/><line style="stroke: #A80036; stroke-width: 1.0; stroke-dasharray: 5.0,5.0;" x1="255" x2="255" y1="86.4883" y2="440.5938"/><line style="stroke: #A80036; stroke-width: 1.0; stroke-dasharray: 5.0,5.0;" x1="426" x2="426" y1="86.4883" y2="440.5938"/><text fill="#000000" font-family="sans-serif" font-size="14" lengthAdjust="spacingAndGlyphs" textLength="31" x="8" y="83.5352">User</text><ellipse cx="26.5" cy="13" fill="#FEFECE" filter="url(#f6kwc9jri9wld)" rx="8" ry="8" style="stroke: #A80036; stroke-width: 2.0;"/><path d="M26.5,21 L26.5,48 M13.5,29 L39.5,29 M26.5,48 L13.5,63 M26.5,48 L39.5,63 " fill="none" filter="url(#f6kwc9jri9wld)" style="stroke: #A80036; stroke-width: 2.0;"/><text fill="#000000" font-family="sans-serif" font-size="14" lengthAdjust="spacingAndGlyphs" textLength="31" x="8" y="453.1289">User</text><ellipse cx="26.5" cy="466.082" fill="#FEFECE" filter="url(#f6kwc9jri9wld)" rx="8" ry="8" style="stroke: #A80036; stroke-width: 2.0;"/><path d="M26.5,474.082 L26.5,501.082 M13.5,482.082 L39.5,482.082 M26.5,501.082 L13.5,516.082 M26.5,501.082 L39.5,516.082 " fill="none" filter="url(#f6kwc9jri9wld)" style="stroke: #A80036; stroke-width: 2.0;"/><rect fill="#FEFECE" filter="url(#f6kwc9jri9wld)" height="30.4883" style="stroke: #A80036; stroke-width: 1.5;" width="99" x="86" y="51"/><text fill="#000000" font-family="sans-serif" font-size="14" lengthAdjust="spacingAndGlyphs" textLength="85" x="93" y="71.5352">EditorAction</text><rect fill="#FEFECE" filter="url(#f6kwc9jri9wld)" height="30.4883" style="stroke: #A80036; stroke-width: 1.5;" width="99" x="86" y="439.5938"/><text fill="#000000" font-family="sans-serif" font-size="14" lengthAdjust="spacingAndGlyphs" textLength="85" x="93" y="460.1289">EditorAction</text><rect fill="#FEFECE" filter="url(#f6kwc9jri9wld)" height="30.4883" style="stroke: #A80036; stroke-width: 1.5;" width="91" x="208" y="51"/><text fill="#000000" font-family="sans-serif" font-size="14" lengthAdjust="spacingAndGlyphs" textLength="77" x="215" y="71.5352">AudioBlock</text><rect fill="#FEFECE" filter="url(#f6kwc9jri9wld)" height="30.4883" style="stroke: #A80036; stroke-width: 1.5;" width="91" x="208" y="439.5938"/><text fill="#000000" font-family="sans-serif" font-size="14" lengthAdjust="spacingAndGlyphs" textLength="77" x="215" y="460.1289">AudioBlock</text><rect fill="#FEFECE" filter="url(#f6kwc9jri9wld)" height="30.4883" style="stroke: #A80036; stroke-width: 1.5;" width="125" x="362" y="51"/><text fill="#000000" font-family="sans-serif" font-size="14" lengthAdjust="spacingAndGlyphs" textLength="111" x="369" y="71.5352">AudioController</text><rect fill="#FEFECE" filter="url(#f6kwc9jri9wld)" height="30.4883" style="stroke: #A80036; stroke-width: 1.5;" width="125" x="362" y="439.5938"/><text fill="#000000" font-family="sans-serif" font-size="14" lengthAdjust="spacingAndGlyphs" textLength="111" x="369" y="460.1289">AudioController</text><rect fill="#FFFFFF" filter="url(#f6kwc9jri9wld)" height="29.3105" style="stroke: #A80036; stroke-width: 1.0;" width="10" x="132.5" y="279.3516"/><rect fill="#FFFFFF" filter="url(#f6kwc9jri9wld)" height="140.2422" style="stroke: #A80036; stroke-width: 1.0;" width="10" x="250.5" y="117.7988"/><rect fill="#FFFFFF" filter="url(#f6kwc9jri9wld)" height="87.9316" style="stroke: #A80036; stroke-width: 1.0;" width="10" x="255.5" y="155.1094"/><rect fill="#FFFFFF" filter="url(#f6kwc9jri9wld)" height="77.6211" style="stroke: #A80036; stroke-width: 1.0;" width="10" x="250.5" y="337.9727"/><rect fill="#FFFFFF" filter="url(#f6kwc9jri9wld)" height="40.3105" style="stroke: #A80036; stroke-width: 1.0;" width="10" x="255.5" y="375.2832"/><polygon fill="#A80036" points="238.5,113.7988,248.5,117.7988,238.5,121.7988,242.5,117.7988" style="stroke: #A80036; stroke-width: 1.0;"/><line style="stroke: #A80036; stroke-width: 1.0;" x1="26.5" x2="244.5" y1="117.7988" y2="117.7988"/><text fill="#000000" font-family="sans-serif" font-size="13" lengthAdjust="spacingAndGlyphs" textLength="143" x="33.5" y="113.0566">user drop a audio slice</text><line style="stroke: #A80036; stroke-width: 1.0;" x1="260.5" x2="307.5" y1="142.1094" y2="142.1094"/><line style="stroke: #A80036; stroke-width: 1.0;" x1="307.5" x2="307.5" y1="142.1094" y2="155.1094"/><line style="stroke: #A80036; stroke-width: 1.0;" x1="266.5" x2="307.5" y1="155.1094" y2="155.1094"/><polygon fill="#A80036" points="276.5,151.1094,266.5,155.1094,276.5,159.1094,272.5,155.1094" style="stroke: #A80036; stroke-width: 1.0;"/><text fill="#000000" font-family="sans-serif" font-size="13" lengthAdjust="spacingAndGlyphs" textLength="89" x="272.5" y="137.3672">refreshGraph()</text><path d="M198,175.1094 L396,175.1094 L396,182.1094 L386,192.1094 L198,192.1094 L198,175.1094 " fill="#EEEEEE" style="stroke: #000000; stroke-width: 1.0;"/><rect fill="none" height="75.9316" style="stroke: #000000; stroke-width: 2.0;" width="303" x="198" y="175.1094"/><text fill="#000000" font-family="sans-serif" font-size="13" font-weight="bold" lengthAdjust="spacingAndGlyphs" textLength="153" x="213" y="188.6777">Refresh Graph Process</text><polygon fill="#A80036" points="414.5,209.7305,424.5,213.7305,414.5,217.7305,418.5,213.7305" style="stroke: #A80036; stroke-width: 1.0;"/><line style="stroke: #A80036; stroke-width: 1.0;" x1="265.5" x2="420.5" y1="213.7305" y2="213.7305"/><text fill="#000000" font-family="sans-serif" font-size="13" lengthAdjust="spacingAndGlyphs" textLength="137" x="272.5" y="208.9883">generateVisualGraph()</text><polygon fill="#A80036" points="271.5,239.041,261.5,243.041,271.5,247.041,267.5,243.041" style="stroke: #A80036; stroke-width: 1.0;"/><line style="stroke: #A80036; stroke-width: 1.0; stroke-dasharray: 2.0,2.0;" x1="265.5" x2="425.5" y1="243.041" y2="243.041"/><text fill="#000000" font-family="sans-serif" font-size="13" lengthAdjust="spacingAndGlyphs" textLength="63" x="277.5" y="238.2988">graphBlob</text><polygon fill="#A80036" points="120.5,275.3516,130.5,279.3516,120.5,283.3516,124.5,279.3516" style="stroke: #A80036; stroke-width: 1.0;"/><line style="stroke: #A80036; stroke-width: 1.0;" x1="26.5" x2="126.5" y1="279.3516" y2="279.3516"/><text fill="#000000" font-family="sans-serif" font-size="13" lengthAdjust="spacingAndGlyphs" textLength="87" x="33.5" y="274.6094">updateZoom()</text><polygon fill="#A80036" points="243.5,304.6621,253.5,308.6621,243.5,312.6621,247.5,308.6621" style="stroke: #A80036; stroke-width: 1.0;"/><line style="stroke: #A80036; stroke-width: 1.0;" x1="137.5" x2="249.5" y1="308.6621" y2="308.6621"/><text fill="#000000" font-family="sans-serif" font-size="13" lengthAdjust="spacingAndGlyphs" textLength="89" x="144.5" y="303.9199">refreshGraph()</text><polygon fill="#A80036" points="238.5,333.9727,248.5,337.9727,238.5,341.9727,242.5,337.9727" style="stroke: #A80036; stroke-width: 1.0;"/><line style="stroke: #A80036; stroke-width: 1.0;" x1="26.5" x2="244.5" y1="337.9727" y2="337.9727"/><text fill="#000000" font-family="sans-serif" font-size="13" lengthAdjust="spacingAndGlyphs" textLength="77" x="33.5" y="333.2305">stretch slice</text><line style="stroke: #A80036; stroke-width: 1.0;" x1="260.5" x2="307.5" y1="362.2832" y2="362.2832"/><line style="stroke: #A80036; stroke-width: 1.0;" x1="307.5" x2="307.5" y1="362.2832" y2="375.2832"/><line style="stroke: #A80036; stroke-width: 1.0;" x1="266.5" x2="307.5" y1="375.2832" y2="375.2832"/><polygon fill="#A80036" points="276.5,371.2832,266.5,375.2832,276.5,379.2832,272.5,375.2832" style="stroke: #A80036; stroke-width: 1.0;"/><text fill="#000000" font-family="sans-serif" font-size="13" lengthAdjust="spacingAndGlyphs" textLength="103" x="272.5" y="357.541">mouseUpEffect()</text><line style="stroke: #A80036; stroke-width: 1.0;" x1="265.5" x2="307.5" y1="414.5938" y2="414.5938"/><line style="stroke: #A80036; stroke-width: 1.0;" x1="307.5" x2="307.5" y1="414.5938" y2="427.5938"/><line style="stroke: #A80036; stroke-width: 1.0;" x1="260.5" x2="307.5" y1="427.5938" y2="427.5938"/><polygon fill="#A80036" points="270.5,423.5938,260.5,427.5938,270.5,431.5938,266.5,427.5938" style="stroke: #A80036; stroke-width: 1.0;"/><text fill="#000000" font-family="sans-serif" font-size="13" lengthAdjust="spacingAndGlyphs" textLength="89" x="272.5" y="409.8516">refreshGraph()</text><!--
@startuml
actor User

participant AudioBlock order 20
participant AudioController order 30

User -> AudioBlock: user drop a audio slice
activate AudioBlock
AudioBlock -> AudioBlock: refreshGraph()
group Refresh Graph Process
activate AudioBlock
AudioBlock -> AudioController: generateVisualGraph()
AudioController - -> AudioBlock: graphBlob
deactivate AudioBlock
end
deactivate AudioBlock
User -> EditorAction: updateZoom()
activate EditorAction
EditorAction -> AudioBlock: refreshGraph()
deactivate EditorAction

User -> AudioBlock: stretch slice
activate AudioBlock
AudioBlock -> AudioBlock: mouseUpEffect()
activate AudioBlock
AudioBlock -> AudioBlock: refreshGraph()
deactivate AudioBlock
deactivate AudioBlock

@enduml

PlantUML version 1.2019.09(Tue Aug 27 00:19:51 CST 2019)
(GPL source distribution)
Java Runtime: OpenJDK Runtime Environment
JVM: OpenJDK 64-Bit Server VM
Java Version: 13.0.2+8
Operating System: Mac OS X
OS Version: 10.14.6
Default Encoding: UTF-8
Language: zh
Country: CN
--></g></svg>