<?xml version="1.0" encoding="UTF-8" standalone="no"?><svg xmlns="http://www.w3.org/2000/svg" xmlns:xlink="http://www.w3.org/1999/xlink" contentScriptType="application/ecmascript" contentStyleType="text/css" height="307px" preserveAspectRatio="none" style="width:309px;height:307px;" version="1.1" viewBox="0 0 309 307" width="309px" zoomAndPan="magnify"><defs><filter height="300%" id="f4rbam415sug9" width="300%" x="-1" y="-1"><feGaussianBlur result="blurOut" stdDeviation="2.0"/><feColorMatrix in="blurOut" result="blurOut2" type="matrix" values="0 0 0 0 0 0 0 0 0 0 0 0 0 0 0 0 0 0 .4 0"/><feOffset dx="4.0" dy="4.0" in="blurOut2" result="blurOut3"/><feBlend in="SourceGraphic" in2="blurOut3" mode="normal"/></filter></defs><g><rect fill="#FFFFFF" filter="url(#f4rbam415sug9)" height="85.5088" style="stroke: #A80036; stroke-width: 1.0;" width="10" x="123.5" y="122.8745"/><line style="stroke: #A80036; stroke-width: 1.0; stroke-dasharray: 5.0,5.0;" x1="25" x2="25" y1="89.1201" y2="217.3833"/><line style="stroke: #A80036; stroke-width: 1.0; stroke-dasharray: 5.0,5.0;" x1="128" x2="128" y1="89.1201" y2="217.3833"/><line style="stroke: #A80036; stroke-width: 1.0; stroke-dasharray: 5.0,5.0;" x1="247" x2="247" y1="89.1201" y2="217.3833"/><text fill="#000000" font-family="sans-serif" font-size="14" lengthAdjust="spacingAndGlyphs" textLength="29" x="8" y="86.0439">User</text><ellipse cx="25.5" cy="13" fill="#FEFECE" filter="url(#f4rbam415sug9)" rx="8" ry="8" style="stroke: #A80036; stroke-width: 2.0;"/><path d="M25.5,21 L25.5,48 M12.5,29 L38.5,29 M25.5,48 L12.5,63 M25.5,48 L38.5,63 " fill="none" filter="url(#f4rbam415sug9)" style="stroke: #A80036; stroke-width: 2.0;"/><text fill="#000000" font-family="sans-serif" font-size="14" lengthAdjust="spacingAndGlyphs" textLength="29" x="8" y="232.4272">User</text><ellipse cx="25.5" cy="245.5034" fill="#FEFECE" filter="url(#f4rbam415sug9)" rx="8" ry="8" style="stroke: #A80036; stroke-width: 2.0;"/><path d="M25.5,253.5034 L25.5,280.5034 M12.5,261.5034 L38.5,261.5034 M25.5,280.5034 L12.5,295.5034 M25.5,280.5034 L38.5,295.5034 " fill="none" filter="url(#f4rbam415sug9)" style="stroke: #A80036; stroke-width: 2.0;"/><rect fill="#FEFECE" filter="url(#f4rbam415sug9)" height="33.1201" style="stroke: #A80036; stroke-width: 1.5;" width="103" x="75" y="51"/><text fill="#000000" font-family="sans-serif" font-size="14" lengthAdjust="spacingAndGlyphs" textLength="89" x="82" y="74.0439">AudioChannel</text><rect fill="#FEFECE" filter="url(#f4rbam415sug9)" height="33.1201" style="stroke: #A80036; stroke-width: 1.5;" width="103" x="75" y="216.3833"/><text fill="#000000" font-family="sans-serif" font-size="14" lengthAdjust="spacingAndGlyphs" textLength="89" x="82" y="239.4272">AudioChannel</text><rect fill="#FEFECE" filter="url(#f4rbam415sug9)" height="33.1201" style="stroke: #A80036; stroke-width: 1.5;" width="106" x="192" y="51"/><text fill="#000000" font-family="sans-serif" font-size="14" lengthAdjust="spacingAndGlyphs" textLength="92" x="199" y="74.0439">ChannelAction</text><rect fill="#FEFECE" filter="url(#f4rbam415sug9)" height="33.1201" style="stroke: #A80036; stroke-width: 1.5;" width="106" x="192" y="216.3833"/><text fill="#000000" font-family="sans-serif" font-size="14" lengthAdjust="spacingAndGlyphs" textLength="92" x="199" y="239.4272">ChannelAction</text><rect fill="#FFFFFF" filter="url(#f4rbam415sug9)" height="85.5088" style="stroke: #A80036; stroke-width: 1.0;" width="10" x="123.5" y="122.8745"/><polygon fill="#A80036" points="111.5,118.8745,121.5,122.8745,111.5,126.8745,115.5,122.8745" style="stroke: #A80036; stroke-width: 1.0;"/><line style="stroke: #A80036; stroke-width: 1.0;" x1="25.5" x2="117.5" y1="122.8745" y2="122.8745"/><text fill="#000000" font-family="sans-serif" font-size="13" lengthAdjust="spacingAndGlyphs" textLength="79" x="32.5" y="118.0181">drag vol slider</text><line style="stroke: #A80036; stroke-width: 1.0;" x1="133.5" x2="175.5" y1="154.6289" y2="154.6289"/><line style="stroke: #A80036; stroke-width: 1.0;" x1="175.5" x2="175.5" y1="154.6289" y2="167.6289"/><line style="stroke: #A80036; stroke-width: 1.0;" x1="134.5" x2="175.5" y1="167.6289" y2="167.6289"/><polygon fill="#A80036" points="144.5,163.6289,134.5,167.6289,144.5,171.6289,140.5,167.6289" style="stroke: #A80036; stroke-width: 1.0;"/><text fill="#000000" font-family="sans-serif" font-size="13" lengthAdjust="spacingAndGlyphs" textLength="67" x="140.5" y="149.7725">volHandler()</text><polygon fill="#A80036" points="235,195.3833,245,199.3833,235,203.3833,239,199.3833" style="stroke: #A80036; stroke-width: 1.0;"/><line style="stroke: #A80036; stroke-width: 1.0;" x1="133.5" x2="241" y1="199.3833" y2="199.3833"/><text fill="#000000" font-family="sans-serif" font-size="13" lengthAdjust="spacingAndGlyphs" textLength="66" x="140.5" y="194.5269">updateVol()</text><!--
@startuml
actor User

User -> AudioChannel: drag vol slider
activate AudioChannel
AudioChannel -> AudioChannel: volHandler()
AudioChannel -> ChannelAction: updateVol()

@enduml

PlantUML version 1.2019.09(Tue Aug 27 00:19:51 CST 2019)
(GPL source distribution)
Java Runtime: Java(TM) SE Runtime Environment
JVM: Java HotSpot(TM) 64-Bit Server VM
Java Version: 12+33
Operating System: Windows 10
OS Version: 10.0
Default Encoding: GBK
Language: zh
Country: CN
--></g></svg>