<?xml version="1.0" encoding="UTF-8" standalone="no"?><svg xmlns="http://www.w3.org/2000/svg" xmlns:xlink="http://www.w3.org/1999/xlink" contentScriptType="application/ecmascript" contentStyleType="text/css" height="382px" preserveAspectRatio="none" style="width:876px;height:382px;" version="1.1" viewBox="0 0 876 382" width="876px" zoomAndPan="magnify"><defs><filter height="300%" id="f2tbmhlm5hirc" width="300%" x="-1" y="-1"><feGaussianBlur result="blurOut" stdDeviation="2.0"/><feColorMatrix in="blurOut" result="blurOut2" type="matrix" values="0 0 0 0 0 0 0 0 0 0 0 0 0 0 0 0 0 0 .4 0"/><feOffset dx="4.0" dy="4.0" in="blurOut2" result="blurOut3"/><feBlend in="SourceGraphic" in2="blurOut3" mode="normal"/></filter></defs><g><rect fill="#FFFFFF" filter="url(#f2tbmhlm5hirc)" height="168.5527" style="stroke: #A80036; stroke-width: 1.0;" width="10" x="135.5" y="117.7988"/><line style="stroke: #A80036; stroke-width: 1.0; stroke-dasharray: 5.0,5.0;" x1="26" x2="26" y1="86.4883" y2="295.3516"/><line style="stroke: #A80036; stroke-width: 1.0; stroke-dasharray: 5.0,5.0;" x1="140.5" x2="140.5" y1="86.4883" y2="295.3516"/><line style="stroke: #A80036; stroke-width: 1.0; stroke-dasharray: 5.0,5.0;" x1="267.5" x2="267.5" y1="86.4883" y2="295.3516"/><line style="stroke: #A80036; stroke-width: 1.0; stroke-dasharray: 5.0,5.0;" x1="392" x2="392" y1="86.4883" y2="295.3516"/><line style="stroke: #A80036; stroke-width: 1.0; stroke-dasharray: 5.0,5.0;" x1="678" x2="678" y1="86.4883" y2="295.3516"/><line style="stroke: #A80036; stroke-width: 1.0; stroke-dasharray: 5.0,5.0;" x1="804" x2="804" y1="86.4883" y2="295.3516"/><text fill="#000000" font-family="sans-serif" font-size="14" lengthAdjust="spacingAndGlyphs" textLength="31" x="8" y="83.5352">User</text><ellipse cx="26.5" cy="13" fill="#FEFECE" filter="url(#f2tbmhlm5hirc)" rx="8" ry="8" style="stroke: #A80036; stroke-width: 2.0;"/><path d="M26.5,21 L26.5,48 M13.5,29 L39.5,29 M26.5,48 L13.5,63 M26.5,48 L39.5,63 " fill="none" filter="url(#f2tbmhlm5hirc)" style="stroke: #A80036; stroke-width: 2.0;"/><text fill="#000000" font-family="sans-serif" font-size="14" lengthAdjust="spacingAndGlyphs" textLength="31" x="8" y="307.8867">User</text><ellipse cx="26.5" cy="320.8398" fill="#FEFECE" filter="url(#f2tbmhlm5hirc)" rx="8" ry="8" style="stroke: #A80036; stroke-width: 2.0;"/><path d="M26.5,328.8398 L26.5,355.8398 M13.5,336.8398 L39.5,336.8398 M26.5,355.8398 L13.5,370.8398 M26.5,355.8398 L39.5,370.8398 " fill="none" filter="url(#f2tbmhlm5hirc)" style="stroke: #A80036; stroke-width: 2.0;"/><rect fill="#FEFECE" filter="url(#f2tbmhlm5hirc)" height="30.4883" style="stroke: #A80036; stroke-width: 1.5;" width="112" x="82.5" y="51"/><text fill="#000000" font-family="sans-serif" font-size="14" lengthAdjust="spacingAndGlyphs" textLength="98" x="89.5" y="71.5352">AudioChannel</text><rect fill="#FEFECE" filter="url(#f2tbmhlm5hirc)" height="30.4883" style="stroke: #A80036; stroke-width: 1.5;" width="112" x="82.5" y="294.3516"/><text fill="#000000" font-family="sans-serif" font-size="14" lengthAdjust="spacingAndGlyphs" textLength="98" x="89.5" y="314.8867">AudioChannel</text><rect fill="#FEFECE" filter="url(#f2tbmhlm5hirc)" height="30.4883" style="stroke: #A80036; stroke-width: 1.5;" width="115" x="208.5" y="51"/><text fill="#000000" font-family="sans-serif" font-size="14" lengthAdjust="spacingAndGlyphs" textLength="101" x="215.5" y="71.5352">ChannelAction</text><rect fill="#FEFECE" filter="url(#f2tbmhlm5hirc)" height="30.4883" style="stroke: #A80036; stroke-width: 1.5;" width="115" x="208.5" y="294.3516"/><text fill="#000000" font-family="sans-serif" font-size="14" lengthAdjust="spacingAndGlyphs" textLength="101" x="215.5" y="314.8867">ChannelAction</text><rect fill="#FEFECE" filter="url(#f2tbmhlm5hirc)" height="30.4883" style="stroke: #A80036; stroke-width: 1.5;" width="104" x="338" y="51"/><text fill="#000000" font-family="sans-serif" font-size="14" lengthAdjust="spacingAndGlyphs" textLength="90" x="345" y="71.5352">ChannelSaga</text><rect fill="#FEFECE" filter="url(#f2tbmhlm5hirc)" height="30.4883" style="stroke: #A80036; stroke-width: 1.5;" width="104" x="338" y="294.3516"/><text fill="#000000" font-family="sans-serif" font-size="14" lengthAdjust="spacingAndGlyphs" textLength="90" x="345" y="314.8867">ChannelSaga</text><rect fill="#FEFECE" filter="url(#f2tbmhlm5hirc)" height="30.4883" style="stroke: #A80036; stroke-width: 1.5;" width="100" x="626" y="51"/><text fill="#000000" font-family="sans-serif" font-size="14" lengthAdjust="spacingAndGlyphs" textLength="86" x="633" y="71.5352">EventEmitter</text><rect fill="#FEFECE" filter="url(#f2tbmhlm5hirc)" height="30.4883" style="stroke: #A80036; stroke-width: 1.5;" width="100" x="626" y="294.3516"/><text fill="#000000" font-family="sans-serif" font-size="14" lengthAdjust="spacingAndGlyphs" textLength="86" x="633" y="314.8867">EventEmitter</text><rect fill="#FEFECE" filter="url(#f2tbmhlm5hirc)" height="30.4883" style="stroke: #A80036; stroke-width: 1.5;" width="125" x="740" y="51"/><text fill="#000000" font-family="sans-serif" font-size="14" lengthAdjust="spacingAndGlyphs" textLength="111" x="747" y="71.5352">AudioController</text><rect fill="#FEFECE" filter="url(#f2tbmhlm5hirc)" height="30.4883" style="stroke: #A80036; stroke-width: 1.5;" width="125" x="740" y="294.3516"/><text fill="#000000" font-family="sans-serif" font-size="14" lengthAdjust="spacingAndGlyphs" textLength="111" x="747" y="314.8867">AudioController</text><rect fill="#FFFFFF" filter="url(#f2tbmhlm5hirc)" height="168.5527" style="stroke: #A80036; stroke-width: 1.0;" width="10" x="135.5" y="117.7988"/><polygon fill="#A80036" points="123.5,113.7988,133.5,117.7988,123.5,121.7988,127.5,117.7988" style="stroke: #A80036; stroke-width: 1.0;"/><line style="stroke: #A80036; stroke-width: 1.0;" x1="26.5" x2="129.5" y1="117.7988" y2="117.7988"/><text fill="#000000" font-family="sans-serif" font-size="13" lengthAdjust="spacingAndGlyphs" textLength="90" x="33.5" y="113.0566">drag vol slider</text><line style="stroke: #A80036; stroke-width: 1.0;" x1="145.5" x2="187.5" y1="147.1094" y2="147.1094"/><line style="stroke: #A80036; stroke-width: 1.0;" x1="187.5" x2="187.5" y1="147.1094" y2="160.1094"/><line style="stroke: #A80036; stroke-width: 1.0;" x1="146.5" x2="187.5" y1="160.1094" y2="160.1094"/><polygon fill="#A80036" points="156.5,156.1094,146.5,160.1094,156.5,164.1094,152.5,160.1094" style="stroke: #A80036; stroke-width: 1.0;"/><text fill="#000000" font-family="sans-serif" font-size="13" lengthAdjust="spacingAndGlyphs" textLength="76" x="152.5" y="142.3672">volHandler()</text><polygon fill="#A80036" points="256,185.4199,266,189.4199,256,193.4199,260,189.4199" style="stroke: #A80036; stroke-width: 1.0;"/><line style="stroke: #A80036; stroke-width: 1.0;" x1="145.5" x2="262" y1="189.4199" y2="189.4199"/><text fill="#000000" font-family="sans-serif" font-size="13" lengthAdjust="spacingAndGlyphs" textLength="71" x="152.5" y="184.6777">updateVol()</text><polygon fill="#A80036" points="380,214.7305,390,218.7305,380,222.7305,384,218.7305" style="stroke: #A80036; stroke-width: 1.0;"/><line style="stroke: #A80036; stroke-width: 1.0;" x1="268" x2="386" y1="218.7305" y2="218.7305"/><text fill="#000000" font-family="sans-serif" font-size="13" lengthAdjust="spacingAndGlyphs" textLength="100" x="275" y="213.9883">updateVolSaga()</text><polygon fill="#A80036" points="666,244.041,676,248.041,666,252.041,670,248.041" style="stroke: #A80036; stroke-width: 1.0;"/><line style="stroke: #A80036; stroke-width: 1.0;" x1="392" x2="672" y1="248.041" y2="248.041"/><text fill="#000000" font-family="sans-serif" font-size="13" lengthAdjust="spacingAndGlyphs" textLength="262" x="399" y="243.2988">emit('CHANNEL_UPDATE_CHANNEL_VOL')</text><polygon fill="#A80036" points="792.5,273.3516,802.5,277.3516,792.5,281.3516,796.5,277.3516" style="stroke: #A80036; stroke-width: 1.0;"/><line style="stroke: #A80036; stroke-width: 1.0;" x1="678" x2="798.5" y1="277.3516" y2="277.3516"/><text fill="#000000" font-family="sans-serif" font-size="13" lengthAdjust="spacingAndGlyphs" textLength="71" x="685" y="272.6094">updateVol()</text><!--
@startuml
actor User

User -> AudioChannel: drag vol slider
activate AudioChannel
AudioChannel -> AudioChannel: volHandler()
AudioChannel -> ChannelAction: updateVol()
ChannelAction -> ChannelSaga: updateVolSaga()
ChannelSaga -> EventEmitter: emit('CHANNEL_UPDATE_CHANNEL_VOL')
EventEmitter -> AudioController: updateVol()
@enduml

PlantUML version 1.2019.09(Tue Aug 27 00:19:51 CST 2019)
(GPL source distribution)
Java Runtime: OpenJDK Runtime Environment
JVM: OpenJDK 64-Bit Server VM
Java Version: 13.0.2+8
Operating System: Mac OS X
OS Version: 10.14.6
Default Encoding: UTF-8
Language: zh
Country: CN
--></g></svg>