<?xml version="1.0" encoding="UTF-8" standalone="no"?><svg xmlns="http://www.w3.org/2000/svg" xmlns:xlink="http://www.w3.org/1999/xlink" contentScriptType="application/ecmascript" contentStyleType="text/css" height="294px" preserveAspectRatio="none" style="width:546px;height:294px;" version="1.1" viewBox="0 0 546 294" width="546px" zoomAndPan="magnify"><defs><filter height="300%" id="f17knzhhyq2e7z" width="300%" x="-1" y="-1"><feGaussianBlur result="blurOut" stdDeviation="2.0"/><feColorMatrix in="blurOut" result="blurOut2" type="matrix" values="0 0 0 0 0 0 0 0 0 0 0 0 0 0 0 0 0 0 .4 0"/><feOffset dx="4.0" dy="4.0" in="blurOut2" result="blurOut3"/><feBlend in="SourceGraphic" in2="blurOut3" mode="normal"/></filter></defs><g><rect fill="#FFFFFF" filter="url(#f17knzhhyq2e7z)" height="31.7544" style="stroke: #A80036; stroke-width: 1.0;" width="10" x="152.5" y="122.8745"/><rect fill="#FFFFFF" filter="url(#f17knzhhyq2e7z)" height="31.7544" style="stroke: #A80036; stroke-width: 1.0;" width="10" x="316.5" y="154.6289"/><line style="stroke: #A80036; stroke-width: 1.0; stroke-dasharray: 5.0,5.0;" x1="25" x2="25" y1="89.1201" y2="204.3833"/><line style="stroke: #A80036; stroke-width: 1.0; stroke-dasharray: 5.0,5.0;" x1="157.5" x2="157.5" y1="89.1201" y2="204.3833"/><line style="stroke: #A80036; stroke-width: 1.0; stroke-dasharray: 5.0,5.0;" x1="321.5" x2="321.5" y1="89.1201" y2="204.3833"/><line style="stroke: #A80036; stroke-width: 1.0; stroke-dasharray: 5.0,5.0;" x1="474" x2="474" y1="89.1201" y2="204.3833"/><text fill="#000000" font-family="sans-serif" font-size="14" lengthAdjust="spacingAndGlyphs" textLength="29" x="8" y="86.0439">User</text><ellipse cx="25.5" cy="13" fill="#FEFECE" filter="url(#f17knzhhyq2e7z)" rx="8" ry="8" style="stroke: #A80036; stroke-width: 2.0;"/><path d="M25.5,21 L25.5,48 M12.5,29 L38.5,29 M25.5,48 L12.5,63 M25.5,48 L38.5,63 " fill="none" filter="url(#f17knzhhyq2e7z)" style="stroke: #A80036; stroke-width: 2.0;"/><text fill="#000000" font-family="sans-serif" font-size="14" lengthAdjust="spacingAndGlyphs" textLength="29" x="8" y="219.4272">User</text><ellipse cx="25.5" cy="232.5034" fill="#FEFECE" filter="url(#f17knzhhyq2e7z)" rx="8" ry="8" style="stroke: #A80036; stroke-width: 2.0;"/><path d="M25.5,240.5034 L25.5,267.5034 M12.5,248.5034 L38.5,248.5034 M25.5,267.5034 L12.5,282.5034 M25.5,267.5034 L38.5,282.5034 " fill="none" filter="url(#f17knzhhyq2e7z)" style="stroke: #A80036; stroke-width: 2.0;"/><rect fill="#FEFECE" filter="url(#f17knzhhyq2e7z)" height="33.1201" style="stroke: #A80036; stroke-width: 1.5;" width="78" x="116.5" y="51"/><text fill="#000000" font-family="sans-serif" font-size="14" lengthAdjust="spacingAndGlyphs" textLength="64" x="123.5" y="74.0439">Dropdown</text><rect fill="#FEFECE" filter="url(#f17knzhhyq2e7z)" height="33.1201" style="stroke: #A80036; stroke-width: 1.5;" width="78" x="116.5" y="203.3833"/><text fill="#000000" font-family="sans-serif" font-size="14" lengthAdjust="spacingAndGlyphs" textLength="64" x="123.5" y="226.4272">Dropdown</text><rect fill="#FEFECE" filter="url(#f17knzhhyq2e7z)" height="33.1201" style="stroke: #A80036; stroke-width: 1.5;" width="86" x="276.5" y="51"/><text fill="#000000" font-family="sans-serif" font-size="14" lengthAdjust="spacingAndGlyphs" textLength="72" x="283.5" y="74.0439">EffectPanel</text><rect fill="#FEFECE" filter="url(#f17knzhhyq2e7z)" height="33.1201" style="stroke: #A80036; stroke-width: 1.5;" width="86" x="276.5" y="203.3833"/><text fill="#000000" font-family="sans-serif" font-size="14" lengthAdjust="spacingAndGlyphs" textLength="72" x="283.5" y="226.4272">EffectPanel</text><rect fill="#FEFECE" filter="url(#f17knzhhyq2e7z)" height="33.1201" style="stroke: #A80036; stroke-width: 1.5;" width="125" x="410" y="51"/><text fill="#000000" font-family="sans-serif" font-size="14" lengthAdjust="spacingAndGlyphs" textLength="111" x="417" y="74.0439">AudioEffectAction</text><rect fill="#FEFECE" filter="url(#f17knzhhyq2e7z)" height="33.1201" style="stroke: #A80036; stroke-width: 1.5;" width="125" x="410" y="203.3833"/><text fill="#000000" font-family="sans-serif" font-size="14" lengthAdjust="spacingAndGlyphs" textLength="111" x="417" y="226.4272">AudioEffectAction</text><rect fill="#FFFFFF" filter="url(#f17knzhhyq2e7z)" height="31.7544" style="stroke: #A80036; stroke-width: 1.0;" width="10" x="152.5" y="122.8745"/><rect fill="#FFFFFF" filter="url(#f17knzhhyq2e7z)" height="31.7544" style="stroke: #A80036; stroke-width: 1.0;" width="10" x="316.5" y="154.6289"/><polygon fill="#A80036" points="140.5,118.8745,150.5,122.8745,140.5,126.8745,144.5,122.8745" style="stroke: #A80036; stroke-width: 1.0;"/><line style="stroke: #A80036; stroke-width: 1.0;" x1="25.5" x2="146.5" y1="122.8745" y2="122.8745"/><text fill="#000000" font-family="sans-serif" font-size="13" lengthAdjust="spacingAndGlyphs" textLength="108" x="32.5" y="118.0181">handleEffectClick()</text><polygon fill="#A80036" points="304.5,150.6289,314.5,154.6289,304.5,158.6289,308.5,154.6289" style="stroke: #A80036; stroke-width: 1.0;"/><line style="stroke: #A80036; stroke-width: 1.0;" x1="157.5" x2="310.5" y1="154.6289" y2="154.6289"/><text fill="#000000" font-family="sans-serif" font-size="13" lengthAdjust="spacingAndGlyphs" textLength="135" x="164.5" y="149.7725">handlePresentChange()</text><polygon fill="#A80036" points="462.5,182.3833,472.5,186.3833,462.5,190.3833,466.5,186.3833" style="stroke: #A80036; stroke-width: 1.0;"/><line style="stroke: #A80036; stroke-width: 1.0;" x1="321.5" x2="468.5" y1="186.3833" y2="186.3833"/><text fill="#000000" font-family="sans-serif" font-size="13" lengthAdjust="spacingAndGlyphs" textLength="124" x="328.5" y="181.5269">modifyEffectPresent()</text><!--
@startuml
actor User

User -> Dropdown: handleEffectClick()
activate Dropdown
Dropdown -> EffectPanel: handlePresentChange()
deactivate Dropdown
activate EffectPanel
EffectPanel -> AudioEffectAction: modifyEffectPresent()
deactivate EffectPanel
@enduml

PlantUML version 1.2019.09(Tue Aug 27 00:19:51 CST 2019)
(GPL source distribution)
Java Runtime: Java(TM) SE Runtime Environment
JVM: Java HotSpot(TM) 64-Bit Server VM
Java Version: 12+33
Operating System: Windows 10
OS Version: 10.0
Default Encoding: GBK
Language: zh
Country: CN
--></g></svg>