<?xml version="1.0" encoding="UTF-8" standalone="no"?><svg xmlns="http://www.w3.org/2000/svg" xmlns:xlink="http://www.w3.org/1999/xlink" contentScriptType="application/ecmascript" contentStyleType="text/css" height="382px" preserveAspectRatio="none" style="width:883px;height:382px;" version="1.1" viewBox="0 0 883 382" width="883px" zoomAndPan="magnify"><defs><filter height="300%" id="f1xfbzkv4fdaxw" width="300%" x="-1" y="-1"><feGaussianBlur result="blurOut" stdDeviation="2.0"/><feColorMatrix in="blurOut" result="blurOut2" type="matrix" values="0 0 0 0 0 0 0 0 0 0 0 0 0 0 0 0 0 0 .4 0"/><feOffset dx="4.0" dy="4.0" in="blurOut2" result="blurOut3"/><feBlend in="SourceGraphic" in2="blurOut3" mode="normal"/></filter></defs><g><rect fill="#FFFFFF" filter="url(#f1xfbzkv4fdaxw)" height="168.5527" style="stroke: #A80036; stroke-width: 1.0;" width="10" x="139.5" y="117.7988"/><line style="stroke: #A80036; stroke-width: 1.0; stroke-dasharray: 5.0,5.0;" x1="26" x2="26" y1="86.4883" y2="295.3516"/><line style="stroke: #A80036; stroke-width: 1.0; stroke-dasharray: 5.0,5.0;" x1="144.5" x2="144.5" y1="86.4883" y2="295.3516"/><line style="stroke: #A80036; stroke-width: 1.0; stroke-dasharray: 5.0,5.0;" x1="271.5" x2="271.5" y1="86.4883" y2="295.3516"/><line style="stroke: #A80036; stroke-width: 1.0; stroke-dasharray: 5.0,5.0;" x1="398" x2="398" y1="86.4883" y2="295.3516"/><line style="stroke: #A80036; stroke-width: 1.0; stroke-dasharray: 5.0,5.0;" x1="685" x2="685" y1="86.4883" y2="295.3516"/><line style="stroke: #A80036; stroke-width: 1.0; stroke-dasharray: 5.0,5.0;" x1="811" x2="811" y1="86.4883" y2="295.3516"/><text fill="#000000" font-family="sans-serif" font-size="14" lengthAdjust="spacingAndGlyphs" textLength="31" x="8" y="83.5352">User</text><ellipse cx="26.5" cy="13" fill="#FEFECE" filter="url(#f1xfbzkv4fdaxw)" rx="8" ry="8" style="stroke: #A80036; stroke-width: 2.0;"/><path d="M26.5,21 L26.5,48 M13.5,29 L39.5,29 M26.5,48 L13.5,63 M26.5,48 L39.5,63 " fill="none" filter="url(#f1xfbzkv4fdaxw)" style="stroke: #A80036; stroke-width: 2.0;"/><text fill="#000000" font-family="sans-serif" font-size="14" lengthAdjust="spacingAndGlyphs" textLength="31" x="8" y="307.8867">User</text><ellipse cx="26.5" cy="320.8398" fill="#FEFECE" filter="url(#f1xfbzkv4fdaxw)" rx="8" ry="8" style="stroke: #A80036; stroke-width: 2.0;"/><path d="M26.5,328.8398 L26.5,355.8398 M13.5,336.8398 L39.5,336.8398 M26.5,355.8398 L13.5,370.8398 M26.5,355.8398 L39.5,370.8398 " fill="none" filter="url(#f1xfbzkv4fdaxw)" style="stroke: #A80036; stroke-width: 2.0;"/><rect fill="#FEFECE" filter="url(#f1xfbzkv4fdaxw)" height="30.4883" style="stroke: #A80036; stroke-width: 1.5;" width="112" x="86.5" y="51"/><text fill="#000000" font-family="sans-serif" font-size="14" lengthAdjust="spacingAndGlyphs" textLength="98" x="93.5" y="71.5352">AudioChannel</text><rect fill="#FEFECE" filter="url(#f1xfbzkv4fdaxw)" height="30.4883" style="stroke: #A80036; stroke-width: 1.5;" width="112" x="86.5" y="294.3516"/><text fill="#000000" font-family="sans-serif" font-size="14" lengthAdjust="spacingAndGlyphs" textLength="98" x="93.5" y="314.8867">AudioChannel</text><rect fill="#FEFECE" filter="url(#f1xfbzkv4fdaxw)" height="30.4883" style="stroke: #A80036; stroke-width: 1.5;" width="115" x="212.5" y="51"/><text fill="#000000" font-family="sans-serif" font-size="14" lengthAdjust="spacingAndGlyphs" textLength="101" x="219.5" y="71.5352">ChannelAction</text><rect fill="#FEFECE" filter="url(#f1xfbzkv4fdaxw)" height="30.4883" style="stroke: #A80036; stroke-width: 1.5;" width="115" x="212.5" y="294.3516"/><text fill="#000000" font-family="sans-serif" font-size="14" lengthAdjust="spacingAndGlyphs" textLength="101" x="219.5" y="314.8867">ChannelAction</text><rect fill="#FEFECE" filter="url(#f1xfbzkv4fdaxw)" height="30.4883" style="stroke: #A80036; stroke-width: 1.5;" width="104" x="344" y="51"/><text fill="#000000" font-family="sans-serif" font-size="14" lengthAdjust="spacingAndGlyphs" textLength="90" x="351" y="71.5352">ChannelSaga</text><rect fill="#FEFECE" filter="url(#f1xfbzkv4fdaxw)" height="30.4883" style="stroke: #A80036; stroke-width: 1.5;" width="104" x="344" y="294.3516"/><text fill="#000000" font-family="sans-serif" font-size="14" lengthAdjust="spacingAndGlyphs" textLength="90" x="351" y="314.8867">ChannelSaga</text><rect fill="#FEFECE" filter="url(#f1xfbzkv4fdaxw)" height="30.4883" style="stroke: #A80036; stroke-width: 1.5;" width="100" x="633" y="51"/><text fill="#000000" font-family="sans-serif" font-size="14" lengthAdjust="spacingAndGlyphs" textLength="86" x="640" y="71.5352">EventEmitter</text><rect fill="#FEFECE" filter="url(#f1xfbzkv4fdaxw)" height="30.4883" style="stroke: #A80036; stroke-width: 1.5;" width="100" x="633" y="294.3516"/><text fill="#000000" font-family="sans-serif" font-size="14" lengthAdjust="spacingAndGlyphs" textLength="86" x="640" y="314.8867">EventEmitter</text><rect fill="#FEFECE" filter="url(#f1xfbzkv4fdaxw)" height="30.4883" style="stroke: #A80036; stroke-width: 1.5;" width="125" x="747" y="51"/><text fill="#000000" font-family="sans-serif" font-size="14" lengthAdjust="spacingAndGlyphs" textLength="111" x="754" y="71.5352">AudioController</text><rect fill="#FEFECE" filter="url(#f1xfbzkv4fdaxw)" height="30.4883" style="stroke: #A80036; stroke-width: 1.5;" width="125" x="747" y="294.3516"/><text fill="#000000" font-family="sans-serif" font-size="14" lengthAdjust="spacingAndGlyphs" textLength="111" x="754" y="314.8867">AudioController</text><rect fill="#FFFFFF" filter="url(#f1xfbzkv4fdaxw)" height="168.5527" style="stroke: #A80036; stroke-width: 1.0;" width="10" x="139.5" y="117.7988"/><polygon fill="#A80036" points="127.5,113.7988,137.5,117.7988,127.5,121.7988,131.5,117.7988" style="stroke: #A80036; stroke-width: 1.0;"/><line style="stroke: #A80036; stroke-width: 1.0;" x1="26.5" x2="133.5" y1="117.7988" y2="117.7988"/><text fill="#000000" font-family="sans-serif" font-size="13" lengthAdjust="spacingAndGlyphs" textLength="94" x="33.5" y="113.0566">drag pan slider</text><line style="stroke: #A80036; stroke-width: 1.0;" x1="149.5" x2="191.5" y1="147.1094" y2="147.1094"/><line style="stroke: #A80036; stroke-width: 1.0;" x1="191.5" x2="191.5" y1="147.1094" y2="160.1094"/><line style="stroke: #A80036; stroke-width: 1.0;" x1="150.5" x2="191.5" y1="160.1094" y2="160.1094"/><polygon fill="#A80036" points="160.5,156.1094,150.5,160.1094,160.5,164.1094,156.5,160.1094" style="stroke: #A80036; stroke-width: 1.0;"/><text fill="#000000" font-family="sans-serif" font-size="13" lengthAdjust="spacingAndGlyphs" textLength="80" x="156.5" y="142.3672">panHandler()</text><polygon fill="#A80036" points="260,185.4199,270,189.4199,260,193.4199,264,189.4199" style="stroke: #A80036; stroke-width: 1.0;"/><line style="stroke: #A80036; stroke-width: 1.0;" x1="149.5" x2="266" y1="189.4199" y2="189.4199"/><text fill="#000000" font-family="sans-serif" font-size="13" lengthAdjust="spacingAndGlyphs" textLength="73" x="156.5" y="184.6777">updatePan()</text><polygon fill="#A80036" points="386,214.7305,396,218.7305,386,222.7305,390,218.7305" style="stroke: #A80036; stroke-width: 1.0;"/><line style="stroke: #A80036; stroke-width: 1.0;" x1="272" x2="392" y1="218.7305" y2="218.7305"/><text fill="#000000" font-family="sans-serif" font-size="13" lengthAdjust="spacingAndGlyphs" textLength="102" x="279" y="213.9883">updatePanSaga()</text><polygon fill="#A80036" points="673,244.041,683,248.041,673,252.041,677,248.041" style="stroke: #A80036; stroke-width: 1.0;"/><line style="stroke: #A80036; stroke-width: 1.0;" x1="398" x2="679" y1="248.041" y2="248.041"/><text fill="#000000" font-family="sans-serif" font-size="13" lengthAdjust="spacingAndGlyphs" textLength="263" x="405" y="243.2988">emit('CHANNEL_UPDATE_CHANNEL_PAN')</text><polygon fill="#A80036" points="799.5,273.3516,809.5,277.3516,799.5,281.3516,803.5,277.3516" style="stroke: #A80036; stroke-width: 1.0;"/><line style="stroke: #A80036; stroke-width: 1.0;" x1="685" x2="805.5" y1="277.3516" y2="277.3516"/><text fill="#000000" font-family="sans-serif" font-size="13" lengthAdjust="spacingAndGlyphs" textLength="73" x="692" y="272.6094">updatePan()</text><!--
@startuml
actor User

User -> AudioChannel: drag pan slider
activate AudioChannel
AudioChannel -> AudioChannel: panHandler()
AudioChannel -> ChannelAction: updatePan()
ChannelAction -> ChannelSaga: updatePanSaga()
ChannelSaga -> EventEmitter: emit('CHANNEL_UPDATE_CHANNEL_PAN')
EventEmitter -> AudioController: updatePan()
@enduml

PlantUML version 1.2019.09(Tue Aug 27 00:19:51 CST 2019)
(GPL source distribution)
Java Runtime: OpenJDK Runtime Environment
JVM: OpenJDK 64-Bit Server VM
Java Version: 13.0.2+8
Operating System: Mac OS X
OS Version: 10.14.6
Default Encoding: UTF-8
Language: zh
Country: CN
--></g></svg>