<?xml version="1.0" encoding="UTF-8" standalone="no"?><svg xmlns="http://www.w3.org/2000/svg" xmlns:xlink="http://www.w3.org/1999/xlink" contentScriptType="application/ecmascript" contentStyleType="text/css" height="597px" preserveAspectRatio="none" style="width:779px;height:597px;" version="1.1" viewBox="0 0 779 597" width="779px" zoomAndPan="magnify"><defs><filter height="300%" id="f1b8coq3gy11eo" width="300%" x="-1" y="-1"><feGaussianBlur result="blurOut" stdDeviation="2.0"/><feColorMatrix in="blurOut" result="blurOut2" type="matrix" values="0 0 0 0 0 0 0 0 0 0 0 0 0 0 0 0 0 0 .4 0"/><feOffset dx="4.0" dy="4.0" in="blurOut2" result="blurOut3"/><feBlend in="SourceGraphic" in2="blurOut3" mode="normal"/></filter></defs><g><rect fill="#FFFFFF" filter="url(#f1b8coq3gy11eo)" height="143.2422" style="stroke: #A80036; stroke-width: 1.0;" width="10" x="165.5" y="117.7988"/><rect fill="#FFFFFF" filter="url(#f1b8coq3gy11eo)" height="105.9316" style="stroke: #A80036; stroke-width: 1.0;" width="10" x="170.5" y="155.1094"/><rect fill="#FFFFFF" filter="url(#f1b8coq3gy11eo)" height="143.2422" style="stroke: #A80036; stroke-width: 1.0;" width="10" x="165.5" y="290.3516"/><rect fill="#FFFFFF" filter="url(#f1b8coq3gy11eo)" height="105.9316" style="stroke: #A80036; stroke-width: 1.0;" width="10" x="170.5" y="327.6621"/><rect fill="#FFFFFF" filter="url(#f1b8coq3gy11eo)" height="67.6211" style="stroke: #A80036; stroke-width: 1.0;" width="10" x="458" y="433.5938"/><line style="stroke: #A80036; stroke-width: 1.0; stroke-dasharray: 5.0,5.0;" x1="26" x2="26" y1="86.4883" y2="510.2148"/><line style="stroke: #A80036; stroke-width: 1.0; stroke-dasharray: 5.0,5.0;" x1="170.5" x2="170.5" y1="86.4883" y2="510.2148"/><line style="stroke: #A80036; stroke-width: 1.0; stroke-dasharray: 5.0,5.0;" x1="319.5" x2="319.5" y1="86.4883" y2="510.2148"/><line style="stroke: #A80036; stroke-width: 1.0; stroke-dasharray: 5.0,5.0;" x1="462.5" x2="462.5" y1="86.4883" y2="510.2148"/><line style="stroke: #A80036; stroke-width: 1.0; stroke-dasharray: 5.0,5.0;" x1="588.5" x2="588.5" y1="86.4883" y2="510.2148"/><line style="stroke: #A80036; stroke-width: 1.0; stroke-dasharray: 5.0,5.0;" x1="712.5" x2="712.5" y1="86.4883" y2="510.2148"/><text fill="#000000" font-family="sans-serif" font-size="14" lengthAdjust="spacingAndGlyphs" textLength="31" x="8" y="83.5352">User</text><ellipse cx="26.5" cy="13" fill="#FEFECE" filter="url(#f1b8coq3gy11eo)" rx="8" ry="8" style="stroke: #A80036; stroke-width: 2.0;"/><path d="M26.5,21 L26.5,48 M13.5,29 L39.5,29 M26.5,48 L13.5,63 M26.5,48 L39.5,63 " fill="none" filter="url(#f1b8coq3gy11eo)" style="stroke: #A80036; stroke-width: 2.0;"/><text fill="#000000" font-family="sans-serif" font-size="14" lengthAdjust="spacingAndGlyphs" textLength="31" x="8" y="522.75">User</text><ellipse cx="26.5" cy="535.7031" fill="#FEFECE" filter="url(#f1b8coq3gy11eo)" rx="8" ry="8" style="stroke: #A80036; stroke-width: 2.0;"/><path d="M26.5,543.7031 L26.5,570.7031 M13.5,551.7031 L39.5,551.7031 M26.5,570.7031 L13.5,585.7031 M26.5,570.7031 L39.5,585.7031 " fill="none" filter="url(#f1b8coq3gy11eo)" style="stroke: #A80036; stroke-width: 2.0;"/><rect fill="#FEFECE" filter="url(#f1b8coq3gy11eo)" height="30.4883" style="stroke: #A80036; stroke-width: 1.5;" width="88" x="124.5" y="51"/><text fill="#000000" font-family="sans-serif" font-size="14" lengthAdjust="spacingAndGlyphs" textLength="74" x="131.5" y="71.5352">ControlBar</text><rect fill="#FEFECE" filter="url(#f1b8coq3gy11eo)" height="30.4883" style="stroke: #A80036; stroke-width: 1.5;" width="88" x="124.5" y="509.2148"/><text fill="#000000" font-family="sans-serif" font-size="14" lengthAdjust="spacingAndGlyphs" textLength="74" x="131.5" y="529.75">ControlBar</text><rect fill="#FEFECE" filter="url(#f1b8coq3gy11eo)" height="30.4883" style="stroke: #A80036; stroke-width: 1.5;" width="140" x="247.5" y="51"/><text fill="#000000" font-family="sans-serif" font-size="14" lengthAdjust="spacingAndGlyphs" textLength="126" x="254.5" y="71.5352">FunctionBarAction</text><rect fill="#FEFECE" filter="url(#f1b8coq3gy11eo)" height="30.4883" style="stroke: #A80036; stroke-width: 1.5;" width="140" x="247.5" y="509.2148"/><text fill="#000000" font-family="sans-serif" font-size="14" lengthAdjust="spacingAndGlyphs" textLength="126" x="254.5" y="529.75">FunctionBarAction</text><rect fill="#FEFECE" filter="url(#f1b8coq3gy11eo)" height="30.4883" style="stroke: #A80036; stroke-width: 1.5;" width="119" x="401.5" y="51"/><text fill="#000000" font-family="sans-serif" font-size="14" lengthAdjust="spacingAndGlyphs" textLength="105" x="408.5" y="71.5352">AudioContoller</text><rect fill="#FEFECE" filter="url(#f1b8coq3gy11eo)" height="30.4883" style="stroke: #A80036; stroke-width: 1.5;" width="119" x="401.5" y="509.2148"/><text fill="#000000" font-family="sans-serif" font-size="14" lengthAdjust="spacingAndGlyphs" textLength="105" x="408.5" y="529.75">AudioContoller</text><rect fill="#FEFECE" filter="url(#f1b8coq3gy11eo)" height="30.4883" style="stroke: #A80036; stroke-width: 1.5;" width="105" x="534.5" y="51"/><text fill="#000000" font-family="sans-serif" font-size="14" lengthAdjust="spacingAndGlyphs" textLength="91" x="541.5" y="71.5352">LibraryAction</text><rect fill="#FEFECE" filter="url(#f1b8coq3gy11eo)" height="30.4883" style="stroke: #A80036; stroke-width: 1.5;" width="105" x="534.5" y="509.2148"/><text fill="#000000" font-family="sans-serif" font-size="14" lengthAdjust="spacingAndGlyphs" textLength="91" x="541.5" y="529.75">LibraryAction</text><rect fill="#FEFECE" filter="url(#f1b8coq3gy11eo)" height="30.4883" style="stroke: #A80036; stroke-width: 1.5;" width="115" x="653.5" y="51"/><text fill="#000000" font-family="sans-serif" font-size="14" lengthAdjust="spacingAndGlyphs" textLength="101" x="660.5" y="71.5352">ChannelAction</text><rect fill="#FEFECE" filter="url(#f1b8coq3gy11eo)" height="30.4883" style="stroke: #A80036; stroke-width: 1.5;" width="115" x="653.5" y="509.2148"/><text fill="#000000" font-family="sans-serif" font-size="14" lengthAdjust="spacingAndGlyphs" textLength="101" x="660.5" y="529.75">ChannelAction</text><rect fill="#FFFFFF" filter="url(#f1b8coq3gy11eo)" height="143.2422" style="stroke: #A80036; stroke-width: 1.0;" width="10" x="165.5" y="117.7988"/><rect fill="#FFFFFF" filter="url(#f1b8coq3gy11eo)" height="105.9316" style="stroke: #A80036; stroke-width: 1.0;" width="10" x="170.5" y="155.1094"/><rect fill="#FFFFFF" filter="url(#f1b8coq3gy11eo)" height="143.2422" style="stroke: #A80036; stroke-width: 1.0;" width="10" x="165.5" y="290.3516"/><rect fill="#FFFFFF" filter="url(#f1b8coq3gy11eo)" height="105.9316" style="stroke: #A80036; stroke-width: 1.0;" width="10" x="170.5" y="327.6621"/><rect fill="#FFFFFF" filter="url(#f1b8coq3gy11eo)" height="67.6211" style="stroke: #A80036; stroke-width: 1.0;" width="10" x="458" y="433.5938"/><polygon fill="#A80036" points="153.5,113.7988,163.5,117.7988,153.5,121.7988,157.5,117.7988" style="stroke: #A80036; stroke-width: 1.0;"/><line style="stroke: #A80036; stroke-width: 1.0;" x1="26.5" x2="159.5" y1="117.7988" y2="117.7988"/><text fill="#000000" font-family="sans-serif" font-size="13" lengthAdjust="spacingAndGlyphs" textLength="120" x="33.5" y="113.0566">click record button</text><line style="stroke: #A80036; stroke-width: 1.0;" x1="175.5" x2="222.5" y1="142.1094" y2="142.1094"/><line style="stroke: #A80036; stroke-width: 1.0;" x1="222.5" x2="222.5" y1="142.1094" y2="155.1094"/><line style="stroke: #A80036; stroke-width: 1.0;" x1="181.5" x2="222.5" y1="155.1094" y2="155.1094"/><polygon fill="#A80036" points="191.5,151.1094,181.5,155.1094,191.5,159.1094,187.5,155.1094" style="stroke: #A80036; stroke-width: 1.0;"/><text fill="#000000" font-family="sans-serif" font-size="13" lengthAdjust="spacingAndGlyphs" textLength="125" x="187.5" y="137.3672">handleRecordClick()</text><polygon fill="#A80036" points="307.5,185.4199,317.5,189.4199,307.5,193.4199,311.5,189.4199" style="stroke: #A80036; stroke-width: 1.0;"/><line style="stroke: #A80036; stroke-width: 1.0;" x1="180.5" x2="313.5" y1="189.4199" y2="189.4199"/><text fill="#000000" font-family="sans-serif" font-size="13" lengthAdjust="spacingAndGlyphs" textLength="98" x="187.5" y="184.6777">requestRecord()</text><line style="stroke: #A80036; stroke-width: 1.0;" x1="180.5" x2="222.5" y1="218.7305" y2="218.7305"/><line style="stroke: #A80036; stroke-width: 1.0;" x1="222.5" x2="222.5" y1="218.7305" y2="231.7305"/><line style="stroke: #A80036; stroke-width: 1.0;" x1="181.5" x2="222.5" y1="231.7305" y2="231.7305"/><polygon fill="#A80036" points="191.5,227.7305,181.5,231.7305,191.5,235.7305,187.5,231.7305" style="stroke: #A80036; stroke-width: 1.0;"/><text fill="#000000" font-family="sans-serif" font-size="13" lengthAdjust="spacingAndGlyphs" textLength="107" x="187.5" y="213.9883">handlePlayClick()</text><polygon fill="#A80036" points="451,257.041,461,261.041,451,265.041,455,261.041" style="stroke: #A80036; stroke-width: 1.0;"/><line style="stroke: #A80036; stroke-width: 1.0;" x1="170.5" x2="457" y1="261.041" y2="261.041"/><text fill="#000000" font-family="sans-serif" font-size="13" lengthAdjust="spacingAndGlyphs" textLength="80" x="177.5" y="256.2988">startRecord()</text><polygon fill="#A80036" points="153.5,286.3516,163.5,290.3516,153.5,294.3516,157.5,290.3516" style="stroke: #A80036; stroke-width: 1.0;"/><line style="stroke: #A80036; stroke-width: 1.0;" x1="26.5" x2="159.5" y1="290.3516" y2="290.3516"/><text fill="#000000" font-family="sans-serif" font-size="13" lengthAdjust="spacingAndGlyphs" textLength="120" x="33.5" y="285.6094">click record button</text><line style="stroke: #A80036; stroke-width: 1.0;" x1="175.5" x2="222.5" y1="314.6621" y2="314.6621"/><line style="stroke: #A80036; stroke-width: 1.0;" x1="222.5" x2="222.5" y1="314.6621" y2="327.6621"/><line style="stroke: #A80036; stroke-width: 1.0;" x1="181.5" x2="222.5" y1="327.6621" y2="327.6621"/><polygon fill="#A80036" points="191.5,323.6621,181.5,327.6621,191.5,331.6621,187.5,327.6621" style="stroke: #A80036; stroke-width: 1.0;"/><text fill="#000000" font-family="sans-serif" font-size="13" lengthAdjust="spacingAndGlyphs" textLength="125" x="187.5" y="309.9199">handleRecordClick()</text><polygon fill="#A80036" points="307.5,357.9727,317.5,361.9727,307.5,365.9727,311.5,361.9727" style="stroke: #A80036; stroke-width: 1.0;"/><line style="stroke: #A80036; stroke-width: 1.0;" x1="180.5" x2="313.5" y1="361.9727" y2="361.9727"/><text fill="#000000" font-family="sans-serif" font-size="13" lengthAdjust="spacingAndGlyphs" textLength="79" x="187.5" y="357.2305">stopRecord()</text><line style="stroke: #A80036; stroke-width: 1.0;" x1="180.5" x2="222.5" y1="391.2832" y2="391.2832"/><line style="stroke: #A80036; stroke-width: 1.0;" x1="222.5" x2="222.5" y1="391.2832" y2="404.2832"/><line style="stroke: #A80036; stroke-width: 1.0;" x1="181.5" x2="222.5" y1="404.2832" y2="404.2832"/><polygon fill="#A80036" points="191.5,400.2832,181.5,404.2832,191.5,408.2832,187.5,404.2832" style="stroke: #A80036; stroke-width: 1.0;"/><text fill="#000000" font-family="sans-serif" font-size="13" lengthAdjust="spacingAndGlyphs" textLength="118" x="187.5" y="386.541">handlePauseClick()</text><polygon fill="#A80036" points="446,429.5938,456,433.5938,446,437.5938,450,433.5938" style="stroke: #A80036; stroke-width: 1.0;"/><line style="stroke: #A80036; stroke-width: 1.0;" x1="170.5" x2="452" y1="433.5938" y2="433.5938"/><text fill="#000000" font-family="sans-serif" font-size="13" lengthAdjust="spacingAndGlyphs" textLength="79" x="177.5" y="428.8516">stopRecord()</text><polygon fill="#A80036" points="577,458.9043,587,462.9043,577,466.9043,581,462.9043" style="stroke: #A80036; stroke-width: 1.0;"/><line style="stroke: #A80036; stroke-width: 1.0;" x1="468" x2="583" y1="462.9043" y2="462.9043"/><text fill="#000000" font-family="sans-serif" font-size="13" lengthAdjust="spacingAndGlyphs" textLength="68" x="475" y="458.1621">addAudio()</text><polygon fill="#A80036" points="701,488.2148,711,492.2148,701,496.2148,705,492.2148" style="stroke: #A80036; stroke-width: 1.0;"/><line style="stroke: #A80036; stroke-width: 1.0;" x1="468" x2="707" y1="492.2148" y2="492.2148"/><text fill="#000000" font-family="sans-serif" font-size="13" lengthAdjust="spacingAndGlyphs" textLength="75" x="475" y="487.4727">createSlice()</text><!--
@startuml
actor User

User -> ControlBar: click record button
activate ControlBar
ControlBar -> ControlBar: handleRecordClick()
activate ControlBar
ControlBar -> FunctionBarAction: requestRecord()
ControlBar -> ControlBar: handlePlayClick()
ControlBar -> AudioContoller: startRecord()
deactivate ControlBar
deactivate ControlBar

User -> ControlBar: click record button
activate ControlBar
ControlBar -> ControlBar: handleRecordClick()
activate ControlBar
ControlBar -> FunctionBarAction: stopRecord()
ControlBar -> ControlBar: handlePauseClick()
ControlBar -> AudioContoller: stopRecord()
deactivate ControlBar
deactivate ControlBar
activate AudioContoller
AudioContoller -> LibraryAction: addAudio()
AudioContoller -> ChannelAction: createSlice()

@enduml

PlantUML version 1.2019.09(Tue Aug 27 00:19:51 CST 2019)
(GPL source distribution)
Java Runtime: OpenJDK Runtime Environment
JVM: OpenJDK 64-Bit Server VM
Java Version: 13.0.2+8
Operating System: Mac OS X
OS Version: 10.14.6
Default Encoding: UTF-8
Language: zh
Country: CN
--></g></svg>