<?xml version="1.0" encoding="UTF-8" standalone="no"?><svg xmlns="http://www.w3.org/2000/svg" xmlns:xlink="http://www.w3.org/1999/xlink" contentScriptType="application/ecmascript" contentStyleType="text/css" height="483px" preserveAspectRatio="none" style="width:609px;height:483px;" version="1.1" viewBox="0 0 609 483" width="609px" zoomAndPan="magnify"><defs><filter height="300%" id="fdrg8h6qvfilk" width="300%" x="-1" y="-1"><feGaussianBlur result="blurOut" stdDeviation="2.0"/><feColorMatrix in="blurOut" result="blurOut2" type="matrix" values="0 0 0 0 0 0 0 0 0 0 0 0 0 0 0 0 0 0 .4 0"/><feOffset dx="4.0" dy="4.0" in="blurOut2" result="blurOut3"/><feBlend in="SourceGraphic" in2="blurOut3" mode="normal"/></filter></defs><g><rect fill="#FFFFFF" filter="url(#fdrg8h6qvfilk)" height="71.6211" style="stroke: #A80036; stroke-width: 1.0;" width="10" x="93" y="117.7988"/><rect fill="#FFFFFF" filter="url(#fdrg8h6qvfilk)" height="71.6211" style="stroke: #A80036; stroke-width: 1.0;" width="10" x="196" y="117.7988"/><rect fill="#FFFFFF" filter="url(#fdrg8h6qvfilk)" height="58.6211" style="stroke: #A80036; stroke-width: 1.0;" width="10" x="196" y="319.6621"/><rect fill="#FFFFFF" filter="url(#fdrg8h6qvfilk)" height="135.2422" style="stroke: #A80036; stroke-width: 1.0;" width="10" x="287.5" y="155.1094"/><rect fill="#FFFFFF" filter="url(#fdrg8h6qvfilk)" height="71.6211" style="stroke: #A80036; stroke-width: 1.0;" width="10" x="414" y="218.7305"/><rect fill="#FFFFFF" filter="url(#fdrg8h6qvfilk)" height="29.3105" style="stroke: #A80036; stroke-width: 1.0;" width="10" x="414" y="348.9727"/><line style="stroke: #A80036; stroke-width: 1.0; stroke-dasharray: 5.0,5.0;" x1="26" x2="26" y1="86.4883" y2="396.2832"/><line style="stroke: #A80036; stroke-width: 1.0; stroke-dasharray: 5.0,5.0;" x1="98" x2="98" y1="86.4883" y2="396.2832"/><line style="stroke: #A80036; stroke-width: 1.0; stroke-dasharray: 5.0,5.0;" x1="200.5" x2="200.5" y1="86.4883" y2="396.2832"/><line style="stroke: #A80036; stroke-width: 1.0; stroke-dasharray: 5.0,5.0;" x1="292.5" x2="292.5" y1="86.4883" y2="396.2832"/><line style="stroke: #A80036; stroke-width: 1.0; stroke-dasharray: 5.0,5.0;" x1="418.5" x2="418.5" y1="86.4883" y2="396.2832"/><line style="stroke: #A80036; stroke-width: 1.0; stroke-dasharray: 5.0,5.0;" x1="547.5" x2="547.5" y1="86.4883" y2="396.2832"/><text fill="#000000" font-family="sans-serif" font-size="14" lengthAdjust="spacingAndGlyphs" textLength="31" x="8" y="83.5352">User</text><ellipse cx="26.5" cy="13" fill="#FEFECE" filter="url(#fdrg8h6qvfilk)" rx="8" ry="8" style="stroke: #A80036; stroke-width: 2.0;"/><path d="M26.5,21 L26.5,48 M13.5,29 L39.5,29 M26.5,48 L13.5,63 M26.5,48 L39.5,63 " fill="none" filter="url(#fdrg8h6qvfilk)" style="stroke: #A80036; stroke-width: 2.0;"/><text fill="#000000" font-family="sans-serif" font-size="14" lengthAdjust="spacingAndGlyphs" textLength="31" x="8" y="408.8184">User</text><ellipse cx="26.5" cy="421.7715" fill="#FEFECE" filter="url(#fdrg8h6qvfilk)" rx="8" ry="8" style="stroke: #A80036; stroke-width: 2.0;"/><path d="M26.5,429.7715 L26.5,456.7715 M13.5,437.7715 L39.5,437.7715 M26.5,456.7715 L13.5,471.7715 M26.5,456.7715 L39.5,471.7715 " fill="none" filter="url(#fdrg8h6qvfilk)" style="stroke: #A80036; stroke-width: 2.0;"/><rect fill="#FEFECE" filter="url(#fdrg8h6qvfilk)" height="30.4883" style="stroke: #A80036; stroke-width: 1.5;" width="82" x="55" y="51"/><text fill="#000000" font-family="sans-serif" font-size="14" lengthAdjust="spacingAndGlyphs" textLength="68" x="62" y="71.5352">MenuItem</text><rect fill="#FEFECE" filter="url(#fdrg8h6qvfilk)" height="30.4883" style="stroke: #A80036; stroke-width: 1.5;" width="82" x="55" y="395.2832"/><text fill="#000000" font-family="sans-serif" font-size="14" lengthAdjust="spacingAndGlyphs" textLength="68" x="62" y="415.8184">MenuItem</text><rect fill="#FEFECE" filter="url(#fdrg8h6qvfilk)" height="30.4883" style="stroke: #A80036; stroke-width: 1.5;" width="55" x="171.5" y="51"/><text fill="#000000" font-family="sans-serif" font-size="14" lengthAdjust="spacingAndGlyphs" textLength="41" x="178.5" y="71.5352">Editor</text><rect fill="#FEFECE" filter="url(#fdrg8h6qvfilk)" height="30.4883" style="stroke: #A80036; stroke-width: 1.5;" width="55" x="171.5" y="395.2832"/><text fill="#000000" font-family="sans-serif" font-size="14" lengthAdjust="spacingAndGlyphs" textLength="41" x="178.5" y="415.8184">Editor</text><rect fill="#FEFECE" filter="url(#fdrg8h6qvfilk)" height="30.4883" style="stroke: #A80036; stroke-width: 1.5;" width="100" x="240.5" y="51"/><text fill="#000000" font-family="sans-serif" font-size="14" lengthAdjust="spacingAndGlyphs" textLength="86" x="247.5" y="71.5352">EventEmitter</text><rect fill="#FEFECE" filter="url(#fdrg8h6qvfilk)" height="30.4883" style="stroke: #A80036; stroke-width: 1.5;" width="100" x="240.5" y="395.2832"/><text fill="#000000" font-family="sans-serif" font-size="14" lengthAdjust="spacingAndGlyphs" textLength="86" x="247.5" y="415.8184">EventEmitter</text><rect fill="#FEFECE" filter="url(#fdrg8h6qvfilk)" height="30.4883" style="stroke: #A80036; stroke-width: 1.5;" width="125" x="354.5" y="51"/><text fill="#000000" font-family="sans-serif" font-size="14" lengthAdjust="spacingAndGlyphs" textLength="111" x="361.5" y="71.5352">AudioController</text><rect fill="#FEFECE" filter="url(#fdrg8h6qvfilk)" height="30.4883" style="stroke: #A80036; stroke-width: 1.5;" width="125" x="354.5" y="395.2832"/><text fill="#000000" font-family="sans-serif" font-size="14" lengthAdjust="spacingAndGlyphs" textLength="111" x="361.5" y="415.8184">AudioController</text><rect fill="#FEFECE" filter="url(#fdrg8h6qvfilk)" height="30.4883" style="stroke: #A80036; stroke-width: 1.5;" width="105" x="493.5" y="51"/><text fill="#000000" font-family="sans-serif" font-size="14" lengthAdjust="spacingAndGlyphs" textLength="91" x="500.5" y="71.5352">LibraryAction</text><rect fill="#FEFECE" filter="url(#fdrg8h6qvfilk)" height="30.4883" style="stroke: #A80036; stroke-width: 1.5;" width="105" x="493.5" y="395.2832"/><text fill="#000000" font-family="sans-serif" font-size="14" lengthAdjust="spacingAndGlyphs" textLength="91" x="500.5" y="415.8184">LibraryAction</text><rect fill="#FFFFFF" filter="url(#fdrg8h6qvfilk)" height="71.6211" style="stroke: #A80036; stroke-width: 1.0;" width="10" x="93" y="117.7988"/><rect fill="#FFFFFF" filter="url(#fdrg8h6qvfilk)" height="71.6211" style="stroke: #A80036; stroke-width: 1.0;" width="10" x="196" y="117.7988"/><rect fill="#FFFFFF" filter="url(#fdrg8h6qvfilk)" height="58.6211" style="stroke: #A80036; stroke-width: 1.0;" width="10" x="196" y="319.6621"/><rect fill="#FFFFFF" filter="url(#fdrg8h6qvfilk)" height="135.2422" style="stroke: #A80036; stroke-width: 1.0;" width="10" x="287.5" y="155.1094"/><rect fill="#FFFFFF" filter="url(#fdrg8h6qvfilk)" height="71.6211" style="stroke: #A80036; stroke-width: 1.0;" width="10" x="414" y="218.7305"/><rect fill="#FFFFFF" filter="url(#fdrg8h6qvfilk)" height="29.3105" style="stroke: #A80036; stroke-width: 1.0;" width="10" x="414" y="348.9727"/><polygon fill="#A80036" points="81,113.7988,91,117.7988,81,121.7988,85,117.7988" style="stroke: #A80036; stroke-width: 1.0;"/><line style="stroke: #A80036; stroke-width: 1.0;" x1="26.5" x2="87" y1="117.7988" y2="117.7988"/><text fill="#000000" font-family="sans-serif" font-size="13" lengthAdjust="spacingAndGlyphs" textLength="32" x="33.5" y="113.0566">Click</text><line style="stroke: #A80036; stroke-width: 1.0;" x1="103" x2="150" y1="142.1094" y2="142.1094"/><line style="stroke: #A80036; stroke-width: 1.0;" x1="150" x2="150" y1="142.1094" y2="155.1094"/><line style="stroke: #A80036; stroke-width: 1.0;" x1="109" x2="150" y1="155.1094" y2="155.1094"/><polygon fill="#A80036" points="119,151.1094,109,155.1094,119,159.1094,115,155.1094" style="stroke: #A80036; stroke-width: 1.0;"/><text fill="#000000" font-family="sans-serif" font-size="13" lengthAdjust="spacingAndGlyphs" textLength="79" x="115" y="137.3672">clickHandler</text><polygon fill="#A80036" points="275.5,185.4199,285.5,189.4199,275.5,193.4199,279.5,189.4199" style="stroke: #A80036; stroke-width: 1.0;"/><line style="stroke: #A80036; stroke-width: 1.0;" x1="98" x2="281.5" y1="189.4199" y2="189.4199"/><text fill="#000000" font-family="sans-serif" font-size="13" lengthAdjust="spacingAndGlyphs" textLength="134" x="105" y="184.6777">emit('MENU_IMPORT')</text><polygon fill="#A80036" points="402,214.7305,412,218.7305,402,222.7305,406,218.7305" style="stroke: #A80036; stroke-width: 1.0;"/><line style="stroke: #A80036; stroke-width: 1.0;" x1="297.5" x2="408" y1="218.7305" y2="218.7305"/><text fill="#000000" font-family="sans-serif" font-size="13" lengthAdjust="spacingAndGlyphs" textLength="67" x="304.5" y="213.9883">selectFile()</text><line style="stroke: #A80036; stroke-width: 1.0;" x1="424" x2="466" y1="248.041" y2="248.041"/><line style="stroke: #A80036; stroke-width: 1.0;" x1="466" x2="466" y1="248.041" y2="261.041"/><line style="stroke: #A80036; stroke-width: 1.0;" x1="425" x2="466" y1="261.041" y2="261.041"/><polygon fill="#A80036" points="435,257.041,425,261.041,435,265.041,431,261.041" style="stroke: #A80036; stroke-width: 1.0;"/><text fill="#000000" font-family="sans-serif" font-size="13" lengthAdjust="spacingAndGlyphs" textLength="72" x="431" y="243.2988">handleFile()</text><polygon fill="#A80036" points="536,286.3516,546,290.3516,536,294.3516,540,290.3516" style="stroke: #A80036; stroke-width: 1.0;"/><line style="stroke: #A80036; stroke-width: 1.0;" x1="419" x2="542" y1="290.3516" y2="290.3516"/><text fill="#000000" font-family="sans-serif" font-size="13" lengthAdjust="spacingAndGlyphs" textLength="68" x="426" y="285.6094">addAudio()</text><polygon fill="#A80036" points="184,315.6621,194,319.6621,184,323.6621,188,319.6621" style="stroke: #A80036; stroke-width: 1.0;"/><line style="stroke: #A80036; stroke-width: 1.0;" x1="26.5" x2="190" y1="319.6621" y2="319.6621"/><text fill="#000000" font-family="sans-serif" font-size="13" lengthAdjust="spacingAndGlyphs" textLength="149" x="33.5" y="314.9199">audioFileDropHandler ()</text><polygon fill="#A80036" points="402,344.9727,412,348.9727,402,352.9727,406,348.9727" style="stroke: #A80036; stroke-width: 1.0;"/><line style="stroke: #A80036; stroke-width: 1.0;" x1="206" x2="408" y1="348.9727" y2="348.9727"/><text fill="#000000" font-family="sans-serif" font-size="13" lengthAdjust="spacingAndGlyphs" textLength="72" x="213" y="344.2305">handleFile()</text><polygon fill="#A80036" points="536,374.2832,546,378.2832,536,382.2832,540,378.2832" style="stroke: #A80036; stroke-width: 1.0;"/><line style="stroke: #A80036; stroke-width: 1.0;" x1="419" x2="542" y1="378.2832" y2="378.2832"/><text fill="#000000" font-family="sans-serif" font-size="13" lengthAdjust="spacingAndGlyphs" textLength="68" x="426" y="373.541">addAudio()</text><!--
@startuml
actor User

User -> MenuItem: Click
activate MenuItem
activate Editor
MenuItem -> MenuItem: clickHandler
activate EventEmitter
MenuItem -> EventEmitter: emit('MENU_IMPORT')
deactivate Editor
deactivate MenuItem
EventEmitter -> AudioController: selectFile()
activate AudioController
AudioController -> AudioController: handleFile()
AudioController -> LibraryAction: addAudio()
deactivate AudioController
deactivate EventEmitter
User -> Editor: audioFileDropHandler ()
activate Editor
Editor -> AudioController: handleFile()
activate AudioController
AudioController -> LibraryAction: addAudio()
deactivate AudioController
deactivate Editor
@enduml

PlantUML version 1.2019.09(Tue Aug 27 00:19:51 CST 2019)
(GPL source distribution)
Java Runtime: OpenJDK Runtime Environment
JVM: OpenJDK 64-Bit Server VM
Java Version: 13.0.2+8
Operating System: Mac OS X
OS Version: 10.14.6
Default Encoding: UTF-8
Language: zh
Country: CN
--></g></svg>