<?xml version="1.0" encoding="UTF-8" standalone="no"?><svg xmlns="http://www.w3.org/2000/svg" xmlns:xlink="http://www.w3.org/1999/xlink" contentScriptType="application/ecmascript" contentStyleType="text/css" height="434px" preserveAspectRatio="none" style="width:567px;height:434px;" version="1.1" viewBox="0 0 567 434" width="567px" zoomAndPan="magnify"><defs><filter height="300%" id="f1q0usq25gv26a" width="300%" x="-1" y="-1"><feGaussianBlur result="blurOut" stdDeviation="2.0"/><feColorMatrix in="blurOut" result="blurOut2" type="matrix" values="0 0 0 0 0 0 0 0 0 0 0 0 0 0 0 0 0 0 .4 0"/><feOffset dx="4.0" dy="4.0" in="blurOut2" result="blurOut3"/><feBlend in="SourceGraphic" in2="blurOut3" mode="normal"/></filter></defs><g><rect fill="#FFFFFF" filter="url(#f1q0usq25gv26a)" height="108.2632" style="stroke: #A80036; stroke-width: 1.0;" width="10" x="87.5" y="122.8745"/><rect fill="#FFFFFF" filter="url(#f1q0usq25gv26a)" height="171.772" style="stroke: #A80036; stroke-width: 1.0;" width="10" x="182.5" y="154.6289"/><rect fill="#FFFFFF" filter="url(#f1q0usq25gv26a)" height="68.5088" style="stroke: #A80036; stroke-width: 1.0;" width="10" x="269" y="194.3833"/><rect fill="#FFFFFF" filter="url(#f1q0usq25gv26a)" height="72.5088" style="stroke: #A80036; stroke-width: 1.0;" width="10" x="386" y="262.8921"/><line style="stroke: #A80036; stroke-width: 1.0; stroke-dasharray: 5.0,5.0;" x1="25" x2="25" y1="89.1201" y2="344.4009"/><line style="stroke: #A80036; stroke-width: 1.0; stroke-dasharray: 5.0,5.0;" x1="92" x2="92" y1="89.1201" y2="344.4009"/><line style="stroke: #A80036; stroke-width: 1.0; stroke-dasharray: 5.0,5.0;" x1="187" x2="187" y1="89.1201" y2="344.4009"/><line style="stroke: #A80036; stroke-width: 1.0; stroke-dasharray: 5.0,5.0;" x1="274" x2="274" y1="89.1201" y2="344.4009"/><line style="stroke: #A80036; stroke-width: 1.0; stroke-dasharray: 5.0,5.0;" x1="391" x2="391" y1="89.1201" y2="344.4009"/><line style="stroke: #A80036; stroke-width: 1.0; stroke-dasharray: 5.0,5.0;" x1="509" x2="509" y1="89.1201" y2="344.4009"/><text fill="#000000" font-family="sans-serif" font-size="14" lengthAdjust="spacingAndGlyphs" textLength="29" x="8" y="86.0439">User</text><ellipse cx="25.5" cy="13" fill="#FEFECE" filter="url(#f1q0usq25gv26a)" rx="8" ry="8" style="stroke: #A80036; stroke-width: 2.0;"/><path d="M25.5,21 L25.5,48 M12.5,29 L38.5,29 M25.5,48 L12.5,63 M25.5,48 L38.5,63 " fill="none" filter="url(#f1q0usq25gv26a)" style="stroke: #A80036; stroke-width: 2.0;"/><text fill="#000000" font-family="sans-serif" font-size="14" lengthAdjust="spacingAndGlyphs" textLength="29" x="8" y="359.4448">User</text><ellipse cx="25.5" cy="372.521" fill="#FEFECE" filter="url(#f1q0usq25gv26a)" rx="8" ry="8" style="stroke: #A80036; stroke-width: 2.0;"/><path d="M25.5,380.521 L25.5,407.521 M12.5,388.521 L38.5,388.521 M25.5,407.521 L12.5,422.521 M25.5,407.521 L38.5,422.521 " fill="none" filter="url(#f1q0usq25gv26a)" style="stroke: #A80036; stroke-width: 2.0;"/><rect fill="#FEFECE" filter="url(#f1q0usq25gv26a)" height="33.1201" style="stroke: #A80036; stroke-width: 1.5;" width="75" x="53" y="51"/><text fill="#000000" font-family="sans-serif" font-size="14" lengthAdjust="spacingAndGlyphs" textLength="61" x="60" y="74.0439">MenuItem</text><rect fill="#FEFECE" filter="url(#f1q0usq25gv26a)" height="33.1201" style="stroke: #A80036; stroke-width: 1.5;" width="75" x="53" y="343.4009"/><text fill="#000000" font-family="sans-serif" font-size="14" lengthAdjust="spacingAndGlyphs" textLength="61" x="60" y="366.4448">MenuItem</text><rect fill="#FEFECE" filter="url(#f1q0usq25gv26a)" height="33.1201" style="stroke: #A80036; stroke-width: 1.5;" width="51" x="160" y="51"/><text fill="#000000" font-family="sans-serif" font-size="14" lengthAdjust="spacingAndGlyphs" textLength="37" x="167" y="74.0439">Editor</text><rect fill="#FEFECE" filter="url(#f1q0usq25gv26a)" height="33.1201" style="stroke: #A80036; stroke-width: 1.5;" width="51" x="160" y="343.4009"/><text fill="#000000" font-family="sans-serif" font-size="14" lengthAdjust="spacingAndGlyphs" textLength="37" x="167" y="366.4448">Editor</text><rect fill="#FEFECE" filter="url(#f1q0usq25gv26a)" height="33.1201" style="stroke: #A80036; stroke-width: 1.5;" width="94" x="225" y="51"/><text fill="#000000" font-family="sans-serif" font-size="14" lengthAdjust="spacingAndGlyphs" textLength="80" x="232" y="74.0439">EventEmitter</text><rect fill="#FEFECE" filter="url(#f1q0usq25gv26a)" height="33.1201" style="stroke: #A80036; stroke-width: 1.5;" width="94" x="225" y="343.4009"/><text fill="#000000" font-family="sans-serif" font-size="14" lengthAdjust="spacingAndGlyphs" textLength="80" x="232" y="366.4448">EventEmitter</text><rect fill="#FEFECE" filter="url(#f1q0usq25gv26a)" height="33.1201" style="stroke: #A80036; stroke-width: 1.5;" width="112" x="333" y="51"/><text fill="#000000" font-family="sans-serif" font-size="14" lengthAdjust="spacingAndGlyphs" textLength="98" x="340" y="74.0439">AudioController</text><rect fill="#FEFECE" filter="url(#f1q0usq25gv26a)" height="33.1201" style="stroke: #A80036; stroke-width: 1.5;" width="112" x="333" y="343.4009"/><text fill="#000000" font-family="sans-serif" font-size="14" lengthAdjust="spacingAndGlyphs" textLength="98" x="340" y="366.4448">AudioController</text><rect fill="#FEFECE" filter="url(#f1q0usq25gv26a)" height="33.1201" style="stroke: #A80036; stroke-width: 1.5;" width="97" x="459" y="51"/><text fill="#000000" font-family="sans-serif" font-size="14" lengthAdjust="spacingAndGlyphs" textLength="83" x="466" y="74.0439">LibraryAction</text><rect fill="#FEFECE" filter="url(#f1q0usq25gv26a)" height="33.1201" style="stroke: #A80036; stroke-width: 1.5;" width="97" x="459" y="343.4009"/><text fill="#000000" font-family="sans-serif" font-size="14" lengthAdjust="spacingAndGlyphs" textLength="83" x="466" y="366.4448">LibraryAction</text><rect fill="#FFFFFF" filter="url(#f1q0usq25gv26a)" height="108.2632" style="stroke: #A80036; stroke-width: 1.0;" width="10" x="87.5" y="122.8745"/><rect fill="#FFFFFF" filter="url(#f1q0usq25gv26a)" height="171.772" style="stroke: #A80036; stroke-width: 1.0;" width="10" x="182.5" y="154.6289"/><rect fill="#FFFFFF" filter="url(#f1q0usq25gv26a)" height="68.5088" style="stroke: #A80036; stroke-width: 1.0;" width="10" x="269" y="194.3833"/><rect fill="#FFFFFF" filter="url(#f1q0usq25gv26a)" height="72.5088" style="stroke: #A80036; stroke-width: 1.0;" width="10" x="386" y="262.8921"/><polygon fill="#A80036" points="75.5,118.8745,85.5,122.8745,75.5,126.8745,79.5,122.8745" style="stroke: #A80036; stroke-width: 1.0;"/><line style="stroke: #A80036; stroke-width: 1.0;" x1="25.5" x2="81.5" y1="122.8745" y2="122.8745"/><text fill="#000000" font-family="sans-serif" font-size="13" lengthAdjust="spacingAndGlyphs" textLength="29" x="32.5" y="118.0181">Click</text><polygon fill="#A80036" points="170.5,150.6289,180.5,154.6289,170.5,158.6289,174.5,154.6289" style="stroke: #A80036; stroke-width: 1.0;"/><line style="stroke: #A80036; stroke-width: 1.0;" x1="25.5" x2="176.5" y1="154.6289" y2="154.6289"/><text fill="#000000" font-family="sans-serif" font-size="13" lengthAdjust="spacingAndGlyphs" textLength="135" x="32.5" y="149.7725">audioFileDropHandler ()</text><line style="stroke: #A80036; stroke-width: 1.0;" x1="97.5" x2="144.5" y1="181.3833" y2="181.3833"/><line style="stroke: #A80036; stroke-width: 1.0;" x1="144.5" x2="144.5" y1="181.3833" y2="194.3833"/><line style="stroke: #A80036; stroke-width: 1.0;" x1="103.5" x2="144.5" y1="194.3833" y2="194.3833"/><polygon fill="#A80036" points="113.5,190.3833,103.5,194.3833,113.5,198.3833,109.5,194.3833" style="stroke: #A80036; stroke-width: 1.0;"/><text fill="#000000" font-family="sans-serif" font-size="13" lengthAdjust="spacingAndGlyphs" textLength="71" x="109.5" y="176.5269">clickHandler</text><polygon fill="#A80036" points="257,227.1377,267,231.1377,257,235.1377,261,231.1377" style="stroke: #A80036; stroke-width: 1.0;"/><line style="stroke: #A80036; stroke-width: 1.0;" x1="92.5" x2="263" y1="231.1377" y2="231.1377"/><text fill="#000000" font-family="sans-serif" font-size="13" lengthAdjust="spacingAndGlyphs" textLength="131" x="99.5" y="226.2813">emit('MENU_IMPORT')</text><polygon fill="#A80036" points="374,258.8921,384,262.8921,374,266.8921,378,262.8921" style="stroke: #A80036; stroke-width: 1.0;"/><line style="stroke: #A80036; stroke-width: 1.0;" x1="274" x2="380" y1="262.8921" y2="262.8921"/><text fill="#000000" font-family="sans-serif" font-size="13" lengthAdjust="spacingAndGlyphs" textLength="64" x="281" y="258.0356">selectFile()</text><polygon fill="#A80036" points="497.5,290.6465,507.5,294.6465,497.5,298.6465,501.5,294.6465" style="stroke: #A80036; stroke-width: 1.0;"/><line style="stroke: #A80036; stroke-width: 1.0;" x1="396" x2="503.5" y1="294.6465" y2="294.6465"/><text fill="#000000" font-family="sans-serif" font-size="13" lengthAdjust="spacingAndGlyphs" textLength="62" x="403" y="289.79">addAudio()</text><polygon fill="#A80036" points="374,322.4009,384,326.4009,374,330.4009,378,326.4009" style="stroke: #A80036; stroke-width: 1.0;"/><line style="stroke: #A80036; stroke-width: 1.0;" x1="187.5" x2="380" y1="326.4009" y2="326.4009"/><text fill="#000000" font-family="sans-serif" font-size="13" lengthAdjust="spacingAndGlyphs" textLength="115" x="194.5" y="321.5444">addAudioToLibrary()</text><!--
@startuml
actor User

User -> MenuItem: Click
activate MenuItem
User -> Editor: audioFileDropHandler ()
activate Editor
MenuItem -> MenuItem: clickHandler
activate EventEmitter
MenuItem -> EventEmitter: emit('MENU_IMPORT')
deactivate MenuItem
EventEmitter -> AudioController: selectFile()
deactivate EventEmitter
activate AudioController
AudioController -> LibraryAction: addAudio()
Editor -> AudioController: addAudioToLibrary()
deactivate Editor
@enduml

PlantUML version 1.2019.09(Tue Aug 27 00:19:51 CST 2019)
(GPL source distribution)
Java Runtime: Java(TM) SE Runtime Environment
JVM: Java HotSpot(TM) 64-Bit Server VM
Java Version: 12+33
Operating System: Windows 10
OS Version: 10.0
Default Encoding: GBK
Language: zh
Country: CN
--></g></svg>