<?xml version="1.0" encoding="UTF-8" standalone="no"?><svg xmlns="http://www.w3.org/2000/svg" xmlns:xlink="http://www.w3.org/1999/xlink" contentScriptType="application/ecmascript" contentStyleType="text/css" height="1254px" preserveAspectRatio="none" style="width:968px;height:1254px;" version="1.1" viewBox="0 0 968 1254" width="968px" zoomAndPan="magnify"><defs><filter height="300%" id="f17f0fgrz5hlpd" width="300%" x="-1" y="-1"><feGaussianBlur result="blurOut" stdDeviation="2.0"/><feColorMatrix in="blurOut" result="blurOut2" type="matrix" values="0 0 0 0 0 0 0 0 0 0 0 0 0 0 0 0 0 0 .4 0"/><feOffset dx="4.0" dy="4.0" in="blurOut2" result="blurOut3"/><feBlend in="SourceGraphic" in2="blurOut3" mode="normal"/></filter></defs><g><rect fill="#FFFFFF" filter="url(#f17f0fgrz5hlpd)" height="82.6211" style="stroke: #A80036; stroke-width: 1.0;" width="10" x="402.5" y="122.7988"/><rect fill="#FFFFFF" filter="url(#f17f0fgrz5hlpd)" height="40.3105" style="stroke: #A80036; stroke-width: 1.0;" width="10" x="407.5" y="165.1094"/><rect fill="#FFFFFF" filter="url(#f17f0fgrz5hlpd)" height="220.8633" style="stroke: #A80036; stroke-width: 1.0;" width="10" x="402.5" y="241.7305"/><rect fill="#FFFFFF" filter="url(#f17f0fgrz5hlpd)" height="82.6211" style="stroke: #A80036; stroke-width: 1.0;" width="10" x="402.5" y="503.9043"/><rect fill="#FFFFFF" filter="url(#f17f0fgrz5hlpd)" height="40.3105" style="stroke: #A80036; stroke-width: 1.0;" width="10" x="407.5" y="546.2148"/><rect fill="#FFFFFF" filter="url(#f17f0fgrz5hlpd)" height="535.6582" style="stroke: #A80036; stroke-width: 1.0;" width="10" x="553.5" y="622.8359"/><rect fill="#FFFFFF" filter="url(#f17f0fgrz5hlpd)" height="119.9316" style="stroke: #A80036; stroke-width: 1.0;" width="10" x="688.5" y="342.6621"/><rect fill="#FFFFFF" filter="url(#f17f0fgrz5hlpd)" height="40.3105" style="stroke: #A80036; stroke-width: 1.0;" width="10" x="693.5" y="422.2832"/><rect fill="#FFFFFF" filter="url(#f17f0fgrz5hlpd)" height="77.6211" style="stroke: #A80036; stroke-width: 1.0;" width="10" x="688.5" y="723.7676"/><rect fill="#FFFFFF" filter="url(#f17f0fgrz5hlpd)" height="292.1396" style="stroke: #A80036; stroke-width: 1.0;" width="10" x="688.5" y="850.3545"/><rect fill="#FFFFFF" filter="url(#f17f0fgrz5hlpd)" height="242.1738" style="stroke: #A80036; stroke-width: 1.0;" width="10" x="693.5" y="900.3203"/><rect fill="#FFFFFF" filter="url(#f17f0fgrz5hlpd)" height="63.6211" style="stroke: #A80036; stroke-width: 1.0;" width="10" x="698.5" y="942.6309"/><rect fill="#FFFFFF" filter="url(#f17f0fgrz5hlpd)" height="63.6211" style="stroke: #A80036; stroke-width: 1.0;" width="10" x="698.5" y="1043.5625"/><line style="stroke: #A80036; stroke-width: 1.0; stroke-dasharray: 5.0,5.0;" x1="224" x2="224" y1="86.4883" y2="1167.4941"/><line style="stroke: #A80036; stroke-width: 1.0; stroke-dasharray: 5.0,5.0;" x1="407.5" x2="407.5" y1="86.4883" y2="1167.4941"/><line style="stroke: #A80036; stroke-width: 1.0; stroke-dasharray: 5.0,5.0;" x1="558" x2="558" y1="86.4883" y2="1167.4941"/><line style="stroke: #A80036; stroke-width: 1.0; stroke-dasharray: 5.0,5.0;" x1="693" x2="693" y1="86.4883" y2="1167.4941"/><line style="stroke: #A80036; stroke-width: 1.0; stroke-dasharray: 5.0,5.0;" x1="909.5" x2="909.5" y1="86.4883" y2="1167.4941"/><text fill="#000000" font-family="sans-serif" font-size="14" lengthAdjust="spacingAndGlyphs" textLength="31" x="206" y="83.5352">User</text><ellipse cx="224.5" cy="13" fill="#FEFECE" filter="url(#f17f0fgrz5hlpd)" rx="8" ry="8" style="stroke: #A80036; stroke-width: 2.0;"/><path d="M224.5,21 L224.5,48 M211.5,29 L237.5,29 M224.5,48 L211.5,63 M224.5,48 L237.5,63 " fill="none" filter="url(#f17f0fgrz5hlpd)" style="stroke: #A80036; stroke-width: 2.0;"/><text fill="#000000" font-family="sans-serif" font-size="14" lengthAdjust="spacingAndGlyphs" textLength="31" x="206" y="1180.0293">User</text><ellipse cx="224.5" cy="1192.9824" fill="#FEFECE" filter="url(#f17f0fgrz5hlpd)" rx="8" ry="8" style="stroke: #A80036; stroke-width: 2.0;"/><path d="M224.5,1200.9824 L224.5,1227.9824 M211.5,1208.9824 L237.5,1208.9824 M224.5,1227.9824 L211.5,1242.9824 M224.5,1227.9824 L237.5,1242.9824 " fill="none" filter="url(#f17f0fgrz5hlpd)" style="stroke: #A80036; stroke-width: 2.0;"/><rect fill="#FEFECE" filter="url(#f17f0fgrz5hlpd)" height="30.4883" style="stroke: #A80036; stroke-width: 1.5;" width="124" x="343.5" y="51"/><text fill="#000000" font-family="sans-serif" font-size="14" lengthAdjust="spacingAndGlyphs" textLength="110" x="350.5" y="71.5352">HorizontalScroll</text><rect fill="#FEFECE" filter="url(#f17f0fgrz5hlpd)" height="30.4883" style="stroke: #A80036; stroke-width: 1.5;" width="124" x="343.5" y="1166.4941"/><text fill="#000000" font-family="sans-serif" font-size="14" lengthAdjust="spacingAndGlyphs" textLength="110" x="350.5" y="1187.0293">HorizontalScroll</text><rect fill="#FEFECE" filter="url(#f17f0fgrz5hlpd)" height="30.4883" style="stroke: #A80036; stroke-width: 1.5;" width="103" x="505" y="51"/><text fill="#000000" font-family="sans-serif" font-size="14" lengthAdjust="spacingAndGlyphs" textLength="89" x="512" y="71.5352">VerticalScroll</text><rect fill="#FEFECE" filter="url(#f17f0fgrz5hlpd)" height="30.4883" style="stroke: #A80036; stroke-width: 1.5;" width="103" x="505" y="1166.4941"/><text fill="#000000" font-family="sans-serif" font-size="14" lengthAdjust="spacingAndGlyphs" textLength="89" x="512" y="1187.0293">VerticalScroll</text><rect fill="#FEFECE" filter="url(#f17f0fgrz5hlpd)" height="30.4883" style="stroke: #A80036; stroke-width: 1.5;" width="55" x="664" y="51"/><text fill="#000000" font-family="sans-serif" font-size="14" lengthAdjust="spacingAndGlyphs" textLength="41" x="671" y="71.5352">Editor</text><rect fill="#FEFECE" filter="url(#f17f0fgrz5hlpd)" height="30.4883" style="stroke: #A80036; stroke-width: 1.5;" width="55" x="664" y="1166.4941"/><text fill="#000000" font-family="sans-serif" font-size="14" lengthAdjust="spacingAndGlyphs" textLength="41" x="671" y="1187.0293">Editor</text><rect fill="#FEFECE" filter="url(#f17f0fgrz5hlpd)" height="30.4883" style="stroke: #A80036; stroke-width: 1.5;" width="100" x="857.5" y="51"/><text fill="#000000" font-family="sans-serif" font-size="14" lengthAdjust="spacingAndGlyphs" textLength="86" x="864.5" y="71.5352">EventEmitter</text><rect fill="#FEFECE" filter="url(#f17f0fgrz5hlpd)" height="30.4883" style="stroke: #A80036; stroke-width: 1.5;" width="100" x="857.5" y="1166.4941"/><text fill="#000000" font-family="sans-serif" font-size="14" lengthAdjust="spacingAndGlyphs" textLength="86" x="864.5" y="1187.0293">EventEmitter</text><rect fill="#FFFFFF" filter="url(#f17f0fgrz5hlpd)" height="82.6211" style="stroke: #A80036; stroke-width: 1.0;" width="10" x="402.5" y="122.7988"/><rect fill="#FFFFFF" filter="url(#f17f0fgrz5hlpd)" height="40.3105" style="stroke: #A80036; stroke-width: 1.0;" width="10" x="407.5" y="165.1094"/><rect fill="#FFFFFF" filter="url(#f17f0fgrz5hlpd)" height="220.8633" style="stroke: #A80036; stroke-width: 1.0;" width="10" x="402.5" y="241.7305"/><rect fill="#FFFFFF" filter="url(#f17f0fgrz5hlpd)" height="82.6211" style="stroke: #A80036; stroke-width: 1.0;" width="10" x="402.5" y="503.9043"/><rect fill="#FFFFFF" filter="url(#f17f0fgrz5hlpd)" height="40.3105" style="stroke: #A80036; stroke-width: 1.0;" width="10" x="407.5" y="546.2148"/><rect fill="#FFFFFF" filter="url(#f17f0fgrz5hlpd)" height="535.6582" style="stroke: #A80036; stroke-width: 1.0;" width="10" x="553.5" y="622.8359"/><rect fill="#FFFFFF" filter="url(#f17f0fgrz5hlpd)" height="119.9316" style="stroke: #A80036; stroke-width: 1.0;" width="10" x="688.5" y="342.6621"/><rect fill="#FFFFFF" filter="url(#f17f0fgrz5hlpd)" height="40.3105" style="stroke: #A80036; stroke-width: 1.0;" width="10" x="693.5" y="422.2832"/><rect fill="#FFFFFF" filter="url(#f17f0fgrz5hlpd)" height="77.6211" style="stroke: #A80036; stroke-width: 1.0;" width="10" x="688.5" y="723.7676"/><rect fill="#FFFFFF" filter="url(#f17f0fgrz5hlpd)" height="292.1396" style="stroke: #A80036; stroke-width: 1.0;" width="10" x="688.5" y="850.3545"/><rect fill="#FFFFFF" filter="url(#f17f0fgrz5hlpd)" height="242.1738" style="stroke: #A80036; stroke-width: 1.0;" width="10" x="693.5" y="900.3203"/><rect fill="#FFFFFF" filter="url(#f17f0fgrz5hlpd)" height="63.6211" style="stroke: #A80036; stroke-width: 1.0;" width="10" x="698.5" y="942.6309"/><rect fill="#FFFFFF" filter="url(#f17f0fgrz5hlpd)" height="63.6211" style="stroke: #A80036; stroke-width: 1.0;" width="10" x="698.5" y="1043.5625"/><polygon fill="#A80036" points="390.5,118.7988,400.5,122.7988,390.5,126.7988,394.5,122.7988" style="stroke: #A80036; stroke-width: 1.0;"/><line style="stroke: #A80036; stroke-width: 1.0;" x1="224.5" x2="396.5" y1="122.7988" y2="122.7988"/><text fill="#000000" font-family="sans-serif" font-size="13" lengthAdjust="spacingAndGlyphs" textLength="159" x="231.5" y="118.0566">mouse down on scrollbar</text><path d="M8,101.4883 L8,126.4883 L216,126.4883 L216,111.4883 L206,101.4883 L8,101.4883 " fill="#FBFB77" filter="url(#f17f0fgrz5hlpd)" style="stroke: #A80036; stroke-width: 1.0;"/><path d="M206,101.4883 L206,111.4883 L216,111.4883 L206,101.4883 " fill="#FBFB77" style="stroke: #A80036; stroke-width: 1.0;"/><text fill="#000000" font-family="sans-serif" font-size="13" lengthAdjust="spacingAndGlyphs" textLength="187" x="14" y="119.0566">User drag horizontal scrollbar</text><line style="stroke: #A80036; stroke-width: 1.0;" x1="412.5" x2="459.5" y1="152.1094" y2="152.1094"/><line style="stroke: #A80036; stroke-width: 1.0;" x1="459.5" x2="459.5" y1="152.1094" y2="165.1094"/><line style="stroke: #A80036; stroke-width: 1.0;" x1="418.5" x2="459.5" y1="165.1094" y2="165.1094"/><polygon fill="#A80036" points="428.5,161.1094,418.5,165.1094,428.5,169.1094,424.5,165.1094" style="stroke: #A80036; stroke-width: 1.0;"/><text fill="#000000" font-family="sans-serif" font-size="13" lengthAdjust="spacingAndGlyphs" textLength="127" x="424.5" y="147.3672">handleMouseDown()</text><line style="stroke: #A80036; stroke-width: 1.0;" x1="417.5" x2="459.5" y1="204.4199" y2="204.4199"/><line style="stroke: #A80036; stroke-width: 1.0;" x1="459.5" x2="459.5" y1="204.4199" y2="217.4199"/><line style="stroke: #A80036; stroke-width: 1.0;" x1="412.5" x2="459.5" y1="217.4199" y2="217.4199"/><polygon fill="#A80036" points="422.5,213.4199,412.5,217.4199,422.5,221.4199,418.5,217.4199" style="stroke: #A80036; stroke-width: 1.0;"/><text fill="#000000" font-family="sans-serif" font-size="13" lengthAdjust="spacingAndGlyphs" textLength="110" x="424.5" y="199.6777">setDragging(true)</text><polygon fill="#A80036" points="390.5,237.7305,400.5,241.7305,390.5,245.7305,394.5,241.7305" style="stroke: #A80036; stroke-width: 1.0;"/><line style="stroke: #A80036; stroke-width: 1.0;" x1="224.5" x2="396.5" y1="241.7305" y2="241.7305"/><text fill="#000000" font-family="sans-serif" font-size="13" lengthAdjust="spacingAndGlyphs" textLength="80" x="231.5" y="236.9883">mouse move</text><line style="stroke: #A80036; stroke-width: 1.0;" x1="412.5" x2="454.5" y1="271.041" y2="271.041"/><line style="stroke: #A80036; stroke-width: 1.0;" x1="454.5" x2="454.5" y1="271.041" y2="284.041"/><line style="stroke: #A80036; stroke-width: 1.0;" x1="413.5" x2="454.5" y1="284.041" y2="284.041"/><polygon fill="#A80036" points="423.5,280.041,413.5,284.041,423.5,288.041,419.5,284.041" style="stroke: #A80036; stroke-width: 1.0;"/><text fill="#000000" font-family="sans-serif" font-size="13" lengthAdjust="spacingAndGlyphs" textLength="111" x="419.5" y="266.2988">mouseMoveEffect</text><polygon fill="#A80036" points="897.5,309.3516,907.5,313.3516,897.5,317.3516,901.5,313.3516" style="stroke: #A80036; stroke-width: 1.0;"/><line style="stroke: #A80036; stroke-width: 1.0;" x1="412.5" x2="903.5" y1="313.3516" y2="313.3516"/><text fill="#000000" font-family="sans-serif" font-size="13" lengthAdjust="spacingAndGlyphs" textLength="212" x="419.5" y="308.6094">emit('editorScrollXShouldChange')</text><polygon fill="#A80036" points="709.5,338.6621,699.5,342.6621,709.5,346.6621,705.5,342.6621" style="stroke: #A80036; stroke-width: 1.0;"/><line style="stroke: #A80036; stroke-width: 1.0;" x1="703.5" x2="908.5" y1="342.6621" y2="342.6621"/><text fill="#000000" font-family="sans-serif" font-size="13" lengthAdjust="spacingAndGlyphs" textLength="169" x="715.5" y="337.9199">scrollXShouldChangeEffect</text><line style="stroke: #A80036; stroke-width: 1.0;" x1="698.5" x2="740.5" y1="371.9727" y2="371.9727"/><line style="stroke: #A80036; stroke-width: 1.0;" x1="740.5" x2="740.5" y1="371.9727" y2="384.9727"/><line style="stroke: #A80036; stroke-width: 1.0;" x1="699.5" x2="740.5" y1="384.9727" y2="384.9727"/><polygon fill="#A80036" points="709.5,380.9727,699.5,384.9727,709.5,388.9727,705.5,384.9727" style="stroke: #A80036; stroke-width: 1.0;"/><text fill="#000000" font-family="sans-serif" font-size="13" lengthAdjust="spacingAndGlyphs" textLength="100" x="705.5" y="367.2305">scrollXUpdater()</text><line style="stroke: #A80036; stroke-width: 1.0;" x1="698.5" x2="745.5" y1="409.2832" y2="409.2832"/><line style="stroke: #A80036; stroke-width: 1.0;" x1="745.5" x2="745.5" y1="409.2832" y2="422.2832"/><line style="stroke: #A80036; stroke-width: 1.0;" x1="704.5" x2="745.5" y1="422.2832" y2="422.2832"/><polygon fill="#A80036" points="714.5,418.2832,704.5,422.2832,714.5,426.2832,710.5,422.2832" style="stroke: #A80036; stroke-width: 1.0;"/><text fill="#000000" font-family="sans-serif" font-size="13" lengthAdjust="spacingAndGlyphs" textLength="95" x="710.5" y="404.541">rerenderScroll()</text><line style="stroke: #A80036; stroke-width: 1.0;" x1="703.5" x2="745.5" y1="461.5938" y2="461.5938"/><line style="stroke: #A80036; stroke-width: 1.0;" x1="745.5" x2="745.5" y1="461.5938" y2="474.5938"/><line style="stroke: #A80036; stroke-width: 1.0;" x1="698.5" x2="745.5" y1="474.5938" y2="474.5938"/><polygon fill="#A80036" points="708.5,470.5938,698.5,474.5938,708.5,478.5938,704.5,474.5938" style="stroke: #A80036; stroke-width: 1.0;"/><text fill="#000000" font-family="sans-serif" font-size="13" lengthAdjust="spacingAndGlyphs" textLength="116" x="710.5" y="456.8516">rerenderIndicator()</text><polygon fill="#A80036" points="390.5,499.9043,400.5,503.9043,390.5,507.9043,394.5,503.9043" style="stroke: #A80036; stroke-width: 1.0;"/><line style="stroke: #A80036; stroke-width: 1.0;" x1="224.5" x2="396.5" y1="503.9043" y2="503.9043"/><text fill="#000000" font-family="sans-serif" font-size="13" lengthAdjust="spacingAndGlyphs" textLength="159" x="231.5" y="499.1621">mouse down on scrollbar</text><path d="M25,482.5938 L25,507.5938 L215,507.5938 L215,492.5938 L205,482.5938 L25,482.5938 " fill="#FBFB77" filter="url(#f17f0fgrz5hlpd)" style="stroke: #A80036; stroke-width: 1.0;"/><path d="M205,482.5938 L205,492.5938 L215,492.5938 L205,482.5938 " fill="#FBFB77" style="stroke: #A80036; stroke-width: 1.0;"/><text fill="#000000" font-family="sans-serif" font-size="13" lengthAdjust="spacingAndGlyphs" textLength="169" x="31" y="500.1621">User drag vertical scrollbar</text><line style="stroke: #A80036; stroke-width: 1.0;" x1="412.5" x2="459.5" y1="533.2148" y2="533.2148"/><line style="stroke: #A80036; stroke-width: 1.0;" x1="459.5" x2="459.5" y1="533.2148" y2="546.2148"/><line style="stroke: #A80036; stroke-width: 1.0;" x1="418.5" x2="459.5" y1="546.2148" y2="546.2148"/><polygon fill="#A80036" points="428.5,542.2148,418.5,546.2148,428.5,550.2148,424.5,546.2148" style="stroke: #A80036; stroke-width: 1.0;"/><text fill="#000000" font-family="sans-serif" font-size="13" lengthAdjust="spacingAndGlyphs" textLength="127" x="424.5" y="528.4727">handleMouseDown()</text><line style="stroke: #A80036; stroke-width: 1.0;" x1="417.5" x2="459.5" y1="585.5254" y2="585.5254"/><line style="stroke: #A80036; stroke-width: 1.0;" x1="459.5" x2="459.5" y1="585.5254" y2="598.5254"/><line style="stroke: #A80036; stroke-width: 1.0;" x1="412.5" x2="459.5" y1="598.5254" y2="598.5254"/><polygon fill="#A80036" points="422.5,594.5254,412.5,598.5254,422.5,602.5254,418.5,598.5254" style="stroke: #A80036; stroke-width: 1.0;"/><text fill="#000000" font-family="sans-serif" font-size="13" lengthAdjust="spacingAndGlyphs" textLength="110" x="424.5" y="580.7832">setDragging(true)</text><polygon fill="#A80036" points="541.5,618.8359,551.5,622.8359,541.5,626.8359,545.5,622.8359" style="stroke: #A80036; stroke-width: 1.0;"/><line style="stroke: #A80036; stroke-width: 1.0;" x1="224.5" x2="547.5" y1="622.8359" y2="622.8359"/><text fill="#000000" font-family="sans-serif" font-size="13" lengthAdjust="spacingAndGlyphs" textLength="80" x="231.5" y="618.0938">mouse move</text><line style="stroke: #A80036; stroke-width: 1.0;" x1="563.5" x2="605.5" y1="652.1465" y2="652.1465"/><line style="stroke: #A80036; stroke-width: 1.0;" x1="605.5" x2="605.5" y1="652.1465" y2="665.1465"/><line style="stroke: #A80036; stroke-width: 1.0;" x1="564.5" x2="605.5" y1="665.1465" y2="665.1465"/><polygon fill="#A80036" points="574.5,661.1465,564.5,665.1465,574.5,669.1465,570.5,665.1465" style="stroke: #A80036; stroke-width: 1.0;"/><text fill="#000000" font-family="sans-serif" font-size="13" lengthAdjust="spacingAndGlyphs" textLength="111" x="570.5" y="647.4043">mouseMoveEffect</text><polygon fill="#A80036" points="897.5,690.457,907.5,694.457,897.5,698.457,901.5,694.457" style="stroke: #A80036; stroke-width: 1.0;"/><line style="stroke: #A80036; stroke-width: 1.0;" x1="563.5" x2="903.5" y1="694.457" y2="694.457"/><text fill="#000000" font-family="sans-serif" font-size="13" lengthAdjust="spacingAndGlyphs" textLength="212" x="570.5" y="689.7148">emit('editorScrollYShouldChange')</text><polygon fill="#A80036" points="709.5,719.7676,699.5,723.7676,709.5,727.7676,705.5,723.7676" style="stroke: #A80036; stroke-width: 1.0;"/><line style="stroke: #A80036; stroke-width: 1.0;" x1="703.5" x2="908.5" y1="723.7676" y2="723.7676"/><text fill="#000000" font-family="sans-serif" font-size="13" lengthAdjust="spacingAndGlyphs" textLength="169" x="715.5" y="719.0254">scrollYShouldChangeEffect</text><line style="stroke: #A80036; stroke-width: 1.0;" x1="698.5" x2="740.5" y1="753.0781" y2="753.0781"/><line style="stroke: #A80036; stroke-width: 1.0;" x1="740.5" x2="740.5" y1="753.0781" y2="766.0781"/><line style="stroke: #A80036; stroke-width: 1.0;" x1="699.5" x2="740.5" y1="766.0781" y2="766.0781"/><polygon fill="#A80036" points="709.5,762.0781,699.5,766.0781,709.5,770.0781,705.5,766.0781" style="stroke: #A80036; stroke-width: 1.0;"/><text fill="#000000" font-family="sans-serif" font-size="13" lengthAdjust="spacingAndGlyphs" textLength="100" x="705.5" y="748.3359">scrollYUpdater()</text><line style="stroke: #A80036; stroke-width: 1.0;" x1="698.5" x2="740.5" y1="800.3887" y2="800.3887"/><line style="stroke: #A80036; stroke-width: 1.0;" x1="740.5" x2="740.5" y1="800.3887" y2="813.3887"/><line style="stroke: #A80036; stroke-width: 1.0;" x1="693.5" x2="740.5" y1="813.3887" y2="813.3887"/><polygon fill="#A80036" points="703.5,809.3887,693.5,813.3887,703.5,817.3887,699.5,813.3887" style="stroke: #A80036; stroke-width: 1.0;"/><text fill="#000000" font-family="sans-serif" font-size="13" lengthAdjust="spacingAndGlyphs" textLength="95" x="705.5" y="795.6465">rerenderScroll()</text><polygon fill="#A80036" points="676.5,846.3545,686.5,850.3545,676.5,854.3545,680.5,850.3545" style="stroke: #A80036; stroke-width: 1.0;"/><line style="stroke: #A80036; stroke-width: 1.0;" x1="224.5" x2="682.5" y1="850.3545" y2="850.3545"/><text fill="#000000" font-family="sans-serif" font-size="13" lengthAdjust="spacingAndGlyphs" textLength="219" x="231.5" y="845.6123">mouse wheel or touchpad in editor</text><path d="M59,821.3887 L59,861.3887 L215,861.3887 L215,831.3887 L205,821.3887 L59,821.3887 " fill="#FBFB77" filter="url(#f17f0fgrz5hlpd)" style="stroke: #A80036; stroke-width: 1.0;"/><path d="M205,821.3887 L205,831.3887 L215,831.3887 L205,821.3887 " fill="#FBFB77" style="stroke: #A80036; stroke-width: 1.0;"/><text fill="#000000" font-family="sans-serif" font-size="13" lengthAdjust="spacingAndGlyphs" textLength="134" x="65" y="838.957">User use touchpad or</text><text fill="#000000" font-family="sans-serif" font-size="13" lengthAdjust="spacingAndGlyphs" textLength="135" x="65" y="854.2676">mousewheel in editor</text><line style="stroke: #A80036; stroke-width: 1.0;" x1="698.5" x2="745.5" y1="887.3203" y2="887.3203"/><line style="stroke: #A80036; stroke-width: 1.0;" x1="745.5" x2="745.5" y1="887.3203" y2="900.3203"/><line style="stroke: #A80036; stroke-width: 1.0;" x1="704.5" x2="745.5" y1="900.3203" y2="900.3203"/><polygon fill="#A80036" points="714.5,896.3203,704.5,900.3203,714.5,904.3203,710.5,900.3203" style="stroke: #A80036; stroke-width: 1.0;"/><text fill="#000000" font-family="sans-serif" font-size="13" lengthAdjust="spacingAndGlyphs" textLength="115" x="710.5" y="882.5781">mouseWheelEffect</text><line style="stroke: #A80036; stroke-width: 1.0;" x1="703.5" x2="750.5" y1="929.6309" y2="929.6309"/><line style="stroke: #A80036; stroke-width: 1.0;" x1="750.5" x2="750.5" y1="929.6309" y2="942.6309"/><line style="stroke: #A80036; stroke-width: 1.0;" x1="709.5" x2="750.5" y1="942.6309" y2="942.6309"/><polygon fill="#A80036" points="719.5,938.6309,709.5,942.6309,719.5,946.6309,715.5,942.6309" style="stroke: #A80036; stroke-width: 1.0;"/><text fill="#000000" font-family="sans-serif" font-size="13" lengthAdjust="spacingAndGlyphs" textLength="150" x="715.5" y="924.8887">scrollXUpdater(e.deltaX)</text><polygon fill="#A80036" points="897.5,972.9414,907.5,976.9414,897.5,980.9414,901.5,976.9414" style="stroke: #A80036; stroke-width: 1.0;"/><line style="stroke: #A80036; stroke-width: 1.0;" x1="708.5" x2="903.5" y1="976.9414" y2="976.9414"/><text fill="#000000" font-family="sans-serif" font-size="13" lengthAdjust="spacingAndGlyphs" textLength="177" x="715.5" y="972.1992">emit('editorScrollXChanged')</text><polygon fill="#A80036" points="418.5,1002.252,408.5,1006.252,418.5,1010.252,414.5,1006.252" style="stroke: #A80036; stroke-width: 1.0;"/><line style="stroke: #A80036; stroke-width: 1.0;" x1="412.5" x2="908.5" y1="1006.252" y2="1006.252"/><text fill="#000000" font-family="sans-serif" font-size="13" lengthAdjust="spacingAndGlyphs" textLength="171" x="424.5" y="1001.5098">editorScrollXChangedEffect</text><line style="stroke: #A80036; stroke-width: 1.0;" x1="703.5" x2="750.5" y1="1030.5625" y2="1030.5625"/><line style="stroke: #A80036; stroke-width: 1.0;" x1="750.5" x2="750.5" y1="1030.5625" y2="1043.5625"/><line style="stroke: #A80036; stroke-width: 1.0;" x1="709.5" x2="750.5" y1="1043.5625" y2="1043.5625"/><polygon fill="#A80036" points="719.5,1039.5625,709.5,1043.5625,719.5,1047.5625,715.5,1043.5625" style="stroke: #A80036; stroke-width: 1.0;"/><text fill="#000000" font-family="sans-serif" font-size="13" lengthAdjust="spacingAndGlyphs" textLength="150" x="715.5" y="1025.8203">scrollYUpdater(e.deltaY)</text><polygon fill="#A80036" points="897.5,1073.873,907.5,1077.873,897.5,1081.873,901.5,1077.873" style="stroke: #A80036; stroke-width: 1.0;"/><line style="stroke: #A80036; stroke-width: 1.0;" x1="708.5" x2="903.5" y1="1077.873" y2="1077.873"/><text fill="#000000" font-family="sans-serif" font-size="13" lengthAdjust="spacingAndGlyphs" textLength="177" x="715.5" y="1073.1309">emit('editorScrollYChanged')</text><polygon fill="#A80036" points="574.5,1103.1836,564.5,1107.1836,574.5,1111.1836,570.5,1107.1836" style="stroke: #A80036; stroke-width: 1.0;"/><line style="stroke: #A80036; stroke-width: 1.0;" x1="568.5" x2="908.5" y1="1107.1836" y2="1107.1836"/><text fill="#000000" font-family="sans-serif" font-size="13" lengthAdjust="spacingAndGlyphs" textLength="171" x="580.5" y="1102.4414">editorScrollYChangedEffect</text><line style="stroke: #A80036; stroke-width: 1.0;" x1="703.5" x2="745.5" y1="1141.4941" y2="1141.4941"/><line style="stroke: #A80036; stroke-width: 1.0;" x1="745.5" x2="745.5" y1="1141.4941" y2="1154.4941"/><line style="stroke: #A80036; stroke-width: 1.0;" x1="698.5" x2="745.5" y1="1154.4941" y2="1154.4941"/><polygon fill="#A80036" points="708.5,1150.4941,698.5,1154.4941,708.5,1158.4941,704.5,1154.4941" style="stroke: #A80036; stroke-width: 1.0;"/><text fill="#000000" font-family="sans-serif" font-size="13" lengthAdjust="spacingAndGlyphs" textLength="83" x="710.5" y="1136.752">renderScroll()</text><!--
@startuml
actor User
participant Editor order 20
participant EventEmitter order 30

User -> HorizontalScroll: mouse down on scrollbar
note left: User drag horizontal scrollbar
activate HorizontalScroll
HorizontalScroll -> HorizontalScroll: handleMouseDown()
activate HorizontalScroll
HorizontalScroll -> HorizontalScroll: setDragging(true)
deactivate HorizontalScroll
deactivate HorizontalScroll

User -> HorizontalScroll: mouse move
activate HorizontalScroll
HorizontalScroll -> HorizontalScroll: mouseMoveEffect
HorizontalScroll -> EventEmitter: emit('editorScrollXShouldChange')
EventEmitter -> Editor: scrollXShouldChangeEffect
activate Editor
Editor -> Editor: scrollXUpdater()
Editor -> Editor: rerenderScroll()
activate Editor
Editor -> Editor: rerenderIndicator()
deactivate Editor
deactivate Editor
deactivate HorizontalScroll

User -> HorizontalScroll: mouse down on scrollbar
note left: User drag vertical scrollbar
activate HorizontalScroll
HorizontalScroll -> HorizontalScroll: handleMouseDown()
activate HorizontalScroll
HorizontalScroll -> HorizontalScroll: setDragging(true)
deactivate HorizontalScroll
deactivate HorizontalScroll

User -> VerticalScroll: mouse move
activate VerticalScroll
VerticalScroll -> VerticalScroll: mouseMoveEffect
VerticalScroll -> EventEmitter: emit('editorScrollYShouldChange')
EventEmitter -> Editor: scrollYShouldChangeEffect
activate Editor
Editor -> Editor: scrollYUpdater()
Editor -> Editor: rerenderScroll()
deactivate Editor
deactivate HorizontalScroll

User -> Editor: mouse wheel or touchpad in editor
note left
  User use touchpad or
  mousewheel in editor
end note
activate Editor
Editor -> Editor: mouseWheelEffect
activate Editor
Editor -> Editor: scrollXUpdater(e.deltaX)
activate Editor
Editor -> EventEmitter: emit('editorScrollXChanged')
EventEmitter -> HorizontalScroll: editorScrollXChangedEffect
deactivate Editor
Editor -> Editor: scrollYUpdater(e.deltaY)
activate Editor
Editor -> EventEmitter: emit('editorScrollYChanged')
EventEmitter -> VerticalScroll: editorScrollYChangedEffect
deactivate Editor
Editor -> Editor: renderScroll()
deactivate Editor
deactivate Editor

@enduml

PlantUML version 1.2019.09(Tue Aug 27 00:19:51 CST 2019)
(GPL source distribution)
Java Runtime: OpenJDK Runtime Environment
JVM: OpenJDK 64-Bit Server VM
Java Version: 13.0.2+8
Operating System: Mac OS X
OS Version: 10.14.6
Default Encoding: UTF-8
Language: zh
Country: CN
--></g></svg>