<?xml version="1.0" encoding="UTF-8" standalone="no"?><svg xmlns="http://www.w3.org/2000/svg" xmlns:xlink="http://www.w3.org/1999/xlink" contentScriptType="application/ecmascript" contentStyleType="text/css" height="672px" preserveAspectRatio="none" style="width:1366px;height:672px;" version="1.1" viewBox="0 0 1366 672" width="1366px" zoomAndPan="magnify"><defs><filter height="300%" id="f1q65wxcqq8gg7" width="300%" x="-1" y="-1"><feGaussianBlur result="blurOut" stdDeviation="2.0"/><feColorMatrix in="blurOut" result="blurOut2" type="matrix" values="0 0 0 0 0 0 0 0 0 0 0 0 0 0 0 0 0 0 .4 0"/><feOffset dx="4.0" dy="4.0" in="blurOut2" result="blurOut3"/><feBlend in="SourceGraphic" in2="blurOut3" mode="normal"/></filter></defs><g><rect fill="#FFFFFF" filter="url(#f1q65wxcqq8gg7)" height="332.1055" style="stroke: #A80036; stroke-width: 1.0;" width="10" x="547" y="235.041"/><rect fill="#FFFFFF" filter="url(#f1q65wxcqq8gg7)" height="35.3105" style="stroke: #A80036; stroke-width: 1.0;" width="10" x="822.5" y="335.9727"/><rect fill="#FFFFFF" filter="url(#f1q65wxcqq8gg7)" height="130.2422" style="stroke: #A80036; stroke-width: 1.0;" width="10" x="822.5" y="407.5938"/><rect fill="#FFFFFF" filter="url(#f1q65wxcqq8gg7)" height="92.9316" style="stroke: #A80036; stroke-width: 1.0;" width="10" x="827.5" y="444.9043"/><line style="stroke: #A80036; stroke-width: 1.0; stroke-dasharray: 5.0,5.0;" x1="26" x2="26" y1="86.4883" y2="585.1465"/><line style="stroke: #A80036; stroke-width: 1.0; stroke-dasharray: 5.0,5.0;" x1="170.5" x2="170.5" y1="86.4883" y2="585.1465"/><line style="stroke: #A80036; stroke-width: 1.0; stroke-dasharray: 5.0,5.0;" x1="302.5" x2="302.5" y1="86.4883" y2="585.1465"/><line style="stroke: #A80036; stroke-width: 1.0; stroke-dasharray: 5.0,5.0;" x1="440.5" x2="440.5" y1="86.4883" y2="585.1465"/><line style="stroke: #A80036; stroke-width: 1.0; stroke-dasharray: 5.0,5.0;" x1="551.5" x2="551.5" y1="86.4883" y2="585.1465"/><line style="stroke: #A80036; stroke-width: 1.0; stroke-dasharray: 5.0,5.0;" x1="734.5" x2="734.5" y1="86.4883" y2="585.1465"/><line style="stroke: #A80036; stroke-width: 1.0; stroke-dasharray: 5.0,5.0;" x1="827.5" x2="827.5" y1="86.4883" y2="585.1465"/><line style="stroke: #A80036; stroke-width: 1.0; stroke-dasharray: 5.0,5.0;" x1="1041" x2="1041" y1="86.4883" y2="585.1465"/><line style="stroke: #A80036; stroke-width: 1.0; stroke-dasharray: 5.0,5.0;" x1="1184.5" x2="1184.5" y1="86.4883" y2="585.1465"/><line style="stroke: #A80036; stroke-width: 1.0; stroke-dasharray: 5.0,5.0;" x1="1299.5" x2="1299.5" y1="86.4883" y2="585.1465"/><text fill="#000000" font-family="sans-serif" font-size="14" lengthAdjust="spacingAndGlyphs" textLength="31" x="8" y="83.5352">User</text><ellipse cx="26.5" cy="13" fill="#FEFECE" filter="url(#f1q65wxcqq8gg7)" rx="8" ry="8" style="stroke: #A80036; stroke-width: 2.0;"/><path d="M26.5,21 L26.5,48 M13.5,29 L39.5,29 M26.5,48 L13.5,63 M26.5,48 L39.5,63 " fill="none" filter="url(#f1q65wxcqq8gg7)" style="stroke: #A80036; stroke-width: 2.0;"/><text fill="#000000" font-family="sans-serif" font-size="14" lengthAdjust="spacingAndGlyphs" textLength="31" x="8" y="597.6816">User</text><ellipse cx="26.5" cy="610.6348" fill="#FEFECE" filter="url(#f1q65wxcqq8gg7)" rx="8" ry="8" style="stroke: #A80036; stroke-width: 2.0;"/><path d="M26.5,618.6348 L26.5,645.6348 M13.5,626.6348 L39.5,626.6348 M26.5,645.6348 L13.5,660.6348 M26.5,645.6348 L39.5,660.6348 " fill="none" filter="url(#f1q65wxcqq8gg7)" style="stroke: #A80036; stroke-width: 2.0;"/><rect fill="#FEFECE" filter="url(#f1q65wxcqq8gg7)" height="30.4883" style="stroke: #A80036; stroke-width: 1.5;" width="96" x="120.5" y="51"/><text fill="#000000" font-family="sans-serif" font-size="14" lengthAdjust="spacingAndGlyphs" textLength="82" x="127.5" y="71.5352">FunctionBar</text><rect fill="#FEFECE" filter="url(#f1q65wxcqq8gg7)" height="30.4883" style="stroke: #A80036; stroke-width: 1.5;" width="96" x="120.5" y="584.1465"/><text fill="#000000" font-family="sans-serif" font-size="14" lengthAdjust="spacingAndGlyphs" textLength="82" x="127.5" y="604.6816">FunctionBar</text><rect fill="#FEFECE" filter="url(#f1q65wxcqq8gg7)" height="30.4883" style="stroke: #A80036; stroke-width: 1.5;" width="140" x="230.5" y="51"/><text fill="#000000" font-family="sans-serif" font-size="14" lengthAdjust="spacingAndGlyphs" textLength="126" x="237.5" y="71.5352">FunctionBarAction</text><rect fill="#FEFECE" filter="url(#f1q65wxcqq8gg7)" height="30.4883" style="stroke: #A80036; stroke-width: 1.5;" width="140" x="230.5" y="584.1465"/><text fill="#000000" font-family="sans-serif" font-size="14" lengthAdjust="spacingAndGlyphs" textLength="126" x="237.5" y="604.6816">FunctionBarAction</text><rect fill="#FEFECE" filter="url(#f1q65wxcqq8gg7)" height="30.4883" style="stroke: #A80036; stroke-width: 1.5;" width="109" x="384.5" y="51"/><text fill="#000000" font-family="sans-serif" font-size="14" lengthAdjust="spacingAndGlyphs" textLength="95" x="391.5" y="71.5352">AudioManage</text><rect fill="#FEFECE" filter="url(#f1q65wxcqq8gg7)" height="30.4883" style="stroke: #A80036; stroke-width: 1.5;" width="109" x="384.5" y="584.1465"/><text fill="#000000" font-family="sans-serif" font-size="14" lengthAdjust="spacingAndGlyphs" textLength="95" x="391.5" y="604.6816">AudioManage</text><rect fill="#FEFECE" filter="url(#f1q65wxcqq8gg7)" height="30.4883" style="stroke: #A80036; stroke-width: 1.5;" width="85" x="507.5" y="51"/><text fill="#000000" font-family="sans-serif" font-size="14" lengthAdjust="spacingAndGlyphs" textLength="71" x="514.5" y="71.5352">AudioItem</text><rect fill="#FEFECE" filter="url(#f1q65wxcqq8gg7)" height="30.4883" style="stroke: #A80036; stroke-width: 1.5;" width="85" x="507.5" y="584.1465"/><text fill="#000000" font-family="sans-serif" font-size="14" lengthAdjust="spacingAndGlyphs" textLength="71" x="514.5" y="604.6816">AudioItem</text><rect fill="#FEFECE" filter="url(#f1q65wxcqq8gg7)" height="30.4883" style="stroke: #A80036; stroke-width: 1.5;" width="105" x="680.5" y="51"/><text fill="#000000" font-family="sans-serif" font-size="14" lengthAdjust="spacingAndGlyphs" textLength="91" x="687.5" y="71.5352">LibraryAction</text><rect fill="#FEFECE" filter="url(#f1q65wxcqq8gg7)" height="30.4883" style="stroke: #A80036; stroke-width: 1.5;" width="105" x="680.5" y="584.1465"/><text fill="#000000" font-family="sans-serif" font-size="14" lengthAdjust="spacingAndGlyphs" textLength="91" x="687.5" y="604.6816">LibraryAction</text><rect fill="#FEFECE" filter="url(#f1q65wxcqq8gg7)" height="30.4883" style="stroke: #A80036; stroke-width: 1.5;" width="52" x="799.5" y="51"/><text fill="#000000" font-family="sans-serif" font-size="14" lengthAdjust="spacingAndGlyphs" textLength="38" x="806.5" y="71.5352">Track</text><rect fill="#FEFECE" filter="url(#f1q65wxcqq8gg7)" height="30.4883" style="stroke: #A80036; stroke-width: 1.5;" width="52" x="799.5" y="584.1465"/><text fill="#000000" font-family="sans-serif" font-size="14" lengthAdjust="spacingAndGlyphs" textLength="38" x="806.5" y="604.6816">Track</text><rect fill="#FEFECE" filter="url(#f1q65wxcqq8gg7)" height="30.4883" style="stroke: #A80036; stroke-width: 1.5;" width="99" x="990" y="51"/><text fill="#000000" font-family="sans-serif" font-size="14" lengthAdjust="spacingAndGlyphs" textLength="85" x="997" y="71.5352">EditorAction</text><rect fill="#FEFECE" filter="url(#f1q65wxcqq8gg7)" height="30.4883" style="stroke: #A80036; stroke-width: 1.5;" width="99" x="990" y="584.1465"/><text fill="#000000" font-family="sans-serif" font-size="14" lengthAdjust="spacingAndGlyphs" textLength="85" x="997" y="604.6816">EditorAction</text><rect fill="#FEFECE" filter="url(#f1q65wxcqq8gg7)" height="30.4883" style="stroke: #A80036; stroke-width: 1.5;" width="88" x="1138.5" y="51"/><text fill="#000000" font-family="sans-serif" font-size="14" lengthAdjust="spacingAndGlyphs" textLength="74" x="1145.5" y="71.5352">EditorSaga</text><rect fill="#FEFECE" filter="url(#f1q65wxcqq8gg7)" height="30.4883" style="stroke: #A80036; stroke-width: 1.5;" width="88" x="1138.5" y="584.1465"/><text fill="#000000" font-family="sans-serif" font-size="14" lengthAdjust="spacingAndGlyphs" textLength="74" x="1145.5" y="604.6816">EditorSaga</text><rect fill="#FEFECE" filter="url(#f1q65wxcqq8gg7)" height="30.4883" style="stroke: #A80036; stroke-width: 1.5;" width="115" x="1240.5" y="51"/><text fill="#000000" font-family="sans-serif" font-size="14" lengthAdjust="spacingAndGlyphs" textLength="101" x="1247.5" y="71.5352">ChannelAction</text><rect fill="#FEFECE" filter="url(#f1q65wxcqq8gg7)" height="30.4883" style="stroke: #A80036; stroke-width: 1.5;" width="115" x="1240.5" y="584.1465"/><text fill="#000000" font-family="sans-serif" font-size="14" lengthAdjust="spacingAndGlyphs" textLength="101" x="1247.5" y="604.6816">ChannelAction</text><rect fill="#FFFFFF" filter="url(#f1q65wxcqq8gg7)" height="332.1055" style="stroke: #A80036; stroke-width: 1.0;" width="10" x="547" y="235.041"/><rect fill="#FFFFFF" filter="url(#f1q65wxcqq8gg7)" height="35.3105" style="stroke: #A80036; stroke-width: 1.0;" width="10" x="822.5" y="335.9727"/><rect fill="#FFFFFF" filter="url(#f1q65wxcqq8gg7)" height="130.2422" style="stroke: #A80036; stroke-width: 1.0;" width="10" x="822.5" y="407.5938"/><rect fill="#FFFFFF" filter="url(#f1q65wxcqq8gg7)" height="92.9316" style="stroke: #A80036; stroke-width: 1.0;" width="10" x="827.5" y="444.9043"/><polygon fill="#A80036" points="158.5,113.7988,168.5,117.7988,158.5,121.7988,162.5,117.7988" style="stroke: #A80036; stroke-width: 1.0;"/><line style="stroke: #A80036; stroke-width: 1.0;" x1="26.5" x2="164.5" y1="117.7988" y2="117.7988"/><text fill="#000000" font-family="sans-serif" font-size="13" lengthAdjust="spacingAndGlyphs" textLength="120" x="33.5" y="113.0566">click library button</text><polygon fill="#A80036" points="290.5,143.1094,300.5,147.1094,290.5,151.1094,294.5,147.1094" style="stroke: #A80036; stroke-width: 1.0;"/><line style="stroke: #A80036; stroke-width: 1.0;" x1="170.5" x2="296.5" y1="147.1094" y2="147.1094"/><text fill="#000000" font-family="sans-serif" font-size="13" lengthAdjust="spacingAndGlyphs" textLength="91" x="177.5" y="142.3672">toggleLibrary()</text><polygon fill="#A80036" points="429,172.4199,439,176.4199,429,180.4199,433,176.4199" style="stroke: #A80036; stroke-width: 1.0;"/><line style="stroke: #A80036; stroke-width: 1.0;" x1="302.5" x2="435" y1="176.4199" y2="176.4199"/><text fill="#000000" font-family="sans-serif" font-size="13" lengthAdjust="spacingAndGlyphs" textLength="40" x="309.5" y="171.6777">render</text><polygon fill="#A80036" points="540,201.7305,550,205.7305,540,209.7305,544,205.7305" style="stroke: #A80036; stroke-width: 1.0;"/><line style="stroke: #A80036; stroke-width: 1.0;" x1="441" x2="546" y1="205.7305" y2="205.7305"/><text fill="#000000" font-family="sans-serif" font-size="13" lengthAdjust="spacingAndGlyphs" textLength="40" x="448" y="200.9883">render</text><polygon fill="#A80036" points="535,231.041,545,235.041,535,239.041,539,235.041" style="stroke: #A80036; stroke-width: 1.0;"/><line style="stroke: #A80036; stroke-width: 1.0;" x1="26.5" x2="541" y1="235.041" y2="235.041"/><text fill="#000000" font-family="sans-serif" font-size="13" lengthAdjust="spacingAndGlyphs" textLength="28" x="33.5" y="230.2988">drag</text><line style="stroke: #A80036; stroke-width: 1.0;" x1="557" x2="599" y1="264.3516" y2="264.3516"/><line style="stroke: #A80036; stroke-width: 1.0;" x1="599" x2="599" y1="264.3516" y2="277.3516"/><line style="stroke: #A80036; stroke-width: 1.0;" x1="558" x2="599" y1="277.3516" y2="277.3516"/><polygon fill="#A80036" points="568,273.3516,558,277.3516,568,281.3516,564,277.3516" style="stroke: #A80036; stroke-width: 1.0;"/><text fill="#000000" font-family="sans-serif" font-size="13" lengthAdjust="spacingAndGlyphs" textLength="103" x="564" y="259.6094">onDragHanlder()</text><polygon fill="#A80036" points="723,302.6621,733,306.6621,723,310.6621,727,306.6621" style="stroke: #A80036; stroke-width: 1.0;"/><line style="stroke: #A80036; stroke-width: 1.0;" x1="557" x2="729" y1="306.6621" y2="306.6621"/><text fill="#000000" font-family="sans-serif" font-size="13" lengthAdjust="spacingAndGlyphs" textLength="154" x="564" y="301.9199">libraryDragStart(audioId)</text><polygon fill="#A80036" points="810.5,331.9727,820.5,335.9727,810.5,339.9727,814.5,335.9727" style="stroke: #A80036; stroke-width: 1.0;"/><line style="stroke: #A80036; stroke-width: 1.0;" x1="26.5" x2="816.5" y1="335.9727" y2="335.9727"/><text fill="#000000" font-family="sans-serif" font-size="13" lengthAdjust="spacingAndGlyphs" textLength="80" x="33.5" y="331.2305">move mouse</text><line style="stroke: #A80036; stroke-width: 1.0;" x1="832.5" x2="874.5" y1="370.2832" y2="370.2832"/><line style="stroke: #A80036; stroke-width: 1.0;" x1="874.5" x2="874.5" y1="370.2832" y2="383.2832"/><line style="stroke: #A80036; stroke-width: 1.0;" x1="827.5" x2="874.5" y1="383.2832" y2="383.2832"/><polygon fill="#A80036" points="837.5,379.2832,827.5,383.2832,837.5,387.2832,833.5,383.2832" style="stroke: #A80036; stroke-width: 1.0;"/><text fill="#000000" font-family="sans-serif" font-size="13" lengthAdjust="spacingAndGlyphs" textLength="114" x="839.5" y="365.541">dragOverHandler()</text><polygon fill="#A80036" points="810.5,403.5938,820.5,407.5938,810.5,411.5938,814.5,407.5938" style="stroke: #A80036; stroke-width: 1.0;"/><line style="stroke: #A80036; stroke-width: 1.0;" x1="26.5" x2="816.5" y1="407.5938" y2="407.5938"/><text fill="#000000" font-family="sans-serif" font-size="13" lengthAdjust="spacingAndGlyphs" textLength="29" x="33.5" y="402.8516">drop</text><line style="stroke: #A80036; stroke-width: 1.0;" x1="832.5" x2="879.5" y1="431.9043" y2="431.9043"/><line style="stroke: #A80036; stroke-width: 1.0;" x1="879.5" x2="879.5" y1="431.9043" y2="444.9043"/><line style="stroke: #A80036; stroke-width: 1.0;" x1="838.5" x2="879.5" y1="444.9043" y2="444.9043"/><polygon fill="#A80036" points="848.5,440.9043,838.5,444.9043,848.5,448.9043,844.5,444.9043" style="stroke: #A80036; stroke-width: 1.0;"/><text fill="#000000" font-family="sans-serif" font-size="13" lengthAdjust="spacingAndGlyphs" textLength="86" x="844.5" y="427.1621">dropHandler()</text><polygon fill="#A80036" points="1029.5,475.2148,1039.5,479.2148,1029.5,483.2148,1033.5,479.2148" style="stroke: #A80036; stroke-width: 1.0;"/><line style="stroke: #A80036; stroke-width: 1.0;" x1="837.5" x2="1035.5" y1="479.2148" y2="479.2148"/><text fill="#000000" font-family="sans-serif" font-size="13" lengthAdjust="spacingAndGlyphs" textLength="180" x="844.5" y="474.4727">audioDrop(channelId, offset)</text><polygon fill="#A80036" points="1172.5,504.5254,1182.5,508.5254,1172.5,512.5254,1176.5,508.5254" style="stroke: #A80036; stroke-width: 1.0;"/><line style="stroke: #A80036; stroke-width: 1.0;" x1="1041.5" x2="1178.5" y1="508.5254" y2="508.5254"/><text fill="#000000" font-family="sans-serif" font-size="13" lengthAdjust="spacingAndGlyphs" textLength="119" x="1048.5" y="503.7832">audioDropToSlice()</text><polygon fill="#A80036" points="1288,533.8359,1298,537.8359,1288,541.8359,1292,537.8359" style="stroke: #A80036; stroke-width: 1.0;"/><line style="stroke: #A80036; stroke-width: 1.0;" x1="1184.5" x2="1294" y1="537.8359" y2="537.8359"/><text fill="#000000" font-family="sans-serif" font-size="13" lengthAdjust="spacingAndGlyphs" textLength="75" x="1191.5" y="533.0938">createSlice()</text><polygon fill="#A80036" points="1029.5,563.1465,1039.5,567.1465,1029.5,571.1465,1033.5,567.1465" style="stroke: #A80036; stroke-width: 1.0;"/><line style="stroke: #A80036; stroke-width: 1.0;" x1="552" x2="1035.5" y1="567.1465" y2="567.1465"/><text fill="#000000" font-family="sans-serif" font-size="13" lengthAdjust="spacingAndGlyphs" textLength="101" x="559" y="562.4043">libraryDragEnd()</text><!--
@startuml
actor User

User -> FunctionBar: click library button
FunctionBar -> FunctionBarAction: toggleLibrary()
FunctionBarAction -> AudioManage: render
AudioManage -> AudioItem: render

User -> AudioItem: drag
activate AudioItem
AudioItem -> AudioItem: onDragHanlder()
AudioItem -> LibraryAction: libraryDragStart(audioId)

User -> Track: move mouse
activate Track
Track -> Track: dragOverHandler()
deactivate

User -> Track: drop
activate Track
Track -> Track: dropHandler()
activate Track
Track -> EditorAction: audioDrop(channelId, offset)
EditorAction -> EditorSaga: audioDropToSlice()
EditorSaga -> ChannelAction: createSlice()
deactivate Track
deactivate Track

AudioItem -> EditorAction: libraryDragEnd()
deactivate AudioItem


@enduml

PlantUML version 1.2019.09(Tue Aug 27 00:19:51 CST 2019)
(GPL source distribution)
Java Runtime: OpenJDK Runtime Environment
JVM: OpenJDK 64-Bit Server VM
Java Version: 13.0.2+8
Operating System: Mac OS X
OS Version: 10.14.6
Default Encoding: UTF-8
Language: zh
Country: CN
--></g></svg>