<?xml version="1.0" encoding="UTF-8" standalone="no"?><svg xmlns="http://www.w3.org/2000/svg" xmlns:xlink="http://www.w3.org/1999/xlink" contentScriptType="application/ecmascript" contentStyleType="text/css" height="369px" preserveAspectRatio="none" style="width:1003px;height:369px;" version="1.1" viewBox="0 0 1003 369" width="1003px" zoomAndPan="magnify"><defs><filter height="300%" id="fpe10vugyncdq" width="300%" x="-1" y="-1"><feGaussianBlur result="blurOut" stdDeviation="2.0"/><feColorMatrix in="blurOut" result="blurOut2" type="matrix" values="0 0 0 0 0 0 0 0 0 0 0 0 0 0 0 0 0 0 .4 0"/><feOffset dx="4.0" dy="4.0" in="blurOut2" result="blurOut3"/><feBlend in="SourceGraphic" in2="blurOut3" mode="normal"/></filter></defs><g><rect fill="#FFFFFF" filter="url(#fpe10vugyncdq)" height="146.5527" style="stroke: #A80036; stroke-width: 1.0;" width="10" x="295.5" y="117.7988"/><line style="stroke: #A80036; stroke-width: 1.0; stroke-dasharray: 5.0,5.0;" x1="26" x2="26" y1="86.4883" y2="282.3516"/><line style="stroke: #A80036; stroke-width: 1.0; stroke-dasharray: 5.0,5.0;" x1="185.5" x2="185.5" y1="86.4883" y2="282.3516"/><line style="stroke: #A80036; stroke-width: 1.0; stroke-dasharray: 5.0,5.0;" x1="300.5" x2="300.5" y1="86.4883" y2="282.3516"/><line style="stroke: #A80036; stroke-width: 1.0; stroke-dasharray: 5.0,5.0;" x1="439" x2="439" y1="86.4883" y2="282.3516"/><line style="stroke: #A80036; stroke-width: 1.0; stroke-dasharray: 5.0,5.0;" x1="585" x2="585" y1="86.4883" y2="282.3516"/><line style="stroke: #A80036; stroke-width: 1.0; stroke-dasharray: 5.0,5.0;" x1="805" x2="805" y1="86.4883" y2="282.3516"/><line style="stroke: #A80036; stroke-width: 1.0; stroke-dasharray: 5.0,5.0;" x1="931" x2="931" y1="86.4883" y2="282.3516"/><text fill="#000000" font-family="sans-serif" font-size="14" lengthAdjust="spacingAndGlyphs" textLength="31" x="8" y="83.5352">User</text><ellipse cx="26.5" cy="13" fill="#FEFECE" filter="url(#fpe10vugyncdq)" rx="8" ry="8" style="stroke: #A80036; stroke-width: 2.0;"/><path d="M26.5,21 L26.5,48 M13.5,29 L39.5,29 M26.5,48 L13.5,63 M26.5,48 L39.5,63 " fill="none" filter="url(#fpe10vugyncdq)" style="stroke: #A80036; stroke-width: 2.0;"/><text fill="#000000" font-family="sans-serif" font-size="14" lengthAdjust="spacingAndGlyphs" textLength="31" x="8" y="294.8867">User</text><ellipse cx="26.5" cy="307.8398" fill="#FEFECE" filter="url(#fpe10vugyncdq)" rx="8" ry="8" style="stroke: #A80036; stroke-width: 2.0;"/><path d="M26.5,315.8398 L26.5,342.8398 M13.5,323.8398 L39.5,323.8398 M26.5,342.8398 L13.5,357.8398 M26.5,342.8398 L39.5,357.8398 " fill="none" filter="url(#fpe10vugyncdq)" style="stroke: #A80036; stroke-width: 2.0;"/><rect fill="#FEFECE" filter="url(#fpe10vugyncdq)" height="30.4883" style="stroke: #A80036; stroke-width: 1.5;" width="116" x="125.5" y="51"/><text fill="#000000" font-family="sans-serif" font-size="14" lengthAdjust="spacingAndGlyphs" textLength="102" x="132.5" y="71.5352">DropdownItem</text><rect fill="#FEFECE" filter="url(#fpe10vugyncdq)" height="30.4883" style="stroke: #A80036; stroke-width: 1.5;" width="116" x="125.5" y="281.3516"/><text fill="#000000" font-family="sans-serif" font-size="14" lengthAdjust="spacingAndGlyphs" textLength="102" x="132.5" y="301.8867">DropdownItem</text><rect fill="#FEFECE" filter="url(#fpe10vugyncdq)" height="30.4883" style="stroke: #A80036; stroke-width: 1.5;" width="86" x="255.5" y="51"/><text fill="#000000" font-family="sans-serif" font-size="14" lengthAdjust="spacingAndGlyphs" textLength="72" x="262.5" y="71.5352">Dropdown</text><rect fill="#FEFECE" filter="url(#fpe10vugyncdq)" height="30.4883" style="stroke: #A80036; stroke-width: 1.5;" width="86" x="255.5" y="281.3516"/><text fill="#000000" font-family="sans-serif" font-size="14" lengthAdjust="spacingAndGlyphs" textLength="72" x="262.5" y="301.8867">Dropdown</text><rect fill="#FEFECE" filter="url(#fpe10vugyncdq)" height="30.4883" style="stroke: #A80036; stroke-width: 1.5;" width="137" x="369" y="51"/><text fill="#000000" font-family="sans-serif" font-size="14" lengthAdjust="spacingAndGlyphs" textLength="123" x="376" y="71.5352">AudioEffectAction</text><rect fill="#FEFECE" filter="url(#fpe10vugyncdq)" height="30.4883" style="stroke: #A80036; stroke-width: 1.5;" width="137" x="369" y="281.3516"/><text fill="#000000" font-family="sans-serif" font-size="14" lengthAdjust="spacingAndGlyphs" textLength="123" x="376" y="301.8867">AudioEffectAction</text><rect fill="#FEFECE" filter="url(#fpe10vugyncdq)" height="30.4883" style="stroke: #A80036; stroke-width: 1.5;" width="126" x="520" y="51"/><text fill="#000000" font-family="sans-serif" font-size="14" lengthAdjust="spacingAndGlyphs" textLength="112" x="527" y="71.5352">AudioEffectSaga</text><rect fill="#FEFECE" filter="url(#fpe10vugyncdq)" height="30.4883" style="stroke: #A80036; stroke-width: 1.5;" width="126" x="520" y="281.3516"/><text fill="#000000" font-family="sans-serif" font-size="14" lengthAdjust="spacingAndGlyphs" textLength="112" x="527" y="301.8867">AudioEffectSaga</text><rect fill="#FEFECE" filter="url(#fpe10vugyncdq)" height="30.4883" style="stroke: #A80036; stroke-width: 1.5;" width="100" x="753" y="51"/><text fill="#000000" font-family="sans-serif" font-size="14" lengthAdjust="spacingAndGlyphs" textLength="86" x="760" y="71.5352">EventEmitter</text><rect fill="#FEFECE" filter="url(#fpe10vugyncdq)" height="30.4883" style="stroke: #A80036; stroke-width: 1.5;" width="100" x="753" y="281.3516"/><text fill="#000000" font-family="sans-serif" font-size="14" lengthAdjust="spacingAndGlyphs" textLength="86" x="760" y="301.8867">EventEmitter</text><rect fill="#FEFECE" filter="url(#fpe10vugyncdq)" height="30.4883" style="stroke: #A80036; stroke-width: 1.5;" width="125" x="867" y="51"/><text fill="#000000" font-family="sans-serif" font-size="14" lengthAdjust="spacingAndGlyphs" textLength="111" x="874" y="71.5352">AudioController</text><rect fill="#FEFECE" filter="url(#fpe10vugyncdq)" height="30.4883" style="stroke: #A80036; stroke-width: 1.5;" width="125" x="867" y="281.3516"/><text fill="#000000" font-family="sans-serif" font-size="14" lengthAdjust="spacingAndGlyphs" textLength="111" x="874" y="301.8867">AudioController</text><rect fill="#FFFFFF" filter="url(#fpe10vugyncdq)" height="146.5527" style="stroke: #A80036; stroke-width: 1.0;" width="10" x="295.5" y="117.7988"/><polygon fill="#A80036" points="173.5,113.7988,183.5,117.7988,173.5,121.7988,177.5,117.7988" style="stroke: #A80036; stroke-width: 1.0;"/><line style="stroke: #A80036; stroke-width: 1.0;" x1="26.5" x2="179.5" y1="117.7988" y2="117.7988"/><text fill="#000000" font-family="sans-serif" font-size="13" lengthAdjust="spacingAndGlyphs" textLength="135" x="33.5" y="113.0566">handleRemoveEffect()</text><polygon fill="#A80036" points="427.5,143.1094,437.5,147.1094,427.5,151.1094,431.5,147.1094" style="stroke: #A80036; stroke-width: 1.0;"/><line style="stroke: #A80036; stroke-width: 1.0;" x1="305.5" x2="433.5" y1="147.1094" y2="147.1094"/><text fill="#000000" font-family="sans-serif" font-size="13" lengthAdjust="spacingAndGlyphs" textLength="110" x="312.5" y="142.3672">closeEffectPanel()</text><polygon fill="#A80036" points="573,172.4199,583,176.4199,573,180.4199,577,176.4199" style="stroke: #A80036; stroke-width: 1.0;"/><line style="stroke: #A80036; stroke-width: 1.0;" x1="439.5" x2="579" y1="176.4199" y2="176.4199"/><text fill="#000000" font-family="sans-serif" font-size="13" lengthAdjust="spacingAndGlyphs" textLength="119" x="446.5" y="171.6777">removeEffectSaga()</text><polygon fill="#A80036" points="793,201.7305,803,205.7305,793,209.7305,797,205.7305" style="stroke: #A80036; stroke-width: 1.0;"/><line style="stroke: #A80036; stroke-width: 1.0;" x1="585" x2="799" y1="205.7305" y2="205.7305"/><text fill="#000000" font-family="sans-serif" font-size="13" lengthAdjust="spacingAndGlyphs" textLength="196" x="592" y="200.9883">emit('EFFECT_DELETE_EFFECT');</text><polygon fill="#A80036" points="919.5,231.041,929.5,235.041,919.5,239.041,923.5,235.041" style="stroke: #A80036; stroke-width: 1.0;"/><line style="stroke: #A80036; stroke-width: 1.0;" x1="805" x2="925.5" y1="235.041" y2="235.041"/><text fill="#000000" font-family="sans-serif" font-size="13" lengthAdjust="spacingAndGlyphs" textLength="94" x="812" y="230.2988">removeEffect();</text><polygon fill="#A80036" points="427.5,260.3516,437.5,264.3516,427.5,268.3516,431.5,264.3516" style="stroke: #A80036; stroke-width: 1.0;"/><line style="stroke: #A80036; stroke-width: 1.0;" x1="300.5" x2="433.5" y1="264.3516" y2="264.3516"/><text fill="#000000" font-family="sans-serif" font-size="13" lengthAdjust="spacingAndGlyphs" textLength="90" x="307.5" y="259.6094">removeEffect()</text><!--
@startuml
actor User

User -> DropdownItem: handleRemoveEffect()
activate Dropdown
Dropdown -> AudioEffectAction: closeEffectPanel()
AudioEffectAction -> AudioEffectSaga: removeEffectSaga()
AudioEffectSaga -> EventEmitter: emit('EFFECT_DELETE_EFFECT');
EventEmitter -> AudioController: removeEffect();
Dropdown -> AudioEffectAction: removeEffect()
deactivate Dropdown
@enduml

PlantUML version 1.2019.09(Tue Aug 27 00:19:51 CST 2019)
(GPL source distribution)
Java Runtime: OpenJDK Runtime Environment
JVM: OpenJDK 64-Bit Server VM
Java Version: 13.0.2+8
Operating System: Mac OS X
OS Version: 10.14.6
Default Encoding: UTF-8
Language: zh
Country: CN
--></g></svg>