<?xml version="1.0" encoding="UTF-8" standalone="no"?><svg xmlns="http://www.w3.org/2000/svg" xmlns:xlink="http://www.w3.org/1999/xlink" contentScriptType="application/ecmascript" contentStyleType="text/css" height="311px" preserveAspectRatio="none" style="width:472px;height:311px;" version="1.1" viewBox="0 0 472 311" width="472px" zoomAndPan="magnify"><defs><filter height="300%" id="f1gzo3bhuwjfyp" width="300%" x="-1" y="-1"><feGaussianBlur result="blurOut" stdDeviation="2.0"/><feColorMatrix in="blurOut" result="blurOut2" type="matrix" values="0 0 0 0 0 0 0 0 0 0 0 0 0 0 0 0 0 0 .4 0"/><feOffset dx="4.0" dy="4.0" in="blurOut2" result="blurOut3"/><feBlend in="SourceGraphic" in2="blurOut3" mode="normal"/></filter></defs><g><rect fill="#FFFFFF" filter="url(#f1gzo3bhuwjfyp)" height="29.3105" style="stroke: #A80036; stroke-width: 1.0;" width="10" x="151.5" y="117.7988"/><rect fill="#FFFFFF" filter="url(#f1gzo3bhuwjfyp)" height="29.3105" style="stroke: #A80036; stroke-width: 1.0;" width="10" x="264.5" y="176.4199"/><line style="stroke: #A80036; stroke-width: 1.0; stroke-dasharray: 5.0,5.0;" x1="26" x2="26" y1="86.4883" y2="223.7305"/><line style="stroke: #A80036; stroke-width: 1.0; stroke-dasharray: 5.0,5.0;" x1="156.5" x2="156.5" y1="86.4883" y2="223.7305"/><line style="stroke: #A80036; stroke-width: 1.0; stroke-dasharray: 5.0,5.0;" x1="269.5" x2="269.5" y1="86.4883" y2="223.7305"/><line style="stroke: #A80036; stroke-width: 1.0; stroke-dasharray: 5.0,5.0;" x1="394.5" x2="394.5" y1="86.4883" y2="223.7305"/><text fill="#000000" font-family="sans-serif" font-size="14" lengthAdjust="spacingAndGlyphs" textLength="31" x="8" y="83.5352">User</text><ellipse cx="26.5" cy="13" fill="#FEFECE" filter="url(#f1gzo3bhuwjfyp)" rx="8" ry="8" style="stroke: #A80036; stroke-width: 2.0;"/><path d="M26.5,21 L26.5,48 M13.5,29 L39.5,29 M26.5,48 L13.5,63 M26.5,48 L39.5,63 " fill="none" filter="url(#f1gzo3bhuwjfyp)" style="stroke: #A80036; stroke-width: 2.0;"/><text fill="#000000" font-family="sans-serif" font-size="14" lengthAdjust="spacingAndGlyphs" textLength="31" x="8" y="236.2656">User</text><ellipse cx="26.5" cy="249.2188" fill="#FEFECE" filter="url(#f1gzo3bhuwjfyp)" rx="8" ry="8" style="stroke: #A80036; stroke-width: 2.0;"/><path d="M26.5,257.2188 L26.5,284.2188 M13.5,265.2188 L39.5,265.2188 M26.5,284.2188 L13.5,299.2188 M26.5,284.2188 L39.5,299.2188 " fill="none" filter="url(#f1gzo3bhuwjfyp)" style="stroke: #A80036; stroke-width: 2.0;"/><rect fill="#FEFECE" filter="url(#f1gzo3bhuwjfyp)" height="30.4883" style="stroke: #A80036; stroke-width: 1.5;" width="112" x="98.5" y="51"/><text fill="#000000" font-family="sans-serif" font-size="14" lengthAdjust="spacingAndGlyphs" textLength="98" x="105.5" y="71.5352">AudioChannel</text><rect fill="#FEFECE" filter="url(#f1gzo3bhuwjfyp)" height="30.4883" style="stroke: #A80036; stroke-width: 1.5;" width="112" x="98.5" y="222.7305"/><text fill="#000000" font-family="sans-serif" font-size="14" lengthAdjust="spacingAndGlyphs" textLength="98" x="105.5" y="243.2656">AudioChannel</text><rect fill="#FEFECE" filter="url(#f1gzo3bhuwjfyp)" height="30.4883" style="stroke: #A80036; stroke-width: 1.5;" width="86" x="224.5" y="51"/><text fill="#000000" font-family="sans-serif" font-size="14" lengthAdjust="spacingAndGlyphs" textLength="72" x="231.5" y="71.5352">Dropdown</text><rect fill="#FEFECE" filter="url(#f1gzo3bhuwjfyp)" height="30.4883" style="stroke: #A80036; stroke-width: 1.5;" width="86" x="224.5" y="222.7305"/><text fill="#000000" font-family="sans-serif" font-size="14" lengthAdjust="spacingAndGlyphs" textLength="72" x="231.5" y="243.2656">Dropdown</text><rect fill="#FEFECE" filter="url(#f1gzo3bhuwjfyp)" height="30.4883" style="stroke: #A80036; stroke-width: 1.5;" width="137" x="324.5" y="51"/><text fill="#000000" font-family="sans-serif" font-size="14" lengthAdjust="spacingAndGlyphs" textLength="123" x="331.5" y="71.5352">AudioEffectAction</text><rect fill="#FEFECE" filter="url(#f1gzo3bhuwjfyp)" height="30.4883" style="stroke: #A80036; stroke-width: 1.5;" width="137" x="324.5" y="222.7305"/><text fill="#000000" font-family="sans-serif" font-size="14" lengthAdjust="spacingAndGlyphs" textLength="123" x="331.5" y="243.2656">AudioEffectAction</text><rect fill="#FFFFFF" filter="url(#f1gzo3bhuwjfyp)" height="29.3105" style="stroke: #A80036; stroke-width: 1.0;" width="10" x="151.5" y="117.7988"/><rect fill="#FFFFFF" filter="url(#f1gzo3bhuwjfyp)" height="29.3105" style="stroke: #A80036; stroke-width: 1.0;" width="10" x="264.5" y="176.4199"/><polygon fill="#A80036" points="139.5,113.7988,149.5,117.7988,139.5,121.7988,143.5,117.7988" style="stroke: #A80036; stroke-width: 1.0;"/><line style="stroke: #A80036; stroke-width: 1.0;" x1="26.5" x2="145.5" y1="117.7988" y2="117.7988"/><text fill="#000000" font-family="sans-serif" font-size="13" lengthAdjust="spacingAndGlyphs" textLength="106" x="33.5" y="113.0566">showDropdown()</text><polygon fill="#A80036" points="257.5,143.1094,267.5,147.1094,257.5,151.1094,261.5,147.1094" style="stroke: #A80036; stroke-width: 1.0;"/><line style="stroke: #A80036; stroke-width: 1.0;" x1="156.5" x2="263.5" y1="147.1094" y2="147.1094"/><text fill="#000000" font-family="sans-serif" font-size="13" lengthAdjust="spacingAndGlyphs" textLength="40" x="163.5" y="142.3672">render</text><polygon fill="#A80036" points="252.5,172.4199,262.5,176.4199,252.5,180.4199,256.5,176.4199" style="stroke: #A80036; stroke-width: 1.0;"/><line style="stroke: #A80036; stroke-width: 1.0;" x1="26.5" x2="258.5" y1="176.4199" y2="176.4199"/><text fill="#000000" font-family="sans-serif" font-size="13" lengthAdjust="spacingAndGlyphs" textLength="135" x="33.5" y="171.6777">handleRemoveEffect()</text><polygon fill="#A80036" points="383,201.7305,393,205.7305,383,209.7305,387,205.7305" style="stroke: #A80036; stroke-width: 1.0;"/><line style="stroke: #A80036; stroke-width: 1.0;" x1="269.5" x2="389" y1="205.7305" y2="205.7305"/><text fill="#000000" font-family="sans-serif" font-size="13" lengthAdjust="spacingAndGlyphs" textLength="90" x="276.5" y="200.9883">removeEffect()</text><!--
@startuml
actor User

User -> AudioChannel: showDropdown()
activate AudioChannel
AudioChannel -> Dropdown: render
deactivate AudioChannel
User -> Dropdown: handleRemoveEffect()
activate Dropdown
Dropdown -> AudioEffectAction: removeEffect()
deactivate Dropdown
@enduml

PlantUML version 1.2019.09(Tue Aug 27 00:19:51 CST 2019)
(GPL source distribution)
Java Runtime: OpenJDK Runtime Environment
JVM: OpenJDK 64-Bit Server VM
Java Version: 13.0.2+8
Operating System: Mac OS X
OS Version: 10.14.6
Default Encoding: UTF-8
Language: zh
Country: CN
--></g></svg>