<?xml version="1.0" encoding="UTF-8" standalone="no"?><svg xmlns="http://www.w3.org/2000/svg" xmlns:xlink="http://www.w3.org/1999/xlink" contentScriptType="application/ecmascript" contentStyleType="text/css" height="904px" preserveAspectRatio="none" style="width:1198px;height:904px;" version="1.1" viewBox="0 0 1198 904" width="1198px" zoomAndPan="magnify"><defs><filter height="300%" id="f1jay8a7jp6on6" width="300%" x="-1" y="-1"><feGaussianBlur result="blurOut" stdDeviation="2.0"/><feColorMatrix in="blurOut" result="blurOut2" type="matrix" values="0 0 0 0 0 0 0 0 0 0 0 0 0 0 0 0 0 0 .4 0"/><feOffset dx="4.0" dy="4.0" in="blurOut2" result="blurOut3"/><feBlend in="SourceGraphic" in2="blurOut3" mode="normal"/></filter></defs><g><rect fill="#FFFFFF" filter="url(#f1jay8a7jp6on6)" height="162.2422" style="stroke: #A80036; stroke-width: 1.0;" width="10" x="254.5" y="117.7988"/><rect fill="#FFFFFF" filter="url(#f1jay8a7jp6on6)" height="124.9316" style="stroke: #A80036; stroke-width: 1.0;" width="10" x="259.5" y="155.1094"/><rect fill="#FFFFFF" filter="url(#f1jay8a7jp6on6)" height="213.8184" style="stroke: #A80036; stroke-width: 1.0;" width="10" x="254.5" y="316.3516"/><rect fill="#FFFFFF" filter="url(#f1jay8a7jp6on6)" height="176.5078" style="stroke: #A80036; stroke-width: 1.0;" width="10" x="259.5" y="353.6621"/><rect fill="#FFFFFF" filter="url(#f1jay8a7jp6on6)" height="247.4844" style="stroke: #A80036; stroke-width: 1.0;" width="10" x="254.5" y="551.4805"/><rect fill="#FFFFFF" filter="url(#f1jay8a7jp6on6)" height="210.1738" style="stroke: #A80036; stroke-width: 1.0;" width="10" x="259.5" y="588.791"/><rect fill="#FFFFFF" filter="url(#f1jay8a7jp6on6)" height="149.5078" style="stroke: #000000; stroke-width: 2.0;" width="464" x="202" y="373.6621"/><rect fill="#FFFFFF" height="73.5762" style="stroke: none; stroke-width: 1.0;" width="464" x="202" y="449.5938"/><line style="stroke: #A80036; stroke-width: 1.0; stroke-dasharray: 5.0,5.0;" x1="26" x2="26" y1="86.4883" y2="816.9648"/><line style="stroke: #A80036; stroke-width: 1.0; stroke-dasharray: 5.0,5.0;" x1="259" x2="259" y1="86.4883" y2="816.9648"/><line style="stroke: #A80036; stroke-width: 1.0; stroke-dasharray: 5.0,5.0;" x1="495.5" x2="495.5" y1="86.4883" y2="816.9648"/><line style="stroke: #A80036; stroke-width: 1.0; stroke-dasharray: 5.0,5.0;" x1="626" x2="626" y1="86.4883" y2="816.9648"/><line style="stroke: #A80036; stroke-width: 1.0; stroke-dasharray: 5.0,5.0;" x1="725" x2="725" y1="86.4883" y2="816.9648"/><line style="stroke: #A80036; stroke-width: 1.0; stroke-dasharray: 5.0,5.0;" x1="858.5" x2="858.5" y1="86.4883" y2="816.9648"/><line style="stroke: #A80036; stroke-width: 1.0; stroke-dasharray: 5.0,5.0;" x1="987.5" x2="987.5" y1="86.4883" y2="816.9648"/><line style="stroke: #A80036; stroke-width: 1.0; stroke-dasharray: 5.0,5.0;" x1="1126.5" x2="1126.5" y1="86.4883" y2="816.9648"/><text fill="#000000" font-family="sans-serif" font-size="14" lengthAdjust="spacingAndGlyphs" textLength="31" x="8" y="83.5352">User</text><ellipse cx="26.5" cy="13" fill="#FEFECE" filter="url(#f1jay8a7jp6on6)" rx="8" ry="8" style="stroke: #A80036; stroke-width: 2.0;"/><path d="M26.5,21 L26.5,48 M13.5,29 L39.5,29 M26.5,48 L13.5,63 M26.5,48 L39.5,63 " fill="none" filter="url(#f1jay8a7jp6on6)" style="stroke: #A80036; stroke-width: 2.0;"/><text fill="#000000" font-family="sans-serif" font-size="14" lengthAdjust="spacingAndGlyphs" textLength="31" x="8" y="829.5">User</text><ellipse cx="26.5" cy="842.4531" fill="#FEFECE" filter="url(#f1jay8a7jp6on6)" rx="8" ry="8" style="stroke: #A80036; stroke-width: 2.0;"/><path d="M26.5,850.4531 L26.5,877.4531 M13.5,858.4531 L39.5,858.4531 M26.5,877.4531 L13.5,892.4531 M26.5,877.4531 L39.5,892.4531 " fill="none" filter="url(#f1jay8a7jp6on6)" style="stroke: #A80036; stroke-width: 2.0;"/><rect fill="#FEFECE" filter="url(#f1jay8a7jp6on6)" height="30.4883" style="stroke: #A80036; stroke-width: 1.5;" width="91" x="212" y="51"/><text fill="#000000" font-family="sans-serif" font-size="14" lengthAdjust="spacingAndGlyphs" textLength="77" x="219" y="71.5352">AudioBlock</text><rect fill="#FEFECE" filter="url(#f1jay8a7jp6on6)" height="30.4883" style="stroke: #A80036; stroke-width: 1.5;" width="91" x="212" y="815.9648"/><text fill="#000000" font-family="sans-serif" font-size="14" lengthAdjust="spacingAndGlyphs" textLength="77" x="219" y="836.5">AudioBlock</text><rect fill="#FEFECE" filter="url(#f1jay8a7jp6on6)" height="30.4883" style="stroke: #A80036; stroke-width: 1.5;" width="100" x="443.5" y="51"/><text fill="#000000" font-family="sans-serif" font-size="14" lengthAdjust="spacingAndGlyphs" textLength="86" x="450.5" y="71.5352">EventEmitter</text><rect fill="#FEFECE" filter="url(#f1jay8a7jp6on6)" height="30.4883" style="stroke: #A80036; stroke-width: 1.5;" width="100" x="443.5" y="815.9648"/><text fill="#000000" font-family="sans-serif" font-size="14" lengthAdjust="spacingAndGlyphs" textLength="86" x="450.5" y="836.5">EventEmitter</text><rect fill="#FEFECE" filter="url(#f1jay8a7jp6on6)" height="30.4883" style="stroke: #A80036; stroke-width: 1.5;" width="55" x="597" y="51"/><text fill="#000000" font-family="sans-serif" font-size="14" lengthAdjust="spacingAndGlyphs" textLength="41" x="604" y="71.5352">Editor</text><rect fill="#FEFECE" filter="url(#f1jay8a7jp6on6)" height="30.4883" style="stroke: #A80036; stroke-width: 1.5;" width="55" x="597" y="815.9648"/><text fill="#000000" font-family="sans-serif" font-size="14" lengthAdjust="spacingAndGlyphs" textLength="41" x="604" y="836.5">Editor</text><rect fill="#FEFECE" filter="url(#f1jay8a7jp6on6)" height="30.4883" style="stroke: #A80036; stroke-width: 1.5;" width="115" x="666" y="51"/><text fill="#000000" font-family="sans-serif" font-size="14" lengthAdjust="spacingAndGlyphs" textLength="101" x="673" y="71.5352">ChannelAction</text><rect fill="#FEFECE" filter="url(#f1jay8a7jp6on6)" height="30.4883" style="stroke: #A80036; stroke-width: 1.5;" width="115" x="666" y="815.9648"/><text fill="#000000" font-family="sans-serif" font-size="14" lengthAdjust="spacingAndGlyphs" textLength="101" x="673" y="836.5">ChannelAction</text><rect fill="#FEFECE" filter="url(#f1jay8a7jp6on6)" height="30.4883" style="stroke: #A80036; stroke-width: 1.5;" width="104" x="804.5" y="51"/><text fill="#000000" font-family="sans-serif" font-size="14" lengthAdjust="spacingAndGlyphs" textLength="90" x="811.5" y="71.5352">ChannelSaga</text><rect fill="#FEFECE" filter="url(#f1jay8a7jp6on6)" height="30.4883" style="stroke: #A80036; stroke-width: 1.5;" width="104" x="804.5" y="815.9648"/><text fill="#000000" font-family="sans-serif" font-size="14" lengthAdjust="spacingAndGlyphs" textLength="90" x="811.5" y="836.5">ChannelSaga</text><rect fill="#FEFECE" filter="url(#f1jay8a7jp6on6)" height="30.4883" style="stroke: #A80036; stroke-width: 1.5;" width="126" x="922.5" y="51"/><text fill="#000000" font-family="sans-serif" font-size="14" lengthAdjust="spacingAndGlyphs" textLength="112" x="929.5" y="71.5352">AudioEffectSaga</text><rect fill="#FEFECE" filter="url(#f1jay8a7jp6on6)" height="30.4883" style="stroke: #A80036; stroke-width: 1.5;" width="126" x="922.5" y="815.9648"/><text fill="#000000" font-family="sans-serif" font-size="14" lengthAdjust="spacingAndGlyphs" textLength="112" x="929.5" y="836.5">AudioEffectSaga</text><rect fill="#FEFECE" filter="url(#f1jay8a7jp6on6)" height="30.4883" style="stroke: #A80036; stroke-width: 1.5;" width="125" x="1062.5" y="51"/><text fill="#000000" font-family="sans-serif" font-size="14" lengthAdjust="spacingAndGlyphs" textLength="111" x="1069.5" y="71.5352">AudioController</text><rect fill="#FEFECE" filter="url(#f1jay8a7jp6on6)" height="30.4883" style="stroke: #A80036; stroke-width: 1.5;" width="125" x="1062.5" y="815.9648"/><text fill="#000000" font-family="sans-serif" font-size="14" lengthAdjust="spacingAndGlyphs" textLength="111" x="1069.5" y="836.5">AudioController</text><rect fill="#FFFFFF" filter="url(#f1jay8a7jp6on6)" height="162.2422" style="stroke: #A80036; stroke-width: 1.0;" width="10" x="254.5" y="117.7988"/><rect fill="#FFFFFF" filter="url(#f1jay8a7jp6on6)" height="124.9316" style="stroke: #A80036; stroke-width: 1.0;" width="10" x="259.5" y="155.1094"/><rect fill="#FFFFFF" filter="url(#f1jay8a7jp6on6)" height="213.8184" style="stroke: #A80036; stroke-width: 1.0;" width="10" x="254.5" y="316.3516"/><rect fill="#FFFFFF" filter="url(#f1jay8a7jp6on6)" height="176.5078" style="stroke: #A80036; stroke-width: 1.0;" width="10" x="259.5" y="353.6621"/><rect fill="#FFFFFF" filter="url(#f1jay8a7jp6on6)" height="247.4844" style="stroke: #A80036; stroke-width: 1.0;" width="10" x="254.5" y="551.4805"/><rect fill="#FFFFFF" filter="url(#f1jay8a7jp6on6)" height="210.1738" style="stroke: #A80036; stroke-width: 1.0;" width="10" x="259.5" y="588.791"/><polygon fill="#A80036" points="242.5,113.7988,252.5,117.7988,242.5,121.7988,246.5,117.7988" style="stroke: #A80036; stroke-width: 1.0;"/><line style="stroke: #A80036; stroke-width: 1.0;" x1="26.5" x2="248.5" y1="117.7988" y2="117.7988"/><text fill="#000000" font-family="sans-serif" font-size="13" lengthAdjust="spacingAndGlyphs" textLength="209" x="33.5" y="113.0566">user mouse down on stretch area</text><line style="stroke: #A80036; stroke-width: 1.0;" x1="264.5" x2="311.5" y1="142.1094" y2="142.1094"/><line style="stroke: #A80036; stroke-width: 1.0;" x1="311.5" x2="311.5" y1="142.1094" y2="155.1094"/><line style="stroke: #A80036; stroke-width: 1.0;" x1="270.5" x2="311.5" y1="155.1094" y2="155.1094"/><polygon fill="#A80036" points="280.5,151.1094,270.5,155.1094,280.5,159.1094,276.5,155.1094" style="stroke: #A80036; stroke-width: 1.0;"/><text fill="#000000" font-family="sans-serif" font-size="13" lengthAdjust="spacingAndGlyphs" textLength="190" x="276.5" y="137.3672">stretcherMouseDownHandler()</text><line style="stroke: #A80036; stroke-width: 1.0;" x1="269.5" x2="311.5" y1="189.4199" y2="189.4199"/><line style="stroke: #A80036; stroke-width: 1.0;" x1="311.5" x2="311.5" y1="189.4199" y2="202.4199"/><line style="stroke: #A80036; stroke-width: 1.0;" x1="270.5" x2="311.5" y1="202.4199" y2="202.4199"/><polygon fill="#A80036" points="280.5,198.4199,270.5,202.4199,280.5,206.4199,276.5,202.4199" style="stroke: #A80036; stroke-width: 1.0;"/><text fill="#000000" font-family="sans-serif" font-size="13" lengthAdjust="spacingAndGlyphs" textLength="66" x="276.5" y="184.6777">initDrag(e)</text><line style="stroke: #A80036; stroke-width: 1.0;" x1="269.5" x2="311.5" y1="231.7305" y2="231.7305"/><line style="stroke: #A80036; stroke-width: 1.0;" x1="311.5" x2="311.5" y1="231.7305" y2="244.7305"/><line style="stroke: #A80036; stroke-width: 1.0;" x1="270.5" x2="311.5" y1="244.7305" y2="244.7305"/><polygon fill="#A80036" points="280.5,240.7305,270.5,244.7305,280.5,248.7305,276.5,244.7305" style="stroke: #A80036; stroke-width: 1.0;"/><text fill="#000000" font-family="sans-serif" font-size="13" lengthAdjust="spacingAndGlyphs" textLength="167" x="276.5" y="226.9883">setStretching('left' | 'right')</text><line style="stroke: #A80036; stroke-width: 1.0;" x1="269.5" x2="311.5" y1="279.041" y2="279.041"/><line style="stroke: #A80036; stroke-width: 1.0;" x1="311.5" x2="311.5" y1="279.041" y2="292.041"/><line style="stroke: #A80036; stroke-width: 1.0;" x1="264.5" x2="311.5" y1="292.041" y2="292.041"/><polygon fill="#A80036" points="274.5,288.041,264.5,292.041,274.5,296.041,270.5,292.041" style="stroke: #A80036; stroke-width: 1.0;"/><text fill="#000000" font-family="sans-serif" font-size="13" lengthAdjust="spacingAndGlyphs" textLength="100" x="276.5" y="274.2988">stretchingEffect</text><path d="M388,259.2305 L388,284.2305 L734,284.2305 L734,269.2305 L724,259.2305 L388,259.2305 " fill="#FBFB77" filter="url(#f1jay8a7jp6on6)" style="stroke: #A80036; stroke-width: 1.0;"/><path d="M724,259.2305 L724,269.2305 L734,269.2305 L724,259.2305 " fill="#FBFB77" style="stroke: #A80036; stroke-width: 1.0;"/><text fill="#000000" font-family="sans-serif" font-size="13" lengthAdjust="spacingAndGlyphs" textLength="325" x="394" y="276.7988">compute params and update block width and offset</text><polygon fill="#A80036" points="242.5,312.3516,252.5,316.3516,242.5,320.3516,246.5,316.3516" style="stroke: #A80036; stroke-width: 1.0;"/><line style="stroke: #A80036; stroke-width: 1.0;" x1="26.5" x2="248.5" y1="316.3516" y2="316.3516"/><text fill="#000000" font-family="sans-serif" font-size="13" lengthAdjust="spacingAndGlyphs" textLength="80" x="33.5" y="311.6094">mouse move</text><line style="stroke: #A80036; stroke-width: 1.0;" x1="264.5" x2="311.5" y1="340.6621" y2="340.6621"/><line style="stroke: #A80036; stroke-width: 1.0;" x1="311.5" x2="311.5" y1="340.6621" y2="353.6621"/><line style="stroke: #A80036; stroke-width: 1.0;" x1="270.5" x2="311.5" y1="353.6621" y2="353.6621"/><polygon fill="#A80036" points="280.5,349.6621,270.5,353.6621,280.5,357.6621,276.5,353.6621" style="stroke: #A80036; stroke-width: 1.0;"/><text fill="#000000" font-family="sans-serif" font-size="13" lengthAdjust="spacingAndGlyphs" textLength="119" x="276.5" y="335.9199">mouseMoveEffect()</text><path d="M202,373.6621 L264,373.6621 L264,380.6621 L254,390.6621 L202,390.6621 L202,373.6621 " fill="#EEEEEE" style="stroke: #000000; stroke-width: 1.0;"/><rect fill="none" height="149.5078" style="stroke: #000000; stroke-width: 2.0;" width="464" x="202" y="373.6621"/><text fill="#000000" font-family="sans-serif" font-size="13" font-weight="bold" lengthAdjust="spacingAndGlyphs" textLength="17" x="217" y="387.2305">alt</text><text fill="#000000" font-family="sans-serif" font-size="11" font-weight="bold" lengthAdjust="spacingAndGlyphs" textLength="183" x="279" y="386.2969">[Mouse is in screen left or right]</text><polygon fill="#A80036" points="483.5,408.2832,493.5,412.2832,483.5,416.2832,487.5,412.2832" style="stroke: #A80036; stroke-width: 1.0;"/><line style="stroke: #A80036; stroke-width: 1.0;" x1="269.5" x2="489.5" y1="412.2832" y2="412.2832"/><text fill="#000000" font-family="sans-serif" font-size="13" lengthAdjust="spacingAndGlyphs" textLength="202" x="276.5" y="407.541">emit('editorRequestAutoScrollX')</text><polygon fill="#A80036" points="614.5,437.5938,624.5,441.5938,614.5,445.5938,618.5,441.5938" style="stroke: #A80036; stroke-width: 1.0;"/><line style="stroke: #A80036; stroke-width: 1.0;" x1="495.5" x2="620.5" y1="441.5938" y2="441.5938"/><text fill="#000000" font-family="sans-serif" font-size="13" lengthAdjust="spacingAndGlyphs" textLength="107" x="502.5" y="436.8516">autoScrollXEffect</text><line style="stroke: #000000; stroke-width: 1.0; stroke-dasharray: 2.0,2.0;" x1="202" x2="666" y1="450.5938" y2="450.5938"/><text fill="#000000" font-family="sans-serif" font-size="11" font-weight="bold" lengthAdjust="spacingAndGlyphs" textLength="143" x="207" y="461.2285">[Mouse is in middle area]</text><polygon fill="#A80036" points="483.5,481.8594,493.5,485.8594,483.5,489.8594,487.5,485.8594" style="stroke: #A80036; stroke-width: 1.0;"/><line style="stroke: #A80036; stroke-width: 1.0;" x1="269.5" x2="489.5" y1="485.8594" y2="485.8594"/><text fill="#000000" font-family="sans-serif" font-size="13" lengthAdjust="spacingAndGlyphs" textLength="194" x="276.5" y="481.1172">emit('editorCancelAutoScrollX')</text><polygon fill="#A80036" points="614.5,511.1699,624.5,515.1699,614.5,519.1699,618.5,515.1699" style="stroke: #A80036; stroke-width: 1.0;"/><line style="stroke: #A80036; stroke-width: 1.0;" x1="495.5" x2="620.5" y1="515.1699" y2="515.1699"/><text fill="#000000" font-family="sans-serif" font-size="13" lengthAdjust="spacingAndGlyphs" textLength="107" x="502.5" y="510.4277">autoScrollXEffect</text><polygon fill="#A80036" points="242.5,547.4805,252.5,551.4805,242.5,555.4805,246.5,551.4805" style="stroke: #A80036; stroke-width: 1.0;"/><line style="stroke: #A80036; stroke-width: 1.0;" x1="26.5" x2="248.5" y1="551.4805" y2="551.4805"/><text fill="#000000" font-family="sans-serif" font-size="13" lengthAdjust="spacingAndGlyphs" textLength="62" x="33.5" y="546.7383">mouse up</text><line style="stroke: #A80036; stroke-width: 1.0;" x1="264.5" x2="311.5" y1="575.791" y2="575.791"/><line style="stroke: #A80036; stroke-width: 1.0;" x1="311.5" x2="311.5" y1="575.791" y2="588.791"/><line style="stroke: #A80036; stroke-width: 1.0;" x1="270.5" x2="311.5" y1="588.791" y2="588.791"/><polygon fill="#A80036" points="280.5,584.791,270.5,588.791,280.5,592.791,276.5,588.791" style="stroke: #A80036; stroke-width: 1.0;"/><text fill="#000000" font-family="sans-serif" font-size="13" lengthAdjust="spacingAndGlyphs" textLength="103" x="276.5" y="571.0488">mouseUpEffect()</text><polygon fill="#A80036" points="483.5,619.1016,493.5,623.1016,483.5,627.1016,487.5,623.1016" style="stroke: #A80036; stroke-width: 1.0;"/><line style="stroke: #A80036; stroke-width: 1.0;" x1="269.5" x2="489.5" y1="623.1016" y2="623.1016"/><text fill="#000000" font-family="sans-serif" font-size="13" lengthAdjust="spacingAndGlyphs" textLength="194" x="276.5" y="618.3594">emit('editorCancelAutoScrollX')</text><polygon fill="#A80036" points="614.5,648.4121,624.5,652.4121,614.5,656.4121,618.5,652.4121" style="stroke: #A80036; stroke-width: 1.0;"/><line style="stroke: #A80036; stroke-width: 1.0;" x1="495.5" x2="620.5" y1="652.4121" y2="652.4121"/><text fill="#000000" font-family="sans-serif" font-size="13" lengthAdjust="spacingAndGlyphs" textLength="107" x="502.5" y="647.6699">autoScrollXEffect</text><polygon fill="#A80036" points="483.5,677.7227,493.5,681.7227,483.5,685.7227,487.5,681.7227" style="stroke: #A80036; stroke-width: 1.0;"/><line style="stroke: #A80036; stroke-width: 1.0;" x1="269.5" x2="489.5" y1="681.7227" y2="681.7227"/><text fill="#000000" font-family="sans-serif" font-size="13" lengthAdjust="spacingAndGlyphs" textLength="121" x="276.5" y="676.9805">setStretching(false)</text><polygon fill="#A80036" points="713.5,707.0332,723.5,711.0332,713.5,715.0332,717.5,711.0332" style="stroke: #A80036; stroke-width: 1.0;"/><line style="stroke: #A80036; stroke-width: 1.0;" x1="269.5" x2="719.5" y1="711.0332" y2="711.0332"/><text fill="#000000" font-family="sans-serif" font-size="13" lengthAdjust="spacingAndGlyphs" textLength="80" x="276.5" y="706.291">updateSlice()</text><polygon fill="#A80036" points="846.5,736.3438,856.5,740.3438,846.5,744.3438,850.5,740.3438" style="stroke: #A80036; stroke-width: 1.0;"/><line style="stroke: #A80036; stroke-width: 1.0;" x1="725.5" x2="852.5" y1="740.3438" y2="740.3438"/><text fill="#000000" font-family="sans-serif" font-size="13" lengthAdjust="spacingAndGlyphs" textLength="109" x="732.5" y="735.6016">updateSliceSaga()</text><polygon fill="#A80036" points="506.5,765.6543,496.5,769.6543,506.5,773.6543,502.5,769.6543" style="stroke: #A80036; stroke-width: 1.0;"/><line style="stroke: #A80036; stroke-width: 1.0;" x1="500.5" x2="986.5" y1="769.6543" y2="769.6543"/><text fill="#000000" font-family="sans-serif" font-size="13" lengthAdjust="spacingAndGlyphs" textLength="206" x="512.5" y="764.9121">emit('CHANNEL_UPDATE_SLICE');</text><polygon fill="#A80036" points="1115,794.9648,1125,798.9648,1115,802.9648,1119,798.9648" style="stroke: #A80036; stroke-width: 1.0;"/><line style="stroke: #A80036; stroke-width: 1.0;" x1="495.5" x2="1121" y1="798.9648" y2="798.9648"/><text fill="#000000" font-family="sans-serif" font-size="13" lengthAdjust="spacingAndGlyphs" textLength="84" x="502.5" y="794.2227">updateSlice();</text><!--
@startuml
actor User

User -> AudioBlock: user mouse down on stretch area
activate AudioBlock
AudioBlock -> AudioBlock: stretcherMouseDownHandler()
activate AudioBlock
AudioBlock -> AudioBlock: initDrag(e)
AudioBlock -> AudioBlock: setStretching('left' | 'right')
AudioBlock -> AudioBlock: stretchingEffect
note right: compute params and update block width and offset
deactivate AudioBlock
deactivate AudioBlock

User -> AudioBlock: mouse move
activate AudioBlock
AudioBlock -> AudioBlock: mouseMoveEffect()
activate AudioBlock
alt Mouse is in screen left or right
  AudioBlock -> EventEmitter: emit('editorRequestAutoScrollX')
  EventEmitter -> Editor: autoScrollXEffect
else Mouse is in middle area
  AudioBlock -> EventEmitter: emit('editorCancelAutoScrollX')
  EventEmitter -> Editor: autoScrollXEffect
end
deactivate AudioBlock
deactivate AudioBlock

User -> AudioBlock: mouse up
activate AudioBlock
AudioBlock -> AudioBlock: mouseUpEffect()
activate AudioBlock
  AudioBlock -> EventEmitter: emit('editorCancelAutoScrollX')
  EventEmitter -> Editor: autoScrollXEffect
  AudioBlock -> EventEmitter: setStretching(false)
  AudioBlock -> ChannelAction: updateSlice()
  ChannelAction -> ChannelSaga: updateSliceSaga()
  AudioEffectSaga -> EventEmitter: emit('CHANNEL_UPDATE_SLICE');
  EventEmitter -> AudioController: updateSlice();
deactivate AudioBlock
deactivate AudioBlock

@enduml

PlantUML version 1.2019.09(Tue Aug 27 00:19:51 CST 2019)
(GPL source distribution)
Java Runtime: OpenJDK Runtime Environment
JVM: OpenJDK 64-Bit Server VM
Java Version: 13.0.2+8
Operating System: Mac OS X
OS Version: 10.14.6
Default Encoding: UTF-8
Language: zh
Country: CN
--></g></svg>