<?xml version="1.0" encoding="UTF-8" standalone="no"?><svg xmlns="http://www.w3.org/2000/svg" xmlns:xlink="http://www.w3.org/1999/xlink" contentScriptType="application/ecmascript" contentStyleType="text/css" height="457px" preserveAspectRatio="none" style="width:1039px;height:457px;" version="1.1" viewBox="0 0 1039 457" width="1039px" zoomAndPan="magnify"><defs><filter height="300%" id="f1den23nbxkhgy" width="300%" x="-1" y="-1"><feGaussianBlur result="blurOut" stdDeviation="2.0"/><feColorMatrix in="blurOut" result="blurOut2" type="matrix" values="0 0 0 0 0 0 0 0 0 0 0 0 0 0 0 0 0 0 .4 0"/><feOffset dx="4.0" dy="4.0" in="blurOut2" result="blurOut3"/><feBlend in="SourceGraphic" in2="blurOut3" mode="normal"/></filter></defs><g><rect fill="#FFFFFF" filter="url(#f1den23nbxkhgy)" height="29.3105" style="stroke: #A80036; stroke-width: 1.0;" width="10" x="188.5" y="147.1094"/><rect fill="#FFFFFF" filter="url(#f1den23nbxkhgy)" height="29.3105" style="stroke: #A80036; stroke-width: 1.0;" width="10" x="188.5" y="235.041"/><line style="stroke: #A80036; stroke-width: 1.0; stroke-dasharray: 5.0,5.0;" x1="26" x2="26" y1="86.4883" y2="370.2832"/><line style="stroke: #A80036; stroke-width: 1.0; stroke-dasharray: 5.0,5.0;" x1="193.5" x2="193.5" y1="86.4883" y2="370.2832"/><line style="stroke: #A80036; stroke-width: 1.0; stroke-dasharray: 5.0,5.0;" x1="356" x2="356" y1="86.4883" y2="370.2832"/><line style="stroke: #A80036; stroke-width: 1.0; stroke-dasharray: 5.0,5.0;" x1="492" x2="492" y1="86.4883" y2="370.2832"/><line style="stroke: #A80036; stroke-width: 1.0; stroke-dasharray: 5.0,5.0;" x1="638" x2="638" y1="86.4883" y2="370.2832"/><line style="stroke: #A80036; stroke-width: 1.0; stroke-dasharray: 5.0,5.0;" x1="841" x2="841" y1="86.4883" y2="370.2832"/><line style="stroke: #A80036; stroke-width: 1.0; stroke-dasharray: 5.0,5.0;" x1="967" x2="967" y1="86.4883" y2="370.2832"/><text fill="#000000" font-family="sans-serif" font-size="14" lengthAdjust="spacingAndGlyphs" textLength="31" x="8" y="83.5352">User</text><ellipse cx="26.5" cy="13" fill="#FEFECE" filter="url(#f1den23nbxkhgy)" rx="8" ry="8" style="stroke: #A80036; stroke-width: 2.0;"/><path d="M26.5,21 L26.5,48 M13.5,29 L39.5,29 M26.5,48 L13.5,63 M26.5,48 L39.5,63 " fill="none" filter="url(#f1den23nbxkhgy)" style="stroke: #A80036; stroke-width: 2.0;"/><text fill="#000000" font-family="sans-serif" font-size="14" lengthAdjust="spacingAndGlyphs" textLength="31" x="8" y="382.8184">User</text><ellipse cx="26.5" cy="395.7715" fill="#FEFECE" filter="url(#f1den23nbxkhgy)" rx="8" ry="8" style="stroke: #A80036; stroke-width: 2.0;"/><path d="M26.5,403.7715 L26.5,430.7715 M13.5,411.7715 L39.5,411.7715 M26.5,430.7715 L13.5,445.7715 M26.5,430.7715 L39.5,445.7715 " fill="none" filter="url(#f1den23nbxkhgy)" style="stroke: #A80036; stroke-width: 2.0;"/><rect fill="#FEFECE" filter="url(#f1den23nbxkhgy)" height="30.4883" style="stroke: #A80036; stroke-width: 1.5;" width="86" x="148.5" y="51"/><text fill="#000000" font-family="sans-serif" font-size="14" lengthAdjust="spacingAndGlyphs" textLength="72" x="155.5" y="71.5352">Dropdown</text><rect fill="#FEFECE" filter="url(#f1den23nbxkhgy)" height="30.4883" style="stroke: #A80036; stroke-width: 1.5;" width="86" x="148.5" y="369.2832"/><text fill="#000000" font-family="sans-serif" font-size="14" lengthAdjust="spacingAndGlyphs" textLength="72" x="155.5" y="389.8184">Dropdown</text><rect fill="#FEFECE" filter="url(#f1den23nbxkhgy)" height="30.4883" style="stroke: #A80036; stroke-width: 1.5;" width="107" x="301" y="51"/><text fill="#000000" font-family="sans-serif" font-size="14" lengthAdjust="spacingAndGlyphs" textLength="93" x="308" y="71.5352">ContextMenu</text><rect fill="#FEFECE" filter="url(#f1den23nbxkhgy)" height="30.4883" style="stroke: #A80036; stroke-width: 1.5;" width="107" x="301" y="369.2832"/><text fill="#000000" font-family="sans-serif" font-size="14" lengthAdjust="spacingAndGlyphs" textLength="93" x="308" y="389.8184">ContextMenu</text><rect fill="#FEFECE" filter="url(#f1den23nbxkhgy)" height="30.4883" style="stroke: #A80036; stroke-width: 1.5;" width="137" x="422" y="51"/><text fill="#000000" font-family="sans-serif" font-size="14" lengthAdjust="spacingAndGlyphs" textLength="123" x="429" y="71.5352">AudioEffectAction</text><rect fill="#FEFECE" filter="url(#f1den23nbxkhgy)" height="30.4883" style="stroke: #A80036; stroke-width: 1.5;" width="137" x="422" y="369.2832"/><text fill="#000000" font-family="sans-serif" font-size="14" lengthAdjust="spacingAndGlyphs" textLength="123" x="429" y="389.8184">AudioEffectAction</text><rect fill="#FEFECE" filter="url(#f1den23nbxkhgy)" height="30.4883" style="stroke: #A80036; stroke-width: 1.5;" width="126" x="573" y="51"/><text fill="#000000" font-family="sans-serif" font-size="14" lengthAdjust="spacingAndGlyphs" textLength="112" x="580" y="71.5352">AudioEffectSaga</text><rect fill="#FEFECE" filter="url(#f1den23nbxkhgy)" height="30.4883" style="stroke: #A80036; stroke-width: 1.5;" width="126" x="573" y="369.2832"/><text fill="#000000" font-family="sans-serif" font-size="14" lengthAdjust="spacingAndGlyphs" textLength="112" x="580" y="389.8184">AudioEffectSaga</text><rect fill="#FEFECE" filter="url(#f1den23nbxkhgy)" height="30.4883" style="stroke: #A80036; stroke-width: 1.5;" width="100" x="789" y="51"/><text fill="#000000" font-family="sans-serif" font-size="14" lengthAdjust="spacingAndGlyphs" textLength="86" x="796" y="71.5352">EventEmitter</text><rect fill="#FEFECE" filter="url(#f1den23nbxkhgy)" height="30.4883" style="stroke: #A80036; stroke-width: 1.5;" width="100" x="789" y="369.2832"/><text fill="#000000" font-family="sans-serif" font-size="14" lengthAdjust="spacingAndGlyphs" textLength="86" x="796" y="389.8184">EventEmitter</text><rect fill="#FEFECE" filter="url(#f1den23nbxkhgy)" height="30.4883" style="stroke: #A80036; stroke-width: 1.5;" width="125" x="903" y="51"/><text fill="#000000" font-family="sans-serif" font-size="14" lengthAdjust="spacingAndGlyphs" textLength="111" x="910" y="71.5352">AudioController</text><rect fill="#FEFECE" filter="url(#f1den23nbxkhgy)" height="30.4883" style="stroke: #A80036; stroke-width: 1.5;" width="125" x="903" y="369.2832"/><text fill="#000000" font-family="sans-serif" font-size="14" lengthAdjust="spacingAndGlyphs" textLength="111" x="910" y="389.8184">AudioController</text><rect fill="#FFFFFF" filter="url(#f1den23nbxkhgy)" height="29.3105" style="stroke: #A80036; stroke-width: 1.0;" width="10" x="188.5" y="147.1094"/><rect fill="#FFFFFF" filter="url(#f1den23nbxkhgy)" height="29.3105" style="stroke: #A80036; stroke-width: 1.0;" width="10" x="188.5" y="235.041"/><polygon fill="#A80036" points="181.5,113.7988,191.5,117.7988,181.5,121.7988,185.5,117.7988" style="stroke: #A80036; stroke-width: 1.0;"/><line style="stroke: #A80036; stroke-width: 1.0;" x1="26.5" x2="187.5" y1="117.7988" y2="117.7988"/><text fill="#000000" font-family="sans-serif" font-size="13" lengthAdjust="spacingAndGlyphs" textLength="143" x="33.5" y="113.0566">handleContainerClick()</text><polygon fill="#A80036" points="176.5,143.1094,186.5,147.1094,176.5,151.1094,180.5,147.1094" style="stroke: #A80036; stroke-width: 1.0;"/><line style="stroke: #A80036; stroke-width: 1.0;" x1="26.5" x2="182.5" y1="147.1094" y2="147.1094"/><text fill="#000000" font-family="sans-serif" font-size="13" lengthAdjust="spacingAndGlyphs" textLength="124" x="33.5" y="142.3672">handleEffectMenu();</text><polygon fill="#A80036" points="344.5,172.4199,354.5,176.4199,344.5,180.4199,348.5,176.4199" style="stroke: #A80036; stroke-width: 1.0;"/><line style="stroke: #A80036; stroke-width: 1.0;" x1="193.5" x2="350.5" y1="176.4199" y2="176.4199"/><text fill="#000000" font-family="sans-serif" font-size="13" lengthAdjust="spacingAndGlyphs" textLength="134" x="200.5" y="171.6777">createContextMenu();</text><polygon fill="#A80036" points="344.5,201.7305,354.5,205.7305,344.5,209.7305,348.5,205.7305" style="stroke: #A80036; stroke-width: 1.0;"/><line style="stroke: #A80036; stroke-width: 1.0;" x1="26.5" x2="350.5" y1="205.7305" y2="205.7305"/><text fill="#000000" font-family="sans-serif" font-size="13" lengthAdjust="spacingAndGlyphs" textLength="30" x="33.5" y="200.9883">click</text><polygon fill="#A80036" points="209.5,231.041,199.5,235.041,209.5,239.041,205.5,235.041" style="stroke: #A80036; stroke-width: 1.0;"/><line style="stroke: #A80036; stroke-width: 1.0;" x1="203.5" x2="355.5" y1="235.041" y2="235.041"/><text fill="#000000" font-family="sans-serif" font-size="13" lengthAdjust="spacingAndGlyphs" textLength="59" x="215.5" y="230.2988">handler();</text><polygon fill="#A80036" points="480.5,260.3516,490.5,264.3516,480.5,268.3516,484.5,264.3516" style="stroke: #A80036; stroke-width: 1.0;"/><line style="stroke: #A80036; stroke-width: 1.0;" x1="193.5" x2="486.5" y1="264.3516" y2="264.3516"/><text fill="#000000" font-family="sans-serif" font-size="13" lengthAdjust="spacingAndGlyphs" textLength="67" x="200.5" y="259.6094">addEffect()</text><polygon fill="#A80036" points="626,289.6621,636,293.6621,626,297.6621,630,293.6621" style="stroke: #A80036; stroke-width: 1.0;"/><line style="stroke: #A80036; stroke-width: 1.0;" x1="492.5" x2="632" y1="293.6621" y2="293.6621"/><text fill="#000000" font-family="sans-serif" font-size="13" lengthAdjust="spacingAndGlyphs" textLength="96" x="499.5" y="288.9199">addEffectSaga()</text><polygon fill="#A80036" points="829,318.9727,839,322.9727,829,326.9727,833,322.9727" style="stroke: #A80036; stroke-width: 1.0;"/><line style="stroke: #A80036; stroke-width: 1.0;" x1="638" x2="835" y1="322.9727" y2="322.9727"/><text fill="#000000" font-family="sans-serif" font-size="13" lengthAdjust="spacingAndGlyphs" textLength="179" x="645" y="318.2305">emit('EFFECT_ADD_EFFECT');</text><polygon fill="#A80036" points="955.5,348.2832,965.5,352.2832,955.5,356.2832,959.5,352.2832" style="stroke: #A80036; stroke-width: 1.0;"/><line style="stroke: #A80036; stroke-width: 1.0;" x1="841" x2="961.5" y1="352.2832" y2="352.2832"/><text fill="#000000" font-family="sans-serif" font-size="13" lengthAdjust="spacingAndGlyphs" textLength="71" x="848" y="347.541">addEffect();</text><!--
@startuml
actor User

User -> Dropdown: handleContainerClick()
User -> Dropdown: handleEffectMenu();
activate Dropdown
Dropdown -> ContextMenu: createContextMenu();
deactivate Dropdown
User -> ContextMenu: click
ContextMenu -> Dropdown: handler();
activate Dropdown
Dropdown -> AudioEffectAction: addEffect()
deactivate Dropdown
AudioEffectAction -> AudioEffectSaga: addEffectSaga()
AudioEffectSaga -> EventEmitter: emit('EFFECT_ADD_EFFECT');
EventEmitter -> AudioController: addEffect();
@enduml

PlantUML version 1.2019.09(Tue Aug 27 00:19:51 CST 2019)
(GPL source distribution)
Java Runtime: OpenJDK Runtime Environment
JVM: OpenJDK 64-Bit Server VM
Java Version: 13.0.2+8
Operating System: Mac OS X
OS Version: 10.14.6
Default Encoding: UTF-8
Language: zh
Country: CN
--></g></svg>