<?xml version="1.0" encoding="UTF-8" standalone="no"?><svg xmlns="http://www.w3.org/2000/svg" xmlns:xlink="http://www.w3.org/1999/xlink" contentScriptType="application/ecmascript" contentStyleType="text/css" height="262px" preserveAspectRatio="none" style="width:338px;height:262px;" version="1.1" viewBox="0 0 338 262" width="338px" zoomAndPan="magnify"><defs><filter height="300%" id="f1timgbe6val9j" width="300%" x="-1" y="-1"><feGaussianBlur result="blurOut" stdDeviation="2.0"/><feColorMatrix in="blurOut" result="blurOut2" type="matrix" values="0 0 0 0 0 0 0 0 0 0 0 0 0 0 0 0 0 0 .4 0"/><feOffset dx="4.0" dy="4.0" in="blurOut2" result="blurOut3"/><feBlend in="SourceGraphic" in2="blurOut3" mode="normal"/></filter></defs><g><rect fill="#FFFFFF" filter="url(#f1timgbe6val9j)" height="31.7544" style="stroke: #A80036; stroke-width: 1.0;" width="10" x="146.5" y="122.8745"/><line style="stroke: #A80036; stroke-width: 1.0; stroke-dasharray: 5.0,5.0;" x1="25" x2="25" y1="89.1201" y2="172.6289"/><line style="stroke: #A80036; stroke-width: 1.0; stroke-dasharray: 5.0,5.0;" x1="151.5" x2="151.5" y1="89.1201" y2="172.6289"/><line style="stroke: #A80036; stroke-width: 1.0; stroke-dasharray: 5.0,5.0;" x1="266.5" x2="266.5" y1="89.1201" y2="172.6289"/><text fill="#000000" font-family="sans-serif" font-size="14" lengthAdjust="spacingAndGlyphs" textLength="29" x="8" y="86.0439">User</text><ellipse cx="25.5" cy="13" fill="#FEFECE" filter="url(#f1timgbe6val9j)" rx="8" ry="8" style="stroke: #A80036; stroke-width: 2.0;"/><path d="M25.5,21 L25.5,48 M12.5,29 L38.5,29 M25.5,48 L12.5,63 M25.5,48 L38.5,63 " fill="none" filter="url(#f1timgbe6val9j)" style="stroke: #A80036; stroke-width: 2.0;"/><text fill="#000000" font-family="sans-serif" font-size="14" lengthAdjust="spacingAndGlyphs" textLength="29" x="8" y="187.6729">User</text><ellipse cx="25.5" cy="200.749" fill="#FEFECE" filter="url(#f1timgbe6val9j)" rx="8" ry="8" style="stroke: #A80036; stroke-width: 2.0;"/><path d="M25.5,208.749 L25.5,235.749 M12.5,216.749 L38.5,216.749 M25.5,235.749 L12.5,250.749 M25.5,235.749 L38.5,250.749 " fill="none" filter="url(#f1timgbe6val9j)" style="stroke: #A80036; stroke-width: 2.0;"/><rect fill="#FEFECE" filter="url(#f1timgbe6val9j)" height="33.1201" style="stroke: #A80036; stroke-width: 1.5;" width="78" x="110.5" y="51"/><text fill="#000000" font-family="sans-serif" font-size="14" lengthAdjust="spacingAndGlyphs" textLength="64" x="117.5" y="74.0439">Dropdown</text><rect fill="#FEFECE" filter="url(#f1timgbe6val9j)" height="33.1201" style="stroke: #A80036; stroke-width: 1.5;" width="78" x="110.5" y="171.6289"/><text fill="#000000" font-family="sans-serif" font-size="14" lengthAdjust="spacingAndGlyphs" textLength="64" x="117.5" y="194.6729">Dropdown</text><rect fill="#FEFECE" filter="url(#f1timgbe6val9j)" height="33.1201" style="stroke: #A80036; stroke-width: 1.5;" width="125" x="202.5" y="51"/><text fill="#000000" font-family="sans-serif" font-size="14" lengthAdjust="spacingAndGlyphs" textLength="111" x="209.5" y="74.0439">AudioEffectAction</text><rect fill="#FEFECE" filter="url(#f1timgbe6val9j)" height="33.1201" style="stroke: #A80036; stroke-width: 1.5;" width="125" x="202.5" y="171.6289"/><text fill="#000000" font-family="sans-serif" font-size="14" lengthAdjust="spacingAndGlyphs" textLength="111" x="209.5" y="194.6729">AudioEffectAction</text><rect fill="#FFFFFF" filter="url(#f1timgbe6val9j)" height="31.7544" style="stroke: #A80036; stroke-width: 1.0;" width="10" x="146.5" y="122.8745"/><polygon fill="#A80036" points="134.5,118.8745,144.5,122.8745,134.5,126.8745,138.5,122.8745" style="stroke: #A80036; stroke-width: 1.0;"/><line style="stroke: #A80036; stroke-width: 1.0;" x1="25.5" x2="140.5" y1="122.8745" y2="122.8745"/><text fill="#000000" font-family="sans-serif" font-size="13" lengthAdjust="spacingAndGlyphs" textLength="102" x="32.5" y="118.0181">handleAddEffect()</text><polygon fill="#A80036" points="255,150.6289,265,154.6289,255,158.6289,259,154.6289" style="stroke: #A80036; stroke-width: 1.0;"/><line style="stroke: #A80036; stroke-width: 1.0;" x1="151.5" x2="261" y1="154.6289" y2="154.6289"/><text fill="#000000" font-family="sans-serif" font-size="13" lengthAdjust="spacingAndGlyphs" textLength="62" x="158.5" y="149.7725">addEffect()</text><!--
@startuml
actor User

User -> Dropdown: handleAddEffect()
activate Dropdown
Dropdown -> AudioEffectAction: addEffect()
deactivate Dropdown
@enduml

PlantUML version 1.2019.09(Tue Aug 27 00:19:51 CST 2019)
(GPL source distribution)
Java Runtime: Java(TM) SE Runtime Environment
JVM: Java HotSpot(TM) 64-Bit Server VM
Java Version: 12+33
Operating System: Windows 10
OS Version: 10.0
Default Encoding: GBK
Language: zh
Country: CN
--></g></svg>