<?xml version="1.0" encoding="UTF-8" standalone="no"?><svg xmlns="http://www.w3.org/2000/svg" xmlns:xlink="http://www.w3.org/1999/xlink" contentScriptType="application/ecmascript" contentStyleType="text/css" height="382px" preserveAspectRatio="none" style="width:466px;height:382px;" version="1.1" viewBox="0 0 466 382" width="466px" zoomAndPan="magnify"><defs><filter height="300%" id="f515xyzt1lkva" width="300%" x="-1" y="-1"><feGaussianBlur result="blurOut" stdDeviation="2.0"/><feColorMatrix in="blurOut" result="blurOut2" type="matrix" values="0 0 0 0 0 0 0 0 0 0 0 0 0 0 0 0 0 0 .4 0"/><feOffset dx="4.0" dy="4.0" in="blurOut2" result="blurOut3"/><feBlend in="SourceGraphic" in2="blurOut3" mode="normal"/></filter></defs><g><rect fill="#FFFFFF" filter="url(#f515xyzt1lkva)" height="159.5527" style="stroke: #A80036; stroke-width: 1.0;" width="10" x="114.5" y="117.7988"/><rect fill="#FFFFFF" filter="url(#f515xyzt1lkva)" height="92.9316" style="stroke: #A80036; stroke-width: 1.0;" width="10" x="269.5" y="155.1094"/><line style="stroke: #A80036; stroke-width: 1.0; stroke-dasharray: 5.0,5.0;" x1="26" x2="26" y1="86.4883" y2="295.3516"/><line style="stroke: #A80036; stroke-width: 1.0; stroke-dasharray: 5.0,5.0;" x1="119.5" x2="119.5" y1="86.4883" y2="295.3516"/><line style="stroke: #A80036; stroke-width: 1.0; stroke-dasharray: 5.0,5.0;" x1="274" x2="274" y1="86.4883" y2="295.3516"/><line style="stroke: #A80036; stroke-width: 1.0; stroke-dasharray: 5.0,5.0;" x1="399" x2="399" y1="86.4883" y2="295.3516"/><text fill="#000000" font-family="sans-serif" font-size="14" lengthAdjust="spacingAndGlyphs" textLength="31" x="8" y="83.5352">User</text><ellipse cx="26.5" cy="13" fill="#FEFECE" filter="url(#f515xyzt1lkva)" rx="8" ry="8" style="stroke: #A80036; stroke-width: 2.0;"/><path d="M26.5,21 L26.5,48 M13.5,29 L39.5,29 M26.5,48 L13.5,63 M26.5,48 L39.5,63 " fill="none" filter="url(#f515xyzt1lkva)" style="stroke: #A80036; stroke-width: 2.0;"/><text fill="#000000" font-family="sans-serif" font-size="14" lengthAdjust="spacingAndGlyphs" textLength="31" x="8" y="307.8867">User</text><ellipse cx="26.5" cy="320.8398" fill="#FEFECE" filter="url(#f515xyzt1lkva)" rx="8" ry="8" style="stroke: #A80036; stroke-width: 2.0;"/><path d="M26.5,328.8398 L26.5,355.8398 M13.5,336.8398 L39.5,336.8398 M26.5,355.8398 L13.5,370.8398 M26.5,355.8398 L39.5,370.8398 " fill="none" filter="url(#f515xyzt1lkva)" style="stroke: #A80036; stroke-width: 2.0;"/><rect fill="#FEFECE" filter="url(#f515xyzt1lkva)" height="30.4883" style="stroke: #A80036; stroke-width: 1.5;" width="112" x="61.5" y="51"/><text fill="#000000" font-family="sans-serif" font-size="14" lengthAdjust="spacingAndGlyphs" textLength="98" x="68.5" y="71.5352">AudioChannel</text><rect fill="#FEFECE" filter="url(#f515xyzt1lkva)" height="30.4883" style="stroke: #A80036; stroke-width: 1.5;" width="112" x="61.5" y="294.3516"/><text fill="#000000" font-family="sans-serif" font-size="14" lengthAdjust="spacingAndGlyphs" textLength="98" x="68.5" y="314.8867">AudioChannel</text><rect fill="#FEFECE" filter="url(#f515xyzt1lkva)" height="30.4883" style="stroke: #A80036; stroke-width: 1.5;" width="107" x="219" y="51"/><text fill="#000000" font-family="sans-serif" font-size="14" lengthAdjust="spacingAndGlyphs" textLength="93" x="226" y="71.5352">ContextMenu</text><rect fill="#FEFECE" filter="url(#f515xyzt1lkva)" height="30.4883" style="stroke: #A80036; stroke-width: 1.5;" width="107" x="219" y="294.3516"/><text fill="#000000" font-family="sans-serif" font-size="14" lengthAdjust="spacingAndGlyphs" textLength="93" x="226" y="314.8867">ContextMenu</text><rect fill="#FEFECE" filter="url(#f515xyzt1lkva)" height="30.4883" style="stroke: #A80036; stroke-width: 1.5;" width="115" x="340" y="51"/><text fill="#000000" font-family="sans-serif" font-size="14" lengthAdjust="spacingAndGlyphs" textLength="101" x="347" y="71.5352">ChannelAction</text><rect fill="#FEFECE" filter="url(#f515xyzt1lkva)" height="30.4883" style="stroke: #A80036; stroke-width: 1.5;" width="115" x="340" y="294.3516"/><text fill="#000000" font-family="sans-serif" font-size="14" lengthAdjust="spacingAndGlyphs" textLength="101" x="347" y="314.8867">ChannelAction</text><rect fill="#FFFFFF" filter="url(#f515xyzt1lkva)" height="159.5527" style="stroke: #A80036; stroke-width: 1.0;" width="10" x="114.5" y="117.7988"/><rect fill="#FFFFFF" filter="url(#f515xyzt1lkva)" height="92.9316" style="stroke: #A80036; stroke-width: 1.0;" width="10" x="269.5" y="155.1094"/><polygon fill="#A80036" points="102.5,113.7988,112.5,117.7988,102.5,121.7988,106.5,117.7988" style="stroke: #A80036; stroke-width: 1.0;"/><line style="stroke: #A80036; stroke-width: 1.0;" x1="26.5" x2="108.5" y1="117.7988" y2="117.7988"/><text fill="#000000" font-family="sans-serif" font-size="13" lengthAdjust="spacingAndGlyphs" textLength="69" x="33.5" y="113.0566">Right Click</text><line style="stroke: #A80036; stroke-width: 1.0;" x1="124.5" x2="171.5" y1="142.1094" y2="142.1094"/><line style="stroke: #A80036; stroke-width: 1.0;" x1="171.5" x2="171.5" y1="142.1094" y2="155.1094"/><line style="stroke: #A80036; stroke-width: 1.0;" x1="130.5" x2="171.5" y1="155.1094" y2="155.1094"/><polygon fill="#A80036" points="140.5,151.1094,130.5,155.1094,140.5,159.1094,136.5,155.1094" style="stroke: #A80036; stroke-width: 1.0;"/><text fill="#000000" font-family="sans-serif" font-size="13" lengthAdjust="spacingAndGlyphs" textLength="131" x="136.5" y="137.3672">contextMenuHandler</text><polygon fill="#A80036" points="257.5,185.4199,267.5,189.4199,257.5,193.4199,261.5,189.4199" style="stroke: #A80036; stroke-width: 1.0;"/><line style="stroke: #A80036; stroke-width: 1.0;" x1="124.5" x2="263.5" y1="189.4199" y2="189.4199"/><text fill="#000000" font-family="sans-serif" font-size="13" lengthAdjust="spacingAndGlyphs" textLength="40" x="131.5" y="184.6777">render</text><polygon fill="#A80036" points="257.5,214.7305,267.5,218.7305,257.5,222.7305,261.5,218.7305" style="stroke: #A80036; stroke-width: 1.0;"/><line style="stroke: #A80036; stroke-width: 1.0;" x1="26.5" x2="263.5" y1="218.7305" y2="218.7305"/><text fill="#000000" font-family="sans-serif" font-size="13" lengthAdjust="spacingAndGlyphs" textLength="86" x="33.5" y="213.9883">Click "Delete"</text><polygon fill="#A80036" points="135.5,244.041,125.5,248.041,135.5,252.041,131.5,248.041" style="stroke: #A80036; stroke-width: 1.0;"/><line style="stroke: #A80036; stroke-width: 1.0;" x1="129.5" x2="273.5" y1="248.041" y2="248.041"/><text fill="#000000" font-family="sans-serif" font-size="13" lengthAdjust="spacingAndGlyphs" textLength="87" x="141.5" y="243.2988">deleteHandler</text><polygon fill="#A80036" points="387.5,273.3516,397.5,277.3516,387.5,281.3516,391.5,277.3516" style="stroke: #A80036; stroke-width: 1.0;"/><line style="stroke: #A80036; stroke-width: 1.0;" x1="119.5" x2="393.5" y1="277.3516" y2="277.3516"/><text fill="#000000" font-family="sans-serif" font-size="13" lengthAdjust="spacingAndGlyphs" textLength="132" x="126.5" y="272.6094">deleteChannel(index)</text><!--
@startuml
actor User

User -> AudioChannel: Right Click
activate AudioChannel
AudioChannel -> AudioChannel: contextMenuHandler

activate ContextMenu
AudioChannel -> ContextMenu: render
User -> ContextMenu: Click "Delete"
ContextMenu -> AudioChannel: deleteHandler
deactivate ContextMenu
AudioChannel -> ChannelAction: deleteChannel(index)
deactivate AudioChannel

@enduml

PlantUML version 1.2019.09(Tue Aug 27 00:19:51 CST 2019)
(GPL source distribution)
Java Runtime: OpenJDK Runtime Environment
JVM: OpenJDK 64-Bit Server VM
Java Version: 13.0.2+8
Operating System: Mac OS X
OS Version: 10.14.6
Default Encoding: UTF-8
Language: zh
Country: CN
--></g></svg>