<?xml version="1.0" encoding="UTF-8" standalone="no"?><svg xmlns="http://www.w3.org/2000/svg" xmlns:xlink="http://www.w3.org/1999/xlink" contentScriptType="application/ecmascript" contentStyleType="text/css" height="470px" preserveAspectRatio="none" style="width:1000px;height:470px;" version="1.1" viewBox="0 0 1000 470" width="1000px" zoomAndPan="magnify"><defs><filter height="300%" id="fsgec5y4xxvod" width="300%" x="-1" y="-1"><feGaussianBlur result="blurOut" stdDeviation="2.0"/><feColorMatrix in="blurOut" result="blurOut2" type="matrix" values="0 0 0 0 0 0 0 0 0 0 0 0 0 0 0 0 0 0 .4 0"/><feOffset dx="4.0" dy="4.0" in="blurOut2" result="blurOut3"/><feBlend in="SourceGraphic" in2="blurOut3" mode="normal"/></filter></defs><g><rect fill="#FFFFFF" filter="url(#fsgec5y4xxvod)" height="159.5527" style="stroke: #A80036; stroke-width: 1.0;" width="10" x="114.5" y="117.7988"/><rect fill="#FFFFFF" filter="url(#fsgec5y4xxvod)" height="92.9316" style="stroke: #A80036; stroke-width: 1.0;" width="10" x="269.5" y="155.1094"/><line style="stroke: #A80036; stroke-width: 1.0; stroke-dasharray: 5.0,5.0;" x1="26" x2="26" y1="86.4883" y2="383.2832"/><line style="stroke: #A80036; stroke-width: 1.0; stroke-dasharray: 5.0,5.0;" x1="119.5" x2="119.5" y1="86.4883" y2="383.2832"/><line style="stroke: #A80036; stroke-width: 1.0; stroke-dasharray: 5.0,5.0;" x1="274" x2="274" y1="86.4883" y2="383.2832"/><line style="stroke: #A80036; stroke-width: 1.0; stroke-dasharray: 5.0,5.0;" x1="399" x2="399" y1="86.4883" y2="383.2832"/><line style="stroke: #A80036; stroke-width: 1.0; stroke-dasharray: 5.0,5.0;" x1="549.5" x2="549.5" y1="86.4883" y2="383.2832"/><line style="stroke: #A80036; stroke-width: 1.0; stroke-dasharray: 5.0,5.0;" x1="799.5" x2="799.5" y1="86.4883" y2="383.2832"/><line style="stroke: #A80036; stroke-width: 1.0; stroke-dasharray: 5.0,5.0;" x1="928" x2="928" y1="86.4883" y2="383.2832"/><text fill="#000000" font-family="sans-serif" font-size="14" lengthAdjust="spacingAndGlyphs" textLength="31" x="8" y="83.5352">User</text><ellipse cx="26.5" cy="13" fill="#FEFECE" filter="url(#fsgec5y4xxvod)" rx="8" ry="8" style="stroke: #A80036; stroke-width: 2.0;"/><path d="M26.5,21 L26.5,48 M13.5,29 L39.5,29 M26.5,48 L13.5,63 M26.5,48 L39.5,63 " fill="none" filter="url(#fsgec5y4xxvod)" style="stroke: #A80036; stroke-width: 2.0;"/><text fill="#000000" font-family="sans-serif" font-size="14" lengthAdjust="spacingAndGlyphs" textLength="31" x="8" y="395.8184">User</text><ellipse cx="26.5" cy="408.7715" fill="#FEFECE" filter="url(#fsgec5y4xxvod)" rx="8" ry="8" style="stroke: #A80036; stroke-width: 2.0;"/><path d="M26.5,416.7715 L26.5,443.7715 M13.5,424.7715 L39.5,424.7715 M26.5,443.7715 L13.5,458.7715 M26.5,443.7715 L39.5,458.7715 " fill="none" filter="url(#fsgec5y4xxvod)" style="stroke: #A80036; stroke-width: 2.0;"/><rect fill="#FEFECE" filter="url(#fsgec5y4xxvod)" height="30.4883" style="stroke: #A80036; stroke-width: 1.5;" width="112" x="61.5" y="51"/><text fill="#000000" font-family="sans-serif" font-size="14" lengthAdjust="spacingAndGlyphs" textLength="98" x="68.5" y="71.5352">AudioChannel</text><rect fill="#FEFECE" filter="url(#fsgec5y4xxvod)" height="30.4883" style="stroke: #A80036; stroke-width: 1.5;" width="112" x="61.5" y="382.2832"/><text fill="#000000" font-family="sans-serif" font-size="14" lengthAdjust="spacingAndGlyphs" textLength="98" x="68.5" y="402.8184">AudioChannel</text><rect fill="#FEFECE" filter="url(#fsgec5y4xxvod)" height="30.4883" style="stroke: #A80036; stroke-width: 1.5;" width="107" x="219" y="51"/><text fill="#000000" font-family="sans-serif" font-size="14" lengthAdjust="spacingAndGlyphs" textLength="93" x="226" y="71.5352">ContextMenu</text><rect fill="#FEFECE" filter="url(#fsgec5y4xxvod)" height="30.4883" style="stroke: #A80036; stroke-width: 1.5;" width="107" x="219" y="382.2832"/><text fill="#000000" font-family="sans-serif" font-size="14" lengthAdjust="spacingAndGlyphs" textLength="93" x="226" y="402.8184">ContextMenu</text><rect fill="#FEFECE" filter="url(#fsgec5y4xxvod)" height="30.4883" style="stroke: #A80036; stroke-width: 1.5;" width="115" x="340" y="51"/><text fill="#000000" font-family="sans-serif" font-size="14" lengthAdjust="spacingAndGlyphs" textLength="101" x="347" y="71.5352">ChannelAction</text><rect fill="#FEFECE" filter="url(#fsgec5y4xxvod)" height="30.4883" style="stroke: #A80036; stroke-width: 1.5;" width="115" x="340" y="382.2832"/><text fill="#000000" font-family="sans-serif" font-size="14" lengthAdjust="spacingAndGlyphs" textLength="101" x="347" y="402.8184">ChannelAction</text><rect fill="#FEFECE" filter="url(#fsgec5y4xxvod)" height="30.4883" style="stroke: #A80036; stroke-width: 1.5;" width="104" x="495.5" y="51"/><text fill="#000000" font-family="sans-serif" font-size="14" lengthAdjust="spacingAndGlyphs" textLength="90" x="502.5" y="71.5352">ChannelSaga</text><rect fill="#FEFECE" filter="url(#fsgec5y4xxvod)" height="30.4883" style="stroke: #A80036; stroke-width: 1.5;" width="104" x="495.5" y="382.2832"/><text fill="#000000" font-family="sans-serif" font-size="14" lengthAdjust="spacingAndGlyphs" textLength="90" x="502.5" y="402.8184">ChannelSaga</text><rect fill="#FEFECE" filter="url(#fsgec5y4xxvod)" height="30.4883" style="stroke: #A80036; stroke-width: 1.5;" width="100" x="747.5" y="51"/><text fill="#000000" font-family="sans-serif" font-size="14" lengthAdjust="spacingAndGlyphs" textLength="86" x="754.5" y="71.5352">EventEmitter</text><rect fill="#FEFECE" filter="url(#fsgec5y4xxvod)" height="30.4883" style="stroke: #A80036; stroke-width: 1.5;" width="100" x="747.5" y="382.2832"/><text fill="#000000" font-family="sans-serif" font-size="14" lengthAdjust="spacingAndGlyphs" textLength="86" x="754.5" y="402.8184">EventEmitter</text><rect fill="#FEFECE" filter="url(#fsgec5y4xxvod)" height="30.4883" style="stroke: #A80036; stroke-width: 1.5;" width="125" x="864" y="51"/><text fill="#000000" font-family="sans-serif" font-size="14" lengthAdjust="spacingAndGlyphs" textLength="111" x="871" y="71.5352">AudioController</text><rect fill="#FEFECE" filter="url(#fsgec5y4xxvod)" height="30.4883" style="stroke: #A80036; stroke-width: 1.5;" width="125" x="864" y="382.2832"/><text fill="#000000" font-family="sans-serif" font-size="14" lengthAdjust="spacingAndGlyphs" textLength="111" x="871" y="402.8184">AudioController</text><rect fill="#FFFFFF" filter="url(#fsgec5y4xxvod)" height="159.5527" style="stroke: #A80036; stroke-width: 1.0;" width="10" x="114.5" y="117.7988"/><rect fill="#FFFFFF" filter="url(#fsgec5y4xxvod)" height="92.9316" style="stroke: #A80036; stroke-width: 1.0;" width="10" x="269.5" y="155.1094"/><polygon fill="#A80036" points="102.5,113.7988,112.5,117.7988,102.5,121.7988,106.5,117.7988" style="stroke: #A80036; stroke-width: 1.0;"/><line style="stroke: #A80036; stroke-width: 1.0;" x1="26.5" x2="108.5" y1="117.7988" y2="117.7988"/><text fill="#000000" font-family="sans-serif" font-size="13" lengthAdjust="spacingAndGlyphs" textLength="69" x="33.5" y="113.0566">Right Click</text><line style="stroke: #A80036; stroke-width: 1.0;" x1="124.5" x2="171.5" y1="142.1094" y2="142.1094"/><line style="stroke: #A80036; stroke-width: 1.0;" x1="171.5" x2="171.5" y1="142.1094" y2="155.1094"/><line style="stroke: #A80036; stroke-width: 1.0;" x1="130.5" x2="171.5" y1="155.1094" y2="155.1094"/><polygon fill="#A80036" points="140.5,151.1094,130.5,155.1094,140.5,159.1094,136.5,155.1094" style="stroke: #A80036; stroke-width: 1.0;"/><text fill="#000000" font-family="sans-serif" font-size="13" lengthAdjust="spacingAndGlyphs" textLength="131" x="136.5" y="137.3672">contextMenuHandler</text><polygon fill="#A80036" points="257.5,185.4199,267.5,189.4199,257.5,193.4199,261.5,189.4199" style="stroke: #A80036; stroke-width: 1.0;"/><line style="stroke: #A80036; stroke-width: 1.0;" x1="124.5" x2="263.5" y1="189.4199" y2="189.4199"/><text fill="#000000" font-family="sans-serif" font-size="13" lengthAdjust="spacingAndGlyphs" textLength="40" x="131.5" y="184.6777">render</text><polygon fill="#A80036" points="257.5,214.7305,267.5,218.7305,257.5,222.7305,261.5,218.7305" style="stroke: #A80036; stroke-width: 1.0;"/><line style="stroke: #A80036; stroke-width: 1.0;" x1="26.5" x2="263.5" y1="218.7305" y2="218.7305"/><text fill="#000000" font-family="sans-serif" font-size="13" lengthAdjust="spacingAndGlyphs" textLength="86" x="33.5" y="213.9883">Click "Delete"</text><polygon fill="#A80036" points="135.5,244.041,125.5,248.041,135.5,252.041,131.5,248.041" style="stroke: #A80036; stroke-width: 1.0;"/><line style="stroke: #A80036; stroke-width: 1.0;" x1="129.5" x2="273.5" y1="248.041" y2="248.041"/><text fill="#000000" font-family="sans-serif" font-size="13" lengthAdjust="spacingAndGlyphs" textLength="87" x="141.5" y="243.2988">deleteHandler</text><polygon fill="#A80036" points="387.5,273.3516,397.5,277.3516,387.5,281.3516,391.5,277.3516" style="stroke: #A80036; stroke-width: 1.0;"/><line style="stroke: #A80036; stroke-width: 1.0;" x1="119.5" x2="393.5" y1="277.3516" y2="277.3516"/><text fill="#000000" font-family="sans-serif" font-size="13" lengthAdjust="spacingAndGlyphs" textLength="132" x="126.5" y="272.6094">deleteChannel(index)</text><polygon fill="#A80036" points="537.5,302.6621,547.5,306.6621,537.5,310.6621,541.5,306.6621" style="stroke: #A80036; stroke-width: 1.0;"/><line style="stroke: #A80036; stroke-width: 1.0;" x1="399.5" x2="543.5" y1="306.6621" y2="306.6621"/><text fill="#000000" font-family="sans-serif" font-size="13" lengthAdjust="spacingAndGlyphs" textLength="126" x="406.5" y="301.9199">deleteChannelSaga()</text><polygon fill="#A80036" points="787.5,331.9727,797.5,335.9727,787.5,339.9727,791.5,335.9727" style="stroke: #A80036; stroke-width: 1.0;"/><line style="stroke: #A80036; stroke-width: 1.0;" x1="549.5" x2="793.5" y1="335.9727" y2="335.9727"/><text fill="#000000" font-family="sans-serif" font-size="13" lengthAdjust="spacingAndGlyphs" textLength="226" x="556.5" y="331.2305">emit('CHANNEL_DELETE_CHANNEL')</text><polygon fill="#A80036" points="916.5,361.2832,926.5,365.2832,916.5,369.2832,920.5,365.2832" style="stroke: #A80036; stroke-width: 1.0;"/><line style="stroke: #A80036; stroke-width: 1.0;" x1="799.5" x2="922.5" y1="365.2832" y2="365.2832"/><text fill="#000000" font-family="sans-serif" font-size="13" lengthAdjust="spacingAndGlyphs" textLength="105" x="806.5" y="360.541">removeChannel()</text><!--
@startuml
actor User

User -> AudioChannel: Right Click
activate AudioChannel
AudioChannel -> AudioChannel: contextMenuHandler

activate ContextMenu
AudioChannel -> ContextMenu: render
User -> ContextMenu: Click "Delete"
ContextMenu -> AudioChannel: deleteHandler
deactivate ContextMenu
AudioChannel -> ChannelAction: deleteChannel(index)
deactivate AudioChannel
ChannelAction -> ChannelSaga: deleteChannelSaga()
ChannelSaga -> EventEmitter: emit('CHANNEL_DELETE_CHANNEL')
EventEmitter -> AudioController: removeChannel()

@enduml

PlantUML version 1.2019.09(Tue Aug 27 00:19:51 CST 2019)
(GPL source distribution)
Java Runtime: OpenJDK Runtime Environment
JVM: OpenJDK 64-Bit Server VM
Java Version: 13.0.2+8
Operating System: Mac OS X
OS Version: 10.14.6
Default Encoding: UTF-8
Language: zh
Country: CN
--></g></svg>