<?xml version="1.0" encoding="UTF-8" standalone="no"?><svg xmlns="http://www.w3.org/2000/svg" xmlns:xlink="http://www.w3.org/1999/xlink" contentScriptType="application/ecmascript" contentStyleType="text/css" height="382px" preserveAspectRatio="none" style="width:710px;height:382px;" version="1.1" viewBox="0 0 710 382" width="710px" zoomAndPan="magnify"><defs><filter height="300%" id="fi2uecw4tnrvf" width="300%" x="-1" y="-1"><feGaussianBlur result="blurOut" stdDeviation="2.0"/><feColorMatrix in="blurOut" result="blurOut2" type="matrix" values="0 0 0 0 0 0 0 0 0 0 0 0 0 0 0 0 0 0 .4 0"/><feOffset dx="4.0" dy="4.0" in="blurOut2" result="blurOut3"/><feBlend in="SourceGraphic" in2="blurOut3" mode="normal"/></filter></defs><g><rect fill="#FFFFFF" filter="url(#fi2uecw4tnrvf)" height="130.2422" style="stroke: #A80036; stroke-width: 1.0;" width="10" x="162.5" y="117.7988"/><rect fill="#FFFFFF" filter="url(#fi2uecw4tnrvf)" height="58.6211" style="stroke: #A80036; stroke-width: 1.0;" width="10" x="438.5" y="218.7305"/><line style="stroke: #A80036; stroke-width: 1.0; stroke-dasharray: 5.0,5.0;" x1="26" x2="26" y1="86.4883" y2="295.3516"/><line style="stroke: #A80036; stroke-width: 1.0; stroke-dasharray: 5.0,5.0;" x1="167.5" x2="167.5" y1="86.4883" y2="295.3516"/><line style="stroke: #A80036; stroke-width: 1.0; stroke-dasharray: 5.0,5.0;" x1="309.5" x2="309.5" y1="86.4883" y2="295.3516"/><line style="stroke: #A80036; stroke-width: 1.0; stroke-dasharray: 5.0,5.0;" x1="443.5" x2="443.5" y1="86.4883" y2="295.3516"/><line style="stroke: #A80036; stroke-width: 1.0; stroke-dasharray: 5.0,5.0;" x1="569.5" x2="569.5" y1="86.4883" y2="295.3516"/><line style="stroke: #A80036; stroke-width: 1.0; stroke-dasharray: 5.0,5.0;" x1="673.5" x2="673.5" y1="86.4883" y2="295.3516"/><text fill="#000000" font-family="sans-serif" font-size="14" lengthAdjust="spacingAndGlyphs" textLength="31" x="8" y="83.5352">User</text><ellipse cx="26.5" cy="13" fill="#FEFECE" filter="url(#fi2uecw4tnrvf)" rx="8" ry="8" style="stroke: #A80036; stroke-width: 2.0;"/><path d="M26.5,21 L26.5,48 M13.5,29 L39.5,29 M26.5,48 L13.5,63 M26.5,48 L39.5,63 " fill="none" filter="url(#fi2uecw4tnrvf)" style="stroke: #A80036; stroke-width: 2.0;"/><text fill="#000000" font-family="sans-serif" font-size="14" lengthAdjust="spacingAndGlyphs" textLength="31" x="8" y="307.8867">User</text><ellipse cx="26.5" cy="320.8398" fill="#FEFECE" filter="url(#fi2uecw4tnrvf)" rx="8" ry="8" style="stroke: #A80036; stroke-width: 2.0;"/><path d="M26.5,328.8398 L26.5,355.8398 M13.5,336.8398 L39.5,336.8398 M26.5,355.8398 L13.5,370.8398 M26.5,355.8398 L39.5,370.8398 " fill="none" filter="url(#fi2uecw4tnrvf)" style="stroke: #A80036; stroke-width: 2.0;"/><rect fill="#FEFECE" filter="url(#fi2uecw4tnrvf)" height="30.4883" style="stroke: #A80036; stroke-width: 1.5;" width="88" x="121.5" y="51"/><text fill="#000000" font-family="sans-serif" font-size="14" lengthAdjust="spacingAndGlyphs" textLength="74" x="128.5" y="71.5352">ControlBar</text><rect fill="#FEFECE" filter="url(#fi2uecw4tnrvf)" height="30.4883" style="stroke: #A80036; stroke-width: 1.5;" width="88" x="121.5" y="294.3516"/><text fill="#000000" font-family="sans-serif" font-size="14" lengthAdjust="spacingAndGlyphs" textLength="74" x="128.5" y="314.8867">ControlBar</text><rect fill="#FEFECE" filter="url(#fi2uecw4tnrvf)" height="30.4883" style="stroke: #A80036; stroke-width: 1.5;" width="140" x="237.5" y="51"/><text fill="#000000" font-family="sans-serif" font-size="14" lengthAdjust="spacingAndGlyphs" textLength="126" x="244.5" y="71.5352">FunctionBarAction</text><rect fill="#FEFECE" filter="url(#fi2uecw4tnrvf)" height="30.4883" style="stroke: #A80036; stroke-width: 1.5;" width="140" x="237.5" y="294.3516"/><text fill="#000000" font-family="sans-serif" font-size="14" lengthAdjust="spacingAndGlyphs" textLength="126" x="244.5" y="314.8867">FunctionBarAction</text><rect fill="#FEFECE" filter="url(#fi2uecw4tnrvf)" height="30.4883" style="stroke: #A80036; stroke-width: 1.5;" width="100" x="391.5" y="51"/><text fill="#000000" font-family="sans-serif" font-size="14" lengthAdjust="spacingAndGlyphs" textLength="86" x="398.5" y="71.5352">EventEmitter</text><rect fill="#FEFECE" filter="url(#fi2uecw4tnrvf)" height="30.4883" style="stroke: #A80036; stroke-width: 1.5;" width="100" x="391.5" y="294.3516"/><text fill="#000000" font-family="sans-serif" font-size="14" lengthAdjust="spacingAndGlyphs" textLength="86" x="398.5" y="314.8867">EventEmitter</text><rect fill="#FEFECE" filter="url(#fi2uecw4tnrvf)" height="30.4883" style="stroke: #A80036; stroke-width: 1.5;" width="125" x="505.5" y="51"/><text fill="#000000" font-family="sans-serif" font-size="14" lengthAdjust="spacingAndGlyphs" textLength="111" x="512.5" y="71.5352">AudioController</text><rect fill="#FEFECE" filter="url(#fi2uecw4tnrvf)" height="30.4883" style="stroke: #A80036; stroke-width: 1.5;" width="125" x="505.5" y="294.3516"/><text fill="#000000" font-family="sans-serif" font-size="14" lengthAdjust="spacingAndGlyphs" textLength="111" x="512.5" y="314.8867">AudioController</text><rect fill="#FEFECE" filter="url(#fi2uecw4tnrvf)" height="30.4883" style="stroke: #A80036; stroke-width: 1.5;" width="55" x="644.5" y="51"/><text fill="#000000" font-family="sans-serif" font-size="14" lengthAdjust="spacingAndGlyphs" textLength="41" x="651.5" y="71.5352">Editor</text><rect fill="#FEFECE" filter="url(#fi2uecw4tnrvf)" height="30.4883" style="stroke: #A80036; stroke-width: 1.5;" width="55" x="644.5" y="294.3516"/><text fill="#000000" font-family="sans-serif" font-size="14" lengthAdjust="spacingAndGlyphs" textLength="41" x="651.5" y="314.8867">Editor</text><rect fill="#FFFFFF" filter="url(#fi2uecw4tnrvf)" height="130.2422" style="stroke: #A80036; stroke-width: 1.0;" width="10" x="162.5" y="117.7988"/><rect fill="#FFFFFF" filter="url(#fi2uecw4tnrvf)" height="58.6211" style="stroke: #A80036; stroke-width: 1.0;" width="10" x="438.5" y="218.7305"/><polygon fill="#A80036" points="150.5,113.7988,160.5,117.7988,150.5,121.7988,154.5,117.7988" style="stroke: #A80036; stroke-width: 1.0;"/><line style="stroke: #A80036; stroke-width: 1.0;" x1="26.5" x2="156.5" y1="117.7988" y2="117.7988"/><text fill="#000000" font-family="sans-serif" font-size="13" lengthAdjust="spacingAndGlyphs" textLength="117" x="33.5" y="113.0566">click pause button</text><line style="stroke: #A80036; stroke-width: 1.0;" x1="172.5" x2="214.5" y1="147.1094" y2="147.1094"/><line style="stroke: #A80036; stroke-width: 1.0;" x1="214.5" x2="214.5" y1="147.1094" y2="160.1094"/><line style="stroke: #A80036; stroke-width: 1.0;" x1="173.5" x2="214.5" y1="160.1094" y2="160.1094"/><polygon fill="#A80036" points="183.5,156.1094,173.5,160.1094,183.5,164.1094,179.5,160.1094" style="stroke: #A80036; stroke-width: 1.0;"/><text fill="#000000" font-family="sans-serif" font-size="13" lengthAdjust="spacingAndGlyphs" textLength="118" x="179.5" y="142.3672">handlePauseClick()</text><polygon fill="#A80036" points="297.5,185.4199,307.5,189.4199,297.5,193.4199,301.5,189.4199" style="stroke: #A80036; stroke-width: 1.0;"/><line style="stroke: #A80036; stroke-width: 1.0;" x1="172.5" x2="303.5" y1="189.4199" y2="189.4199"/><text fill="#000000" font-family="sans-serif" font-size="13" lengthAdjust="spacingAndGlyphs" textLength="91" x="179.5" y="184.6777">requestPause()</text><polygon fill="#A80036" points="426.5,214.7305,436.5,218.7305,426.5,222.7305,430.5,218.7305" style="stroke: #A80036; stroke-width: 1.0;"/><line style="stroke: #A80036; stroke-width: 1.0;" x1="172.5" x2="432.5" y1="218.7305" y2="218.7305"/><text fill="#000000" font-family="sans-serif" font-size="13" lengthAdjust="spacingAndGlyphs" textLength="125" x="179.5" y="213.9883">emit('requestPause')</text><polygon fill="#A80036" points="558,244.041,568,248.041,558,252.041,562,248.041" style="stroke: #A80036; stroke-width: 1.0;"/><line style="stroke: #A80036; stroke-width: 1.0;" x1="448.5" x2="564" y1="248.041" y2="248.041"/><text fill="#000000" font-family="sans-serif" font-size="13" lengthAdjust="spacingAndGlyphs" textLength="45" x="455.5" y="243.2988">pause()</text><polygon fill="#A80036" points="662,273.3516,672,277.3516,662,281.3516,666,277.3516" style="stroke: #A80036; stroke-width: 1.0;"/><line style="stroke: #A80036; stroke-width: 1.0;" x1="443.5" x2="668" y1="277.3516" y2="277.3516"/><text fill="#000000" font-family="sans-serif" font-size="13" lengthAdjust="spacingAndGlyphs" textLength="81" x="450.5" y="272.6094">pauseEffect()</text><!--
@startuml
actor User

User -> ControlBar: click pause button
activate ControlBar
ControlBar -> ControlBar: handlePauseClick()
ControlBar -> FunctionBarAction: requestPause()
ControlBar -> EventEmitter: emit('requestPause')
activate EventEmitter
EventEmitter -> AudioController: pause()
deactivate ControlBar
EventEmitter -> Editor: pauseEffect()
deactivate Editor
deactivate EventEmitter

@enduml

PlantUML version 1.2019.09(Tue Aug 27 00:19:51 CST 2019)
(GPL source distribution)
Java Runtime: OpenJDK Runtime Environment
JVM: OpenJDK 64-Bit Server VM
Java Version: 13.0.2+8
Operating System: Mac OS X
OS Version: 10.14.6
Default Encoding: UTF-8
Language: zh
Country: CN
--></g></svg>